<?xml version="1.0" encoding="UTF-8"?>
<svg width="400px" height="95px" viewBox="0 0 400 95" version="1.1" xmlns="http://www.w3.org/2000/svg" xmlns:xlink="http://www.w3.org/1999/xlink">
    <!-- Generator: Sketch 63.1 (92452) - https://sketch.com -->
    <title>aberdeen-standard-investments-vector-logo</title>
    <desc>Created with Sketch.</desc>
    <g id="INV-1.5.1-Brighter-money-[Corporate-Info]-✅" stroke="none" stroke-width="1" fill="none" fill-rule="evenodd">
        <g id="INV-1.5.1-About-Us-@Desktop" transform="translate(-144.000000, -1520.000000)" fill-rule="nonzero">
            <g id="BODY" transform="translate(0.000000, 440.000000)">
                <g id="SECTION-01" transform="translate(120.000000, 80.000000)">
                    <g id="Logos" transform="translate(24.000000, 984.000000)">
                        <g id="aberdeen-standard-investments-vector-logo" transform="translate(0.000000, 16.000000)">
                            <path d="M215.920887,41.7265496 C219.323668,44.0227875 219.924159,46.3865619 219.924159,49.6283096 C219.924159,55.9767321 216.12105,58.8807978 208.648275,59.083407 C205.245494,59.1509434 201.976155,58.6781885 199.50747,57.8677516 C199.50747,56.1793414 199.50747,52.329766 199.50747,52.329766 C201.509106,52.667448 204.044512,53.0051301 206.446476,53.1402029 C209.315487,53.2752757 210.516469,53.2077393 211.584008,52.5323752 C212.317942,52.0596203 212.78499,50.9115014 212.584826,49.8309188 C212.384663,48.7503362 211.917614,48.210045 210.316305,47.1294624 C208.38139,45.8462706 206.513197,44.765688 204.978609,43.8877147 C200.308125,41.1862583 199.107143,39.3627752 199.107143,35.3105906 C199.107143,29.0972409 202.443203,26.4633209 210.249584,26.3957845 C212.918432,26.3957845 216.187772,26.8685394 218.189408,27.4088306 C218.189408,28.4894132 218.189408,33.2169619 218.189408,33.2169619 C215.987608,32.744207 212.851711,32.406525 210.449748,32.3389886 C208.514833,32.2714522 207.313851,32.406525 206.646639,33.1494255 C206.179591,33.6221804 206.112869,34.2300081 206.112869,34.8378358 C206.179591,36.188564 207.046966,36.5937824 208.781718,37.6068286 C210.316305,38.5523383 214.119414,40.5108942 215.920887,41.7265496 M232.000697,59.083407 C233.401843,59.083407 235.670364,58.9483342 237.004788,58.5431157 L237.004788,53.8831034 C235.737085,54.0181762 233.735449,54.0181762 232.934794,53.9506398 C232.267582,53.8831034 232.200861,53.7480306 232.000697,53.4103485 C231.800534,53.0726665 231.800534,52.3973024 231.800534,51.5193291 L231.800534,38.8900204 C231.800534,38.8900204 236.204133,38.8900204 236.671182,38.8900204 L236.671182,34.1624717 C236.137412,34.1624717 231.800534,34.1624717 231.800534,34.1624717 L231.800534,28.1517312 L224.994971,29.3673865 L224.994971,34.1624717 L221.525468,34.1624717 L221.525468,38.8900204 L224.994971,38.8900204 L224.994971,52.5323752 C225.061692,57.4625331 227.263492,59.083407 232.000697,59.083407 M253.284762,53.0726665 L253.284762,47.8048265 C251.016241,47.6697537 249.28149,47.8048265 248.414114,48.2775814 C247.61346,48.6827998 247.07969,49.3581639 247.07969,50.9790378 C247.07969,51.0465742 247.07969,51.181647 247.07969,51.2491834 C247.146411,53.0051301 248.280672,53.8831034 250.148865,53.815567 C251.550011,53.815567 252.417386,53.4103485 253.284762,53.0726665 M250.549193,33.8247896 C256.153774,33.892326 260.090325,36.2561004 260.090325,42.4019137 L260.090325,58.7457249 L253.418204,58.7457249 L253.418204,57.3274603 C251.816896,58.6106521 250.015423,59.083407 247.680181,59.083407 C242.876254,59.083407 240.541012,55.8416593 240.541012,51.7894747 C240.541012,51.6544019 240.541012,51.0465742 240.541012,50.9115014 C240.674454,45.5085886 244.077236,43.8201783 251.149683,43.8201783 L253.218041,43.8201783 L253.218041,42.3343773 C253.218041,41.1187219 252.884435,40.308285 252.217223,39.8355301 C251.416568,39.2952388 250.082144,39.2277024 248.614278,39.2277024 C246.479199,39.2952388 243.810351,39.5653845 242.209042,39.7679937 L242.209042,34.8378358 C244.611005,34.2300081 248.147229,33.8247896 250.549193,33.8247896 M328.079234,53.0726665 L328.079234,47.8048265 C325.810713,47.6697537 324.075962,47.8048265 323.208586,48.2775814 C322.407931,48.6827998 321.874162,49.3581639 321.874162,50.9790378 C321.874162,51.0465742 321.874162,51.181647 321.874162,51.2491834 C321.940883,53.0051301 323.075144,53.8831034 324.943337,53.815567 C326.344483,53.815567 327.211858,53.4103485 328.079234,53.0726665 M325.343665,33.8247896 C330.948246,33.892326 334.884797,36.2561004 334.884797,42.4019137 L334.884797,58.7457249 L328.212676,58.7457249 L328.212676,57.3274603 C326.611367,58.6106521 324.809895,59.083407 322.474653,59.083407 C317.670726,59.083407 315.335484,55.8416593 315.335484,51.7894747 C315.335484,51.6544019 315.335484,51.0465742 315.335484,50.9115014 C315.468926,45.5085886 318.871708,43.8201783 325.944155,43.8201783 L328.012513,43.8201783 L328.012513,42.3343773 C328.012513,41.1187219 327.678907,40.308285 327.011695,39.8355301 C326.21104,39.2952388 324.876616,39.2277024 323.342028,39.2277024 C321.20695,39.2952388 318.538101,39.5653845 316.936793,39.7679937 L316.936793,34.8378358 C319.405477,34.2300081 322.87498,33.8247896 325.343665,33.8247896 M279.17259,58.7457249 L285.978153,58.7457249 L285.978153,41.9291588 C285.978153,37.7419014 283.976517,33.8247896 278.438657,33.8247896 C275.636366,33.8247896 273.501287,34.7027629 271.43293,36.1210276 L271.43293,34.1624717 L265.094416,34.1624717 L265.094416,58.7457249 L271.899979,58.7457249 L271.899979,40.7135034 C272.834075,40.1732122 274.368663,39.5653845 275.636366,39.4303116 C277.037511,39.2952388 277.771445,39.4978481 278.505378,40.308285 C279.039148,40.9161127 279.105869,41.9966952 279.105869,43.4824963 L279.105869,58.7457249 L279.17259,58.7457249 Z M304.459927,53.0726665 L304.459927,38.9575568 C303.592551,38.7549475 301.657636,38.4848019 300.389933,38.7549475 C297.721085,39.3627752 296.987152,41.1862583 296.987152,45.4410521 C296.987152,45.576125 296.987152,47.4671444 296.987152,47.5346809 C297.053873,50.7764285 297.320758,51.8570111 298.254855,52.8700573 C298.922067,53.6129578 299.856164,53.8831034 301.190588,53.8831034 C302.458291,53.8831034 303.592551,53.6129578 304.459927,53.0726665 M304.459927,25.990566 L311.26549,25.990566 L311.26549,58.8132613 L304.593369,58.8132613 C304.593369,58.8132613 304.593369,58.6781885 304.593369,57.3949967 C303.058782,58.6106521 301.457473,59.1509434 298.988788,59.1509434 C293.450928,59.1509434 290.24831,56.0442685 290.24831,49.0880183 C290.24831,48.8854091 290.24831,45.3059793 290.24831,45.1033701 C290.315031,40.1056757 291.516013,37.674365 293.517649,35.7833455 C295.118958,34.2300081 297.587643,33.4871076 300.590097,33.4195711 C301.924521,33.4195711 303.592551,33.554644 304.459927,33.7572532 L304.459927,25.990566 Z M369.980151,53.0726665 L369.980151,38.9575568 C369.112776,38.7549475 367.177861,38.4848019 365.910158,38.7549475 C363.241309,39.3627752 362.507376,41.1862583 362.507376,45.4410521 C362.507376,45.576125 362.507376,47.4671444 362.507376,47.5346809 C362.574097,50.7764285 362.840982,51.8570111 363.775079,52.8700573 C364.442291,53.6129578 365.376388,53.8831034 366.710812,53.8831034 C367.978515,53.8831034 369.046054,53.6129578 369.980151,53.0726665 M369.980151,25.990566 L376.785714,25.990566 L376.785714,58.8132613 L370.113594,58.8132613 C370.113594,58.8132613 370.113594,58.6781885 370.113594,57.3949967 C368.579006,58.6106521 366.977697,59.1509434 364.509012,59.1509434 C358.971152,59.1509434 355.768534,56.0442685 355.768534,49.0880183 C355.768534,48.8854091 355.768534,45.3059793 355.768534,45.1033701 C355.835256,40.1056757 357.036237,37.674365 359.037874,35.7833455 C360.639182,34.2300081 363.107867,33.4871076 366.110321,33.4195711 C367.444745,33.4195711 369.112776,33.554644 369.980151,33.7572532 L369.980151,25.990566 Z M353.633456,33.892326 C350.764444,33.554644 347.628547,34.8378358 346.561008,35.9859547 L346.561008,34.1624717 L339.888887,34.1624717 L339.888887,58.7457249 L346.69445,58.7457249 L346.69445,40.9836491 C348.162317,40.0381393 350.831165,39.2952388 353.633456,39.4978481 C353.633456,39.4978481 353.633456,34.5001537 353.633456,33.892326" id="Shape" fill="#271344"></path>
                            <polygon id="Path" fill="#00A6E4" points="400 0 385.05291 29.5754717 378.571429 16.6320113"></polygon>
                            <path d="M9.37251524,49.2924528 C6.18042672,49.2924528 2.64875431,49.9802545 0,51.9811321 C2.3770872,48.292014 6.45209382,45.1031154 11.5458521,45.1031154 C15.6887755,45.1031154 18.6091969,47.2290478 24.2462894,47.2290478 C28.3212961,47.2290478 32.8038033,46.1660816 36.6071429,43.9150943 C33.5508879,47.9168495 28.5250464,51.4183853 22.6842036,51.4183853 C17.4546117,51.4183853 15.1454413,49.2924528 9.37251524,49.2924528" id="Path" fill="#00A6E4"></path>
                            <path d="M48.288252,34.5950147 C45.8148675,34.5950147 44.0768136,35.0676012 42.8735454,35.5401876 L42.8735454,24.1981132 L38.4615623,24.1981132 L38.4615623,58.4268735 C40.6675538,59.6420957 43.341483,59.9796575 45.7480193,59.9796575 C53.6361104,59.9796575 59.5187546,56.198966 59.5187546,46.5447003 C59.5856029,39.3883914 55.3073162,34.5950147 48.288252,34.5950147 M45.8817158,56.198966 C45.0126888,56.198966 43.8094206,56.1314536 42.8735454,55.7263796 L42.8735454,39.6584408 C44.0099653,39.1858544 45.6811711,38.6457556 47.8203144,38.6457556 C52.5665387,38.6457556 55.1067715,41.3462495 55.1067715,46.6122126 C55.1067715,52.4857869 51.9649047,56.0639413 45.8817158,56.198966 M160.12534,34.5950147 C152.838883,34.5950147 148.694293,39.9960026 148.694293,47.2198238 C148.694293,54.9837437 154.042152,60.0471698 161.729698,60.0471698 C164.002538,60.0471698 166.877012,59.5745834 169.684637,57.75175 L167.946583,54.1060832 C165.874288,55.2537931 164.002538,55.7938919 162.063939,55.7938919 C157.852501,55.7938919 153.70791,53.7685215 153.239973,48.5025584 L170.754209,48.5025584 L170.754209,47.1523114 C170.821057,41.0762001 167.812887,34.6625271 160.12534,34.5950147 M153.440517,44.5193299 C153.975303,40.9411754 156.582384,38.5782433 159.857948,38.5782433 C163.400904,38.5782433 165.740592,40.9411754 166.275378,44.5193299 L153.440517,44.5193299 Z M73.0220971,34.5950147 C65.73564,34.5950147 61.5910498,39.9960026 61.5910498,47.2198238 C61.5910498,54.9837437 66.8720599,60.0471698 74.6264546,60.0471698 C76.8992944,60.0471698 79.7737683,59.5745834 82.5813939,57.75175 L80.9101882,54.1060832 C78.837893,55.2537931 76.9661426,55.7938919 75.0275439,55.7938919 C70.8161055,55.7938919 66.6715152,53.7685215 66.2035776,48.5025584 L83.7178138,48.5025584 L83.7178138,47.1523114 C83.7178138,41.0762001 80.7096435,34.6625271 73.0220971,34.5950147 M66.2704258,44.5193299 C66.8052117,40.9411754 69.4122926,38.5782433 72.6878559,38.5782433 C76.2308121,38.5782433 78.5036519,40.9411754 79.105286,44.5193299 L66.2704258,44.5193299 Z M193.75,46.7472373 L193.75,59.507071 L189.338017,59.507071 L189.338017,47.1523114 C189.338017,41.6838112 187.132025,38.4432186 181.717319,38.4432186 C180.447202,38.4432186 178.842845,38.5782433 177.706425,38.915805 L177.706425,59.507071 L173.294442,59.507071 L173.294442,36.3503358 C175.901523,35.0676012 179.110238,34.5950147 181.851015,34.5950147 C189.739106,34.5950147 193.75,39.3208791 193.75,46.7472373 M136.059978,34.5950147 C128.773521,34.5950147 124.62893,39.9960026 124.62893,47.2198238 C124.62893,54.9837437 129.909941,60.0471698 137.664335,60.0471698 C139.937175,60.0471698 142.811649,59.5745834 145.619275,57.75175 L143.881221,54.1060832 C141.808925,55.2537931 139.937175,55.7938919 137.998576,55.7938919 C133.787138,55.7938919 129.642548,53.7685215 129.17461,48.5025584 L146.688846,48.5025584 L146.688846,47.1523114 C146.755694,41.0762001 143.747524,34.6625271 136.059978,34.5950147 M129.308307,44.5193299 C129.843092,40.9411754 132.450173,38.5782433 135.725737,38.5782433 C139.268693,38.5782433 141.608381,40.9411754 142.143167,44.5193299 L129.308307,44.5193299 Z M102.167925,36.9579469 L99.8950854,40.1985396 C98.0901832,38.9833173 96.2184328,38.4432186 93.945593,38.4432186 C92.8091731,38.4432186 91.2048155,38.713268 90.6031815,39.0508297 L90.6031815,59.507071 L86.1911983,59.507071 L86.1911983,36.2828234 C88.2634934,35.2701382 90.6700297,34.5275024 93.5445036,34.5275024 C96.8200668,34.5950147 99.8950854,35.2701382 102.167925,36.9579469 M117.810411,34.9325765 C116.941384,34.7300394 115.403875,34.5950147 114.133758,34.5950147 C106.446212,34.5950147 100.897809,39.6584408 100.897809,47.4223608 C100.897809,55.1862808 106.847301,60.0471698 114.601696,60.0471698 C117.208777,60.0471698 119.815858,59.507071 122.222394,58.4268735 L122.222394,24.1981132 L117.810411,24.1981132 L117.810411,34.9325765 Z M117.810411,55.7938919 C117.141929,56.0639413 115.938661,56.1314536 114.802241,56.1314536 C109.454382,56.0639413 105.309792,53.093398 105.309792,47.3548485 C105.309792,42.021373 108.384811,38.6457556 114.401151,38.6457556 C115.470723,38.6457556 116.540295,38.713268 117.810411,39.118342 L117.810411,55.7938919 Z M10.452154,51.2705646 L6.44126021,59.507071 L0.892857143,59.507071 L4.8369027,51.6756387 C6.44126021,51.2705646 7.91192127,51.1355399 8.91464471,51.1355399 C9.51627878,51.2030523 9.98421639,51.2705646 10.452154,51.2705646 M31.9104358,50.1903671 L36.6566601,59.507071 L31.108257,59.507071 L27.6989973,52.4857869 C29.1028101,51.9456881 30.5734712,51.2030523 31.9104358,50.1903671 M14.1288066,43.776694 C13.1929314,43.574157 12.190208,43.4391323 11.1206363,43.4391323 C10.3853058,43.4391323 9.64997524,43.5066446 8.98149294,43.6416693 L18.8081827,24.2656256 L29.2365066,44.9244039 C27.632149,45.3969904 25.9609433,45.5995274 24.3565858,45.6670398 L18.8081827,34.1899407 L14.1288066,43.776694 Z" id="Shape" fill="#271344"></path>
                            <path d="M267.704898,78.3748716 C268.773934,77.3065903 270.644745,76.7724496 273.317333,76.7724496 C275.12133,76.7724496 276.992142,77.0395199 278.462065,77.3733578 L278.462065,81.2458777 C277.326215,81.045575 275.789477,80.7785046 274.252739,80.711737 C273.317333,80.6449695 272.582372,80.6449695 272.114669,80.711737 C271.71378,80.7785046 271.446522,80.9788074 271.379707,81.2458777 C271.246078,81.6464832 271.379707,82.0470887 271.914225,82.3809266 C272.98326,83.0486025 275.054515,83.7830459 277.192586,85.1851652 C278.729324,86.1866789 279.464286,87.5887982 279.464286,89.3247554 C279.464286,91.2610153 278.996583,92.2625291 278.061177,93.1972752 C276.925327,94.3323242 274.987701,94.9332324 271.981039,94.9332324 C270.110228,94.9332324 267.972157,94.5993945 266.635863,94.198789 L266.635863,90.5265719 C267.704898,90.7268746 269.442081,90.9271774 271.112448,90.993945 C273.050074,91.0607125 274.11911,90.9271774 274.319554,90.192734 C274.453183,89.7253609 274.386368,89.2579878 273.718221,88.7906147 C272.114669,87.6555658 270.377486,87.1214251 268.43986,85.7860734 C267.170381,84.9848624 266.368604,83.7830459 266.368604,81.846786 C266.435419,80.5114343 266.836307,79.1760826 267.704898,78.3748716 M255.344179,73.5676056 L255.344179,77.0395199 L252.80522,77.0395199 L252.80522,80.4446667 L255.344179,80.4446667 L255.344179,90.2595015 C255.344179,93.7314159 256.880917,94.9332324 260.355281,94.9332324 C261.357502,94.9332324 263.027869,94.7996972 264.03009,94.5326269 L264.03009,91.1942477 C263.094684,91.2610153 261.691575,91.2610153 261.090243,91.2610153 C260.62254,91.1942477 260.555725,91.1274801 260.422096,90.8604098 C260.288467,90.5933395 260.288467,90.1259664 260.288467,89.5250581 L260.288467,80.5114343 C260.288467,80.5114343 263.495572,80.5114343 263.829646,80.5114343 L263.829646,77.1062875 C263.495572,77.1062875 260.288467,77.1062875 260.288467,77.1062875 L260.288467,72.7663946 L255.344179,73.5676056 Z M240.310871,78.4416392 L240.310871,77.0395199 L235.700657,77.0395199 L235.700657,94.6661621 L240.644945,94.6661621 L240.644945,81.7800184 C241.313092,81.3794129 242.448942,80.9788074 243.317533,80.9120398 C244.386568,80.8452722 244.854271,80.9788074 245.388788,81.512948 C245.789677,81.9803211 245.856491,82.7147646 245.856491,83.7830459 L245.856491,94.6661621 L250.800779,94.6661621 L250.800779,82.647997 C250.800779,79.6434557 249.330856,76.8392172 245.321974,76.8392172 C243.384347,76.7724496 241.780795,77.4401254 240.310871,78.4416392 M217.326614,84.9848624 C217.393429,79.2428502 220.800979,76.8392172 225.277564,76.8392172 C228.083781,76.8392172 230.088222,78.0410337 231.090443,79.3763854 C232.493551,81.2458777 232.76081,82.647997 232.693995,86.3202141 C232.693995,86.5872844 232.693995,87.0546575 232.693995,87.3217278 L222.137273,87.3217278 C222.204087,89.1912202 222.939049,90.5933395 225.411193,90.8604098 C227.482449,91.0607125 230.288666,90.5265719 232.092663,90.1259664 C232.092663,90.1259664 232.092663,92.6631346 232.092663,93.7981835 C230.088222,94.5326269 227.883337,94.9332324 225.277564,94.9332324 C220.40009,94.9332324 217.326614,92.4628318 217.326614,86.5205168 L217.326614,84.9848624 M225.143934,80.5114343 C223.473567,80.5114343 222.204087,81.5797156 222.137273,84.1836514 L228.083781,84.1836514 C228.083781,81.5797156 226.881116,80.5114343 225.143934,80.5114343 M204.565006,78.4416392 C204.565006,78.4416392 204.297748,78.6419419 204.030489,78.9090123 C203.228712,77.6404282 201.892418,76.7724496 199.821163,76.7724496 C197.883536,76.7724496 196.480428,77.3733578 195.077319,78.4416392 L195.077319,77.0395199 L190.801178,77.0395199 L190.801178,94.6661621 L195.411392,94.6661621 L195.411392,81.7800184 C196.079539,81.3794129 197.08176,80.9788074 197.950351,80.9120398 C198.885757,80.8452722 199.420274,80.9788074 199.887977,81.512948 C200.222051,81.9803211 200.288866,82.7147646 200.288866,83.7830459 L200.288866,94.6661621 L204.89908,94.6661621 L204.89908,81.7800184 C205.567227,81.3794129 206.569447,80.9788074 207.438039,80.9120398 C208.440259,80.8452722 208.907962,80.9788074 209.375665,81.512948 C209.776553,81.9803211 209.776553,82.7147646 209.776553,83.7830459 L209.776553,94.6661621 L214.386767,94.6661621 L214.386767,82.647997 C214.386767,79.6434557 212.983659,76.8392172 209.30885,76.8392172 C207.371224,76.7724496 205.9013,77.4401254 204.565006,78.4416392 M179.30905,73.5676056 L179.30905,77.0395199 L176.770091,77.0395199 L176.770091,80.4446667 L179.30905,80.4446667 L179.30905,90.2595015 C179.30905,93.7314159 180.912602,94.9332324 184.320152,94.9332324 C185.322373,94.9332324 186.99274,94.7996972 187.994961,94.5326269 L187.994961,91.1942477 C187.059555,91.2610153 185.656446,91.2610153 185.055114,91.2610153 C184.587411,91.1942477 184.520596,91.1274801 184.386967,90.8604098 C184.253337,90.5933395 184.253337,90.1259664 184.253337,89.5250581 L184.253337,80.5114343 C184.253337,80.5114343 187.460443,80.5114343 187.794517,80.5114343 L187.794517,77.1062875 C187.460443,77.1062875 184.253337,77.1062875 184.253337,77.1062875 L184.253337,72.7663946 L179.30905,73.5676056 Z M163.473966,78.3748716 C162.605374,79.1760826 162.204486,80.5114343 162.204486,81.9135535 C162.204486,83.8498135 163.006263,85.05163 164.275742,85.852841 C166.213368,87.1214251 167.95055,87.7223334 169.554103,88.8573823 C170.22225,89.3247554 170.289065,89.7921285 170.155436,90.2595015 C169.954991,90.9271774 168.885956,91.1274801 166.94833,91.0607125 C165.277962,90.993945 163.54078,90.7268746 162.471745,90.5933395 L162.471745,94.2655566 C163.808039,94.7329297 165.946109,95 167.816921,95 C170.823583,95 172.761209,94.3323242 173.897059,93.2640428 C174.832465,92.3292966 175.300168,91.3277829 175.300168,89.3915229 C175.300168,87.7223334 174.632021,86.2534465 173.028468,85.2519327 C170.890397,83.9165811 168.819142,83.1821376 167.750106,82.4476942 C167.215589,82.1138563 167.081959,81.7132508 167.215589,81.3126453 C167.282403,81.045575 167.549662,80.9120398 167.95055,80.7785046 C168.418253,80.711737 169.153215,80.711737 170.088621,80.7785046 C171.625359,80.9120398 173.162097,81.1123425 174.297947,81.3126453 L174.297947,77.4401254 C172.828024,77.1062875 170.957212,76.8392172 169.153215,76.8392172 C166.413812,76.7724496 164.543001,77.3065903 163.473966,78.3748716 M144.231332,84.9848624 C144.231332,79.2428502 147.705696,76.8392172 152.182281,76.8392172 C154.988499,76.8392172 156.99294,78.0410337 157.99516,79.3763854 C159.398269,81.2458777 159.665528,82.647997 159.598713,86.3202141 C159.598713,86.5872844 159.598713,87.0546575 159.598713,87.3217278 L149.04199,87.3217278 C149.108805,89.1912202 149.843767,90.5933395 152.315911,90.8604098 C154.387166,91.0607125 157.193384,90.5265719 158.997381,90.1259664 C158.997381,90.1259664 158.997381,92.6631346 158.997381,93.7981835 C156.99294,94.5326269 154.788054,94.9332324 152.182281,94.9332324 C147.304808,94.9332324 144.231332,92.4628318 144.231332,86.5205168 L144.231332,84.9848624 M152.048652,80.5114343 C150.378284,80.5114343 149.108805,81.5797156 149.04199,84.1836514 L154.988499,84.1836514 C154.988499,81.5797156 153.785834,80.5114343 152.048652,80.5114343 M137.817121,77.0395199 L134.476385,90.4598043 L131.13565,77.0395199 L125.790474,77.0395199 L130.601133,92.9302049 C131.002021,94.3323242 132.004242,94.7996972 133.607794,94.7996972 L135.344977,94.7996972 C136.881715,94.7996972 137.883935,94.3323242 138.351638,92.9302049 L143.162297,77.0395199 L137.817121,77.0395199 Z M113.897458,78.4416392 L113.897458,77.0395199 L109.287243,77.0395199 L109.287243,94.6661621 L114.231531,94.6661621 L114.231531,81.7800184 C114.899678,81.3794129 116.035528,80.9788074 116.904119,80.9120398 C117.973154,80.8452722 118.440857,80.9788074 118.975375,81.512948 C119.376263,81.9803211 119.443078,82.7147646 119.443078,83.7830459 L119.443078,94.6661621 L124.387366,94.6661621 L124.387366,82.647997 C124.387366,79.6434557 122.917442,76.8392172 118.90856,76.8392172 C116.970934,76.7724496 115.367381,77.4401254 113.897458,78.4416392 M100,94.5993945 L105.211547,94.5993945 L105.211547,71.6981132 L100,71.6981132 L100,94.5993945 Z" id="Shape" fill="#898989"></path>
                        </g>
                    </g>
                </g>
            </g>
        </g>
    </g>
</svg>