<?xml version="1.0" encoding="UTF-8"?>
<svg width="92px" height="92px" viewBox="0 0 92 92" version="1.1" xmlns="http://www.w3.org/2000/svg" xmlns:xlink="http://www.w3.org/1999/xlink">
    <!-- Generator: Sketch 63.1 (92452) - https://sketch.com -->
    <title>Brand / Icons / Feature / thumbs-up Copy 4</title>
    <desc>Created with Sketch.</desc>
    <g id="INV-1.5.1-Brighter-money-[Corporate-Info]-✅" stroke="none" stroke-width="1" fill="none" fill-rule="evenodd" stroke-linejoin="round">
        <g id="INV-1.5.1-About-Us-@Desktop" transform="translate(-623.000000, -2130.000000)" stroke="#D03788" stroke-width="3">
            <g id="BODY" transform="translate(0.000000, 440.000000)">
                <g id="SECTION-02" transform="translate(120.000000, 1272.000000)">
                    <g id="Satisfaction" transform="translate(405.000000, 416.000000)">
                        <g id="Brand-/-Icons-/-Feature-/-thumbs-up" transform="translate(96.000000, 0.000000)">
                            <path d="M38.16,37.2180077 L57.12,6.69800771 C57.7282056,5.48132128 58.8166219,4.5736957 60.1227874,4.19399642 C61.4289529,3.81429714 62.8343209,3.99698543 64,4.69800771 L64,4.69800771 C67.3162151,5.97511272 69.5190191,9.14461496 69.56,12.6980077 L68.6,17.8180077 C67.6907266,22.6215914 66.3520195,27.3338405 64.6,31.8980077 L62.04,36.6980077 L74.56,36.6980077 C78.0694938,36.6662848 81.550283,37.3325296 84.8,38.6580077 C88.28,40.1380077 91.8,42.6580077 91.8,46.4180077 C91.8,50.1780077 91.12,51.2180077 90.44,51.9780077 C89.1474073,53.4093774 89.1474073,55.586638 90.44,57.0180077 C91.2488163,57.8729297 91.7058375,59.0012007 91.72,60.1780077 C91.72,63.2180077 87.12,64.7780077 87.12,67.8180077 L87.12,72.3780077 C87.12,76.9780077 82.48,76.9780077 82.48,80.0180077 C82.3928438,83.2064406 81.039893,86.2289903 78.72,88.4180077 C76.8,90.2980077 73,91.9380077 63.44,91.9780077 C57.5623695,92.2829949 51.6719518,91.7168678 45.96,90.2980077 C41.9869418,88.70699 38.2359336,86.6096521 34.8,84.0580077 C32.5002113,82.0963104 31.063601,79.3092864 30.8,76.2980077 C30.4036331,72.404974 28.889425,68.7097507 26.44,65.6580077 C24.075922,63.4551368 20.3919222,63.5201367 18.1070256,65.8050333 C15.822129,68.0899299 15.7571291,71.7739297 17.96,74.1380077 C20.4989709,76.0745926 23.7691068,76.7784783 26.88,76.0580077 C30.8430627,75.4388854 33.792427,72.0681835 33.88,68.0580077 L33.88,44.0580077 L4,44.0580077 L4,86.6180077 L26.04,86.6180077" id="Path"></path>
                        </g>
                    </g>
                </g>
            </g>
        </g>
    </g>
</svg>