<?xml version="1.0" encoding="UTF-8"?>
<svg width="198px" height="40px" viewBox="0 0 198 40" version="1.1" xmlns="http://www.w3.org/2000/svg" xmlns:xlink="http://www.w3.org/1999/xlink">

  <symbol id="m">
    <path xmlns="http://www.w3.org/2000/svg" class="cls-2" d="M37.74705.31959q-4.10022,0-6.943,4.43575l-5.74031,8.92628q0-6.29707-3.33482-9.96677A11.58829,11.58829,0,0,0,12.70846.04578,11.76065,11.76065,0,0,0,3.55134,3.74224Q.18916,7.43872.18917,13.73638V39.20091h3.6082V13.79115a11.36258,11.36258,0,0,1,2.37811-7.612,8.12479,8.12479,0,0,1,6.533-2.79287,8.126,8.126,0,0,1,6.533,2.79287,11.36258,11.36258,0,0,1,2.37811,7.612v4.6l-6.2323,9.36439a19.31009,19.31009,0,0,0-2.10477,3.75122,8.62146,8.62146,0,0,0-.574,3.09408A5.13146,5.13146,0,0,0,14.3212,38.489a6.04783,6.04783,0,0,0,4.34622,1.53336,6.16614,6.16614,0,0,0,4.75625-1.8893,7.3228,7.3228,0,0,0,1.7494-5.17506V19.43167L33.59216,6.453Q35.341,3.71545,37.63771,3.71485a2.98622,2.98622,0,0,1,2.35077.98572,3.986,3.986,0,0,1,.87471,2.73814v31.7622h3.60819V7.32918a7.10741,7.10741,0,0,0-1.80409-5.12029A6.48088,6.48088,0,0,0,37.74705.31959ZM21.72891,32.73894a5.15308,5.15308,0,0,1-.82,3.09408,2.62677,2.62677,0,0,1-2.24145,1.12264,2.48841,2.48841,0,0,1-1.88609-.71191,2.72651,2.72651,0,0,1-.68336-1.97146,5.57128,5.57128,0,0,1,.41-2.10834,19.97143,19.97143,0,0,1,1.44873-2.71074l3.7722-5.85958Z"/>
  </symbol>

  <symbol id="virgin">
    <path xmlns="http://www.w3.org/2000/svg" class="cls-3" d="M86.6826,9.7968A19.373,19.373,0,0,0,50.674,16.4823c-1.2592,8.1251,2.0164,16.6764,9.2479,20.9148A19.8756,19.8756,0,0,0,82.651,35.2726C89.6823,29.0607,91.1972,17.9186,86.6826,9.7968ZM75.0591,12.3055c.0132.0482.0252-.1387.0334-.1449-.0848-.08.3361-.4534.3983-.4968.5789-.4044.6057-.0368,1.0284.0995.0041.0143.0288.1044.0165.1165-.22.3763-1.3843,1.6715-1.4961.4922A.1226.1226,0,0,1,75.0591,12.3055Zm-.776,5.7642c.0318-.085.05-.8083.077-.8057.0082-.0026.01-.0081.0059-.0165-.01-.0029-.0132-.01-.0089-.0207a.4841.4841,0,0,0,.0321-.2284c-.0033-.0042-.0054-.0008-.0089-.0042a.9286.9286,0,0,1,.0263-.2482q.0319-.0028.0072-.0454a1.6382,1.6382,0,0,0,.027-.213.0769.0769,0,0,0-.0038-.075c-.0029-.011.0068-.0178-.008-.0207a.113.113,0,0,0,.0161-.09l-.0047-.0085c0,.0043.03.0017.0191-.0016q-.0238-.0027-.0089-.0284a.0193.0193,0,0,0,.0126-.01.7122.7122,0,0,1,.0115-.2253h.01a1.38,1.38,0,0,0,.0119-.1974c-.0062-.016-.0036-.0273.008-.0339.008.0013.0106-.0123.01-.0153l-.005-.01a.15.15,0,0,1,0-.0276.4568.4568,0,0,0,.0131-.0567.0134.0134,0,0,0,.0106-.0161c-.0131-.001-.0166-.0086-.0106-.0229-.0019-.0234.0139-.0276.0037-.0356a2.8588,2.8588,0,0,1,.0449-.3376c.0122-.0022.012-.0078,0-.0169.0119-.0158-.0038-.0262.0012-.0356a2.0169,2.0169,0,0,0,.0905-.3435,1.1134,1.1134,0,0,1,.4529-.5854c-.0158.0078.09-.0408.0816-.0445.0539.0145.134-.0657.192-.0657a.739.739,0,0,1,.1815-.0161c.1606.0276.2183.0542.2431.1784a.3193.3193,0,0,0-.0047.04c-.0033.0008-.0109.0008-.0093.0059a.0342.0342,0,0,1,.0165.0081c-.0084-.0149-.0241.0691-.0076.0525l.0064.03a.0275.0275,0,0,1,.033-.0148c.0081.0121-.0019.03.0017.0364.0092-.0068.0109-.0059.005.0026a.061.061,0,0,0-.0021.044q.02.0125.0072.0246c.0093.001.0146-.0041.0161-.0152a.0334.0334,0,0,1,.013.027.0959.0959,0,0,1,.0039.1046c-.002-.0082.0166.0563.0169.0551l-.0059.0178a.0271.0271,0,0,0-.0161.0369.0446.0446,0,0,0-.0148.0436l-.0008.01c.01-.0064.0123-.0031.0072.01l-.0072.0008q.0121.011-.01.0132l-.0085-.0013c-.012.0174-.011.0283.003.033.0376.0237-.0573.088-.0271.1008a.0541.0541,0,0,1,.0043.0221l.0059-.0055a.0242.0242,0,0,0,.0262.0055.0289.0289,0,0,1-.0177.0084.0493.0493,0,0,0,.0088.0729q-.0129.0024-.0051.0135c-.0036.0073-.0321.0566-.0321.0564a.0215.0215,0,0,1-.0042.0233c.0043.0086.0461.0373.0089.0373-.0214.0034-.0055.04-.0035.05l.0128.0029a.0759.0759,0,0,1-.0614.0648c-.0082.0093-.009.0175-.0025.0246l-.0038.0038c-.0021.0114.0628.0044.0715.0059a.0262.0262,0,0,0-.02.0352c-.0009.0085-.0072.0047-.0118.0093a.07.07,0,0,0,.0105.0182l-.01.0005-.0017-.0093c-.0025-.0013-.0131.0093-.0114,0a.0175.0175,0,0,1-.0254,0c-.0068.0034.003.0055.0017.01.0051.0025.0064.0152.0072.0186-.0011-.01.0377.0858.0021.0678-.02-.0516-.0016.0948.0076.0432-.0146.053.0092.0044-.027.0292-.0189.0093,0,.08-.0076.0995a.4594.4594,0,0,1-.0039.0568c-.005.0192-.0139.1954.0229.1495.01.0064.0089.0121-.003.017l-.0126.02c-.0123.005-.0112.0071.0029.0063a.0129.0129,0,0,0-.0085.014l.0076-.0055.0178.0076c.0021.0059-.0059.0046-.0084.0081a.0114.0114,0,0,1-.0013.0165c.0061.0056.0058.01-.0009.014l.0123.0169q.0222.0138.0051.0263l-.0021.006q-.0861.1134-.0089.1753l.008.0038h.0089c-.0055.074-.0573.2812-.0021.31-.0627-.0165-.0028.2967.0042.2957A.4068.4068,0,0,1,75.7729,17c-.0326.0076-.04.0209-.0216.04a2.6816,2.6816,0,0,0,.0178.4393.2514.2514,0,0,0-.0918-.0547c-.0044.0385.11.16.0926.186-.0384.0525-.1154-.1362-.1154.07a1.8362,1.8362,0,0,0-.0136.4655.0341.0341,0,0,1-.0067.0415.1691.1691,0,0,0,.0109.03c-.0129.0884.0835.5148-.0025.5693-.0276.5114-.8512.8661-1.2677.826-.0031-.0732-.1771-.2572-.1912-.3876A3.9945,3.9945,0,0,1,74.2831,18.07Zm-7.5042.1135c.0263-.0624.4382-.1459.5125-.1669q-.0053-.0348-.0411-.0068c-.0046-.0343.025-.0258.0513-.0271l.0025-.011a.0171.0171,0,0,0,.02-.0076.0765.0765,0,0,0,.1044-.04c.039-.0242.0683-.0228.1028-.0419q.0256.0271.055-.0127c-.0077-.0076-.0178-.0067-.02-.0165.0148.0009.0186-.0089.03-.0132l.0047-.014h.0055c.0013.0316.0137.0375.0372.0179a.02.02,0,0,0,.0017-.0157c-.0151-.0062.0688-.028.0829-.0377l.0084-.0034c.2762-.1615.5628.0932.6144.3461.0092.0184.0274.04.04.0652l.0072.0009a.0537.0537,0,0,0,.0084.072c-.0045.0155-.0437.2083-.0144.2016.0083.0954-.097.1931-.13.2737-.0374.0036-.111.1-.1391.1283-.0971.0729-.2578.2671-.3763.2842a.4054.4054,0,0,1-.0884.0737l.0038.006a.0861.0861,0,0,0-.0427.0338c-.0042.0034-.0093.0136-.0131.0157a.0314.0314,0,0,0-.0423.0229.0376.0376,0,0,1-.0123.0148.1977.1977,0,0,1-.0638.053l.0071.0046-.0016.0034a.0471.0471,0,0,0-.0449.0233c.0079.061-.24.3365-.28.4036-.0595,0-.0851.1687-.0575.2047-.0361.0782-.1.0391-.0364.1088a1.6026,1.6026,0,0,1-.1645.4753c.0225.0047.0457.0369.0144.0483.0006.0168-.0508.077-.0131.0924a.5156.5156,0,0,0-.0139.099l-.01-.0059c-.01.0089-.0047.0212.01.0183a.0369.0369,0,0,1-.0106.0207.0292.0292,0,0,0,.0164.0084,3.0045,3.0045,0,0,1-.0388.4842c-.0005.0165-.0035.0407.0122.0487-.0848.1029.0154.32-.027.4406a2.4525,2.4525,0,0,0-.0157.4308c-.0079.0009.04.2127-.0122.2152a2.8392,2.8392,0,0,0-.0627.59c-.0615.0138-.3912.5306-.5218.618a.0461.0461,0,0,0-.0342.02c-.0172.0085-.2053.0934-.2064.1016a.0841.0841,0,0,1-.0368.0072c-.0082.0368-.1636.0473-.2059.0635a.499.499,0,0,1-.1645-.0021.5773.5773,0,0,1-.0922-.0414l0-.0242c-.0068-.003-.0089-.0042-.0144-.0009a.1354.1354,0,0,1-.0342-.0216l-.003-.0123c-.1944-.4855-.0036-.95-.1227-1.4266l.0017-.0017a2.2087,2.2087,0,0,0,.0225-.8756c-.0258-.0033.01-.0368-.0039-.0478.0119-.01.0051-.03.0018-.0424-.0241-.0025-.0288-.0834.0042-.0855a3.2855,3.2855,0,0,0,.0681-.3313c-.08-.0633.1712-1.2263.0579-1.2327,0-.1672-.0048-.6214.115-.7289-.2195-.3345.6836-.7342.8623-.8053l-.0005.0034c.0115-.0046.033-.0093.02.01a.0128.0128,0,0,0,.0165-.0157q.0683-.0162.1374-.0263C66.6773,18.1866,66.729,18.1866,66.7789,18.1832ZM61.14,22.1489a.0233.0233,0,0,0-.0258.0207c-.0515.0021-.0375.1845-.0254.16l-.0021.01-.008.0051a.0309.0309,0,0,0-.0021.0246q.0575.0338.008.0266a4.2139,4.2139,0,0,0-.1045.4618c-.0231.1647-.1.2941.0406.374a.05.05,0,0,0,.0152.0406.8128.8128,0,0,1-.049.3351c-.0493.0558-.0191.1569-.09.227l-.0109.0009c.0159-.0095-.0274.0637-.025.0656l-.0046.0025a.5173.5173,0,0,0-.04.0916.0167.0167,0,0,0,0,.0191c.0042.0142-.0855.8517-.0178.84.0046-.0086-.05.015-.035-.0145-.0085-.0088-.0343.0123-.0237.017,0,.0047-.0043.0063-.0064.0106.0025.0124-.0022.0193-.0139.0207-.0034.0059.0008.01.0072.01a.4426.4426,0,0,1,.0042.0906.0354.0354,0,0,1-.0123.0373c.0081.0339,0,.0569-.0232.069a.9031.9031,0,0,0-.088.4541c-.0482.0337-.0431.2658-.0494.302-.0614.1832.0291.4232-.0648.6113a.5113.5113,0,0,0-.0381.2228,2.6378,2.6378,0,0,1-.0384.3478v-.0039c-.0594.0931.003.2469-.0419.3419-.0112.004-.0114.0094,0,.0161a.6154.6154,0,0,0-.0165.1105.6552.6552,0,0,1-.01.0992,3.1006,3.1006,0,0,0-.09.7281,3.67,3.67,0,0,0-.1679,1.1742,2.5348,2.5348,0,0,0-.1733.5693.5236.5236,0,0,0-.0394.0669.0606.0606,0,0,0-.0271.0441c.0818-.0289-.2292.18-.23.18v.0035c.0218.1032-.55.0082-.59-.0039a.0711.0711,0,0,1-.0254-.0364,2.2981,2.2981,0,0,0-.18-.1711c.0093-.2342-.2129-.4781-.1886-.7036a2.3131,2.3131,0,0,0-.0334-.2325.45.45,0,0,1-.0271-.1327.3845.3845,0,0,1-.0245-.138c-.1086-.1414-.0273-.43-.1091-.5846-.0172-.0091-.021-.021-.0114-.0355a5.5677,5.5677,0,0,0-.2406-1.3691.2408.2408,0,0,0-.0668-.0047c-.0017.0077-.0081.017-.0173.0157a2.1074,2.1074,0,0,0,.0126-.5388q-.0109-.1074-.0291-.2139l-.0072-.0051c-.003-.0144,0-.03-.0026-.0453-.0312-.0011-.0428-.2678-.0456-.2987a3.7512,3.7512,0,0,1-.0956-.6459V25.208l-.0156,0a.6527.6527,0,0,0-.0072-.1169c-.3035-.304.0246-2.3607-.3891-2.5136-.0371-.1263-.0157-.2689-.0613-.3969-.03.0182-.0156-.06-.0372-.0631-.0026-.014.0164-.014.0093-.028.0331-.0031-.1654-1.3562-.1873-1.4457-.01.0034-.0229.0356-.0343.0237.1135-.2126-.21-.36-.1172-.5452-.0118-.0011.0044-.5279-.2964-.446a.0262.0262,0,0,1,0,.0216.8264.8264,0,0,1-.041.136c-.002,0-.0356.0258-.0347.0339.0131.003.008.0165.003.0237.0621.0483-.1233.08-.1.0724-.0017.0107-.0047.0259.0042.0335-.0042.0038-.01.0025-.0122.01a.1071.1071,0,0,1-.0026.0484c.0064-.0026.0022-.0085.0042-.014.0489,0-.0745.1154-.0558.0949a1.1277,1.1277,0,0,1-.0926.3045l-.019.0165a.0485.0485,0,0,0-.03.0538.0183.0183,0,0,1-.0157.0242c-.1292.0815-.0722.4647-.1353.5108-.0428.043-.0028.0918-.0249.1318a.0717.0717,0,0,0-.0394.0656l-.0215.0186c-.0055.0109-.0239.0378-.0161.0522.0667.0853-.2767.7547-.35.8425.1987.472-.8.5528-.9955.3988-.5311-.4188.13-.7382-.0244-1.2138a.9289.9289,0,0,0,.134-.3635c-.0081.0026-.0114-.0021-.019-.0016a3.65,3.65,0,0,1,.3-.8154c-.0547-.0211.4309-.9507.3489-1.0417.2149-.7117.5139-2.9711,1.3565-3.2514l-.0016-.0013c.7433-.3084.9315.4327,1.0985.9666.2962.0862.0818,1.7157.31,1.8985l-.0012,0a.0462.0462,0,0,1,.0634.0063,2.9134,2.9134,0,0,0,.0469.588c-.0148.0055-.0224.0025-.0135.022.0182-.011,0,.017,0,.0195a6.3926,6.3926,0,0,0,.1378.8065c.0491.0127.081.4424.148.51-.0912.0767.281.6781.1358.784a1.456,1.456,0,0,1,.151.6647c.0726-.0163.04.7148.0389.734.0388.0081.0343-.028.0668-.0131.0016.0182.02.15-.03.1478a10.1492,10.1492,0,0,0,.0989,1.0234c.1326.0534.079.264.104.3982.044-.0191.0377-.0161.0681.0165-.0326.1091.0648-.0129.0546-.0068a.1334.1334,0,0,1,.0068-.058c.0092,0,.0143-.0059.0232-.0067.055-.8819.2633-1.7422.3657-2.6176a4.3018,4.3018,0,0,1,.3908-1.9958c-.3664-.5271.4177-2.1035.581-2.6361.1529-.4984.2871-.9983.4159-1.5042.1058-.4156.1722-1.5591.5094-1.8437-.1668-.2667.3143-.9823.411-1.2308.3232-.83.599-1.6814.9035-2.5189.1276-.351.7362-2.8875,1.2053-3.0074.0249-.1839.2345-.2723.288-.4291l.0161-.0046a.075.075,0,0,1,.0452-.042c-.1536-.3626,1.3338-.4959,1.6027-.1292.3462.3144.1545.6906.3734.98-.0936.1187-.1128.3658-.2067.5108a.0284.0284,0,0,0-.0086.0233.0744.0744,0,0,0-.0253.0369.1133.1133,0,0,0-.041.111c-.0108-.01-.02-.0107-.0271-.0009-.0785.0148-.0216.1874-.0858.18a.8333.8333,0,0,1-.0947.0911.0427.0427,0,0,0-.0407.0339c-.02.01.0028,0-.0092.0266.0057-.0172-.1322.1072-.1295.1369a.4727.4727,0,0,1-.137.0674.9747.9747,0,0,1-.1619.1918.0419.0419,0,0,0-.0191.039c-.1116-.0134-.41.58-.4846.65l.0042.0063c-.02.0128-.0617.0386-.0291.0606a.0617.0617,0,0,0-.0444.0657c-.0406-.0191-.0275.0677-.033.0876-.0963.0151-.2251.3263-.2508.4181-.0047.1432-.2.244-.18.4012l.0085.0067c-.0586.0679-.1323.4369-.2068.441l.0016.0208a.98.98,0,0,0-.0939.219c-.0181.01.0013.0444-.0261.04a1.6769,1.6769,0,0,0-.1848.45c.0723.0257-.0944.4-.1379.4113-.0153.0306-.1022.2114-.1074.2322.0048.0047-.3471,1.1418-.2187.657-.0935.337-.4738.8522-.422,1.2284a1.8252,1.8252,0,0,0-.1146.6265c-.3317.93-.5828,1.8355-.9007,2.758-.0063.0225-.0134.0449-.0215.0669a1.2357,1.2357,0,0,0-.1764.5129c.0132.1794-.1416.3706-.1383.5575q-.02.011.0026.0182-.0395.018-.0026.0428c-.0512-.0075-.0741.2684-.0871.324a3.84,3.84,0,0,0-.2385,1.14c-.0082.0163-.0056.0242.0076.0237.0873.02-.0354.1286-.0634.1372.0134-.0053-.1007.6743-.1065.7269A3.9031,3.9031,0,0,1,61.14,22.1489Zm2.878.5671-.0114-.0012a2.4254,2.4254,0,0,0-.0926.8378l.01.003a1.1479,1.1479,0,0,1-.03.31c.0368.0351.0109.0991.025.14a.5335.5335,0,0,1-.0453.2227c-.0467.2391-.0075.6231-.0566.6875a.0523.0523,0,0,1-.0487-.0406c-.404.3519-.6834.636-1.2086.4571,0-.0168-.09-.2957-.0951-.3008a6.6043,6.6043,0,0,0,.0528-1.5152l-.0148-.0055a5.0688,5.0688,0,0,0,.08-.6921c.0169-.0415,0-.0958.0131-.1377l.0034.0017a2.182,2.182,0,0,1-.0076-.2385,2.5632,2.5632,0,0,0,.0655-.77c-.1419-.0744.1419-.8443.0634-.9852l.0051-.0119c.1038-.0121.1931-.7263.4-.801.01-.063.0969-.1043.1455-.1232a.082.082,0,0,1-.0135-.0127c.6434-.9134.8735.2766,1.0977.2731.0073.0683-.1356-.0313-.1108.16A6.3585,6.3585,0,0,1,64.0175,22.716Zm.2225-5.1707c-.0331,0-.0617.0493-.0859.0555-.0012.0266-.0744.0046-.0583.0385a.2574.2574,0,0,0-.0423.0169c-.0025.0141-.0292.0115-.0216.0285A.0492.0492,0,0,1,64,17.6825l.0055-.01a.0486.0486,0,0,0-.0529.041c-.0325.0265-.0919-.0078-.1192-.0067l.0017-.0093c-.03-.0032-.0488.0126-.0837.0029-.0136-.016-.0307-.0138-.0513.0069a.029.029,0,0,0-.0152-.0166.1808.1808,0,0,0,.0148-.0165c-.0536-.074-.1044.0124-.1467-.1169a.0518.0518,0,0,1-.0465-.05c-.001.0132-.0072.0157-.0186.0076a.9435.9435,0,0,1-.0334-.26c.014-.6972.7885-.9505,1.3214-1.0844a.023.023,0,0,1,.0034.0131c.0306-.0191.1047.2143.1049.222a1.1985,1.1985,0,0,0,.0609.1038c.002.07-.0173.1422-.0114.2054a.014.014,0,0,1,.0114.0123q-.0342.0312.0042.058l-.0177.0008a1.0116,1.0116,0,0,0-.1324.269c-.011,0-.2349.2518-.2343.2555-.0106-.0035-.0241.0059-.0139.0169-.0308.0187-.1263.1084-.1582.11l-.005.0094A.359.359,0,0,0,64.24,17.5453Zm20.5007-1.0747a1.9413,1.9413,0,0,1-.1244.1818l.0072-.0017a.0272.0272,0,0,1-.03.0271c-.0112.0231.0133.144-.0283.0813.0171.0343-.1929.2753-.2436.2978-.1991.21-2.0014,1.1734-2.182.9344-.0373.0226-.5728.2314-.5629.241a12.3988,12.3988,0,0,1-1.3176.6393l-.0005-.0081a.4248.4248,0,0,1-.2626.1342c-.0176.06-.1728.0555-.1771.1026a.0509.0509,0,0,0-.0537.0326.1647.1647,0,0,0-.0888.0478,5.1347,5.1347,0,0,1-.77.383.9591.9591,0,0,0-.2613.1707.1006.1006,0,0,0-.1007.0457,1.232,1.232,0,0,0-.4359.247.0868.0868,0,0,0-.0525.03,1.74,1.74,0,0,0-.1687.086c.01.1053-2.2693,1.3263-2.4738,1.4542a1.549,1.549,0,0,0-.5468.34c-.011-.0089-.05.0292-.0655.0356-.0009.0271-.1607.114-.1624.1152,0,.0761-.2975.0789-.28.1847-.0047-.001-.549.3285-.5434.3435-.0211.0174-.0464.0246-.0612.0479a1.0771,1.0771,0,0,0-.2555.1745c-.03.021-.0589.043-.0875.0656l0-.0072a.2459.2459,0,0,0-.0373.0251.0136.0136,0,0,1-.0173.0109l-.0084.0064a.0181.0181,0,0,0-.0182.0174.0244.0244,0,0,0-.0144.0263.0434.0434,0,0,0-.041.0279c-.0815.0746-.23.1444-.2871.236-.0161.0037-.0165-.0047-.0276-.0128l-.0194.0314.0068.0025a.0965.0965,0,0,1-.0368.0458c-.03.0084-.0391.0245-.0266.0483a.5013.5013,0,0,1-.0229.2185c.005,0,.0376.3452-.0178.3821.0077-.007-.0361.5778-.0274.624a.0386.0386,0,0,1,.0042.0584.166.166,0,0,1,.0423.0165c-.0943.0478-.0124.4039-.0368.5588a.02.02,0,0,0-.0144.0241c-.0057.0148-.0009.0236.0144.0263-.0078-.0028-.0023.0775.0063.0961a.0507.0507,0,0,1-.016.0288c-.042.0917.048.2879.01.3474a.061.061,0,0,0-.0169.0453q-.0294.0111.008.0229c.0038-.0136.0093-.0142.0166-.0017.0029.0181.027.0209.0224.0334l-.006.0128a.0463.0463,0,0,0,.0072.0732.0764.0764,0,0,0-.0613.02q.0318.0236-.0114.0526c.0034.0148-.0019.0224-.0161.0229v.002c.0173-.04.0454.0437.0486.0564.0047,0,.0081-.003.0123-.0013a.0675.0675,0,0,0,.0064.05.5233.5233,0,0,1,.0021.0639,1.4387,1.4387,0,0,0-.0208.1958.0079.0079,0,0,0,.006.0114c-.004.063-.0248-.0137-.0051.0593a.0126.0126,0,0,0,.0085.0127.1719.1719,0,0,0-.0153.12c-.0044.0288.0244.12-.0021.1389-.0143-.0015-.0213.0045-.0211.0178.0449.0347.0229.0953.0008.14v.0339c-.0075.0348.02.0092-.003.0691-.0146.0222.1061.18.01.2283.02-.0123-.0074.1864-.0131.1821.0121.01.0145.0337.0372.0466a.25.25,0,0,1-.03.0411l.0118.0085c.1306.0942-.0264.0978-.0495.144a.0778.0778,0,0,1-.0072.0381.91.91,0,0,1-.0093.1423c-.02.0494.023.03.0241.0657-.0478-.02.1861.0507.0686.0822-.0849.0252-.045.1767-.1155.291.0013.0122.0261.1562.03.2465.0743.0292.0307.0933.04.1381.0567.0457.0376-.0012.0686.0152a.1842.1842,0,0,1,0,.0611c.0033.0013.003-.0015.0078.0016.02-.0673-.1728.4849-.0333.3507-.02.02-.1938.1047-.0871.1835.0237-.0105.0879-.0481.0845-.0339-.0359.0894.02.0619.0427.1144-.0339.046-.1877.2218-.05.2872,0,.0152-.0076.0279-.0093.0423.0174.0085.0271.0114.0411,0,.0156.0178.0093.0241-.0026.0415l.0144.0038c.0259-.0285.0769-.0075.0491.0212-.0217.0372-.1215.2314.005.1758a2.4128,2.4128,0,0,0,.014.2605q.0667-.0095.0262.0313a.1184.1184,0,0,0,0,.06q.0166.0245-.0034.04c-.0018.0056-.0016.0019-.003.0051v0c-.0121.002-.0093.0209,0,0,.0074-.0854-.048.0816-.0549.1135a.0444.0444,0,0,1-.0009.0292c.0362-.0537.0028.1.0064.1038a.0449.0449,0,0,1,.04.0279q.0065.0249.0329.0169c-.0142.0076.102-.07.0355-.0143q-.0141.0249.0144.0161a.0465.0465,0,0,0,.0258.0237c.0182.03-.0217.0787-.0207.0792-.0108.0074-.01.0146.0021.0216l0,.0085.0118.0008a.3132.3132,0,0,1,.03.1737.02.02,0,0,0,.0181-.0055.0682.0682,0,0,0-.0017.0258c.0132.01.022-.01.0322.0021q-.0145.0412.0169.0043c-.0227.02-.0194.0362.01.0495-.0252.0418-.0977.098-.0525.1385.0042-.0033-.1968.0417-.1167.0534a.019.019,0,0,0,.0169.0144q.0276-.0708.074-.0042l.0118-.0059.003.0038c-.0586.0673-.08.0069-.09.0673l-.0119.0042q.0318.0072.0106.0335c-.0438.0323.0177.2862.1074.1178.04.0016.0154.0886.0241.1029q.0132-.0517.0432-.0042a.1772.1772,0,0,1,.041.0457c-.0053.0187-.0826.0153-.1087.03-.0174-.025.1563.0457.0977.0457-.0024-.0045.1553.0668.0342.08.0123-.0759-.0363-.018-.0173-.0161a.0334.0334,0,0,1-.0511.0161.0356.0356,0,0,0,.02.011q.0489.0411-.0156.0509c.0417.1052-.0966-.0062-.0863-.0081a.04.04,0,0,0,.0055.02l-.01.0051c.0377.0335.0211.0172.0727.0364a.0547.0547,0,0,1,.0279.0521c-.0019-.0219-.1227.0773-.0478.0826a.0139.0139,0,0,1-.0093.0144.0619.0619,0,0,1,.0613.0263l.0064.0021c.0008.011-.0085.0148-.0148.0221.0109.0109.0274-.01.0274-.0221.01.0079-.0233.1243.0157.1152a.0365.0365,0,0,1,.0046-.0178c.0455.0045.0715.069.091.0225.0114.0084.0076.03-.0055.0457-.0709.0112-.0512.0939-.0994.1169a.2781.2781,0,0,1,.0444.031c-.0035-.0069-.066.0556-.0681.0593q-.016.1158.1053.1169c-.0046.0234-.1132.0581-.123.0728-.59.5911-1.28.8075-1.6577-.1478l-.0118-.0008c-.0184.3874-.0939-.519-.0808-.5253.0049-.015.0091-.233-.0135-.2389a2.52,2.52,0,0,0,.0266-.8807c.0124-.3192.0431-2.9309.0918-2.9375a.2774.2774,0,0,1,.0147-.1314.9311.9311,0,0,0-.02-.12.0162.0162,0,0,1,.01-.0207l-.0021-.0051-.0055-.0008a4.4562,4.4562,0,0,1,.0165-1.1941c.1026-.0343-.0638-1.1589-.0085-1.3191.05-.0119-.0262-.68.0207-.77l-.0042-.0051c-.2591.1433-.8141.8193-1.102.7684.0375.0753-.4434.2649-.4364.3592-.1353.0645-.3.3675-.4639.3622l-.0008-.0034c-.01,0-.0144.0064-.0123.0156a.13.13,0,0,0-.0715.0433l.0022-.0026c-.6382.8667-1.8834,1.3742-2.6358,2.171l-.0026-.0077c-.1751.1188-1.0251.7767-1.0119.97-.4537.1628-1.0177.9838-1.3134,1.3191l-.0118-.006c-.0555.0484-.3782.3415-.3578.385a.8784.8784,0,0,1-.2224.2.0368.0368,0,0,0-.0148.0241c-.1541.19-1.285,1.1505-1.2576,1.2954-.8656.5786-.93-.3776-1.2737-.7951.0063-.0131.0275-.0347.008-.0436.0653-.6373.8964-1.1949,1.3411-1.5716.5429-.46,1.1121-1.2873,1.7666-1.5249,0-.02.1869-.1459.167-.1372.0358-.1451.8095-.6564.8035-.6608.0573-.0718.4412-.319.4093-.4016.0512-.0144.2466-.1282.2466-.194.0177-.0085.0122.0131.03.0127-.0093-.0445.0972-.0436.0773-.09.605-.0933,1.129-1.092,1.6911-1.3661-.0012-.0043.0013-.011,0-.0157.0825-.0316.224-.204.2927-.2059,0,.0055.0042.01.0038.0157.0536-.0046.1063-.1176.1717-.1186-.0163-.0854.2521-.115.25-.202-.0459.0221.2-.1272.2393-.1683l-.0008-.0071c.0328-.0168.5651-.3441.5539-.4071.0255,0,.219-.1277.2136-.1542a1.1453,1.1453,0,0,0,.367-.269c.3659-.1541.6453-.639,1.0335-.7578l-.0063-.0038c.0076-.0046.0063-.0076.0169-.0084.0218-.108.3876-.2926.4964-.3461v-.01c-.005,0,.0005-.0008-.0046-.0021q0-.045.0034-.09a.3345.3345,0,0,0,.0076-.069c.024-.002.0151-.08.0173-.0945a.06.06,0,0,1-.0173-.0656,1.1518,1.1518,0,0,0-.0351-.49l-.0195-.0021a.0747.0747,0,0,0-.0757.0538c-.1361.0933-.2622.17-.3966.2487.003.0421-.2312.072-.2711.0876a.0254.0254,0,0,0,.0127.025c-.0068.0261-.2563.0309-.1179.0682-.0035.0214-.1418.0131-.1611,0-.0276-.0289-.0433-.0292-.0474-.0008-.0554.0251-.4045.04-.4132.0694l-.0008.0077c-.0308.0127-.0736-.0136-.1023.0034l.0012.01a.0221.0221,0,0,1-.0185.0025l-.0005-.01c-.1376.0059-.2792-.07-.4085-.06.0072.0081.0017.0085.0026.0178a2.5567,2.5567,0,0,1-.2762-.1724l-.008.0131a3.4665,3.4665,0,0,0-.2744-.3727c.0039-.0041-.1123-.6046-.1231-.6159.0059.0008.0084-.0026.0126-.0034-.0259-.1828.117-1.1234-.0291-1.2055-.0272-.1634.2092-.8652.0913-.9192-.0368-.0585.0654-.2893.0634-.358.0006,0,.1537-.6724.17-.7582a5.9859,5.9859,0,0,1,.288-.6226l.01.002c.0039-.0246.0833-.1841.115-.1876.0021-.004.0591-.1.0685-.0936a1.4871,1.4871,0,0,1,.581-.62.1092.1092,0,0,1,.074-.05c.0072-.0055-.0017-.022.0165-.0136a.4677.4677,0,0,0,.1324-.0986c.0118-.0005.03-.01.0287-.0212a.6823.6823,0,0,1,.8817.0186l.0081-.0038a.2962.2962,0,0,1,.0118.1724.1106.1106,0,0,1-.0347.0851c.1012.02-.0969.243-.04.2728.0034-.03-.0791.0983-.07.0937-.0047.0118-.0148.0258-.0009.033-.0042.0186-.0237.0131-.0376.0136a.3143.3143,0,0,1-.063.1237c-.0068.02-.0292.0067-.0364.0266a.1234.1234,0,0,1-.0761.05l.0017.0127-.0073.0009-.0059.011c-.042-.0378-.0985.2081-.0964.1694a.1374.1374,0,0,1-.0206-.0017c-.0043.0454-.0263.0386-.0576.0644l-.0029-.0051a.182.182,0,0,0-.05.0916.0964.0964,0,0,0-.0127.06l.0042.0009c-.0113.0136-.0194.04-.0321.0509-.0246-.0587-.0438.0815-.0655.0783a.0914.0914,0,0,1-.0055.0432c-.0169-.0055-.0267.0292-.0283.0436-.1543.0408-.2665,1.0647-.3345,1.0713-.0162.01-.0139.1926.0308.1876a.1671.1671,0,0,1-.0122.19c-.0754.3782-.2724,1.0844-.0212,1.436.2109.295.6638.4427.8969.0657l.0118.0063c.1264-.11.72-1.4265.4758-1.5495.0042.0026.0081,0,.0118.0017.0891-.2527-.026-.6293.08-.8591,0-.04-.0006-.0793-.0021-.1189a11.3435,11.3435,0,0,1,.312-2.5141c-.0071-.0059-.0037-.0063-.0033-.0139.005-.0005.0088-.0039.0139-.003a.4852.4852,0,0,1,.2179-.1957.02.02,0,0,1,.0173-.0119c.0054.02.0342-.0059.0486-.0089.0272-.3938.8761.1387.9772.2644.0074-.0208-.1132.3064-.0312.3134a1.2008,1.2008,0,0,0-.02.2528c-.0274,0,.0046.6919-.0233.7621-.09.0107.0305.0012-.02.0741a.0411.0411,0,0,1-.02-.01c-.0419.028.0176.1446.0245.097.044.025-.0275.0457-.0414.05-.0266.43-.0808.8567-.0884,1.3093a2.0209,2.0209,0,0,0-.022.3308v.0017a3.4607,3.4607,0,0,0-.041.5011c.0169.0832-.1.2835-.0026.33a.0227.0227,0,0,1-.024.0216c.0063-.0319-.0166.65-.0089.6269-.03.0587.0008.1656-.0093.2122-.0085.0035-.0161-.0007-.0259.0009-.005.0178-.0164.0852.0115.086.0017.0106-.0393.0483,0,.0394.0092.1783.1007.7915-.05.9217a.12.12,0,0,1,.0144.0737c.0626,0,.0843-.0267.1306-.069a9.2838,9.2838,0,0,1,1.7439-1.09l-.01-.0063c.0015-.0557.3923-.2455.4257-.2733v.0009c.2151-.3195.85-.4482,1.1756-.65a.0268.0268,0,0,1,.0305-.0225.0962.0962,0,0,1,.0347-.0271c.7347-.184,1.2659-.88,1.9811-1.1339.0114-.0683.3275-.1568.3641-.1957l-.0059-.0068c.376-.4627,1.331-.3916,1.4161-1.0335.018-.1359-.2586-.6955-.28-.9264-.0432-.4737.1746-.9391.1047-1.4182-.0059,0-.0114-.003-.0178-.0026-.055-.1619.1132-.4642.0567-.6608-.2784-.1407.1328-.5854-.0857-.7691-.4222-.355-.5709.1481-.9212.2562.0069-.0685-.491.7922-.4275.6658a.0488.0488,0,0,1-.0021.0344c-.0211-.0139-.0341-.01-.0389.0127a.5725.5725,0,0,1,.0025.1673c-.0173.0293.0207.0709-.0257.0894.008-.01.0057.1823-.0457.1271.0242-.0237-.0129.11-.0017.1033.0073.0549-.0122.0656-.06.0928a.074.074,0,0,1,.0783.0364,1.8644,1.8644,0,0,0-.1015.2143c.0489.0642.0442.1575-.01.1856.0321.0427-.0453.0237-.06.0411.0127.02.033.022.0317.0491-.01.0231-.0271.0233-.0516.0009a.1114.1114,0,0,0,0,.0423l.0073.0029q-.0284.0357.0084.0577c-.016-.0622.0977.1365.0807.1211-.0168.0287.0379.2456-.07.1932-.0132-.1861-.0186.07-.0377.0669.0086.0507-.0305.0587.0271.0885-.0093.02.0152.0212.0119.0407a.0387.0387,0,0,0-.055.0169c-.0354.1834-.03.4451.0385.466l.0042.0072.0029-.0051a.0308.0308,0,0,1,.0195.0017c.0041.03-.0173.2221-.02.2635-.09.0439-.0684.0066-.0063.0376-.0792.1718.0132.2539-.0614.2885-.0108.0892.065.1616.0593.25-.05.0071-.0746.1347-.1163.13a1.0432,1.0432,0,0,0-.0563.1558c-.0059.0008-.0089.0055-.014.0073.017.0432-.0458.1772-.0617.16l.01-.0017c.0169.0161-.033.0272-.0415.0085l-.0072.0026c-.0254.4089-1.0467.4846-1.1836.1139a9.58,9.58,0,0,1-.0046-1.0035.3327.3327,0,0,0,.0072-.1173l-.011-.006a.4813.4813,0,0,0,.0165-.1512l.0059-.0084-.0076-.0056c-.0206-.124-.0547-.8855.0647-.992-.0064-.0144-.0212-.028-.0051-.0406-.0469-.0615.02-.2084.0085-.2746.0063-.0071.0046-.0021,0-.0089a3.0573,3.0573,0,0,1,.3345-2.0736c.2811-.3243.5578-.295.9357-.3994.3449-.0952.7893-.28,1.1372-.3476l-.0038-.01a1.5366,1.5366,0,0,1,1.7413-.6854c.0029.0083.1442.13.13.13.028-.0648.0919.1366.0973.1919.0079.0043.087.17.1285.2326-.0071.0165-.0439.0042-.0583.0046.0083-.0311.1376.68.011.6163,0-.0054.04.1887.0541.2136.0271,0,.011.0444.0406.019-.0037-.04-.0915.1841-.0659.1546.017.0388-.01.1622.0562.1851a.03.03,0,0,0-.0123.0292.5227.5227,0,0,1-.0905-.0038.3875.3875,0,0,0,.0567.3071c-.0534-.0555-.0667.7783-.0676.7943.0139.0544.021.0971-.0115.12-.03.0983.1385.2384.07.3413-.0074.1146-.1617.6023.011.6808.0025.01-.0592.0673-.0181.0639.001.0062.136.2194.0088.2038q.0152.0522.0554.0123c.022-.0064.01.0233.03.0249a.1016.1016,0,0,1-.0008.03c-.0009.002.0021.0055.0008.01l-.0067.0072c-.0256.0623.1651.21.1979.216l-.0013.0119c.0469-.0035.439-.0006.4444-.0919.8567-.2154.1636-.087.2859-.136a.8786.8786,0,0,0,.2689-.1342c.0059.0055.0131.0076.0187.002-.0081-.0161.0321-.0161.0371-.0326a1.0788,1.0788,0,0,0,.3777-.2088l.0084.0068a2.0585,2.0585,0,0,1,.3451-.17c.0338-.1971.752.0065.847-.0245-.01-.0106-.0237-.0119-.02-.0306.0166.0017.0258.0221.0368,0a.0816.0816,0,0,0,.0753.0636c.0012-.0131-.0127-.0119-.0136-.0242.1141-.02.1643.2854.2462.2928,0,.0114.111.2993.0516.2922-.0153.0369-.0045.0585.0321.0648C84.7715,16.4529,84.75,16.4719,84.7407,16.4706Z"/>
  </symbol>


    <use xmlns:xlink="http://www.w3.org/1999/xlink" xlink:href="#m" fill="#E10A0A"></use>
    <use xmlns:xlink="http://www.w3.org/1999/xlink" xlink:href="#virgin" fill="#E10A0A"></use>

    <path xmlns="http://www.w3.org/2000/svg" d="M198.18917.86721a108.87268,108.87268,0,0,1-6.48025,16.018A103.59348,103.59348,0,0,1,183.3147,31.0413l-5.85136,8.15961h-4.37486l7.656-10.35009L165.8153.86721h4.10143L183.04127,25.5103a95.46864,95.46864,0,0,0,6.2068-11.44534A109.12921,109.12921,0,0,0,194.41586.86721ZM123.98125,36.0247H122.122L107.41154,4.75534Q105.38817.3196,101.17739.31959a5.82615,5.82615,0,0,0-4.34751,1.69764,5.986,5.986,0,0,0-1.66793,4.381V39.20091h3.60926V6.50774a2.92644,2.92644,0,0,1,.65623-1.97145,2.07251,2.07251,0,0,1,1.64057-.76668q1.69464,0,2.953,2.73813l15.36665,32.69317h8.20284V.86721h-3.60926Zm14.84911-14.56681h21.24337V18.11737H138.83036V4.26247h22.82923V.86721H135.2211v38.3337h26.60255V35.80565H138.83036Z" fill="#E10A0A" />

</svg>