<svg xmlns="http://www.w3.org/2000/svg" xmlns:xlink="http://www.w3.org/1999/xlink" version="1.1" class="visually-hidden">
  

	<symbol id="logo">
    <path d="M48.63,0a48,48,0,1,0,48,48A48,48,0,0,0,48.63,0ZM65.72,28.71c1.44.92-2,5.06-3.1,2.37C62.15,29.81,64.59,28,65.72,28.71Zm-5,16.72c0-.37.08-.74.11-1.06.06-.65.17-1.36.22-2s.14-1.69.19-2.3c.13-1.49.06-3.52,1.41-4.6a1.64,1.64,0,0,1,1.45-.38c.46.2.16.55.35.7,0,0,0-.09.1,0a2.06,2.06,0,0,1,0,.25,0,0,0,0,0,0,0c.09,0,0,.72,0,.7s-.21.34,0,.42c.09.29-.24.57-.24.85,0,0,.15,0,.17,0s-.07.18,0,.15-.11,0-.11,0,.13.17,0,.21.06.13.07.15-.2.92-.06.77-.05.12-.05.1a3.45,3.45,0,0,1,.05.66,3.46,3.46,0,0,0,0,.8.16.16,0,0,0,.08-.06c-.09,0,0,1,0,1s-.16.19-.11.18c-.45.11.22.85.06,1s-.17-.16-.17-.16,0,.37.14.32,0,.15,0,.15-.19-.14-.22-.12c-.19.1-.06,1.31-.08,1.55a7.39,7.39,0,0,1,0,1.58c-.31,1-2.68,2.68-3.34,1.16A4.87,4.87,0,0,1,60.67,45.43ZM45.58,43.61c.8-.21,1.34.54,1.43,1.19.16,1.09-1.1,1.76-1.8,2.33a3.59,3.59,0,0,0-.64.65c-.2.25-.91,1.18-.68,1.42-.16.22-.13.61-.22.89s-.11.23-.18.47a3.35,3.35,0,0,0,0,.85c0,.52-.05,1.05-.08,1.61-.08,1.72.18,3.71-1.53,4.72-2.14,1.27-2.27-.91-2.09-2.58.08-.68,0-1.39,0-2.06s.14-1.25.2-1.9a28,28,0,0,1,.34-4.4,2.55,2.55,0,0,1,1-1.59c.21-.15,1.17-.46,1.19-.49.55.09,1.39-.38,1.91-.52,0-.06,0-.06-.09,0A6,6,0,0,1,45.58,43.61ZM30,52.88c-.06.37,0,.73-.07,1.11,0,0-.26.69-.08.59-.24.15-.33,1.13-.37,1.48-.06.56.28.61.16,1.3-.06.4-.37.8-.45,1.26a4,4,0,0,0-.16,1.27c0,.12.24.19.23.34s-.24.2-.21.14a6.35,6.35,0,0,1-.24.78,10.57,10.57,0,0,0-.22,1.48c-.07.5-.12,1.08-.18,1.59a5,5,0,0,1-.18,1.35A26,26,0,0,1,27.81,69c-.17,1.17-.09,3-.88,4a1.59,1.59,0,0,1-1.82.46,1.78,1.78,0,0,1-.84-1.4C24,71,23.86,70,23.67,68.84c-.1-.61-.2-1.33-.32-1.94-.06-.3-.09-.47-.13-.74s0-.7-.38-.75c0-.07.22-.2.2-.32s-.19-.3-.22-.51,0-.72,0-1.07c-.11-.74-.23-1.46-.33-2.22-.29-2.1-.65-4.48-1-6.68-.21-1.32-.28-2.82-.62-4.19,0,0,0,0-.08.06.17-.31-.13-.67-.21-.92s.05-.41,0-.52,0-.37,0-.39c-.07-.19-.21.07-.23.05s0-.93-.55-.56c-.3.2,0,.57-.41.67l0,.22s.12,0,.12.06-.29,0-.3,0,0,.21.06.14c.14.14-.28.68-.32.81a6.76,6.76,0,0,1-.3,1.25s-.3-.08-.15.07h.09s-.19.52-.2.53a1.08,1.08,0,0,0-.06.57,3.81,3.81,0,0,0-.38.63c-.1.23-.19.37-.29.62s-.17.72-.28.94a3,3,0,0,1-.93.58A1.49,1.49,0,0,1,15,55c-1-.88,0-2.6.36-3.64.7-2.21,1.47-4.53,2.27-6.89.35-1,.69-2.12,1-3.14s.63-2.11,1.73-2.31c2-.37,2.17,2,2.38,3.36a34.94,34.94,0,0,1,.57,3.55.11.11,0,0,1,.15,0c-.18.11.11.93.12,1.18a2.83,2.83,0,0,0,.15,1,8.75,8.75,0,0,1,.13,1.25,7,7,0,0,0,.23.88c.07.25.16.43.25.72s0,.45.07.67.17.21.18.31-.1.19-.11.14A11.88,11.88,0,0,0,25,54a1.47,1.47,0,0,1,.07.92c0,.11-.17.75,0,.81s.13-.1.2-.07-.22.18-.13.34.11-.09.12,0a8.43,8.43,0,0,1,.17,2.46c.22.09.19,1.22.46,1.1.42-.21.41-2.42.47-2.81.2-1.28.4-2.54.61-3.81.39-2.29.75-4.58,1.26-6.84.92-4.12,2.05-8.26,3.17-12.26.63-2.22,1.55-4.38,2.32-6.57s1.55-4.32,2.37-6.47c.63-1.62,1.21-3.62,2.82-4.49a2.68,2.68,0,0,1,2.8.26,2.72,2.72,0,0,1,1,2.24,2.35,2.35,0,0,1-.23,1.05c-.12.26-.42.52-.41.78-.06,0-.5,1-.69.8,0,0,0-.05,0-.07s-.19.5-.23.36.09-.12,0-.12a5.89,5.89,0,0,0-.72.79A15.61,15.61,0,0,0,39.19,24a27.74,27.74,0,0,0-1.78,3.67c-.42,1-.74,2.11-1.24,3.12a15.16,15.16,0,0,0-.77,2.1c-.3.92-.57,1.91-.8,2.81-.32,1.31-.94,2.66-1.21,4.06a4.75,4.75,0,0,1-.25,1.52,4,4,0,0,0-.41.74c-.07.19-.08.4-.15.59a22.58,22.58,0,0,0-.88,2.47c-.28,1-.45,2.07-.7,3.18-.12.52-.09,1.19-.22,1.55-.07.17-.15.14-.22.32a1.63,1.63,0,0,0,0,.69c0,.27.06.6-.13.82A4.28,4.28,0,0,0,30,52.88Zm7.35-3.22a1.45,1.45,0,0,1,0,.47c0,.43-.16.92-.22,1.36-.17,1.21-.29,2.41-.42,3.63a22.17,22.17,0,0,0-.32,2.58,8,8,0,0,1,0,1.2,6.39,6.39,0,0,0-.24,1.36s.2,0,.22,0c.17.09-.16.54-.24.23a5.52,5.52,0,0,1-1.7,1.3.94.94,0,0,1-1.34-.84,18.9,18.9,0,0,1,.1-3.68c0-.64.13-1.45.19-2,.23-1.84-.12-3.83.59-5.58a3.23,3.23,0,0,1,1.82-1.92c.5-.21,1-.28,1.35.2.12.18.1,1,.36,1,0,0-.25.21-.26.23C37.18,49.33,37.36,49.51,37.38,49.66Zm-.82-6.18a1,1,0,0,1-1.17-1,3.17,3.17,0,0,1,2-2.56c.35-.16.85-.33,1.16-.09.16.13.52.91.4,1.12s-.09.43-.28.74a4.43,4.43,0,0,1-.6.77A4.54,4.54,0,0,1,36.56,43.48Zm48.59-2.59c-.22,0-.05.23-.15.37-.8,1.17-2.43,1.74-3.91,2.21a32.64,32.64,0,0,0-4.45,1.81c-2.15,1-4.24,2.2-6.34,3.35-2.35,1.3-4.67,2.72-7,4.13-1.67,1-3.13,2-4.64,3.07-.39.27-1.05.74-1.13,1.1a3.4,3.4,0,0,0,0,.85.88.88,0,0,0,.07.29c0,.14-.21.22-.21.37s.13,0,.12,0a4.65,4.65,0,0,0,0,1.49s0,.19,0,.19,0-.08-.11-.06c.12,0-.06,2.57,0,2.59a.26.26,0,0,1,.15.25s-.2.23-.23.27.17,0,.15,0a1.87,1.87,0,0,0,0,.4c-.07.15-.06.41-.14.57,0,0,0,1.3-.07,1.21a.87.87,0,0,1,.14.47,4.09,4.09,0,0,0-.09.61s.06-.11.1-.1-.09.2-.09.22.06,0,.08,0,0,.43.07.35c-.14.17-.22.13-.28.33,0,0,.06.31,0,.32s0-.07.1,0a.18.18,0,0,1-.05.07c.06,0,.38.15.16.19s-.26,0,0,.21c0,.08-.05.11-.13.09s.15.12.1.25-.2.09-.24.14.2,0,.21,0-.08.06-.09.08c0,.21-.13.44,0,.66,0,.07.14-.09.13-.05s-.1.25,0,.31.06-.11.11-.08-.1.16-.1.22.11-.07.12-.07c-.05.19-.29.21-.3.39a3.59,3.59,0,0,0,.22.44c-.18.18-.29,0-.24.31s.12,0,.17,0,.15.28.17.32c-.15.18-.26.21-.2.53,0,.09.31.43.32.36,0,.09-.29.31-.2.42a1.61,1.61,0,0,0,.22,0c-.16-.07,0,.28.05.29s-.06.34-.05.37.06.18,0,.28,0,.06,0,.09,0,0,0-.09,0,0,0,0c-.19,0,0,.89.12.77s0-.11.08-.13,0,.46,0,.4c.05.2.18.6.28.53.11.09-.23.33-.1.44-.09.08-.24,0-.32.08l.08.08c.11-.1.08,0,.21,0-.08.1-.2,0-.25.08s0,.9.29.45c.1,0,0,.21.06.24.06-.15.1.08.19.1s-.17,0-.25.07.61.26.31.3c0,0,0-.08,0-.1s-.14.09-.15.1c.22.28-.12.11-.19.13s.15.29.15.29,0,.39.06.33a.07.07,0,0,0,.07-.06s-.06.3,0,.28.19.1.23,0a3.11,3.11,0,0,1-.25.38s.09.08.11.08c.09.18-.38.13.08.41,0,0-.3.22-.34.28-.36.42-.42.75-1,1a2,2,0,0,1-2.69-1,10.31,10.31,0,0,1-.31-4c.11-3.38.2-6.6.21-9.85,0-1,0-1.94,0-2.91,0-.6,0-1.17,0-1.76a4,4,0,0,0,0-1.25,40.37,40.37,0,0,0-4.65,3.5c-1.66,1.3-3.3,2.73-5,4.09a86,86,0,0,0-9,8.88c-1.09,1.18-2.78,3.6-4.62,2.2-1.54-1.19-.09-2.87.83-3.84,1.2-1.26,2.48-2.46,3.77-3.61,3.93-3.55,8-6.86,12.11-10,1.94-1.48,3.91-3,5.89-4.42.48-.34.57-.32.66-.83a4.69,4.69,0,0,0,0-.75c0-.61,0-.94-.53-.55a5,5,0,0,1-.73.5c-.16.07-.94.21-1,.35a.09.09,0,0,0,.12.05s-1.62.21-1.75.22a2.44,2.44,0,0,1-2-1,5,5,0,0,1-.52-3,29.87,29.87,0,0,1,.15-3.78c.35-2.63,1.3-5.77,3.91-7,.53-.25,1.58-.55,1.82.15a2.08,2.08,0,0,1-.4,1.59c-.29.44-.66.77-.93,1.18a11.13,11.13,0,0,0-.81,1.85,6.73,6.73,0,0,0-.3,2.35,19.06,19.06,0,0,0-.18,2.9c.15,1.28,1.21,1.46,2.15.77s1.06-2.21,1.2-3.37c.25-2,.35-3.84.53-5.95.09-1-.08-2.29.65-3A2.09,2.09,0,0,1,57,38.07c.8-.07,1.15.4,1.52.87,0,.05-.11,0-.12.05a14.94,14.94,0,0,0,0,1.52,6.42,6.42,0,0,0-.14.86c0,.22.12.51,0,.71-.18,0,0,.49,0,.44A3.5,3.5,0,0,0,58.11,44a23.13,23.13,0,0,0-.17,2.48c0,.21-.33,1.85-.1,2,0,.18-.11.61-.11.81s0,.45,0,.65c0,.47,0,.73,0,1.18s-.1,1-.1,1.54.07.51.51.2a64,64,0,0,1,7.5-4.57c1-.5,2.09-1.24,3.12-1.85,1.31-.77,2.6-1.45,3.9-2.2.45-.26.91-.5,1.36-.77.21-.13.88-.4,1-.61s-.18-.29-.42-.56a1.67,1.67,0,0,1-.38-.87,26.18,26.18,0,0,1,.09-4.16c0-.53.13-1.23.14-1.91s.28-1.78-.51-2.09a1.71,1.71,0,0,0-1.5.49c-.19.16-.25.38-.39.55a2.45,2.45,0,0,1-.6.42s.08.2,0,.3-.21.1-.28.25a2.18,2.18,0,0,0-.11.52,6.35,6.35,0,0,0-.21.76c.19.3-.11.06-.13.11s.15.22.15.27-.16.24-.21.27a.2.2,0,0,1,.19.08c0,.11-.3,0-.29.15s.08.2.08.28c0,.29.21.29-.08.5l-.12.12s.11.13.1.14a.12.12,0,0,1-.14,0c-.07.16.26.75.29.89s-.22.1-.23.1a.29.29,0,0,0,0-.16c-.08-.06,0,.63,0,.62-.39.07,0,1.14-.11,1.21.05,0,.07-.08.14-.05s-.16.28-.18.37.14.16.13.25a.22.22,0,0,0-.16,0c0,.05.19.08.19.1s-.06.22-.06.32-.11.46,0,.48a.91.91,0,0,0-.11-.16c0,.22.11.45.08.6s-.1.1-.15.21-.17.34-.23.48c-.18.48-.4.62-1,.93-1,.55-2.08.5-2.12-.83,0-.8.08-1.64.11-2.41.09-2,.15-3.94.28-5.95a3.21,3.21,0,0,1,1.48-2.84,3.76,3.76,0,0,1,1.66-.35,7.58,7.58,0,0,0,1.17.08c1-.18,1.56-1.38,2.34-2a3.93,3.93,0,0,1,1.56-.7,2.15,2.15,0,0,1,1.39.18c.06,0,.41.41.4.26a1,1,0,0,0,.21.46c.1.16.1.4.22.59,0,.1-.13,0-.11.3s.14.13.21.18,0,.35,0,.39c-.08-.13-.47.71-.28.84s.17-.19.2-.14-.09.59.06.46c0,0-.22.16-.2.29a2.44,2.44,0,0,1,.16.52c0,.08-.19.07-.19.06s.06.49.1.38-.32.41,0,.38c-.52,0,0,1.6-.19,1.76a5.22,5.22,0,0,1,0,.56c0,.1.29.42.16.62,0-.07,0-.1,0-.09s-.14.62-.13.51a.71.71,0,0,0,0,.26s.11-.16.13-.09-.09.31,0,.25-.18.64.09.77c.07.38-.07.62.15.9.55.69,1.21.43,2.1,0,.56-.27,1.13-.61,1.74-.94a4.84,4.84,0,0,1,1.29-.52c.47-.1,1.11.21,1.52.08-.18-.19.25.07.22.07s.88,1.09.7,1.14c0,0-.14.21-.14.21a1.29,1.29,0,0,1,.18.14S85,40.88,85.15,40.89Z"/>
  </symbol>
  <symbol id="logo-outline">
    <path d="M30.47,51.68a4.12,4.12,0,0,0-.36,1.24c-.06.37,0,.74-.07,1.12,0,0-.26.68-.08.58-.24.15-.33,1.13-.37,1.49-.06.56.28.6.16,1.3-.06.4-.37.79-.45,1.25a4,4,0,0,0-.16,1.27c0,.13.24.19.23.34s-.24.2-.21.15a6.28,6.28,0,0,1-.24.77,10.57,10.57,0,0,0-.22,1.48c-.07.5-.12,1.09-.18,1.59a5.13,5.13,0,0,1-.18,1.36,25.81,25.81,0,0,1-.45,3.46c-.17,1.18-.09,3-.88,4a1.59,1.59,0,0,1-1.82.46,1.76,1.76,0,0,1-.84-1.39c-.26-1.12-.41-2.09-.6-3.26-.1-.6-.2-1.33-.32-1.93-.06-.3-.09-.48-.13-.74-.06-.42,0-.7-.38-.75,0-.08.22-.2.2-.33s-.19-.29-.22-.5,0-.72,0-1.08c-.11-.73-.23-1.45-.33-2.22-.29-2.1-.65-4.47-1-6.68-.21-1.32-.28-2.81-.62-4.18a.08.08,0,0,1-.08.05c.17-.31-.13-.66-.21-.92s.05-.4,0-.52,0-.37,0-.39c-.07-.19-.21.08-.23.05s0-.92-.55-.55c-.3.19,0,.56-.41.67l0,.21s.12,0,.12.06-.29,0-.3,0,0,.21.06.13c.14.15-.28.69-.32.81a6.68,6.68,0,0,1-.3,1.26s-.3-.08-.15.06h.09s-.2.53-.2.54a1.18,1.18,0,0,0-.07.56,5.58,5.58,0,0,0-.37.63c-.1.23-.19.37-.29.62s-.17.72-.28.94a3,3,0,0,1-.93.58A1.48,1.48,0,0,1,15.1,55c-1-.89,0-2.61.36-3.65.7-2.2,1.47-4.53,2.27-6.89.35-1,.69-2.12,1-3.14S19.4,39.22,20.5,39c2-.37,2.17,2,2.38,3.37a34.94,34.94,0,0,1,.57,3.55.11.11,0,0,1,.15,0c-.18.11.11.94.12,1.18a2.85,2.85,0,0,0,.15,1A8.75,8.75,0,0,1,24,49.36a7.54,7.54,0,0,0,.23.88c.07.24.16.43.25.71s0,.45.07.67.17.21.18.31-.1.2-.11.14A11.88,11.88,0,0,0,25,54a1.47,1.47,0,0,1,.07.92c0,.11-.17.76,0,.81s.13-.1.2-.06-.22.18-.13.33.11-.09.12,0a8.36,8.36,0,0,1,.17,2.45c.22.09.19,1.22.46,1.1s.41-2.41.47-2.81c.2-1.27.4-2.54.61-3.81.39-2.29.75-4.57,1.26-6.83.92-4.12,2.05-8.26,3.17-12.26.63-2.23,1.55-4.38,2.32-6.58s1.55-4.32,2.37-6.46c.63-1.63,1.21-3.62,2.82-4.5a2.7,2.7,0,0,1,2.8.26,2.73,2.73,0,0,1,1,2.24,2.42,2.42,0,0,1-.23,1.06c-.12.25-.42.51-.41.77-.06,0-.5,1-.69.81,0,0,0-.06,0-.08s-.18.5-.22.36.09-.11,0-.11a5.33,5.33,0,0,0-.72.79A14.48,14.48,0,0,0,39.27,24a28.36,28.36,0,0,0-1.78,3.67c-.42,1-.74,2.11-1.24,3.13a14.58,14.58,0,0,0-.77,2.09c-.3.93-.57,1.91-.8,2.81-.32,1.31-.94,2.67-1.21,4.06a4.86,4.86,0,0,1-.25,1.53,4,4,0,0,0-.41.73c-.07.2-.08.41-.15.59a24.18,24.18,0,0,0-.88,2.47c-.28,1-.45,2.08-.7,3.19-.12.52-.09,1.18-.22,1.54-.07.18-.15.14-.22.32a1.64,1.64,0,0,0,0,.69C30.6,51.12,30.66,51.45,30.47,51.68ZM39,41c-.13.24-.09.43-.28.73a4.33,4.33,0,0,1-2.06,1.77,1,1,0,0,1-1.17-1,3.17,3.17,0,0,1,2-2.56c.35-.16.85-.33,1.16-.08S39.1,40.8,39,41ZM37.58,49s-.25.21-.26.23c-.06.18.12.35.14.5a1.51,1.51,0,0,1,0,.48c0,.42-.16.92-.22,1.36-.17,1.21-.29,2.41-.42,3.62a22.17,22.17,0,0,0-.32,2.58A8.17,8.17,0,0,1,36.47,59a6.18,6.18,0,0,0-.24,1.36s.2-.05.22,0-.16.54-.24.23a5.7,5.7,0,0,1-1.7,1.31A1,1,0,0,1,33.17,61a18.92,18.92,0,0,1,.1-3.68c0-.64.13-1.45.19-2,.23-1.83-.12-3.83.59-5.58a3.26,3.26,0,0,1,1.82-1.92c.5-.2,1-.27,1.35.2C37.34,48.18,37.32,49,37.58,49Zm5-4.21c.55.1,1.39-.38,1.91-.52,0-.05,0-.06-.09,0a7.24,7.24,0,0,1,1.28-.57c.8-.2,1.34.54,1.43,1.19.16,1.09-1.1,1.76-1.8,2.33a3.94,3.94,0,0,0-.64.65c-.2.25-.91,1.19-.68,1.42-.16.22-.13.61-.22.9s-.11.22-.18.46a3.35,3.35,0,0,0,0,.85c0,.53-.05,1-.08,1.61-.08,1.72.18,3.72-1.53,4.73-2.14,1.26-2.27-.91-2.09-2.58.08-.69,0-1.4,0-2.06s.14-1.26.2-1.91a28.07,28.07,0,0,1,.34-4.4,2.55,2.55,0,0,1,1-1.59C41.58,45.1,42.54,44.79,42.56,44.76Zm42.9-4.6s-.14.21-.14.21.11.07.18.14-.41.41-.27.42c-.22,0,0,.23-.15.37-.8,1.17-2.43,1.74-3.91,2.21a34,34,0,0,0-4.45,1.81c-2.15,1-4.24,2.2-6.34,3.36-2.35,1.29-4.67,2.71-7,4.12-1.67,1-3.13,2-4.64,3.07-.39.28-1,.74-1.13,1.1a3.42,3.42,0,0,0,0,.85,1.07,1.07,0,0,0,.07.3c0,.14-.21.22-.21.36s.13,0,.12,0a4.65,4.65,0,0,0,0,1.49.79.79,0,0,1,0,.2c-.05,0,0-.09-.11-.07.12,0-.06,2.57,0,2.6a.23.23,0,0,1,.15.24s-.2.24-.23.27.17,0,.15,0a1.77,1.77,0,0,0,.05.39c-.07.16-.06.41-.14.57,0,0,0,1.31-.07,1.21a.9.9,0,0,1,.14.47,4.29,4.29,0,0,0-.09.61s.06-.11.1-.1-.09.2-.09.23.06,0,.08,0,0,.44.07.36c-.14.16-.22.12-.28.32,0,0,.06.31,0,.32s0-.07.1,0a.12.12,0,0,1-.06.06c-.09,0,.43.14.17.2s-.26,0,0,.21c0,.07-.05.1-.13.08s.15.12.1.25-.2.09-.24.15.2,0,.21,0-.08.05-.09.08c0,.2-.13.44,0,.66,0,.06.14-.09.13-.06s-.1.26,0,.31.06-.1.11-.08-.1.16-.1.22.11-.07.12-.07c0,.19-.29.21-.3.4a3.4,3.4,0,0,0,.22.43c-.18.18-.29,0-.24.31s.12,0,.17,0,.15.27.17.31c-.15.19-.26.21-.2.54,0,.09.31.43.32.35,0,.09-.29.31-.2.42h.22c-.16-.06,0,.29,0,.29s-.06.35,0,.37c.19.07,0,.3,0,.37s0-.09,0-.13,0,.89.12.77,0-.11.08-.12,0,.46,0,.4c.05.2.18.6.28.52.11.1-.23.33-.1.45-.09.07-.24,0-.32.07a.34.34,0,0,0,.08.09c.11-.11.08,0,.21,0-.08.1-.2,0-.25.09s0,.9.29.44c.1,0,0,.22.06.24.06-.15.1.08.19.1s-.17,0-.25.07.61.26.31.3c0,0,0-.07,0-.1s-.14.09-.15.1c.22.29-.12.12-.19.13s.15.29.15.29,0,.4.06.33.06,0,.07,0-.06.3,0,.27.19.11.23,0a2.59,2.59,0,0,1-.25.39s.09.07.11.07c.09.19-.38.13.08.42,0,0-.3.22-.34.27-.36.42-.42.76-1,1a2,2,0,0,1-2.69-1,10.24,10.24,0,0,1-.31-4c.11-3.39.2-6.61.21-9.86,0-.94,0-1.93,0-2.9,0-.6,0-1.18,0-1.77a4,4,0,0,0,0-1.24,39.25,39.25,0,0,0-4.65,3.5c-1.66,1.29-3.3,2.73-5,4.08a86,86,0,0,0-9,8.88c-1.09,1.18-2.78,3.61-4.62,2.2-1.54-1.18-.09-2.86.83-3.84,1.2-1.25,2.48-2.46,3.77-3.61,3.93-3.54,8-6.86,12.11-10,1.94-1.47,3.91-3,5.89-4.41.48-.35.57-.33.66-.84a4.69,4.69,0,0,0,0-.75c0-.6,0-.93-.53-.54a5.9,5.9,0,0,1-.73.5c-.16.06-.94.2-1,.35s.06.06.12,0-1.62.22-1.75.22a2.43,2.43,0,0,1-2-.94,5,5,0,0,1-.52-3,29.78,29.78,0,0,1,.15-3.77c.35-2.64,1.3-5.78,3.91-7,.53-.24,1.58-.54,1.82.15a2.08,2.08,0,0,1-.4,1.59c-.29.44-.66.77-.93,1.18a10.9,10.9,0,0,0-.81,1.86,6.7,6.7,0,0,0-.3,2.34,19.06,19.06,0,0,0-.18,2.9c.15,1.28,1.21,1.46,2.15.77s1.06-2.21,1.2-3.36c.25-2.05.35-3.85.53-6,.09-.94-.08-2.28.65-3a2,2,0,0,1,1.26-.55,1.64,1.64,0,0,1,1.52.87c0,.05-.11,0-.12.06a14.64,14.64,0,0,0,.05,1.51,6.69,6.69,0,0,0-.14.86c0,.23.12.52,0,.72-.18,0,0,.48,0,.44A3.48,3.48,0,0,0,58.19,44,23.13,23.13,0,0,0,58,46.52c0,.22-.33,1.86-.1,2,0,.18-.11.62-.11.81s0,.45,0,.66c0,.46,0,.72-.05,1.18s-.1,1-.1,1.54.07.5.51.2a61.4,61.4,0,0,1,7.5-4.57c1-.51,2.09-1.25,3.12-1.85,1.31-.77,2.6-1.45,3.9-2.21.45-.25.91-.5,1.36-.77.21-.13.88-.4,1-.61s-.18-.29-.42-.55a1.67,1.67,0,0,1-.38-.88,26.2,26.2,0,0,1,.09-4.16c0-.52.13-1.23.14-1.91s.28-1.78-.51-2.08c-.5-.2-1.12.17-1.5.48-.19.16-.25.39-.39.56a2.45,2.45,0,0,1-.6.42s.08.19,0,.29-.21.1-.28.25a2.38,2.38,0,0,0-.11.53,5.87,5.87,0,0,0-.21.76c.19.29-.11.05-.13.1s.15.22.15.27-.16.24-.21.27a.19.19,0,0,1,.19.09c-.05.1-.3-.05-.29.15s.08.19.08.27c0,.3.21.29-.08.5a1.25,1.25,0,0,1-.12.12s.11.13.1.14a.11.11,0,0,1-.14,0c-.07.16.26.75.29.9s-.22.1-.23.09a.3.3,0,0,0,0-.16c-.08-.06,0,.64,0,.63-.39.06,0,1.14-.11,1.21s.07-.09.14-.06-.16.29-.18.37.14.16.13.25a.41.41,0,0,0-.16,0c0,.05.19.08.19.11s-.06.21-.06.31-.11.47,0,.49a.91.91,0,0,0-.11-.16c0,.22.11.45.08.59s-.1.11-.15.22-.17.33-.23.48c-.18.48-.4.62-1,.93-1,.54-2.08.49-2.12-.84,0-.8.08-1.64.11-2.41.09-2,.15-3.93.28-6a3.18,3.18,0,0,1,1.48-2.83,3.92,3.92,0,0,1,1.66-.36,7.58,7.58,0,0,0,1.17.08c1-.18,1.56-1.38,2.34-1.94a3.82,3.82,0,0,1,1.56-.71,2.22,2.22,0,0,1,1.39.18c.06,0,.41.42.4.26a1,1,0,0,0,.21.47c.1.15.1.4.22.59,0,.09-.13,0-.11.3s.14.12.21.17,0,.36,0,.4c-.08-.14-.47.7-.28.84s.17-.19.2-.15-.09.59.06.46c0,0-.22.17-.2.29a2.37,2.37,0,0,1,.16.53c0,.08-.19.06-.19.05s.06.49.1.38-.32.41,0,.38c-.52,0,0,1.61-.19,1.77a5,5,0,0,1,0,.55c0,.1.29.42.16.62,0-.07,0-.1,0-.08s-.14.61-.13.5a.71.71,0,0,0,0,.26s.11-.15.13-.09-.09.31,0,.26-.18.64.09.76c.07.38-.07.62.15.91.55.68,1.21.43,2.1,0,.56-.28,1.13-.61,1.74-1A5.19,5.19,0,0,1,83,38.87c.47-.09,1.11.22,1.52.08-.18-.18.25.07.22.08C84.77,38.87,85.64,40.11,85.46,40.16ZM60.69,47.44a4.82,4.82,0,0,1,.06-2c0-.37.08-.74.11-1.07.06-.64.17-1.36.22-2s.14-1.69.19-2.3c.13-1.49.06-3.52,1.41-4.59a1.64,1.64,0,0,1,1.45-.39c.46.2.16.55.35.7,0,0,0-.08.1,0a1.88,1.88,0,0,1,0,.24s0,0,0,0,0,.72,0,.69-.21.35,0,.43c.09.28-.24.56-.24.85,0,0,.15,0,.17,0s-.07.18,0,.15-.11,0-.11,0,.13.17,0,.2.06.13.07.16-.2.91-.06.76-.05.12-.05.1a3.45,3.45,0,0,1,.05.66,3.55,3.55,0,0,0,0,.81l.08-.06c-.09,0,0,1,0,1s-.16.2-.11.18c-.45.12.22.85.06,1s-.17-.16-.17-.17,0,.38.14.32,0,.15,0,.16-.19-.14-.22-.12c-.19.1-.06,1.31-.08,1.54a7.48,7.48,0,0,1,0,1.59C63.72,47.32,61.35,49,60.69,47.44Zm2-16.32c-.47-1.26,2-3.09,3.1-2.37C67.24,29.67,63.83,33.81,62.7,31.12Z"/>
    <path d="M93.72,48A45.09,45.09,0,1,0,48.63,93.09,45.09,45.09,0,0,0,93.72,48Zm2.91,0a48,48,0,1,1-48-48A48,48,0,0,1,96.63,48Z"/>
  </symbol>

	<symbol id="money">
    <path d="M226.48,37.22a2.42,2.42,0,0,0-.57.87L219.1,54.16l-6.47-16Q212.15,37,211.16,37a2.72,2.72,0,0,0-1.5.44,1.34,1.34,0,0,0-.67,1.18,1.64,1.64,0,0,0,.17.72c.12.25.23.52.35.81l7.59,18.42-3.17,7.16a4,4,0,0,0-.28.74,2.86,2.86,0,0,0-.06.53,1.37,1.37,0,0,0,.52,1.15,2,2,0,0,0,1.26.42,1.5,1.5,0,0,0,1-.31,3,3,0,0,0,.65-.91l11.85-27.38c.12-.26.22-.51.33-.76a1.82,1.82,0,0,0,.15-.68,1.25,1.25,0,0,0-.65-1.13,2.76,2.76,0,0,0-1.44-.4A1.19,1.19,0,0,0,226.48,37.22Zm-96.83-.7a8.91,8.91,0,0,0-4.51,1.09,7,7,0,0,0-2.82,2.88,6.05,6.05,0,0,0-2.41-2.9,7.81,7.81,0,0,0-4.32-1.07,8.05,8.05,0,0,0-3.32.59,7.23,7.23,0,0,0-2.1,1.33,4.76,4.76,0,0,0-1.11,1.42c-.22.45-.34.72-.37.81V38.61a1.56,1.56,0,0,0-.46-1.31,2.14,2.14,0,0,0-1.32-.35,2.06,2.06,0,0,0-1.3.35,1.62,1.62,0,0,0-.44,1.31V57.73a1.65,1.65,0,0,0,.48,1.38,2.15,2.15,0,0,0,1.35.37,2.2,2.2,0,0,0,1.36-.37,1.61,1.61,0,0,0,.5-1.38V48.41a17.41,17.41,0,0,1,.28-3,9.29,9.29,0,0,1,.94-2.75,5.33,5.33,0,0,1,1.78-2,4.91,4.91,0,0,1,2.82-.77,5.91,5.91,0,0,1,2.28.37,3.45,3.45,0,0,1,1.41,1,3.93,3.93,0,0,1,.71,1.69,10.94,10.94,0,0,1,.2,2.23V58c0,1,.64,1.53,1.91,1.53S123,59,123,58V48.46a16.4,16.4,0,0,1,.28-3,9.75,9.75,0,0,1,.93-2.76,5.66,5.66,0,0,1,1.78-2,4.82,4.82,0,0,1,2.83-.79,6,6,0,0,1,2.28.37,3.45,3.45,0,0,1,1.41,1,4.06,4.06,0,0,1,.71,1.69,11.7,11.7,0,0,1,.2,2.23V58c0,1,.63,1.53,1.91,1.53s1.78-.51,1.78-1.53V44.07q0-3.84-2-5.7A7.69,7.69,0,0,0,129.65,36.52Zm31.53,6.74a14.67,14.67,0,0,1,.76,4.91,14.9,14.9,0,0,1-.76,4.94A10.25,10.25,0,0,1,159,56.8a9.61,9.61,0,0,1-3.36,2.31,12,12,0,0,1-8.68,0,9.75,9.75,0,0,1-3.37-2.31,10.39,10.39,0,0,1-2.17-3.69,15.17,15.17,0,0,1-.75-4.94,14.94,14.94,0,0,1,.75-4.91,10.26,10.26,0,0,1,2.17-3.66A9.46,9.46,0,0,1,147,37.3a12.46,12.46,0,0,1,8.68,0A9.33,9.33,0,0,1,159,39.6,10.12,10.12,0,0,1,161.18,43.26ZM156.3,54.42A10.07,10.07,0,0,0,158,48.17,9.82,9.82,0,0,0,156.3,42a6.7,6.7,0,0,0-10,0,9.82,9.82,0,0,0-1.74,6.19,10.07,10.07,0,0,0,1.74,6.25,6.62,6.62,0,0,0,10,0Zm20.22-17.9a8.5,8.5,0,0,0-3.53.65,9.33,9.33,0,0,0-2.28,1.44,7.14,7.14,0,0,0-1.65,2.06V38.61a1.56,1.56,0,0,0-.46-1.31,2.14,2.14,0,0,0-1.32-.35,2.06,2.06,0,0,0-1.3.35,1.62,1.62,0,0,0-.44,1.31V57.73a1.65,1.65,0,0,0,.48,1.38,2.15,2.15,0,0,0,1.35.37,2.22,2.22,0,0,0,1.36-.37,1.63,1.63,0,0,0,.5-1.38V48.44a12.3,12.3,0,0,1,.37-3,9.24,9.24,0,0,1,1.13-2.73,6,6,0,0,1,2-2,5.35,5.35,0,0,1,2.91-.76q2.77,0,3.84,1.35a6.24,6.24,0,0,1,1.07,3.93V58c0,1,.63,1.53,1.91,1.53s1.78-.51,1.78-1.53V44.33q0-4-2.13-5.89A8,8,0,0,0,176.52,36.52Zm31.73,11.17c0,1.05-.6,1.58-1.78,1.58H191.71a7.8,7.8,0,0,0,1.76,5.45,6.4,6.4,0,0,0,5,1.92,6.83,6.83,0,0,0,2.19-.32,6.55,6.55,0,0,0,1.59-.79,6.25,6.25,0,0,0,1.06-.94c.27-.32.5-.6.67-.83a2.74,2.74,0,0,1,.59-.65,1.32,1.32,0,0,1,.84-.22,2.14,2.14,0,0,1,1.2.39,1.2,1.2,0,0,1,.58,1,2.77,2.77,0,0,1-.47,1.35,11.06,11.06,0,0,1-1,1.33,8.34,8.34,0,0,1-1.61,1.38,9,9,0,0,1-2.37,1.09,10.87,10.87,0,0,1-3.25.44,11,11,0,0,1-4.41-.85,9.66,9.66,0,0,1-3.36-2.4A10.61,10.61,0,0,1,188.54,53a15.61,15.61,0,0,1,0-9.5,10.79,10.79,0,0,1,2.11-3.69,9.43,9.43,0,0,1,3.3-2.4,10.51,10.51,0,0,1,4.32-.85,10.17,10.17,0,0,1,4.29.85,8.67,8.67,0,0,1,3.13,2.36,10.41,10.41,0,0,1,1.91,3.56A14.54,14.54,0,0,1,208.25,47.69ZM191.88,46h12.68a10.28,10.28,0,0,0-.55-2.38,5.91,5.91,0,0,0-1.17-2,5.83,5.83,0,0,0-1.9-1.37,6.23,6.23,0,0,0-2.65-.52,6.41,6.41,0,0,0-2.66.5,5.65,5.65,0,0,0-1.92,1.35,6.6,6.6,0,0,0-1.24,2A9.42,9.42,0,0,0,191.88,46Z"/>
  </symbol>

	<symbol id="money-portrait">
    <path d="M94,111.68a.9.9,0,0,1,.63-.2,2.09,2.09,0,0,1,1.1.3.93.93,0,0,1,.5.86,1.52,1.52,0,0,1-.11.52l-.25.58-9.11,20.91a2.1,2.1,0,0,1-.5.7,1.16,1.16,0,0,1-.8.24,1.53,1.53,0,0,1-1-.32,1.08,1.08,0,0,1-.39-.88,1.51,1.51,0,0,1,0-.4,2.25,2.25,0,0,1,.21-.57L86.79,128,81,113.88c-.09-.23-.18-.43-.27-.62a1.26,1.26,0,0,1-.13-.55,1,1,0,0,1,.52-.9,2.09,2.09,0,0,1,1.15-.33,1.21,1.21,0,0,1,1.13.93l5,12.2,5.24-12.27A1.67,1.67,0,0,1,94,111.68Zm-75-.54a5.87,5.87,0,0,1,4.17,1.42,5.65,5.65,0,0,1,1.54,4.35v10.61c0,.77-.46,1.16-1.37,1.16s-1.47-.39-1.47-1.17v-9.72a9,9,0,0,0-.15-1.71,2.93,2.93,0,0,0-.55-1.28,2.62,2.62,0,0,0-1.08-.81,4.61,4.61,0,0,0-1.75-.28,3.73,3.73,0,0,0-2.17.6,4.23,4.23,0,0,0-1.37,1.54,7.43,7.43,0,0,0-.72,2.1,13.06,13.06,0,0,0-.21,2.31v7.25c0,.78-.46,1.17-1.37,1.17s-1.47-.39-1.47-1.17v-9.72a9,9,0,0,0-.15-1.71,2.93,2.93,0,0,0-.55-1.28A2.55,2.55,0,0,0,9.28,114a4.61,4.61,0,0,0-1.75-.28,3.87,3.87,0,0,0-2.17.58A4.21,4.21,0,0,0,4,115.82a7.12,7.12,0,0,0-.71,2.1,12.2,12.2,0,0,0-.22,2.31v7.12a1.25,1.25,0,0,1-.38,1.05,1.75,1.75,0,0,1-1.06.28,1.66,1.66,0,0,1-1-.28,1.28,1.28,0,0,1-.37-1.05V112.74a1.24,1.24,0,0,1,.34-1,1.55,1.55,0,0,1,1-.26,1.67,1.67,0,0,1,1,.26,1.21,1.21,0,0,1,.35,1v1.57a6.32,6.32,0,0,1,.28-.62,4,4,0,0,1,.85-1.08,5.64,5.64,0,0,1,1.62-1,6.26,6.26,0,0,1,2.55-.45,6.07,6.07,0,0,1,3.32.82,4.63,4.63,0,0,1,1.85,2.22,5.2,5.2,0,0,1,2.16-2.2A6.89,6.89,0,0,1,19,111.14Zm36,0a6.14,6.14,0,0,1,4.27,1.47,5.75,5.75,0,0,1,1.63,4.5v10.41c0,.77-.45,1.16-1.36,1.16s-1.47-.39-1.47-1.16v-9.71a4.72,4.72,0,0,0-.82-3,3.57,3.57,0,0,0-2.95-1,4.09,4.09,0,0,0-2.23.58,4.8,4.8,0,0,0-1.52,1.52,7,7,0,0,0-.87,2.08,9.5,9.5,0,0,0-.28,2.29v7.1a1.25,1.25,0,0,1-.38,1.05,1.74,1.74,0,0,1-1.05.28,1.67,1.67,0,0,1-1-.28,1.28,1.28,0,0,1-.37-1.05V112.74a1.24,1.24,0,0,1,.34-1,1.55,1.55,0,0,1,1-.26,1.67,1.67,0,0,1,1,.26,1.21,1.21,0,0,1,.35,1v1.57a5.66,5.66,0,0,1,1.26-1.57,7.32,7.32,0,0,1,1.75-1.1A6.58,6.58,0,0,1,55,111.14Zm24.38,8.54c0,.8-.46,1.2-1.37,1.2H66.71a5.94,5.94,0,0,0,1.35,4.17,4.92,4.92,0,0,0,3.82,1.47,5.26,5.26,0,0,0,1.68-.25,4.79,4.79,0,0,0,1.22-.61,4.56,4.56,0,0,0,.82-.71l.52-.64a2.25,2.25,0,0,1,.45-.5,1,1,0,0,1,.64-.16,1.62,1.62,0,0,1,.92.3.91.91,0,0,1,.45.8,2.09,2.09,0,0,1-.36,1,9.51,9.51,0,0,1-.79,1,5.93,5.93,0,0,1-1.23,1,7.14,7.14,0,0,1-1.82.83,8.49,8.49,0,0,1-2.5.34,8.61,8.61,0,0,1-3.39-.65,7.38,7.38,0,0,1-2.58-1.84,8,8,0,0,1-1.63-2.83,11.84,11.84,0,0,1,0-7.26,8.2,8.2,0,0,1,1.61-2.81,7.31,7.31,0,0,1,2.54-1.84,8.23,8.23,0,0,1,3.32-.65,8,8,0,0,1,3.3.65,7,7,0,0,1,2.4,1.8,8.19,8.19,0,0,1,1.47,2.72A11.16,11.16,0,0,1,79.42,119.68Zm-12.58-1.3h9.74a8.15,8.15,0,0,0-.42-1.82,4.49,4.49,0,0,0-.9-1.53,4.24,4.24,0,0,0-1.46-1,4.79,4.79,0,0,0-2-.4,5,5,0,0,0-2,.38,4.47,4.47,0,0,0-1.47,1,4.93,4.93,0,0,0-1,1.54A6.78,6.78,0,0,0,66.84,118.38Zm-23.58-2.09a12.48,12.48,0,0,1,0,7.52,7.82,7.82,0,0,1-1.67,2.82A7.25,7.25,0,0,1,39,128.4a8.79,8.79,0,0,1-3.34.62,8.7,8.7,0,0,1-3.33-.62,7.2,7.2,0,0,1-2.59-1.77,7.82,7.82,0,0,1-1.67-2.82,12.48,12.48,0,0,1,0-7.52,7.91,7.91,0,0,1,1.67-2.8,7.16,7.16,0,0,1,2.59-1.75,8.89,8.89,0,0,1,3.33-.6,9,9,0,0,1,3.34.6,7.2,7.2,0,0,1,2.58,1.75A7.91,7.91,0,0,1,43.26,116.29Zm-3.75,8.52a7.67,7.67,0,0,0,1.33-4.76,7.55,7.55,0,0,0-1.33-4.74,4.6,4.6,0,0,0-3.84-1.7,4.57,4.57,0,0,0-3.83,1.7,7.49,7.49,0,0,0-1.34,4.74,7.61,7.61,0,0,0,1.34,4.76,4.52,4.52,0,0,0,3.83,1.74A4.55,4.55,0,0,0,39.51,124.81Z"/>
  </symbol>

	<symbol id="giving">
    <path d="M253.09,38.73a1.65,1.65,0,0,0-.43-1.32,2.16,2.16,0,0,0-1.32-.35,2,2,0,0,0-1.35.35,1.52,1.52,0,0,0-.46,1.32v2a7.17,7.17,0,0,0-1.1-1.49,7.56,7.56,0,0,0-1.61-1.32,7.9,7.9,0,0,0-2.13-.92,9.56,9.56,0,0,0-2.55-.35,9.33,9.33,0,0,0-4.14.86A8.77,8.77,0,0,0,235,39.85a10.15,10.15,0,0,0-1.9,3.62,15.69,15.69,0,0,0-.63,4.63,16.79,16.79,0,0,0,.63,4.8A10.4,10.4,0,0,0,235,56.58,8.55,8.55,0,0,0,238,59a9.65,9.65,0,0,0,4.14.83,8.46,8.46,0,0,0,4.52-1.12,7.58,7.58,0,0,0,2.7-2.61l.06,3.27c0,2.48-.58,4.23-1.75,5.29a6.35,6.35,0,0,1-4.46,1.59,9.07,9.07,0,0,1-3.42-.64,23.68,23.68,0,0,1-2.76-1.38l-.32-.17a1.46,1.46,0,0,0-.75-.23,1.28,1.28,0,0,0-.72.2,2.43,2.43,0,0,0-.48.43,3,3,0,0,0-.44.64,1.5,1.5,0,0,0-.2.77,1.6,1.6,0,0,0,.72,1.41,9.22,9.22,0,0,0,1.87,1.09,12,12,0,0,0,2.67.84,17.2,17.2,0,0,0,3.43.34A14.49,14.49,0,0,0,247,69a8.12,8.12,0,0,0,3.22-1.79,8.84,8.84,0,0,0,2.12-3.27,13.62,13.62,0,0,0,.78-5Zm-5.26,15.53a5.74,5.74,0,0,1-4.92,2.3,5.88,5.88,0,0,1-4.86-2.19,9.71,9.71,0,0,1-1.66-6.07,10,10,0,0,1,1.58-6,5.55,5.55,0,0,1,4.8-2.22,6.12,6.12,0,0,1,5,2.1,9.28,9.28,0,0,1,1.79,6.1A10,10,0,0,1,247.83,54.26Z"/>
    <path d="M261.86,37.46a2.45,2.45,0,0,0-1.41-.37,2.17,2.17,0,0,0-1.38.37,1.76,1.76,0,0,0-.49,1.41V58.19a1.7,1.7,0,0,0,.49,1.38,2.31,2.31,0,0,0,1.38.38,2.15,2.15,0,0,0,1.41-.38,1.54,1.54,0,0,0,.52-1.38V38.87A1.64,1.64,0,0,0,261.86,37.46Z"/>
    <path d="M258.78,29.15a2.48,2.48,0,0,0-.69,1.82,2.25,2.25,0,0,0,.69,1.78,2.44,2.44,0,1,0,0-3.6Z"/>
    <path d="M284.81,36.63a6.42,6.42,0,0,0-5.9,4s-.06.06-.11,0a0,0,0,0,1,0,0,6.48,6.48,0,0,0-5.9-4A6.39,6.39,0,0,0,266.49,43c0,7.71,10.26,15.5,12.08,16.82a.42.42,0,0,0,.57,0C281,58.48,291.22,50.69,291.22,43A6.43,6.43,0,0,0,284.81,36.63Zm-5.9,19.06a.17.17,0,0,1-.17,0c-3.51-2.9-8.89-8.28-8.89-12.71a3,3,0,0,1,3-3c3.28,0,5.24,4.06,5.81,5.47.12.28.23.28.35,0,.54-1.41,2.44-5.5,5.81-5.5a3,3,0,0,1,3,3C287.82,47.44,282.42,52.79,278.91,55.69Z"/>
    <path d="M298.78,29.12a2.36,2.36,0,0,0-3.36,0,2.4,2.4,0,0,0-.69,1.82v.28A2.39,2.39,0,1,0,299.5,31,2.45,2.45,0,0,0,298.78,29.12Z"/>
    <path d="M298.52,37.46a2.45,2.45,0,0,0-1.41-.37,2.17,2.17,0,0,0-1.38.37,1.76,1.76,0,0,0-.49,1.41V58.19a1.7,1.7,0,0,0,.49,1.38,2.31,2.31,0,0,0,1.38.38,2.15,2.15,0,0,0,1.41-.38,1.54,1.54,0,0,0,.52-1.38V38.87A1.64,1.64,0,0,0,298.52,37.46Z"/>
    <path d="M321.41,38.56a9.55,9.55,0,0,0-9.29-1.3,8.92,8.92,0,0,0-2.33,1.47,7.84,7.84,0,0,0-1.67,2.07V38.73a1.55,1.55,0,0,0-.46-1.32,2.19,2.19,0,0,0-1.35-.35,2,2,0,0,0-1.32.35,1.52,1.52,0,0,0-.46,1.32V58.17a1.69,1.69,0,0,0,.49,1.4,2.31,2.31,0,0,0,1.38.38,2.15,2.15,0,0,0,1.41-.38,1.63,1.63,0,0,0,.52-1.4l0-9.46a12,12,0,0,1,.37-3.05,9.55,9.55,0,0,1,1.15-2.76,6.79,6.79,0,0,1,2-2,5.43,5.43,0,0,1,3-.77c1.89,0,3.16.46,3.91,1.38a6.23,6.23,0,0,1,1.09,4V58.37c0,1,.66,1.55,1.95,1.55s1.81-.52,1.81-1.55V44.54C323.59,41.86,322.85,39.85,321.41,38.56Z"/>
    <path d="M348.41,58.94V38.73a1.68,1.68,0,0,0-.43-1.32,2.21,2.21,0,0,0-1.33-.35,2,2,0,0,0-1.35.35,1.55,1.55,0,0,0-.46,1.32v2a7.8,7.8,0,0,0-2.7-2.81A7.9,7.9,0,0,0,340,37a9.58,9.58,0,0,0-2.56-.35,9.39,9.39,0,0,0-4.14.86,8.86,8.86,0,0,0-3.05,2.39,10.13,10.13,0,0,0-1.89,3.62,16,16,0,0,0-.64,4.63,17.15,17.15,0,0,0,.64,4.8,10,10,0,0,0,1.89,3.71A8.27,8.27,0,0,0,333.31,59a9.8,9.8,0,0,0,4.14.83A8.46,8.46,0,0,0,342,58.71a7.58,7.58,0,0,0,2.7-2.61l0,3.24c0,2.48-.58,4.23-1.76,5.29a6.31,6.31,0,0,1-4.45,1.59,9.07,9.07,0,0,1-3.42-.64,23.68,23.68,0,0,1-2.76-1.38L332,64a1.46,1.46,0,0,0-.75-.23,1.26,1.26,0,0,0-.72.2,2.8,2.8,0,0,0-.49.43,3.41,3.41,0,0,0-.43.64,1.5,1.5,0,0,0-.2.77,1.7,1.7,0,0,0,.75,1.41,10,10,0,0,0,1.9,1.09,12,12,0,0,0,2.67.84,17,17,0,0,0,3.42.34,14.44,14.44,0,0,0,4.14-.54,8.43,8.43,0,0,0,3.22-1.81,8.54,8.54,0,0,0,2.13-3.28A13.59,13.59,0,0,0,348.41,58.94Zm-5.29-4.68a5.74,5.74,0,0,1-4.92,2.3,5.88,5.88,0,0,1-4.86-2.19,9.71,9.71,0,0,1-1.67-6.07,10,10,0,0,1,1.58-6,5.58,5.58,0,0,1,4.81-2.22,6.13,6.13,0,0,1,5,2.1,9.28,9.28,0,0,1,1.78,6.1A10.16,10.16,0,0,1,343.12,54.26Z"/>
  </symbol>

	<symbol id="giving-portrait">
    <path d="M17.15,140.52a1.36,1.36,0,0,0-.36-1.09,1.78,1.78,0,0,0-1.09-.29,1.64,1.64,0,0,0-1.12.29,1.23,1.23,0,0,0-.39,1.09v1.62a5.94,5.94,0,0,0-.9-1.24A7,7,0,0,0,12,139.81a6.73,6.73,0,0,0-1.76-.77,8.09,8.09,0,0,0-2.13-.28,7.63,7.63,0,0,0-3.43.71,7.41,7.41,0,0,0-2.53,2,8.59,8.59,0,0,0-1.57,3A13,13,0,0,0,0,148.3a14,14,0,0,0,.53,4,8.73,8.73,0,0,0,1.59,3.05,7.08,7.08,0,0,0,2.53,2,8.12,8.12,0,0,0,3.44.7,7,7,0,0,0,3.74-.93,6.29,6.29,0,0,0,2.24-2.17l0,2.71c0,2.06-.48,3.51-1.45,4.39A5.26,5.26,0,0,1,9,163.32a7.65,7.65,0,0,1-2.84-.52,21.23,21.23,0,0,1-2.29-1.14l-.26-.15a1.18,1.18,0,0,0-.62-.19,1,1,0,0,0-.6.17,1.67,1.67,0,0,0-.4.36,2.3,2.3,0,0,0-.36.52,1.23,1.23,0,0,0-.17.64,1.35,1.35,0,0,0,.6,1.17,7.78,7.78,0,0,0,1.55.91,10.2,10.2,0,0,0,2.22.69,14.18,14.18,0,0,0,2.84.29,12.07,12.07,0,0,0,3.43-.46,6.61,6.61,0,0,0,2.67-1.47,7.4,7.4,0,0,0,1.77-2.72,11.45,11.45,0,0,0,.64-4.11ZM12.79,153.4a4.74,4.74,0,0,1-4.08,1.91,4.86,4.86,0,0,1-4-1.81,8,8,0,0,1-1.39-5,8.26,8.26,0,0,1,1.32-5,4.6,4.6,0,0,1,4-1.84,5.06,5.06,0,0,1,4.12,1.74,7.69,7.69,0,0,1,1.48,5.06A8.21,8.21,0,0,1,12.79,153.4Z"/>
    <path d="M24.43,139.47a2.14,2.14,0,0,0-1.17-.31,1.81,1.81,0,0,0-1.15.31,1.46,1.46,0,0,0-.4,1.17v16a1.44,1.44,0,0,0,.4,1.15,2,2,0,0,0,1.15.31,1.89,1.89,0,0,0,1.17-.31,1.33,1.33,0,0,0,.43-1.15v-16A1.4,1.4,0,0,0,24.43,139.47Z"/>
    <path d="M21.87,132.58a2,2,0,0,0-.57,1.5,1.83,1.83,0,0,0,.57,1.48,2,2,0,0,0,2.87-2.86A2,2,0,0,0,21.87,132.58Z"/>
    <path d="M43.46,138.78a5.33,5.33,0,0,0-4.89,3.36.07.07,0,0,1-.1,0s0,0,0,0a5.37,5.37,0,0,0-4.89-3.36,5.29,5.29,0,0,0-5.29,5.3c0,6.39,8.51,12.85,10,13.95a.36.36,0,0,0,.48,0c1.53-1.12,10-7.59,10-13.95A5.35,5.35,0,0,0,43.46,138.78ZM38.57,154.6a.17.17,0,0,1-.14,0c-2.91-2.41-7.37-6.87-7.37-10.55a2.48,2.48,0,0,1,2.48-2.48c2.72,0,4.34,3.37,4.81,4.53.1.24.2.24.29,0,.45-1.16,2-4.55,4.82-4.55A2.48,2.48,0,0,1,45.94,144C46,147.75,41.48,152.19,38.57,154.6Z"/>
    <path d="M55.05,132.56a2,2,0,0,0-3.36,1.52v.24a2,2,0,0,0,4-.24A2,2,0,0,0,55.05,132.56Z"/>
    <path d="M54.84,139.47a2.14,2.14,0,0,0-1.17-.31,1.81,1.81,0,0,0-1.15.31,1.46,1.46,0,0,0-.4,1.17v16a1.44,1.44,0,0,0,.4,1.15,2,2,0,0,0,1.15.31,1.89,1.89,0,0,0,1.17-.31,1.33,1.33,0,0,0,.43-1.15v-16A1.4,1.4,0,0,0,54.84,139.47Z"/>
    <path d="M73.82,140.38a6.78,6.78,0,0,0-4.7-1.62,6.68,6.68,0,0,0-3,.55,7.23,7.23,0,0,0-1.93,1.21,6.61,6.61,0,0,0-1.39,1.72v-1.72a1.3,1.3,0,0,0-.38-1.09,1.81,1.81,0,0,0-1.12-.29,1.64,1.64,0,0,0-1.1.29,1.26,1.26,0,0,0-.38,1.09v16.13a1.43,1.43,0,0,0,.41,1.17,2,2,0,0,0,1.14.31,1.88,1.88,0,0,0,1.17-.31,1.37,1.37,0,0,0,.43-1.17l0-7.85a9.85,9.85,0,0,1,.31-2.53,8,8,0,0,1,.95-2.29,5.54,5.54,0,0,1,1.67-1.67,4.45,4.45,0,0,1,2.46-.64,3.94,3.94,0,0,1,3.24,1.14,5.15,5.15,0,0,1,.91,3.32v10.68q0,1.29,1.62,1.29t1.5-1.29V145.34A6.3,6.3,0,0,0,73.82,140.38Z"/>
    <path d="M96.22,157.29V140.52a1.36,1.36,0,0,0-.36-1.09,1.79,1.79,0,0,0-1.1-.29,1.67,1.67,0,0,0-1.12.29,1.26,1.26,0,0,0-.38,1.09v1.62a6,6,0,0,0-.91-1.24A6.15,6.15,0,0,0,91,139.81a6.79,6.79,0,0,0-1.77-.77,8,8,0,0,0-2.12-.28,7.63,7.63,0,0,0-3.43.71,7.41,7.41,0,0,0-2.53,2,8.45,8.45,0,0,0-1.58,3,13.38,13.38,0,0,0-.52,3.84,14.35,14.35,0,0,0,.52,4,8.44,8.44,0,0,0,1.58,3.08,6.89,6.89,0,0,0,2.53,2,8,8,0,0,0,3.43.69,7.07,7.07,0,0,0,3.75-.93,6.37,6.37,0,0,0,2.24-2.17l0,2.69c0,2.06-.48,3.51-1.45,4.39a5.26,5.26,0,0,1-3.7,1.31,7.65,7.65,0,0,1-2.84-.52,21.23,21.23,0,0,1-2.29-1.14l-.26-.15a1.18,1.18,0,0,0-.62-.19,1,1,0,0,0-.6.17,1.67,1.67,0,0,0-.4.36,2,2,0,0,0-.36.52,1.23,1.23,0,0,0-.17.64,1.41,1.41,0,0,0,.62,1.17,8.62,8.62,0,0,0,1.58.91,10,10,0,0,0,2.22.69,14.16,14.16,0,0,0,2.83.29,12.09,12.09,0,0,0,3.44-.46,6.81,6.81,0,0,0,2.67-1.5,6.88,6.88,0,0,0,1.76-2.72A11.16,11.16,0,0,0,96.22,157.29Zm-4.39-3.89a4.74,4.74,0,0,1-4.08,1.91,4.88,4.88,0,0,1-4-1.81,8,8,0,0,1-1.38-5,8.33,8.33,0,0,1,1.31-5,4.61,4.61,0,0,1,4-1.84,5.08,5.08,0,0,1,4.13,1.74,7.69,7.69,0,0,1,1.48,5.06A8.42,8.42,0,0,1,91.83,153.4Z"/>
  </symbol>

	<symbol id="foundation-logo">
    <path d="M243.06,36.93h-3.94V34.07a3.4,3.4,0,0,1,.84-2.69,3.21,3.21,0,0,1,2.15-.71,3.45,3.45,0,0,1,1.16.2,7.31,7.31,0,0,1,.84.42c.24.15.48.27.71.42a1.35,1.35,0,0,0,.75.21,1.43,1.43,0,0,0,1.1-.54,1.91,1.91,0,0,0,.48-1.31,1.38,1.38,0,0,0-.45-1,4.75,4.75,0,0,0-1.13-.77,10.11,10.11,0,0,0-1.61-.54,7.61,7.61,0,0,0-1.85-.21,6.88,6.88,0,0,0-5,1.73,6.07,6.07,0,0,0-1.74,4.51v3.13h-2.05a1.44,1.44,0,0,0-1.2.42,2,2,0,0,0-.3,1.19,2,2,0,0,0,.3,1.2,1.4,1.4,0,0,0,1.2.42h2.05V57.91a1.63,1.63,0,0,0,.51,1.4,2,2,0,0,0,1.37.39,2.45,2.45,0,0,0,1.41-.39,1.63,1.63,0,0,0,.5-1.4V40.16h3.94a1.39,1.39,0,0,0,1.2-.42,2.28,2.28,0,0,0,.3-1.2,2,2,0,0,0-.3-1.19A1.44,1.44,0,0,0,243.06,36.93Z"/>
    <path d="M263.59,39.32A9.28,9.28,0,0,0,260.13,37a12.92,12.92,0,0,0-8.95,0,9.36,9.36,0,0,0-3.46,2.36,10.21,10.21,0,0,0-2.24,3.76,15.46,15.46,0,0,0-.78,5,15.88,15.88,0,0,0,.78,5.08A10.25,10.25,0,0,0,247.72,57a9.29,9.29,0,0,0,3.46,2.38,11.36,11.36,0,0,0,4.48.84,11.86,11.86,0,0,0,4.47-.84A9.83,9.83,0,0,0,263.59,57a11,11,0,0,0,2.24-3.79,15.75,15.75,0,0,0,.78-5.08,15.33,15.33,0,0,0-.78-5A10.07,10.07,0,0,0,263.59,39.32Zm-2.74,15.22a6.89,6.89,0,0,1-10.33,0,10.33,10.33,0,0,1-1.79-6.42,10.08,10.08,0,0,1,1.79-6.35,7,7,0,0,1,10.33,0,10.08,10.08,0,0,1,1.79,6.35A10.27,10.27,0,0,1,260.85,54.54Z"/>
    <path d="M289,37a2.24,2.24,0,0,0-1.4-.39,2.33,2.33,0,0,0-1.4.39,1.66,1.66,0,0,0-.51,1.4h0v9.55a13.75,13.75,0,0,1-.39,3.08,10.31,10.31,0,0,1-1.16,2.83,6.06,6.06,0,0,1-2,2,5.72,5.72,0,0,1-3,.78c-1.94,0-3.25-.48-4-1.4a6.54,6.54,0,0,1-1.07-4v-13c0-1-.66-1.59-2-1.59s-1.82.54-1.82,1.59v14a9.68,9.68,0,0,0,.57,3.55,6.71,6.71,0,0,0,1.61,2.48,6.54,6.54,0,0,0,2.5,1.49,11,11,0,0,0,3.23.48,8.64,8.64,0,0,0,3.61-.69A8.77,8.77,0,0,0,284.13,58a7.45,7.45,0,0,0,1.7-2.15V58a1.65,1.65,0,0,0,.47,1.34,2.29,2.29,0,0,0,1.38.36,2.12,2.12,0,0,0,1.34-.36,1.62,1.62,0,0,0,.45-1.34V38.39A1.7,1.7,0,0,0,289,37Z"/>
    <path d="M311.34,38.1a8.21,8.21,0,0,0-5.73-2,8.76,8.76,0,0,0-3.64.68,9.32,9.32,0,0,0-2.36,1.5,7.59,7.59,0,0,0-1.7,2.08V38.31a1.6,1.6,0,0,0-.47-1.35,2.29,2.29,0,0,0-1.38-.36,2.12,2.12,0,0,0-1.34.36,1.66,1.66,0,0,0-.45,1.35v19.6a1.63,1.63,0,0,0,.48,1.4,2.18,2.18,0,0,0,1.4.39,2.45,2.45,0,0,0,1.41-.39,1.66,1.66,0,0,0,.5-1.4h0V48.39a12.14,12.14,0,0,1,.39-3.07,8.91,8.91,0,0,1,1.16-2.81,6.45,6.45,0,0,1,2-2,5.63,5.63,0,0,1,3-.77c1.91,0,3.22.45,4,1.37a6.34,6.34,0,0,1,1.1,4v13c0,1.07.66,1.58,2,1.58s1.85-.54,1.85-1.58v-14C313.55,41.44,312.8,39.41,311.34,38.1Z"/>
    <path d="M338.05,29.8a1.68,1.68,0,0,0-.48-1.4,2.2,2.2,0,0,0-1.4-.39,2.35,2.35,0,0,0-1.4.39,1.65,1.65,0,0,0-.51,1.4V40a6.79,6.79,0,0,0-1-1.38,8.67,8.67,0,0,0-1.59-1.22,9.45,9.45,0,0,0-2.08-.9,9.12,9.12,0,0,0-2.57-.35,9.35,9.35,0,0,0-4.18.86,9,9,0,0,0-3.07,2.45,10.17,10.17,0,0,0-1.94,3.76,16.35,16.35,0,0,0-.66,4.83,16.77,16.77,0,0,0,.66,4.87,10.76,10.76,0,0,0,1.94,3.82,9.09,9.09,0,0,0,3.07,2.47,9.22,9.22,0,0,0,4.18.9,8.5,8.5,0,0,0,4.62-1.22,8.09,8.09,0,0,0,2.84-3V58a1.54,1.54,0,0,0,.48,1.34,2.26,2.26,0,0,0,1.37.36,2.1,2.1,0,0,0,1.34-.36,1.62,1.62,0,0,0,.45-1.34h-.06Zm-4,21.73a8.65,8.65,0,0,1-1.28,2.74,5.79,5.79,0,0,1-2.09,1.82,6,6,0,0,1-2.87.66,5.67,5.67,0,0,1-4.89-2.33,10.24,10.24,0,0,1-1.7-6.21,16.57,16.57,0,0,1,.39-3.55A8,8,0,0,1,322.77,42a5.71,5.71,0,0,1,2-1.76,6.68,6.68,0,0,1,7.85,1.64,9.77,9.77,0,0,1,1.79,6.23A13.92,13.92,0,0,1,334,51.53Z"/>
    <path d="M359.09,38.48a8.14,8.14,0,0,0-2.84-1.73,12.48,12.48,0,0,0-4.32-.65,12.34,12.34,0,0,0-3.88.56,11,11,0,0,0-2.6,1.29A7.25,7.25,0,0,0,344,39.29a6.22,6.22,0,0,0-.54.78c-.09.18-.15.32-.21.47a3.37,3.37,0,0,0-.06.6,1.29,1.29,0,0,0,.6,1.1,2.29,2.29,0,0,0,1.31.42,1.62,1.62,0,0,0,.81-.18,3.76,3.76,0,0,0,.75-.71,9.16,9.16,0,0,1,.65-.72,3.88,3.88,0,0,1,1-.75,7.72,7.72,0,0,1,1.46-.62,6.79,6.79,0,0,1,2-.27A6.12,6.12,0,0,1,356,40.66a5.18,5.18,0,0,1,1.31,3.82v.9l-2.27-.09a30.91,30.91,0,0,0-6.39.68,12.47,12.47,0,0,0-4.05,1.68,5.85,5.85,0,0,0-2.15,2.53,8.16,8.16,0,0,0-.63,3.23,7,7,0,0,0,.48,2.53A4.93,4.93,0,0,0,343.75,58a6.19,6.19,0,0,0,2.42,1.37,10.65,10.65,0,0,0,3.46.51,10.8,10.8,0,0,0,2.92-.36,8.37,8.37,0,0,0,2.18-.92,6.32,6.32,0,0,0,1.55-1.23,11.86,11.86,0,0,0,1.08-1.28v1.34a3.47,3.47,0,0,0,.3,1.62c.18.38.71.59,1.58.59,1.28,0,1.94-.5,1.94-1.49V43.89a8.85,8.85,0,0,0-.51-2.93A7.09,7.09,0,0,0,359.09,38.48ZM357.3,50.3a6,6,0,0,1-.75,3.25,6.92,6.92,0,0,1-2.62,2.39,7.79,7.79,0,0,1-3.82,1,4.52,4.52,0,0,1-3.46-1.11,3.72,3.72,0,0,1-1-2.62,4.37,4.37,0,0,1,.39-1.94,3.12,3.12,0,0,1,1.4-1.47,9.52,9.52,0,0,1,2.81-.95,30,30,0,0,1,4.65-.39h2.45Z"/>
    <path d="M376.25,59.49c.92-.38,1.4-1,1.4-1.67a2,2,0,0,0-.48-1.28,1.43,1.43,0,0,0-1.1-.54,1.56,1.56,0,0,0-.69.15l-.59.27-.69.27a2.25,2.25,0,0,1-.93.15,2.47,2.47,0,0,1-2-.72,4.41,4.41,0,0,1-.6-2.68V40.19h4.21a1.38,1.38,0,0,0,1.19-.42,2.28,2.28,0,0,0,.3-1.2,2,2,0,0,0-.3-1.19,1.43,1.43,0,0,0-1.19-.42h-4.21V31.17c0-.86-.42-1.31-1.25-1.31a3.34,3.34,0,0,0-1.77.48,1.54,1.54,0,0,0-.65.71,4.2,4.2,0,0,0-.15,1.26v4.62h-2a1.41,1.41,0,0,0-1.19.42,2,2,0,0,0-.3,1.19,2,2,0,0,0,.3,1.2,1.37,1.37,0,0,0,1.19.42v0h2V54.24a6,6,0,0,0,1.49,4.36,6.26,6.26,0,0,0,4.57,1.49A9,9,0,0,0,376.25,59.49Z"/>
    <path d="M381.53,32.9a2.39,2.39,0,0,0,1.73-.65,2.46,2.46,0,0,0,.69-1.82,2.43,2.43,0,0,0-.69-1.82,2.4,2.4,0,0,0-1.73-.66,2.48,2.48,0,0,0-1.73.66,2.43,2.43,0,0,0-.69,1.82,2.37,2.37,0,0,0,.69,1.82A2.39,2.39,0,0,0,381.53,32.9Z"/>
    <path d="M381.53,59.7a2.42,2.42,0,0,0,1.4-.39,1.63,1.63,0,0,0,.51-1.4V38.39a1.7,1.7,0,0,0-.51-1.4,2.16,2.16,0,0,0-1.4-.39,2.29,2.29,0,0,0-1.4.39,1.66,1.66,0,0,0-.48,1.4V57.91a1.63,1.63,0,0,0,.48,1.4A2.16,2.16,0,0,0,381.53,59.7Z"/>
    <path d="M390.07,57a9.21,9.21,0,0,0,3.46,2.38,11.31,11.31,0,0,0,4.47.84,11.92,11.92,0,0,0,4.48-.84A9.92,9.92,0,0,0,405.94,57a11.14,11.14,0,0,0,2.24-3.79,15.75,15.75,0,0,0,.78-5.08,15.33,15.33,0,0,0-.78-5,10.21,10.21,0,0,0-2.24-3.76A9.36,9.36,0,0,0,402.48,37a12.92,12.92,0,0,0-9,0,9.28,9.28,0,0,0-3.46,2.36,10.07,10.07,0,0,0-2.24,3.76,15.46,15.46,0,0,0-.78,5,15.88,15.88,0,0,0,.78,5.08A10.12,10.12,0,0,0,390.07,57Z"/>
    <path d="M429.64,38.1a8.24,8.24,0,0,0-5.73-2,8.69,8.69,0,0,0-3.64.68,9,9,0,0,0-2.36,1.5,7.24,7.24,0,0,0-1.7,2.08V38.31a1.57,1.57,0,0,0-.48-1.35,2.28,2.28,0,0,0-1.37-.36A2.13,2.13,0,0,0,413,37a1.69,1.69,0,0,0-.44,1.35v19.6a1.66,1.66,0,0,0,.47,1.4,2.19,2.19,0,0,0,1.41.39,2.44,2.44,0,0,0,1.4-.39,1.63,1.63,0,0,0,.51-1.4h0V48.39a12.59,12.59,0,0,1,.38-3.07,8.7,8.7,0,0,1,1.17-2.81,6.35,6.35,0,0,1,2-2,5.59,5.59,0,0,1,3-.77c1.91,0,3.22.45,4,1.37a6.28,6.28,0,0,1,1.1,4v13c0,1.07.66,1.58,2,1.58s1.85-.54,1.85-1.58v-14C431.84,41.44,431.1,39.41,429.64,38.1Z"/>
    <path d="M398.48,66.71c-5.19,0-10.44-1.49-10.44-4.32a.9.9,0,1,1,1.79,0c0,.86,3,2.53,8.65,2.53s8.65-1.67,8.65-2.53a.9.9,0,0,1,1.8,0C408.93,65.22,403.67,66.71,398.48,66.71Zm0,3.35c-10.8,0-17.43-2.9-17.43-5,0-.59.57-1.28,1.55-1.88a.89.89,0,0,0-.92-1.52c-1.55,1-2.42,2.15-2.42,3.43,0,4.42,9.91,6.78,19.22,6.78s19.22-2.39,19.22-6.81c0-1.37-.93-2.59-2.75-3.64A.89.89,0,0,0,414,63c1.19.72,1.85,1.44,1.85,2.09C415.88,67.16,409.25,70.06,398.45,70.06Zm26.71-8.75a.88.88,0,0,0-1.28.15.93.93,0,0,0,.15,1.26,5.27,5.27,0,0,1,2.2,3.88c0,4.92-11.13,10.17-27.72,10.17s-27.72-5.28-27.72-10.17a16.51,16.51,0,0,1,.89-3.38c.36-.77.36-1.22-.39-1.37s-1.07.21-1.31.78a16.67,16.67,0,0,0-1,4c0,6.71,12.95,12,29.51,12S428,73.31,428,66.57A7,7,0,0,0,425.16,61.31Z"/>
  </symbol>


	<symbol id="foundation-logo-portrait">
    <path d="M5.63,138.67H3.74v-1.38a1.64,1.64,0,0,1,.4-1.29,1.56,1.56,0,0,1,1-.34,1.48,1.48,0,0,1,.56.1,3,3,0,0,1,.4.2l.35.2a.65.65,0,0,0,.36.1.71.71,0,0,0,.53-.26.93.93,0,0,0,.22-.63.66.66,0,0,0-.21-.47,2.23,2.23,0,0,0-.54-.37,4.75,4.75,0,0,0-.78-.26,3.68,3.68,0,0,0-.89-.1,3.35,3.35,0,0,0-2.42.83,2.94,2.94,0,0,0-.83,2.16v1.51h-1a.7.7,0,0,0-.58.2,1,1,0,0,0-.14.57.94.94,0,0,0,.14.57.68.68,0,0,0,.58.2h1v8.52a.81.81,0,0,0,.25.68,1,1,0,0,0,.66.18,1.21,1.21,0,0,0,.67-.18.81.81,0,0,0,.24-.68v-8.52H5.63c.28,0,.48-.05.58-.2a1.14,1.14,0,0,0,.14-.57,1,1,0,0,0-.14-.57A.7.7,0,0,0,5.63,138.67Z"/>
    <path d="M15.49,139.81a4.5,4.5,0,0,0-1.67-1.13,5.66,5.66,0,0,0-2.14-.39,5.68,5.68,0,0,0-2.15.39,4.46,4.46,0,0,0-1.66,1.13,5,5,0,0,0-1.08,1.81A7.5,7.5,0,0,0,6.42,144a7.7,7.7,0,0,0,.37,2.43,4.87,4.87,0,0,0,1.08,1.82,4.37,4.37,0,0,0,1.66,1.14,5.32,5.32,0,0,0,2.15.41,5.67,5.67,0,0,0,2.14-.41,4.82,4.82,0,0,0,1.67-1.14,5.44,5.44,0,0,0,1.07-1.82,7.65,7.65,0,0,0,.37-2.43,7.46,7.46,0,0,0-.37-2.42A5,5,0,0,0,15.49,139.81Zm-1.32,7.3a3,3,0,0,1-2.48,1.12,3,3,0,0,1-2.48-1.12A4.93,4.93,0,0,1,8.35,144a4.83,4.83,0,0,1,.86-3,3,3,0,0,1,2.48-1.09A3,3,0,0,1,14.17,141a4.83,4.83,0,0,1,.86,3A4.91,4.91,0,0,1,14.17,147.11Z"/>
    <path d="M27.66,138.69a1.16,1.16,0,0,0-.68-.18,1.18,1.18,0,0,0-.67.18.81.81,0,0,0-.24.68h0V144a6.39,6.39,0,0,1-.19,1.48,4.86,4.86,0,0,1-.56,1.36,2.71,2.71,0,0,1-2.42,1.34,2.28,2.28,0,0,1-1.9-.67,3.08,3.08,0,0,1-.52-1.93v-6.25c0-.5-.31-.76-.94-.76s-.88.26-.88.76V146a4.61,4.61,0,0,0,.28,1.71,3.07,3.07,0,0,0,2,1.9,5.09,5.09,0,0,0,1.55.23,4,4,0,0,0,1.73-.33,4.37,4.37,0,0,0,1.15-.71,3.53,3.53,0,0,0,.81-1v1a.79.79,0,0,0,.23.64,1.13,1.13,0,0,0,.66.17,1.07,1.07,0,0,0,.65-.17.79.79,0,0,0,.21-.64v-9.41A.86.86,0,0,0,27.66,138.69Z"/>
    <path d="M38.4,139.22a4,4,0,0,0-2.75-.94,4.08,4.08,0,0,0-1.75.33,4.58,4.58,0,0,0-1.13.71,3.72,3.72,0,0,0-.82,1v-1a.75.75,0,0,0-.23-.64,1.11,1.11,0,0,0-.66-.17,1,1,0,0,0-.64.17.81.81,0,0,0-.21.64v9.41a.84.84,0,0,0,.22.68,1.12,1.12,0,0,0,.68.18,1.21,1.21,0,0,0,.67-.18.81.81,0,0,0,.24-.68h0v-4.57a6.29,6.29,0,0,1,.18-1.47,4.52,4.52,0,0,1,.56-1.35,3.13,3.13,0,0,1,1-1,2.66,2.66,0,0,1,1.43-.37,2.28,2.28,0,0,1,1.9.66,3,3,0,0,1,.53,1.93v6.24c0,.52.32.76,1,.76s.89-.26.89-.76v-6.7A3.74,3.74,0,0,0,38.4,139.22Z"/>
    <path d="M51.21,135.24a.8.8,0,0,0-.23-.67,1,1,0,0,0-.67-.19,1.16,1.16,0,0,0-.67.19.79.79,0,0,0-.25.67v4.9a3.21,3.21,0,0,0-.48-.66,4.48,4.48,0,0,0-.76-.58,4.13,4.13,0,0,0-1-.43,4.08,4.08,0,0,0-1.24-.18,4.39,4.39,0,0,0-2,.42,4.54,4.54,0,0,0-1.48,1.17,5,5,0,0,0-.93,1.81,8,8,0,0,0-.31,2.32,8.21,8.21,0,0,0,.31,2.33,5.26,5.26,0,0,0,.93,1.83,4.28,4.28,0,0,0,3.48,1.62,4.1,4.1,0,0,0,2.22-.58,3.83,3.83,0,0,0,1.36-1.42v1a.76.76,0,0,0,.23.64,1.15,1.15,0,0,0,.66.17,1.07,1.07,0,0,0,.65-.17.79.79,0,0,0,.21-.64h0Zm-1.93,10.43a4,4,0,0,1-.62,1.32,2.78,2.78,0,0,1-1,.87,2.91,2.91,0,0,1-1.37.31,2.72,2.72,0,0,1-2.35-1.11,4.88,4.88,0,0,1-.82-3,7.65,7.65,0,0,1,.19-1.71,3.86,3.86,0,0,1,.57-1.3,2.79,2.79,0,0,1,1-.84,3,3,0,0,1,1.37-.3,2.91,2.91,0,0,1,2.4,1.08,4.72,4.72,0,0,1,.86,3A6.62,6.62,0,0,1,49.28,145.67Z"/>
    <path d="M61.31,139.41a4,4,0,0,0-1.36-.83,6,6,0,0,0-2.08-.31,5.85,5.85,0,0,0-1.86.27,5,5,0,0,0-1.25.61,3.88,3.88,0,0,0-.71.65,2.35,2.35,0,0,0-.26.37l-.1.23a2,2,0,0,0,0,.29.63.63,0,0,0,.29.53,1.15,1.15,0,0,0,.63.2.71.71,0,0,0,.38-.09,1.75,1.75,0,0,0,.36-.34c.09-.1.19-.22.32-.35a1.86,1.86,0,0,1,.47-.36,4.2,4.2,0,0,1,.7-.3,3.47,3.47,0,0,1,1-.13,2.91,2.91,0,0,1,2,.61,2.43,2.43,0,0,1,.63,1.83v.43l-1.08,0a13.38,13.38,0,0,0-3.07.33,6,6,0,0,0-2,.8,2.88,2.88,0,0,0-1,1.21,4,4,0,0,0-.3,1.55,3.48,3.48,0,0,0,.23,1.22,2.41,2.41,0,0,0,.69,1,3,3,0,0,0,1.16.65,5,5,0,0,0,1.66.25,5.37,5.37,0,0,0,1.4-.17,4.21,4.21,0,0,0,1-.45,3.17,3.17,0,0,0,.74-.58c.2-.22.37-.42.52-.62v.64a1.7,1.7,0,0,0,.14.78c.09.18.34.28.76.28.62,0,.93-.24.93-.71V142a4.48,4.48,0,0,0-.24-1.4A3.41,3.41,0,0,0,61.31,139.41Zm-.86,5.67a2.91,2.91,0,0,1-.36,1.56,3.36,3.36,0,0,1-1.26,1.15,3.74,3.74,0,0,1-1.83.46,2.2,2.2,0,0,1-1.66-.53,1.81,1.81,0,0,1-.5-1.26,2.09,2.09,0,0,1,.18-.93,1.54,1.54,0,0,1,.68-.71,4.43,4.43,0,0,1,1.34-.45,13.93,13.93,0,0,1,2.23-.19h1.18Z"/>
    <path d="M69.54,149.49c.45-.18.68-.46.68-.8a1,1,0,0,0-.23-.62.7.7,0,0,0-.53-.25.77.77,0,0,0-.33.07l-.29.13-.33.13a1.2,1.2,0,0,1-.44.07,1.21,1.21,0,0,1-1-.35,2.17,2.17,0,0,1-.28-1.29v-6.35h2a.67.67,0,0,0,.57-.2,1.18,1.18,0,0,0,.14-.58,1,1,0,0,0-.14-.57.69.69,0,0,0-.57-.2h-2V135.9c0-.41-.2-.63-.6-.63a1.6,1.6,0,0,0-.85.23.68.68,0,0,0-.31.35,1.68,1.68,0,0,0-.08.6v2.22H64a.67.67,0,0,0-.57.2,1,1,0,0,0-.15.57.94.94,0,0,0,.15.57c.08.13.28.2.57.2h1V147a2.8,2.8,0,0,0,.72,2.09,3,3,0,0,0,2.19.72A4.24,4.24,0,0,0,69.54,149.49Z"/>
    <path d="M72.08,136.73a1.17,1.17,0,0,0,.83-.31,1.33,1.33,0,0,0,0-1.75,1.27,1.27,0,0,0-1.66,0,1.16,1.16,0,0,0-.33.87,1.12,1.12,0,0,0,.33.88A1.17,1.17,0,0,0,72.08,136.73Z"/>
    <path d="M72.08,149.59a1.21,1.21,0,0,0,.67-.18.81.81,0,0,0,.24-.68v-9.36a.82.82,0,0,0-.24-.68,1.11,1.11,0,0,0-.67-.18,1.17,1.17,0,0,0-.68.18.84.84,0,0,0-.23.68v9.36a.84.84,0,0,0,.23.68A1.12,1.12,0,0,0,72.08,149.59Z"/>
    <path d="M76.17,148.29a4.45,4.45,0,0,0,1.66,1.14,5.35,5.35,0,0,0,2.15.41,5.68,5.68,0,0,0,2.15-.41,4.78,4.78,0,0,0,1.66-1.14,5.13,5.13,0,0,0,1.07-1.82,7.38,7.38,0,0,0,.38-2.43,7.19,7.19,0,0,0-.38-2.42,4.86,4.86,0,0,0-1.07-1.81,4.54,4.54,0,0,0-1.66-1.13,6.12,6.12,0,0,0-4.3,0,4.54,4.54,0,0,0-1.66,1.13,4.86,4.86,0,0,0-1.07,1.81,7.24,7.24,0,0,0-.37,2.42,7.42,7.42,0,0,0,.37,2.43A4.85,4.85,0,0,0,76.17,148.29Z"/>
    <path d="M95.16,139.22a4,4,0,0,0-2.75-.94,4.08,4.08,0,0,0-1.75.33,4.58,4.58,0,0,0-1.13.71,3.68,3.68,0,0,0-.81,1v-1a.78.78,0,0,0-.23-.64,1.13,1.13,0,0,0-.66-.17,1.07,1.07,0,0,0-.65.17.81.81,0,0,0-.21.64v9.41a.81.81,0,0,0,.23.68,1.11,1.11,0,0,0,.67.18,1.18,1.18,0,0,0,.67-.18.81.81,0,0,0,.25-.68h0v-4.57a5.82,5.82,0,0,1,.19-1.47,4.06,4.06,0,0,1,.56-1.35,3,3,0,0,1,1-1A2.69,2.69,0,0,1,92,140a2.31,2.31,0,0,1,1.91.66,3,3,0,0,1,.53,1.93v6.24c0,.52.31.76.94.76s.89-.26.89-.76v-6.7A3.74,3.74,0,0,0,95.16,139.22Z"/>
    <path d="M80.21,153c-2.49,0-5-.72-5-2.08a.42.42,0,0,1,.43-.43.43.43,0,0,1,.43.43c0,.42,1.46,1.22,4.15,1.22s4.15-.8,4.15-1.22a.43.43,0,0,1,.43-.43.42.42,0,0,1,.43.43C85.22,152.24,82.7,153,80.21,153Zm0,1.6c-5.19,0-8.37-1.39-8.37-2.39,0-.29.28-.62.75-.9a.43.43,0,1,0-.45-.73A2.05,2.05,0,0,0,71,152.18c0,2.12,4.76,3.25,9.23,3.25s9.22-1.14,9.22-3.26c0-.66-.45-1.25-1.32-1.75a.43.43,0,1,0-.43.75c.57.34.89.68.89,1C88.56,153.17,85.38,154.56,80.2,154.56ZM93,150.37a.42.42,0,0,0-.61.07.44.44,0,0,0,.07.6,2.54,2.54,0,0,1,1.06,1.86c0,2.36-5.34,4.88-13.31,4.88s-13.3-2.53-13.3-4.88a8.23,8.23,0,0,1,.43-1.62c.17-.37.17-.59-.18-.66s-.52.1-.63.38a7.84,7.84,0,0,0-.49,1.9c0,3.22,6.21,5.74,14.16,5.74s14.16-2.52,14.18-5.75A3.32,3.32,0,0,0,93,150.37Z"/>
  </symbol>

	<symbol id="digital-logo">
      
    <path class="digital-gradient" fill="url(#gradient-secondary-down)" d="M281,67.2l7.93-.06,0,3.39L281,70.6Zm11.1-27.27.22,27.18-3.39,0-.06-6.8-11.32.1,0-3.4L288.79,57l-.14-17h-11.2V36.6h11.33V40Zm-18,17V40h3.39V57ZM342,44.52V40h3.4V57H342V47.92H330.68v-3.4ZM265.7,33.2V29.8h3.4v3.4Zm35.39,0V29.8h3.4v3.4Zm65.26,27.18V57h3.4v3.4Zm-11.75,0V57h7.93v3.4ZM351.2,57V23h3.4V57ZM315,60.38V57h7.93v3.4Zm15.72,0V57H342v3.4Zm0-20.39V36.6H342V40Zm-3.4,17V47.92h3.4V57Zm-84.22,3.4V57h11.32v3.4ZM296.56,40V36.6h7.93V60.38h-3.4V40Zm-35.38,0V36.6h7.92V60.38h-3.4V40Zm50.39-17H315V36.6h7.93V40H315V57h-3.39Zm-57.19,0h3.4V57h-3.4V40H243.06V36.6h11.32ZM239.66,57V40h3.4V57Z" />
  </symbol>


  <!-- Virgin Money -->

	<symbol id="vm" viewBox="0 0 228.76 96">
    <use xmlns:xlink="http://www.w3.org/1999/xlink" xlink:href="#logo"></use>
    <use xmlns:xlink="http://www.w3.org/1999/xlink" xlink:href="#money"></use>
  </symbol>
	
	<symbol id="vm-outline" viewBox="0 0 228.76 96">
    <use xmlns:xlink="http://www.w3.org/1999/xlink" xlink:href="#logo-outline"></use>
    <use xmlns:xlink="http://www.w3.org/1999/xlink" xlink:href="#money"></use>
  </symbol>

	<symbol id="vm-portrait" viewBox="0 0 96.4 135.57">
    <use xmlns:xlink="http://www.w3.org/1999/xlink" xlink:href="#logo"></use>
    <use xmlns:xlink="http://www.w3.org/1999/xlink" xlink:href="#money-portrait"></use>
  </symbol>

	<symbol id="vm-portrait-outline" viewBox="0 0 96.4 135.57">
    <use xmlns:xlink="http://www.w3.org/1999/xlink" xlink:href="#logo-outline"></use>
    <use xmlns:xlink="http://www.w3.org/1999/xlink" xlink:href="#money-portrait"></use>
  </symbol>
	
  <!-- Virgin Money Giving -->
	<symbol id="vmg" viewBox="0 0 348.19 96">
    <use xmlns:xlink="http://www.w3.org/1999/xlink" xlink:href="#logo"></use>
    <use xmlns:xlink="http://www.w3.org/1999/xlink" xlink:href="#money"></use>
    <use xmlns:xlink="http://www.w3.org/1999/xlink" xlink:href="#giving"></use>
  </symbol>
	<symbol id="vmg-outline" viewBox="0 0 348.19 96">
    <use xmlns:xlink="http://www.w3.org/1999/xlink" xlink:href="#logo-outline"></use>
    <use xmlns:xlink="http://www.w3.org/1999/xlink" xlink:href="#money"></use>
    <use xmlns:xlink="http://www.w3.org/1999/xlink" xlink:href="#giving"></use>
  </symbol>
	
	<symbol id="vmg-portrait" viewBox="0 0 96.4 166.04">
    <use xmlns:xlink="http://www.w3.org/1999/xlink" xlink:href="#logo"></use>
    <use xmlns:xlink="http://www.w3.org/1999/xlink" xlink:href="#money-portrait"></use>
    <use xmlns:xlink="http://www.w3.org/1999/xlink" xlink:href="#giving-portrait"></use>
  </symbol>

	<symbol id="vmg-portrait-outline" viewBox="0 0 96.4 166.04">
    <use xmlns:xlink="http://www.w3.org/1999/xlink" xlink:href="#logo-outline"></use>
    <use xmlns:xlink="http://www.w3.org/1999/xlink" xlink:href="#money-portrait"></use>
    <use xmlns:xlink="http://www.w3.org/1999/xlink" xlink:href="#giving-portrait"></use>
  </symbol>

  <!-- Virgin Money Foundation -->
	<symbol id="foundation" viewBox="0 0 431.62 96">
    <use xmlns:xlink="http://www.w3.org/1999/xlink" xlink:href="#logo"></use>
    <use xmlns:xlink="http://www.w3.org/1999/xlink" xlink:href="#money"></use>
    <use xmlns:xlink="http://www.w3.org/1999/xlink" xlink:href="#foundation-logo"></use>
  </symbol>
	<symbol id="foundation-outline" viewBox="0 0 431.62 96">
    <use xmlns:xlink="http://www.w3.org/1999/xlink" xlink:href="#logo-outline"></use>
    <use xmlns:xlink="http://www.w3.org/1999/xlink" xlink:href="#money"></use>
    <use xmlns:xlink="http://www.w3.org/1999/xlink" xlink:href="#foundation-logo"></use>
  </symbol>
	
	<symbol id="foundation-portrait" viewBox="0 0 96.4 158.64">
    <use xmlns:xlink="http://www.w3.org/1999/xlink" xlink:href="#logo"></use>
    <use xmlns:xlink="http://www.w3.org/1999/xlink" xlink:href="#money-portrait"></use>
    <use xmlns:xlink="http://www.w3.org/1999/xlink" xlink:href="#foundation-logo-portrait"></use>
  </symbol>

	<symbol id="foundation-portrait-outline" viewBox="0 0 96.4 158.64">
    <use xmlns:xlink="http://www.w3.org/1999/xlink" xlink:href="#logo-outline"></use>
    <use xmlns:xlink="http://www.w3.org/1999/xlink" xlink:href="#money-portrait"></use>
    <use xmlns:xlink="http://www.w3.org/1999/xlink" xlink:href="#foundation-logo-portrait"></use>
  </symbol>


</svg>