<svg xmlns="http://www.w3.org/2000/svg" xmlns:xlink="http://www.w3.org/1999/xlink" version="1.1" class="visually-hidden">

	<symbol id="music" viewBox="0 0 24 24">
		<path d="M19.1751658,21.2862954 L19.072684,21.3418331 C18.2573532,21.8301517 17.6357217,22.8255705 16.7217918,22.9758224 L16.4869385,22.9949951 C15.3394775,22.9949951 14.5952759,21.0726318 12.9368896,21.0726318 C11.5890503,21.0726318 10.989502,22.9949951 9.39608292,22.9949951 C7.8026639,22.9949951 6.31,20.69 4.95,19.61 L4.95,19.61 L4.60016585,19.2922954 L6.2,17.41 C6.59275885,16.9890544 6.62081306,16.3525287 6.28416261,15.9007859 L6.2,15.8 C5.83174582,15.4137017 5.83174582,14.8062983 6.2,14.42 L6.2,14.42 L14.39,5.58 L17.92,9.11 L9.08,17.3 M19.1751658,21.2862954 L19.2808333,21.2311006 C19.4935805,21.1324978 19.7209652,21.0726318 19.9705811,21.0726318 C20.9690444,21.0726318 21.8097608,22.0304876 22.5756369,22.5939321 L22.6951658,22.6772954 M3.53,18.32 L4.60016585,19.2922954 L3.55,20.53 C3.04511689,21.1101664 2.18643803,21.2217946 1.55,20.79 C1.12678738,20.5104896 0.872165849,20.0371834 0.872165849,19.53 C0.872165849,19.0228166 1.12678738,18.5495104 1.55,18.27 L1.67,18.18 C2.24912159,17.7960505 3.01487659,17.8536879 3.53,18.32 Z M21.3286882,2.17167742 C22.5715054,3.41449455 22.8574317,5.32298778 22.0333981,6.87545598 C21.2093645,8.42792419 19.4684572,9.26059573 17.7426611,8.9277046 L14.5726611,5.7577046 C14.2397699,4.03190845 15.0724415,2.29100112 16.6249097,1.46696756 C18.1773779,0.642933989 20.0858711,0.92886029 21.3286882,2.17167742 Z" />
	</symbol>

	<symbol id="living" viewBox="0 0 24 24">
	
    <path d="M19.1,16.17 L18.57,16.71 L17.69,17.59 C16,19.41 14,21.2 12,23 C5.65,18.43 1.25,13.43 1,7.5 C1,3.91 3.41,1 7,1 C9.15959184,1 10.7910371,1.93937526 11.9332535,3.167384 L12.006,3.249 L12.0871946,3.16071943 C13.1815886,1.99104251 14.7157494,1.08563048 16.7117177,1.00573698 L17,1 C20.59,1 23,3.91 23,7.5 C22.8082802,9.0727419 22.3976396,10.610961 21.78,12.07 M12.006,3.249 L11.9338419,3.32955325 C10.6306706,4.80730945 10,6.64918367 10,7.79 C10,10.94 14,10.94 14,7.79 C14,6.65979592 13.3834069,4.81727197 12.0859815,3.33656767 L12.006,3.249 Z M23.8826904,14.6876831 L20.0404663,14.6876831 L17.2428589,10 L12.8901367,17.7368164 L9.88269043,13.1320338 L8.35229492,14.4320068 L7,14.4320068" />
	</symbol>

	<symbol id="moym" viewBox="0 0 24 24">
    <path d="M20.28,17.5 C20.9678233,19.0841744 21.9914,20.5001221 23.28,21.65 C23.4365368,21.7917767 23.4871106,22.0166191 23.4063589,22.2117692 C23.3256071,22.4069192 23.1309469,22.5302855 22.92,22.52 C20.9348344,22.6096386 18.9729026,22.0631004 17.32,20.96 C15.5096913,22.0919531 13.3910903,22.6303435 11.26,22.5 C5.46101013,22.3260303 0.901030304,17.4839899 1.075,11.685 C1.2489697,5.88601013 6.09101013,1.3260303 11.89,1.5 C15.1418164,1.50157149 18.2026915,3.03571468 20.15,5.64 C21.820945,7.80015477 22.1740968,10.7021417 21.07,13.2 C20.3863144,14.9755425 18.864531,16.2949212 17.01,16.72 C16.7620254,16.7650045 16.5079746,16.7650045 16.26,16.72 C14.48,16.39 14.26,13.72 14.52,10.72 C14.3871413,13.0040061 13.6597839,15.2136557 12.41,17.13 C11.48,17.01 11.35,14.96 11.11,12.3 C11.0524966,11.9498378 10.8137316,11.656375 10.4825847,11.5288526 C10.1514378,11.4013302 9.77751187,11.4588499 9.5,11.68 C8.55,12.68 7.77,14.85 7.13,18.2 C7.2,13.44 7.5,6.17 10.22,4.5 C10.5319099,4.18391937 11.0148996,4.11139235 11.4058871,4.32192405 C11.7968745,4.53245574 12.0021903,4.9756088 11.91,5.41 C12,7.41 9.06,9.41 4.31,11.41" />
	</symbol>

</svg>