<svg xmlns="http://www.w3.org/2000/svg" xmlns:xlink="http://www.w3.org/1999/xlink" version="1.1" class="visually-hidden">


  <symbol id="current-accounts" viewBox="0 0 96 96">
    <path d="M12.8,32.6c0-3.3,1.6-6.4,3.7-6.8l48.9-9.3c5.5-1.1,7.6,2.3,7.6,7.4v1.9 M81,44.7V32.6c0-3.3-3-6.1-6.3-6.1h-56  c-3.3,0-5.7,2.7-5.7,6.1v41.1c0,3.3,2.4,5.9,5.7,5.9h56c3.3,0,6.3-2.5,6.3-5.9v-13 M19,43v29.4c0,0.8,0.6,1.1,1.3,1.1h13.2   M69.1,60.5h13.7c1.7,0,3.1-1,3.1-2.8v-9.2c0-1.7-1.4-3-3.1-3H69.1c-4.3,0-8.1,3.4-8.1,7.7V53C61,57.2,64.8,60.5,69.1,60.5z   M69.7,56.5c1.9,0,3.4-1.5,3.4-3.4s-1.5-3.4-3.4-3.4s-3.4,1.5-3.4,3.4S67.9,56.5,69.7,56.5z M39,73.7h-1"/>
  </symbol>

  <symbol id="investments" viewBox="0 0 96 96">
    <path d="M48,73v18 M48,6v7 M53.4,72.5L60,90.7 M42.5,73l-5.8,17.7 M25,68v3c0,0.6,0.8,1.5,1.4,1.5h43.9  c0.6,0,0.7-0.9,0.7-1.5v-3 M41.5,66.5h33.4c2.1,0,4.1-1.4,4.1-3.5V22.3c0-2.1-2.1-3.8-4.1-3.8h-53c-2.1,0-3.8,1.7-3.8,3.8V63  c0,2.1,1.7,3.5,3.8,3.5h10.7 M55,14.1c0-0.3-0.3-0.6-0.6-0.6H41.6c-0.3,0-0.6,0.3-0.6,0.6v3.8c0,0.3,0.3,0.6,0.6,0.6h12.8  c0.3,0,0.6-0.3,0.6-0.6V14.1z M37,48.2c0-0.4-0.3-0.7-0.7-0.7h-7.6c-0.4,0-0.7,0.3-0.7,0.7v10.6c0,0.4,0.3,0.7,0.7,0.7h7.6  c0.4,0,0.7-0.3,0.7-0.7V48.2z M53,40.4c0-0.5-0.4-0.9-0.9-0.9h-7.1c-0.5,0-0.9,0.4-0.9,0.9v18.1c0,0.5,0.4,0.9,0.9,0.9h7.1  c0.5,0,0.9-0.4,0.9-0.9V40.4z M69,29.7c0-0.6-0.5-1.2-1.2-1.2h-6.7c-0.6,0-1.2,0.5-1.2,1.2v28.7c0,0.6,0.5,1.2,1.2,1.2h6.7  c0.6,0,1.2-0.5,1.2-1.2V29.7z M36.5,66.7h1"/>
  </symbol>

  <symbol id="mortgages" viewBox="0 0 96 96">
    <path d="M23.6,19.5v-5.9c0-0.6,0.5-0.6,1.1-0.6h7.1c0.6,0,0.8,0,0.8,0.6v5.9 M18.6,47.5V82h61V47.5 M44.9,19.9L15.1,20  c-0.7,0-1.5,0.1-1.5,0.7V51L49.1,16L84.6,51V20.9c0-0.6-0.9-0.9-1.5-0.9h-30 M47.6,52h-17v30h17V52z M68.6,52h-14v17h14V52z   M14.1,25h14 M14.1,32h18 M14.1,39h10 M59.1,25h25 M66.1,32h18 M73.1,39h11 M31.6,25.2h1 M40.6,67.2h1"/>
  </symbol>

  <symbol id="savings" viewBox="0 0 96 96">
    <path d="M85.8,51.2c-2-1-3.4-2.1-3.8-3.5c-0.3-0.8-0.8-2.9,0.7-4.6c0.9-1,2.1-1.1,3.1-0.4c1.1,0.8,1.2,2.7,0.7,3.9  c-0.9,1.9-2.3,2.8-4.8,2.6c-3-0.3-4.6-7.9-4.6-7.9 M63.4,28.6c-4.3-3.2-9.5-5.1-15.3-5.1c-3.8,0-7.3,0.8-10.5,2.3 M55.9,71.2  c9.1-3.2,15.7-11.9,15.7-22.2c0-2.7-0.5-5.4-1.3-7.8 M60.2,25.9c0.3-0.9,0.5-1.9,0.5-2.9c0-5.5-4.7-10-10.5-10s-10.5,4.5-10.5,10  c0,0.5,0,1,0.1,1.4 M39.7,20.2c-2.3,0.6-3.8,1.3-5.8,2.4l-12.8-3.8c-1.3-0.4-2.4,1-1.8,2.1l5,9.8c-1.8,2.3-3.2,4.7-4.3,7.7h-3.4  c-2.7,0-5,2.3-5,5v9.9c0,2.7,2.2,5,5,5h3c1.4,4,3.6,7.9,6.5,11l-2,4.2c-1.1,2.3-0.1,5.1,2.4,6.2l7.1,3.2c2.4,1.1,5.3,0.1,6.5-2.3  l1.3-2.6c2.1,0.5,4.4,0.8,6.7,0.8c2.4,0,4.7-0.3,7-0.8l1.3,2.6c1.1,2.3,4,3.3,6.5,2.3l7.1-3.2c2.4-1.1,3.5-3.9,2.4-6.2l-2.1-4.2  c5-5.4,8-12.5,8-20.4c0-12.4-6.6-22.3-17.4-26.8 M51.7,72.2h-1 M30.7,40.2h-1"/>
  </symbol>

  <symbol id="cards" viewBox="0 0 96 96">
    <path xmlns="http://www.w3.org/2000/svg" class="st1" d="M22.2,42.2l9.7-23c0.8-2,3.2-3,5.2-2.2l45.3,18.8c2,0.8,3,3.2,2.2,5.2L73.5,67.8c-0.8,2-2.2,3.2-4.2,2.4 M51,62  c-2.5,0-4.5,2-4.5,4.5s2,4.5,4.5,4.5s4.5-2,4.5-4.5S53.5,62,51,62z M54.2,70.2C55,71,55.8,71,57,71c2.5,0,4.5-2,4.5-4.5  S59.5,62,57,62c-1.4,0-1.9,0.2-2.8,1.2 M18.5,52.5h42 M18.5,63.5h20 M18.5,69.5h16 M82.3,44L30.9,22.6 M69.7,45.6L80.3,50   M28.9,28.6l31.6,13.1 M65.2,42.2h-49c-2.2,0-4,1.8-4,4v29c0,2.2,1.8,4,4,4h49c2.2,0,4-1.8,4-4v-29C69.2,44,67.4,42.2,65.2,42.2z   M38.2,69.2h1"/>
  </symbol>

  <symbol id="pensions" viewBox="0 0 96 96">
    <path d="M89.5,74.6c-0.4,1.4-1.6,2.3-3,2.4c-0.3,0-0.6,0-0.9-0.1l-25.5-7.7c-0.9-0.3-1.8-0.4-2.7-0.3  c-7.1,0.3-38.9,1.7-39,1.7c-1.1,0-1.9-0.4-2-1.4c-0.1-1.1,0.8-1.7,1.9-1.8c0,0,36-3.6,40.4-3.1c0.1,0,0.2,0,0.3,0l28.2,6.4  C89,71.2,90,72.9,89.5,74.6z M42.2,71.3c-10.4,2.9-18.4,7.1-16.4,19C30.6,83.7,41.9,87.4,42.2,71.3z M26.6,27.5  c-7.9,1.5-13.8,3.8-15.8,6.8h0c-5,7-2.2,13.4,5.3,17.8c5.4,7.6,15.3,12.8,26.8,12.9c11.5-0.1,21.5-5.3,26.8-12.9  C77.2,47.7,80,41.4,75,34.4h0c-2-3-8.1-5.5-16.3-6.9 M55.6,42c0.8-1.6,1.5-3.3,2-5.1c3-10.9,0.2-27.2-8.3-29.5S30,17.6,26.9,28.4  c-1.3,4.6-1.2,9.1-0.1,13.1 M16.5,38.7c6.1,2.5,15.6,4.1,26.4,4.1c9.4,0,17.8-1.2,23.9-3.2 M24.6,55.7c5.1,1.5,11.3,2.3,18,2.3  c0.1,0,0.2,0,0.3,0c0.1,0,0.2,0,0.3,0c10.8,0,20.1-2.1,26.2-5.6 M15.4,51.8c2.5,1.6,5.6,2.9,9.2,3.9 M70.2,38h1"/>
  </symbol>

  <symbol id="insurance" viewBox="0 0 96 96">
    <path d="M51.5,49.9c-2.9-4.5-1.6-10.6,3-13.5c4.5-2.9,10.6-1.6,13.5,3 M84.4,28.8c-2.9-4.5-9-5.9-13.5-3s-5.9,9-3,13.5   M35,60.5c-2.9-4.5-9-5.9-13.5-3c-4.5,2.9-5.9,9-3,13.5 M51.5,49.9c-2.9-4.5-9-5.9-13.5-3c-4.5,2.9-5.9,9-3,13.5 M84.4,28.8  C72.8,10.6,48.6,5.3,30.4,17C12.2,28.6,6.9,52.8,18.5,71 M26.5,11l22.8,35.6 M50,47.6L68,75.8c2.2,3.5,6.9,4.5,10.4,2.3  c3.5-2.2,4.5-6.9,2.3-10.4 M28.9,49c1.5,3.5,3.5,7.3,6.1,11.5 M30.4,17c0,0-8.2,7.9-4,24.6 M67.9,39.4C49,9.7,30.4,17,30.4,17   M27.5,45.6l-0.3-0.5"/>
  </symbol>

  <symbol id="currency" viewBox="0 0 96 96">
    <path d="M21.3,53.4H10c-1.5,0-2.7-1.2-2.7-2.7V20.1c0-1.5,1.2-2.7,2.7-2.7h62.6c1.5,0,2.7,1.2,2.7,2.7v23.1 M7.5,25.3  L7.5,25.3c4.4,0,7.9-3.2,7.9-7.6 M67.6,17.9c0,4.4,3.3,7.5,7.8,7.5 M15.5,53.2c-0.2-4.2-3.7-7.6-8-7.6h0 M17.8,32.2  c-1.8,0-3.2,1.5-3.2,3.2s1.5,3.2,3.2,3.2s3.2-1.5,3.2-3.2S19.5,32.2,17.8,32.2z M65.5,32.2c-1.8,0-3.2,1.5-3.2,3.2s1.5,3.2,3.2,3.2  c1.8,0,3.2-1.5,3.2-3.2S67.3,32.2,65.5,32.2z M45.4,28.8c-0.8-0.6-1.8-0.9-2.9-0.9c-3.3,0-5.9,3.3-5.9,7.4s2.7,7.4,5.9,7.4  c1,0,2-0.3,2.9-0.9 M33.8,33.4h10 M33.8,37.4h10 M52.1,43.4c1.7-2.2,2.7-4.9,2.7-7.9c0-7.3-5.9-13.1-13.1-13.1s-13.1,5.9-13.1,13.1  c0,2.9,0.9,5.5,2.5,7.7 M89.3,46.1c0-1.5-1.2-2.7-2.7-2.7H24c-1.5,0-2.7,1.2-2.7,2.7v30.6c0,1.5,1.2,2.7,2.7,2.7h62.6  c1.5,0,2.7-1.2,2.7-2.7V46.1z M21.6,51c4.4,0,7.4-3.2,7.4-7.6 M81.3,43.4c0,4.4,3.6,7.5,8,7.5h0 M29.1,79.2L29.1,79.2  c0-4.4-3.3-8-7.7-8 M89.4,71.2L89.4,71.2c-4.4,0-8,3.6-8,8v0 M32.7,57.8c-1.7,0-3.1,1.4-3.1,3.1S31,64,32.7,64s3.1-1.4,3.1-3.1  S34.4,57.8,32.7,57.8z M77.8,57.8c-1.7,0-3.1,1.4-3.1,3.1s1.4,3.1,3.1,3.1s3.1-1.4,3.1-3.1S79.5,57.8,77.8,57.8z M58.6,55.9  c-0.6-0.7-4.5-2.9-6.2,0.5l0,0c-0.7,1.5,0,3.4,1.5,4l2.4,1.1c1.5,0.7,2.2,2.5,1.5,4l0,0c-2.1,3.4-5.5,0.9-5.9,0.3 M55.3,54.9v-2   M55.3,69.9v-3 M66.2,68.2c1.3-2.1,2.1-4.5,2.1-7.2c0-7.3-5.9-13.1-13.1-13.1s-13.1,5.9-13.1,13.1S48,74.2,55.2,74.2  c1.8,0,3.6-0.4,5.2-1 M63.4,71.2l0.1-0.3"/>
  </symbol>

  <symbol id="travel-insurance" viewBox="0 0 96 96">
    <path d="M84.4,74.4c0,2.2-1.8,4-4,4h-64c-2.2,0-4-1.8-4-4v-43c0-2.2,1.8-4,4-4h64c2.2,0,4,1.8,4,4V74.4z M19.4,38.9  v33.5h8.5 M59.9,26.9c0-5.5-4.5-10-10-10h0c-5.5,0-10,4.5-10,10 M78.4,62.9c0-3-2.5-5.5-5.5-5.5l0,0c-3,0-5.5,2.5-5.5,5.5l0,0  c0,3,2.5,5.5,5.5,5.5l0,0C75.9,68.4,78.4,65.9,78.4,62.9L78.4,62.9z M60.9,70.8l1.3-6.5c0.2-1.1-0.5-2.1-1.6-2.4l-12.9-2.6  c-1.1-0.2-2.1,0.5-2.4,1.6L44,67.4c-0.2,1.1,0.5,2.1,1.6,2.4l12.9,2.6C59.6,72.6,60.6,71.9,60.9,70.8z M69.7,50.7L67,44.6  c-0.5-1-1.6-1.4-2.7-1l-6.1,2.8c-1,0.5-1.4,1.6-1,2.7l2.8,6.1c0.5,1,1.6,1.4,2.7,1l6.1-2.8C69.8,52.9,70.2,51.7,69.7,50.7z   M32.1,72.4h-0.5"/>
  </symbol>

  <symbol id="car-insurance" viewBox="0 0 96 96">
    <path d="M33.4,65.6l0,2.9c0,2.2-1.8,4-4,4h-5c-2.2,0-4-1.8-4-4V64 M64.6,66l-0.2,2.4c0,2.2,1.8,4,4,4h5c2.2,0,4-1.8,4-4  l0-4.3 M18.8,63.8l16.5,1.9c10.4,1.2,20.9,1.1,31.3-0.2L79,63.8c1.4-0.2,2.4-1.3,2.4-2.7v0c0-1.6-1.4-2.9-3.1-2.7l-13.6,1.6  c-9.1,1-18.3,1.1-27.4,0.2l-17.9-1.8c-1.6-0.2-3,1.1-3,2.7v0C16.4,62.4,17.4,63.6,18.8,63.8z M79.4,58v-8.6c0-1.4-0.8-2.7-2-3.3l0,0  C59.8,35,37.8,35.7,19.9,46.2h0c-0.9,0.5-1.5,1.5-1.5,2.6l-0.1,9.2 M32.4,59v-2.7c0-2.4-1.5-4.3-3.8-4.8l-10-2 M78.6,49.5l-10.2,2  c-2.3,0.5-4.1,2.4-4.1,4.8V59 M72.9,43.4l-5-16.9l-0.6-0.2c-11.4-5-24.4-5-35.9-0.2l-1,0.4l-6,17.3 M43.9,54.5h6 M54.3,54.5l-0.4,0   M23.4,41.3v-3.8c0-0.6-0.4-1-1-1h-5c-0.6,0-1,0.4-1,1v3.1c0,0.5,0.4,0.9,0.9,1l5,0.7C22.8,42.4,23.4,41.9,23.4,41.3z M75.5,42.3  l5-0.7c0.5-0.1,0.9-0.5,0.9-1v-3.1c0-0.6-0.4-1-1-1h-5c-0.6,0-1,0.4-1,1v3.8C74.4,41.9,74.9,42.4,75.5,42.3z"/>
  </symbol>

  <symbol id="life-insurance" viewBox="0 0 96 96">
    <path d="M66.1,15.2c-7.5,0-13.9,4.8-16.5,11.4c-0.1,0.2-0.3,0.2-0.4,0c-2.6-6.5-9-11.3-16.5-11.3  c-9.8,0-17.8,8-17.8,17.8c0,21.5,28.6,43.3,33.7,47c0.5,0.4,1,0.3,1.6,0c5.2-3.8,33.7-25.5,33.7-46.9C83.9,23.2,75.9,15.2,66.1,15.2   M67.9,48.4h-8l-4.3-15.6l-6.2,23.4l-6.5-18.5l-3.4,10.7h-5.5 M29.4,48.4l0.6,0"/>
  </symbol>

  <symbol id="pet-insurance" viewBox="0 0 96 96">
    <path d="M30.6,49.1c0,4.6-3.7,8.3-8.3,8.3S14,53.7,14,49.1s3.7-10,8.3-10S30.6,44.5,30.6,49.1z M36,15.4  c-5.4,0-9.8,6.4-9.8,11.8S30.6,37,36,37s9.8-4.4,9.8-9.8S41.4,15.4,36,15.4z M61.5,15.4c-5.4,0-9.8,6.4-9.8,11.8s4.4,9.8,9.8,9.8  s9.8-4.4,9.8-9.8S66.9,15.4,61.5,15.4z M75.7,39.1c-4.6,0-8.3,5.5-8.3,10s3.7,8.3,8.3,8.3c4.6,0,8.3-3.7,8.3-8.3  S80.3,39.1,75.7,39.1z M49,42.5c-10.5,0-19,22.8-19,33.3s8.5-0.4,19-0.4s19,10.9,19,0.4S59.5,42.5,49,42.5z M49,48.6  c-5.3,0-11.1,14.8-11.1,16.7 M36.9,68.9l-0.2,0.5"/>
  </symbol>

  <symbol id="home-insurance" viewBox="0 0 96 96">
    <path d="M22.7,22.1v-5.9c0-0.6,0.5-0.6,1.1-0.6h7.1c0.6,0,0.8,0,0.8,0.6v5.9 M17.7,67.1v-17 M78.7,50.1v17 M43.2,22.6  l-29.1-0.1c-0.7,0-1.4,0.5-1.4,1.2v29.9l35.5-35.1l35.5,35.1V23.5c0-0.6-0.9-0.9-1.5-0.9h-30 M46.7,70.1V54.6h-17v12.5 M67.7,68.1  V54.6h-14v13.5 M13.2,28.6l24.3,0.1 M13.2,35.6l17.7-0.1 M13.2,42.6h10 M58.8,28.6l24.4,0 M65.5,35.6l17.7,0.1 M72.8,42.6l10.4,0   M10.2,64.6c6.3,0,6.3,6,12.7,6c6.3,0,6.3-6,12.7-6c6.3,0,6.3,6,12.7,6c6.3,0,6.3-6,12.7-6c6.3,0,6.3,6,12.7,6s6.3-6,12.7-6   M35.2,74.6c6.3,0,6.3,6,12.7,6c6.3,0,6.3-6,12.7-6s6.3,6,12.7,6 M30.7,74.9l-0.3,0"/>
  </symbol>

  <symbol id="vmg" viewBox="0 0 96 96">
    <path d="M48.29,27.66A18,18,0,0,0,31.81,16.33,17.78,17.78,0,0,0,14,34.12c0,21.47,28.62,43.25,33.72,47a1.25,1.25,0,0,0,1.56,0C54.45,77.3,83,55.56,83,34.12A17.73,17.73,0,0,0,48.7,27.68m16-3.35c11.05-.09,12,13,8.44,20.64M31.66,24.33a9.38,9.38,0,0,1,8.82,5.16M70.75,48.83,71,48.5h0"></path>
  </symbol>

  <symbol id="lounges" viewBox="0 0 96 96">
    <path d="M78.89,68.24A14,14,0,0,0,80,62.74,18.8,18.8,0,0,0,78.44,55c.16-.69.33-1.39.51-2.09a8.93,8.93,0,0,0,5.28-8.23,8.69,8.69,0,0,0-8.5-8.86,8.1,8.1,0,0,0-3.81,1,19.21,19.21,0,0,0-4.65-12c-4-4.42-10.22-6.66-18.53-6.66S34.18,20.4,30.2,24.82a19.21,19.21,0,0,0-4.65,12,8.1,8.1,0,0,0-3.81-1,8.69,8.69,0,0,0-8.5,8.86,8.93,8.93,0,0,0,5.28,8.23c.18.7.35,1.4.51,2.09a18.8,18.8,0,0,0-1.53,7.76,14,14,0,0,0,1.08,5.5,6.44,6.44,0,0,0-3.08,5.55,6.21,6.21,0,0,0,6,6.37,9.22,9.22,0,0,0,8.82-7.32A58.43,58.43,0,0,0,48.73,75.7a58.55,58.55,0,0,0,18.39-2.86,9.22,9.22,0,0,0,8.82,7.32,6.21,6.21,0,0,0,6-6.37A6.44,6.44,0,0,0,78.89,68.24ZM21.74,35.8a6.56,6.56,0,0,1,5.41,3.81l0,0c.06.15.13.29.2.43a9.4,9.4,0,0,1,.5,1.26A52.49,52.49,0,0,1,31,58.67l5.6-1.1a57.19,57.19,0,0,1,12.16-1.52,59.45,59.45,0,0,1,12.74,1.52l5.19,1.1A52.94,52.94,0,0,1,70,40.89a6.38,6.38,0,0,1,.36-.83c.07-.14.14-.28.2-.43l0,0c.86-2,2.92-3.81,5.14-3.81m-10.58.52a13.66,13.66,0,0,0-3.05-8.25c-2.61-3-6.71-4.59-12.17-4.59m-4.77,0h.34"/>
  </symbol>
  <symbol id="marathon" viewBox="0 0 96 96">
    <path d="M23.19,24.93a17.25,17.25,0,0,1,9.37-5.75,2.45,2.45,0,0,1,2.9,1.57c1.08,3,3.43,8.85,6.73,12.59,4.64,5.24,8.71,6.1,8.71,6.1s1.76.32,1.71-2.85a7.93,7.93,0,0,1,2.49-5.78,3.29,3.29,0,0,1,5.54,1.75l1.22,6.62L74,65.65l8,6.17c3.71,2.86.9,5.12.9,5.12L80.3,80.28a3.8,3.8,0,0,1-2.73,1.48c-4.08.3-14.62.31-23.29-6.38L42,65.86a3.79,3.79,0,0,1-1.24-1.69c-.71-1.91-2.39-6-4.22-7.43-1.67-1.29-4.45-1.13-6-.91a2.74,2.74,0,0,1-2.21-.67c-1.48-1.31-4.35-3.86-7.09-6.36S14.71,41,12.92,38.37a1.94,1.94,0,0,1,.58-2.72l4.75-3S19,30.38,23.19,24.93Zm-4.94,7.72a40,40,0,0,0,9.8,10.65c6.34,4.71,8,4.19,12.62,9.75s6.06,10.58,17.41,19.35S80.3,80.28,80.3,80.28M39.68,40.34q.05-.36.1-.75c1-8.47-5.48-20.19-5.48-20.19M81.81,73.71a65.67,65.67,0,0,1-15.07-4.42c-6.66-3.11-10-8.3-13.89-10.73s-8,.3-8,.3m16.85-19.5-7.08.28c-1.3.05-2.7.3-2.09,1.44L62.65,59.9a3.38,3.38,0,0,0,3.41,1.76L70.9,61m-6-19.22-5.81,2.35m8.62,4.14-5.9,2.39m8.76,3.61-5.5,2.23M38.63,44.17l-.13.33"/>
  </symbol>
  <symbol id="foundation" viewBox="0 0 96 96">
    <path d="M61.16,34.73a12.5,12.5,0,1,1-12.5-12.5A12.5,12.5,0,0,1,61.16,34.73ZM36,51.63c0,2.49,5.6,4.5,12.5,4.5s12.5-2,12.5-4.5m-33.94.09c-1.66,1-2.6,2.23-2.6,3.48,0,4.25,10.76,7.69,24,7.69s24-3.44,24-7.69c0-1.36-1.1-2.63-3-3.74M11.58,54.62A6.07,6.07,0,0,0,11,57.17c0,8,16.79,14.5,37.5,14.5S86,65.17,86,57.17c0-2.14-1.19-4.16-3.34-6m-68-.49-.29.32"/>
  </symbol>

  <symbol id="sme" viewBox="0 0 96 96">
    <path d="M28.9,34.3c0,0,1.9,1.9,3.1,1.8c1.5-0.2,5.8-4.2,5.8-4.2s1.8-1.4,3.8-1.1c2,0.3,3.8,1.5,3.8,1.5 M44.2,70.1  l3.3,2.2c0.4,0.2,0.9,0.7,1.9,0.9c0.3,0.1,0.6,0.1,0.8,0.1h0.3c0.3,0,0.6,0,0.9-0.1c0.9-0.2,1.4-0.6,1.9-1.4  c0.2-0.2,0.4-0.9,0.7-1.5c0.4-0.9,0.2-1.9-0.5-2.6L49,63l4.8,4.8c0.7,0.7,1.7,1.2,2.7,1.4c0.7,0.1,2.5-0.2,3.3-0.9  c1.2-1,1.5-1.3,1.8-2.4c0.2-0.6,0-1.3-0.5-1.8l-6.3-6.2l6.8,6.6c0.2,0.2-0.2-0.2,0,0c1.4,1,3.6,1.9,5.6-0.1c1.8-1.8,1.6-4.4,1.6-4.4  l-8.3-7.6l8.3,7.6c0,0,2.6,1.7,4.7,0c1-0.8,1.2-1.9,1.1-2.8c-0.1-1.1-0.6-2.2-1.4-2.9l-10.1-9.1c-0.2-0.2-0.5-0.4-0.8-0.5l-10.7-5.1  c-0.4-0.2-0.7-0.3-1.1-0.3h0c-1.2-0.1-2.4,0.4-3.1,1.4l-2,2.8c0,0-1.9,2.6-4.9,0.8c-3-1.8-1.4-4.7-1.4-4.7l3.1-5.1  c0.4-0.7,1.1-1.3,1.8-1.6l5.6-2.4c1-0.4,2-0.4,3-0.1l9.7,3.8c0.8,0.3,1.8,0.4,2.6,0.1l3.5-1.4 M18.6,53.4l3.9,2.5 M35.4,55.1  L35.4,55.1c-1.4-1-3.3-0.6-4.3,0.7L27.8,60c-1,1.4-0.6,3.3,0.7,4.2l0,0c1.4,1,3.3,0.6,4.3-0.7l3.3-4.2C37.1,58,36.8,56.1,35.4,55.1z   M28.8,53.5L28.8,53.5c-1.3-1-3.2-0.8-4.3,0.5l-1.6,2c-1,1.3-0.8,3.2,0.5,4.3l0,0c1.3,1,3.2,0.8,4.3-0.5l1.6-2  C30.3,56.4,30.1,54.5,28.8,53.5z M39.4,60.6l-0.6-0.5c-1.2-0.9-2.9-0.7-3.8,0.4L33,63.3c-0.9,1.2-0.7,2.9,0.4,3.9l0.6,0.5  c1.2,0.9,2.9,0.7,3.8-0.4l2.1-2.7C40.8,63.3,40.6,61.6,39.4,60.6z M41,65c-1.8,0-3.3,1.5-3.3,3.2c0,1.8,1.5,3.2,3.3,3.2  c1.8,0,3.3-1.5,3.3-3.2C44.2,66.5,42.8,65,41,65z M78.4,49.7l-5,4 M19.5,38l-4,7.3 M79.1,27c-0.9-1.6-3-2.2-4.6-1.3l-4.8,2.8  c-1.6,0.9-2.1,3-1.1,4.6l10.9,18.6c0.9,1.6,3,2.2,4.6,1.3l4.8-2.8c1.6-0.9,2.1-3,1.1-4.6L79.1,27z M6.6,46.7  c-0.9,1.6-0.4,3.7,1.1,4.6l4.8,2.8c1.6,0.9,3.6,0.3,4.6-1.3L28,34.1c0.9-1.6,0.4-3.7-1.1-4.6L22,26.7c-1.6-0.9-3.6-0.3-4.6,1.3  L6.6,46.7z M13.5,49L13,49.7"/>
  </symbol>
</svg>