<!-- General -->
<svg xmlns="http://www.w3.org/2000/svg" xmlns:xlink="http://www.w3.org/1999/xlink" version="1.1" class="visually-hidden">
    <symbol id="document" viewBox="0 0 96 96">
        <path d="M57.47,13.39,72.81,28.93a2.37,2.37,0,0,1,.69,1.67V81.5a2,2,0,0,1-2,2h-47a2,2,0,0,1-2-2v-67a2,2,0,0,1,2-2H55.8A2.6,2.6,0,0,1,57.47,13.39Zm-1-.39V29.62a2.16,2.16,0,0,0,2.28,1.88H73m-41,39H50m5.25,0H55m9-8H32m32-8H32m32-8H32m32-8H32m0-11h9"/>
    </symbol>
    <symbol id="calculator" viewBox="0 0 96 96">
        <path d="M81.5,73.5a8,8,0,0,1-8,8h-51a8,8,0,0,1-8-8v-51a8,8,0,0,1,8-8h51a8,8,0,0,1,8,8ZM34.5,26V43M26,34.5H43m-17,28H43m9-28H69m-8.75-8H60m.25,16H60m7.8,13.7L53.2,70.8m0-14.61L67.8,70.8"/>
    </symbol>

    <symbol id="search" viewBox="0 0 96 96">
        <path d="M73.54,44.35A27.77,27.77,0,1,1,45.77,16.5,27.81,27.81,0,0,1,73.54,44.35Zm-12-14.15a21.74,21.74,0,0,0-13-6.57M64,65.41,79,80.5M42.77,23.66H44" />
    </symbol>
    <symbol id="safe" viewBox="0 0 96 96">
        <path d="M43,65.5H28.64a4.31,4.31,0,0,1-4.14-4.2v-29a4,4,0,0,1,4.14-3.81h42a3.73,3.73,0,0,1,3.86,3.81V35M51,65.5H70.64a4.07,4.07,0,0,0,3.86-4.19V59m0-17V52m-2,6.5h4v-5h-4Zm0-18h4v-5h-4ZM39,43a5,5,0,1,0,5,5A5,5,0,0,0,39,43Zm-3.72,1.28-2.5-2.5M45.22,54.22l-2.5-2.5m-9.94,2.5,2.5-2.5m9.94-9.94-2.5,2.5M83.5,24.08a3.58,3.58,0,0,0-3.58-3.58H20.08a3.58,3.58,0,0,0-3.58,3.58V68.92a3.58,3.58,0,0,0,3.58,3.58H79.92a3.58,3.58,0,0,0,3.58-3.58ZM23.5,73v2m54-2v2M47.13,65.5H46.9M39,48.3l.07-.3"/>
    </symbol>
    <symbol id="complete-form" viewBox="0 0 96 96">
        <path d="M68,63V79a2,2,0,0,1-2,2H22a2,2,0,0,1-2-2V34.42a2.52,2.52,0,0,1,.84-1.66L38.16,15.61A2.46,2.46,0,0,1,39.9,15H66a2,2,0,0,1,2,2V32M21.5,33H36.93C38,33,39,32.56,39,31.46v-16M29.5,70h20m-20-8h20m-20-8h20m-20-8h20m-20-8h27m-17-8h17M72.77,59.63,80.28,40l8-10.94A1,1,0,0,0,88,27.68L74.18,20.1a1,1,0,0,0-1.37.49L67.88,33.23,55.35,50a1.49,1.49,0,0,0-.25.83L55,71.25l17.18-11A1.49,1.49,0,0,0,72.77,59.63ZM55.72,70,65.3,52.58m2.21-4-.14.26"/>
    </symbol>
    <symbol id="cash" viewBox="0 0 96 96">
        <path d="m16.56 55.39-4.82-22a2.71 2.71 0 0 1 2.07-3.22l61.39-13.42a2.71 2.71 0 0 1 3.22 2.07l6.58 30.18a2.71 2.71 0 0 1 -.36 2m-71.76-12.4a8 8 0 0 0 6.12-9.52m51-11.19a8 8 0 0 0 9.55 6.11m-9.82 9.2a3.07 3.07 0 1 0 3.65 2.34 3.07 3.07 0 0 0 -3.65-2.34zm-8.4 10.3a13.14 13.14 0 1 0 -25.94-.36m15.73-6.93c-1.79-2.34-7.53-.37-5.13 3.29a10.69 10.69 0 0 1 1.88 3.83m-3.69-1.42 6.9-1.52m33.42 5.82a2.71 2.71 0 0 0 -2.71-2.71h-62.58a2.71 2.71 0 0 0 -2.71 2.71v30.58a2.71 2.71 0 0 0 2.71 2.71h62.58a2.71 2.71 0 0 0 2.71-2.71zm-68 5.29a8 8 0 0 0 8-8m52 0a8 8 0 0 0 8 8m-60.24 27.85c0-4.41-3-8-7.45-8m67.71 0a8 8 0 0 0 -8 8m-48.69-21.35a3.07 3.07 0 1 0 3.07 3 3.06 3.06 0 0 0 -3.07-3zm45.17 0a3.07 3.07 0 1 0 3 3 3.06 3.06 0 0 0 -3-3zm-11.59 10.36c1.86-1.61 2.12-4.51 2.12-7.15a13.11 13.11 0 1 0 -8 12.09m-1.47-16.3c-1.24-2.67-7.24-1.94-5.68 2.15 1.23 3.21 1.94 5.39-1.19 7.39h6.81m-8-6h7m5.88 10.62-.24.24" />
    </symbol>
    <symbol id="offers" viewBox="0 0 96 96">
        <path d="M68,60.61l-.25.16m-50-38.51c-1.08,5.39-3,15.25-3.9,20.19a5.75,5.75,0,0,0,1.59,5.13l33,33a5.71,5.71,0,0,0,8.07,0l24.1-24.1a5.71,5.71,0,0,0,0-8.07l-33-33a5.75,5.75,0,0,0-5.16-1.58l-20.23,4A5.64,5.64,0,0,0,17.74,22.25ZM71.31,57.74l5.48-5.48L52,27.42M24.47,24a4,4,0,1,0,5.66,0A4,4,0,0,0,24.47,24Z"/>
    </symbol>
    <symbol id="guide" viewBox="0 0 96 96">
        <path d="M21.63,66l-6.26-1.74c-2.19-2.55-2-10-.6-12.86m19,17.82C44.61,72.21,54,74.94,54,74.94L84.28,38.61c-1.2-2.22-1.06-7.8,0-10.73m-52,43a7.17,7.17,0,0,1,1.35-2.62l2.56-3.14L24.93,62.06l-2.19,2.47A8.08,8.08,0,0,0,21,67.79L18.6,76.61l6.5-.84,4.74,3.91Zm22.3-8.21L84,28.58a1.32,1.32,0,0,0-.66-2.14L45.84,16.37a1.32,1.32,0,0,0-1.34.41l-29.4,34.1A1.32,1.32,0,0,0,15.75,53L53.22,63.1A1.32,1.32,0,0,0,54.56,62.68ZM45.79,25.63l26.53,7.14m-31.65-1.2L67.2,38.7m-37.51,10L45,52.86m3.65,1.35H49"/>
    </symbol>
    <symbol id="reporting" viewBox="0 0 96 96">
        <path d="M69.5,24.5h9.58l-18,18.07-8.32-8.26L39.51,47.51m40-13v-10M39.21,47.59l-6.87-6.87L19.55,53.5m-3.3,3.33.19-.23M23.5,58.5v14m7-21v21m7-17v17m7-20v20m7-27v27m7-23v23m7-26v26m7-32v32"/>
    </symbol>
    <symbol id="faq" viewBox="0 0 96 96">
        <path d="M38.26,40.5a10.5,10.5,0,1,1,14.09,9.87l0,0a7.5,7.5,0,0,0-4.83,7v2.42m0,6.31V65.5M48,13A35.5,35.5,0,1,0,83.5,48.5,35.5,35.5,0,0,0,48,13Z"/>
    </symbol>
    <symbol id="settings" viewBox="0 0 96 96">
        <path d="M55.29,42.42l2-7.53a.33.33,0,0,0-.23-.4l-3.67-1a17.44,17.44,0,0,0-.64-5.23l3.28-1.88a.33.33,0,0,0,.12-.45l-3.88-6.77a.33.33,0,0,0-.45-.12l-3.24,1.86a17.45,17.45,0,0,0-4.2-3.26l1-3.59a.33.33,0,0,0-.23-.4l-7.53-2a.33.33,0,0,0-.4.23l-1,3.59a17.45,17.45,0,0,0-5.27.69l-1.86-3.24a.33.33,0,0,0-.45-.12l-6.77,3.88a.33.33,0,0,0-.12.45l1.88,3.28a17.44,17.44,0,0,0-3.2,4.19l-3.67-1a.33.33,0,0,0-.4.23l-2,7.53a.33.33,0,0,0,.23.4l3.73,1A17.44,17.44,0,0,0,19,37.88l-3.38,1.94a.33.33,0,0,0-.12.45L19.38,47a.33.33,0,0,0,.45.12l3.42-2a17.44,17.44,0,0,0,4.09,3.14l-1,3.81a.33.33,0,0,0,.23.4l7.53,2a.33.33,0,0,0,.4-.23l1-3.81a17.44,17.44,0,0,0,5.11-.64l2,3.42a.33.33,0,0,0,.45.12l6.77-3.88a.33.33,0,0,0,.12-.45L48,45.74a17.45,17.45,0,0,0,3.2-4.1l3.73,1A.33.33,0,0,0,55.29,42.42ZM81.73,67.49l1.51-5.55a.24.24,0,0,0-.17-.3l-2.71-.74a12.86,12.86,0,0,0-.47-3.86l2.42-1.38a.24.24,0,0,0,.09-.33l-2.86-5a.24.24,0,0,0-.33-.09l-2.39,1.37a12.86,12.86,0,0,0-3.1-2.41l.72-2.65a.24.24,0,0,0-.17-.3l-5.55-1.51a.24.24,0,0,0-.3.17l-.72,2.65a12.86,12.86,0,0,0-3.89.51l-1.37-2.39a.24.24,0,0,0-.33-.09l-5,2.86a.24.24,0,0,0-.09.33l1.38,2.42a12.86,12.86,0,0,0-2.36,3.09l-2.71-.74a.24.24,0,0,0-.3.17L51.54,59.3a.24.24,0,0,0,.17.3l2.75.75a12.86,12.86,0,0,0,.51,3.8l-2.49,1.43a.24.24,0,0,0-.09.33l2.86,5a.24.24,0,0,0,.33.09l2.52-1.44a12.86,12.86,0,0,0,3,2.32l-.76,2.81a.24.24,0,0,0,.17.3l5.55,1.51a.24.24,0,0,0,.3-.17l.76-2.81A12.86,12.86,0,0,0,70.9,73l1.44,2.52a.24.24,0,0,0,.33.09l5-2.86a.24.24,0,0,0,.09-.33l-1.43-2.49a12.87,12.87,0,0,0,2.36-3l2.75.75A.24.24,0,0,0,81.73,67.49ZM67.05,65.78a5.26,5.26,0,1,1,5.06-2.9A5.26,5.26,0,0,1,67.05,65.78ZM47.72,78.55,49,73.82a.21.21,0,0,0-.14-.25l-2.31-.63a11,11,0,0,0-.4-3.28l2.06-1.18a.21.21,0,0,0,.08-.28L45.84,64a.21.21,0,0,0-.28-.08l-2,1.17a11,11,0,0,0-2.64-2l.61-2.26a.21.21,0,0,0-.14-.25L36.63,59.2a.21.21,0,0,0-.25.14l-.61,2.26a11,11,0,0,0-3.31.43l-1.17-2a.21.21,0,0,0-.28-.08l-4.25,2.43a.21.21,0,0,0-.08.28l1.18,2.06a11,11,0,0,0-2,2.63l-2.31-.63a.21.21,0,0,0-.25.14L22,71.57a.21.21,0,0,0,.14.25l2.34.64a11,11,0,0,0,.43,3.24l-2.12,1.22a.21.21,0,0,0-.08.28l2.43,4.25a.21.21,0,0,0,.28.08l2.15-1.23a11,11,0,0,0,2.57,2l-.65,2.39a.21.21,0,0,0,.14.25l4.73,1.28a.21.21,0,0,0,.25-.14l.65-2.39a11,11,0,0,0,3.21-.4l1.23,2.15a.21.21,0,0,0,.28.08L44.25,83a.21.21,0,0,0,.08-.28l-1.22-2.12a11,11,0,0,0,2-2.57l2.34.64A.21.21,0,0,0,47.72,78.55Zm-12.5-1.46a4.48,4.48,0,1,1,4.31-2.47A4.48,4.48,0,0,1,35.22,77.09Zm1.22-34.9-.57,0a9.5,9.5,0,1,1,7.43-3.58M40.65,41l-.35.35"/>
    </symbol>
    <symbol id="my-account" viewBox="0 0 96 96">
        <path d="M91.85,49.49c0,23.41-19.27,42.39-43,42.39s-43-19-43-42.39S25,7.1,48.81,7.1,91.85,26.08,91.85,49.49ZM65.15,35.66c0-11.21-6.76-19.34-16.06-19.34S33,24.45,33,35.66c0,11.87,7.21,21.53,16.06,21.53S65.15,47.53,65.15,35.66Zm10.8,45.91V72a7.68,7.68,0,0,0-6.12-7.5l-13-2.73V55.08m-17.46-1.5v9.48l-13,2.73a7.68,7.68,0,0,0-6.12,7.5l-.13,7.63M34,64.67c.37,2,1.15,2.88,2.3,4.5m8,5.8A14.18,14.18,0,0,0,62.06,64M40.31,72.69l-.2-.14"/>
    </symbol>
    <symbol id="my-account-no-border" viewBox="0 0 96 96">
        <path xmlns="http://www.w3.org/2000/svg" class="cls-1" d="M49.81,53.51c-8.23,0-14.93-9-14.93-20.13,0-10.48,6.28-18.09,14.93-18.09S64.74,22.9,64.74,33.38C64.74,44.48,58,53.51,49.81,53.51Zm-8.59-3.38v8.36L29.15,61a7.17,7.17,0,0,0-5.69,7v9l5.8,1.21a96.94,96.94,0,0,0,39.78,0L74.83,77v-9a7.17,7.17,0,0,0-5.68-7L57.08,58.49V51.32M36.22,59.69a13.24,13.24,0,0,0,2.17,5.16m3.32,3.66c.28.25-.31-.38-.31-.38m4.16,1.81A13.14,13.14,0,0,0,62.07,59.69"/>
    </symbol>
    <symbol id="help-desk" viewBox="0 0 96 96">
        <path d="M30.5,52A7.5,7.5,0,0,1,23,59.5h0A7.5,7.5,0,0,1,15.5,52V45A7.5,7.5,0,0,1,23,37.5h0A7.5,7.5,0,0,1,30.5,45Zm48-7A7.5,7.5,0,0,0,71,37.5h0A7.5,7.5,0,0,0,63.5,45v7A7.5,7.5,0,0,0,71,59.5h0A7.5,7.5,0,0,0,78.5,52Zm-7-7.5c0-13.25-7.5-23.25-24-23.25s-24,10-24,23.25M47.79,77.89A27.39,27.39,0,0,0,53.88,77m7.21-3.2A25.39,25.39,0,0,0,71.2,60.19M35.51,74.56a3.74,3.74,0,0,0-.4,1.08h0a3.78,3.78,0,0,0,3,4.44l5.28,1.05a3.78,3.78,0,0,0,4.44-3h0a3.78,3.78,0,0,0-3-4.44l-5.28-1.05a3.79,3.79,0,0,0-4,1.88m22.14.74-.2.09"/>
    </symbol>
    <symbol id="attention" viewBox="0 0 96 96">
        <path d="M84.5,48.5A35.5,35.5,0,1,1,49,13,35.5,35.5,0,0,1,84.5,48.5ZM48.5,28V59m0,7.34V66"/>
    </symbol>
  
    <symbol id="information" viewBox="0 0 96 96">
        <path d="M13.5,48.5A35.5,35.5,0,1,1,49,84,35.5,35.5,0,0,1,13.5,48.5ZM49.5,69V38m0-9.35V29"/>
      
    </symbol>
    <symbol id="alert" viewBox="0 0 96 96">
        <path d="M47.5,32V63m0,7.46V70m30.91,9.5c2.22,0,3.65-2.81,2.67-4.8L50.65,13.16a3,3,0,0,0-5.36,0L14,74.67c-1,2,.43,4.82,2.66,4.83H78.41Z"/>
    </symbol>
  
    <symbol id="tick" viewBox="0 0 96 96">
        <path d="M84.5,48.5A35.5,35.5,0,1,1,49,13,35.5,35.5,0,0,1,84.5,48.5ZM62.25,36.25,62,36.5M35.5,52l7.09,8.09L59,40"/>
    </symbol>
  
    <symbol id="secure" viewBox="0 0 96 96">
        <path d="M31.5,40V28.85a17,17,0,1,1,34,0V40m-7,0V29.24a10,10,0,1,0-20,0V40M55.26,55.25a6.72,6.72,0,0,0-6.71-6.76c-3.74,0-7.23,3-7.23,6.76a6.69,6.69,0,0,0,3.18,6v9.18a3.52,3.52,0,0,0,7,0V61.25A7.19,7.19,0,0,0,55.26,55.25ZM34,45.5H28.5V63m-5-18.5v35a4,4,0,0,0,4,4h41a4,4,0,0,0,4-4v-35a4,4,0,0,0-4-4h-41A4,4,0,0,0,23.5,44.5Zm5,23.38v-.62"/>
    </symbol>
  
  
    <symbol id="email" viewBox="0 0 96 96">
      <path d="M40.2,16.9l2.2-2c4.3-3.8,10.7-3.8,15,0l2.2,2 M17.5,39.5l6-5.6 M81.5,39.5l-6-5.6 M75.5,42V17.5h-52V42   M45.7,58.1c-0.6-1.2-1.6-2.3-3-3.3L19.4,39.2c-0.7-0.5-1.9,0-1.9,0.9v40.4c0,1.1,0.9,2,2,2h60c1.1,0,2-0.9,2-2V40.4  c0-1-0.9-1.5-1.7-1L57.2,54.9c-1.3,0.9-2.3,2-2.9,3.2 M80.4,81.2L57.4,60.7c-4.3-3.8-10.7-3.9-15-0.1L19.5,81.2  c-0.6,0.5-0.2,1.3,0.6,1.3h59.7C80.6,82.5,80.9,81.7,80.4,81.2z M49,40.2c2.6,0,4.6-2.5,4.6-5.5s-2.1-5.5-4.6-5.5s-4.6,2.5-4.6,5.5  S46.5,40.2,49,40.2z M53.5,29c0,0,0,5.6,0,8.1c0,5.7,6.9,3.9,6.9-2.2c0-6.2-4.8-11.3-10.7-11.3s-10.8,5-10.8,11.3  s4.8,11.2,10.8,11.2c1.3,0,2.4-0.3,3.6-0.7 M56.8,44.3l0.3-0.2"/>
    </symbol>
  
    <symbol id="talk-to-us" viewBox="0 0 96 96">
      <path d="M37.8,52.2c-5.8,0-11-1.4-15.3-3.7c-1.1,1.7-3.4,3.7-7.4,3.7c1.8-1.5,2.7-4.5,2.6-7.2c-3.1-3-5-6.7-5-10.7  c0-9.9,11.2-17.9,25-17.9c13.8,0,25,8,25,17.9c0,3.1-1.1,6-3,8.5 M80.5,71.7c3.1-3,5-6.7,5-10.7c0-9.9-11.2-17.9-25-17.9  c-13.8,0-25,8-25,17.9s11.2,17.9,25,17.9c5.8,0,11-1.4,15.3-3.7c1.1,1.7,3.4,3.7,7.4,3.7C81.3,77.4,80.4,74.4,80.5,71.7z M58.6,49.1  c-8.9,0.3-15.9,5.5-15.9,11.9 M63.1,49.3l0.3,0"/>
    </symbol>
  <symbol id="post" viewBox="0 0 96 96">
    <path d="M39.21,17.9l2.24-2a11.18,11.18,0,0,1,15,0l2.24,2M16.5,40.5l6-5.55m52,0,6,5.55m-6,2.5V18.5h-52V43M44.73,59.14a9.06,9.06,0,0,0-3-3.3L18.44,40.2a1.25,1.25,0,0,0-1.74.37,1.15,1.15,0,0,0-.2.53V81.5a2,2,0,0,0,2,2h60a2,2,0,0,0,2-2V41.36a1.06,1.06,0,0,0-1.71-1L56.2,55.91a9.09,9.09,0,0,0-2.93,3.17M79.36,82.21,56.45,61.71a11.17,11.17,0,0,0-15-.05L18.54,82.24c-.58.52-.21,1.26.57,1.26H78.79C79.57,83.5,79.94,82.73,79.36,82.21ZM60.52,37.36a3.85,3.85,0,0,0-.48,0h0a0,0,0,0,0,0,.05A2.42,2.42,0,0,0,60.52,37.36ZM31,29.5H67m-36,8H55"/>
  </symbol>
  <symbol id="thumbs-up" viewBox="0 0 96 96">
    <path d="M16.55,38.5h7.9a2.05,2.05,0,0,1,2.05,2v34.9a2.05,2.05,0,0,1-2.05,2h-7.9a2.05,2.05,0,0,1-2.05-2V40.55A2.05,2.05,0,0,1,16.55,38.5ZM20.5,57V68M57.3,40.39c5.44-4.59,16.34-15.51,8.81-24.22a3.08,3.08,0,0,0-4.35-.2,3,3,0,0,0-.44.5c-8.69,12.09-15.47,14-24.8,23.44a2.47,2.47,0,0,1-1.91.59h-6c-1.19,0-2.07,1.42-2.07,2.61V74.42c0,1.19-.12,2.08,1.07,2.08h.27c2.45,0,4.24,1.19,6.34,2.45,3.8,2.26,8.14,2.55,13.51,2.55l22-1m0,0H61.9a5,5,0,0,1,0-10h7.81a5,5,0,0,1,0,10ZM41.25,60.9a12.24,12.24,0,0,0,12.2-12.2V47M74,50.5H58.28a5,5,0,0,1,0-10H74a5,5,0,0,1,0,10Zm2.5,10H58.28a5,5,0,0,1,0-10H76.5a5,5,0,0,1,0,10ZM74,70.5H58.28a5,5,0,0,1,0-10H74a5,5,0,0,1,0,10ZM20.59,72.28l.08-.4"/>
  </symbol>
  <symbol id="thumbs-down" viewBox="0 0 96 96">
    <path xmlns="http://www.w3.org/2000/svg" class="cls-2" d="M82,56.45a2.05,2.05,0,0,1-2,2h-7.9a2.05,2.05,0,0,1-2-2V21.55a2.05,2.05,0,0,1,2-2.05H80a2.05,2.05,0,0,1,2,2.05ZM76,36V47M38.94,56.5c-5.53,4.72-15.95,15.43-8.55,24a3.08,3.08,0,0,0,4.79-.3C43.87,68.1,50.65,66.4,60,56.92c.5-.52,1.19-.42,1.91-.42h6c1.19,0,2.07-1.76,2.07-3V22.24c0-1.19.12-1.74-1.07-1.74h-.27c-2.45,0-4.24-1.36-6.34-2.62-3.8-2.26-8.14-2.63-13.51-2.63l-22,1.25m-5,5a5,5,0,0,0,5,5H34.6a5,5,0,0,0,0-10H26.79A5,5,0,0,0,21.79,21.5ZM55.25,35.93l0,0A12.16,12.16,0,0,0,43,48v2M17.46,51.5a5,5,0,0,0,5,5H38.22a5,5,0,0,0,0-10H22.46A5,5,0,0,0,17.46,51.5ZM15,41.5a5,5,0,0,0,5,5H38.22a5,5,0,0,0,0-10H20A5,5,0,0,0,15,41.5Zm2.46-10a5,5,0,0,0,5,5H38.22a5,5,0,0,0,0-10H22.46A5,5,0,0,0,17.46,31.5ZM76,51v.46"/>
  </symbol>
  <symbol id="idea" viewBox="0 0 96 96">
    <path d="M54,89.5H43.84c-1.3,0-2.34-1.54-2.34-2.85V84.5h15v2.15A2.92,2.92,0,0,1,54,89.5Zm-2-11h6a2.5,2.5,0,0,0,0-5H40.17a2.5,2.5,0,0,0,0,5H41m1,1H40.17a2.5,2.5,0,0,0,0,5H58a2.5,2.5,0,0,0,0-5H50m25-39h8M49.5,15V6M67.38,21.58,72.72,16m0,49.66-4.55-4.71M22,40.5H15m15.55-19L25.28,16m0,49.66L29.69,61M48.92,20.17c-17,0-27.61,18-15.9,35.28a19.28,19.28,0,0,1,3.72,11.41c0,2.88,1.33,5.64,2.87,6.64H58.22c1.54-1,2.87-3.76,2.87-6.64a19.66,19.66,0,0,1,3.72-11.53C76.52,38,65.93,20.17,48.92,20.17ZM45.69,79.5H46"/>
  </symbol>
  <symbol id="reward" viewBox="0 0 96 96">
    <path d="M48.09,29s-.27,0-.24,0M35.58,50.75l-6.1,33.89,8.79-11.43L42.92,87l3.81-22.38m-1.52-9.54,5.28,31.1,4.65-13.79,8.79,11.42-4.7-27.7M51,24.62A12,12,0,1,0,59.4,39.38,12,12,0,0,0,51,24.62ZM49.24,43A7,7,0,0,0,52,30.55M48.5,53.34,59.41,58.1l2.13-11.86L72,40.55l-7.79-9.09L66.34,19.6l-11.85.53L46.69,11l-7,9.74-11.85.52L31,32.92l-7,9.74,10.9,4.76L38,59Z"/>
  </symbol>

  <symbol id="joint-acount" viewBox="0 0 96 96">
    <path d="M30.22,51.17c-6.89,0-12.5-7.56-12.5-16.86,0-8.77,5.26-15.14,12.5-15.14s12.5,6.37,12.5,15.14C42.72,43.61,37.11,51.17,30.22,51.17ZM23,48.33v7l-10.1,2.14a6,6,0,0,0-4.76,5.87v7.49l4.85,1a81.22,81.22,0,0,0,33.3,0l4.85-1V63.34a6,6,0,0,0-4.76-5.87l-10.1-2.14v-6m43.41-14c0-8.77-5.26-15.14-12.5-15.14s-12.5,6.37-12.5,15.14c0,9.3,5.61,16.86,12.5,16.86S79.72,44.61,79.72,35.31ZM51.14,69.53l6.29.73a80.43,80.43,0,0,0,18.48,0l12.26-1.43V63.34a6,6,0,0,0-4.76-5.87l-10.1-2.14v-5M48.39,58a5.64,5.64,0,0,1,1.54-.55L60,55.33v-5m-41.18,6a10.84,10.84,0,0,0,1.82,4.33m3,2.92s-.4-.25-.37-.28m3.36,1.62a11,11,0,0,0,13.83-8.59m16.56.5a9.78,9.78,0,0,0,19.23,0"/>
  </symbol>

  <symbol id="trusted" viewBox="0 0 96 96">
    <path d="M48.5,82.75C44,79,39,78.52,33.07,75.9,26.62,73,21.71,68.63,19.51,65.28c-2.06-3.15-5.7-11.8-1.18-20.07C27,29.35,22.39,25.31,18,18.59L22.32,14A33.84,33.84,0,0,0,32.9,15.59c7,0,12.74-2.18,16.1-3.42m0,0c3.35,1.24,8.45,3.42,15.44,3.42A33.82,33.82,0,0,0,75,14l4.3,4.62c-4.36,6.72-9,10.76-.31,26.62,4.52,8.27.88,16.92-1.18,20.07-2.2,3.35-7.1,7.75-13.56,10.62-5.91,2.62-11.38,3.15-15.89,6.93M61.9,33.88l-.23.29m-26.5,15.5,7.09,8.09L58.67,37.67"/>
  </symbol>

  <symbol id="tools" viewBox="0 0 96 96">
    <path d="M37,7l1.51,8-3.73,7.66-3.72-7.72L32.56,7Zm2,40.25c0-3-2.09-3.08-4.2-2.42-2.12-.66-5.07-.53-5.07,2.42,0,7.67-2.77,1.28-2.77,17.64V84.77A4.08,4.08,0,0,0,31.16,89h6.23A4.47,4.47,0,0,0,42,84.77V64.89C42,48.53,39,54.92,39,47.25ZM41,45a2,2,0,0,0-2-2H30a2,2,0,0,0-2,2V46a2,2,0,0,0,2,2H39a2,2,0,0,0,2-2ZM37,63.5v20m-5-24v24M63,70.14V32.91a11.37,11.37,0,0,1,4.36-8.69,10.55,10.55,0,0,0,4.09-8.13,10.73,10.73,0,0,0-5.73-9.43A1.16,1.16,0,0,0,64,7.8v8.13C64,17.2,62.61,18,61.33,18H55.87C54.59,18,54,17.19,54,15.92V7.81a1.47,1.47,0,0,0-2.14-1.15,11,11,0,0,0-6,9.43,10.42,10.42,0,0,0,4,8.13A11.21,11.21,0,0,1,54,32.91V70.14c-4,1.81-5.84,5.65-5.4,10a10.08,10.08,0,0,0,8.85,8.93,10,10,0,0,0,11.1-10A10.59,10.59,0,0,0,63,70.14Zm-4.4,13A4.1,4.1,0,1,0,54.5,79,4.09,4.09,0,0,0,58.6,83.12ZM35,21.5v21m2,17.58v-.56"/>
  </symbol>

  <symbol id="link" viewBox="0 0 96 96">
    <path d="M52.65,64.56,41.43,75.78a15,15,0,0,1-21.21,0h0a15,15,0,0,1,0-21.21L34.36,40.43a15,15,0,0,1,21.21,0h0a14.92,14.92,0,0,1,4.37,10.26M38,49.25a14.62,14.62,0,0,0,3.42,5.32h0a15,15,0,0,0,21.21,0L76.78,40.43a15,15,0,0,0,0-21.21h0a15,15,0,0,0-21.21,0L44.26,30.53M36.74,45h.52"/>
  </symbol>

  <symbol id="image-placeholder" viewBox="0 0 96 96">
    <path d="M85,22.56A3.54,3.54,0,0,0,81.47,19H15.53A3.54,3.54,0,0,0,12,22.56V72.44A3.54,3.54,0,0,0,15.53,76H81.47A3.54,3.54,0,0,0,85,72.44ZM23.29,62.38l7.77-7.69a2.36,2.36,0,0,1,3.29,0l3.19,3.05a2.35,2.35,0,0,0,3.29,0l16.8-16.81a2.35,2.35,0,0,1,3.33,0L75.55,55.53M39.29,38.43a7.56,7.56,0,1,1-7.56-7.56A7.56,7.56,0,0,1,39.29,38.43ZM19.92,65.51h.51"/>
  </symbol>

  <symbol id="no-cameras" viewBox="0 0 96 96">
    <path d="M55.52,50.5A12.5,12.5,0,1,1,43,38,12.5,12.5,0,0,1,55.52,50.5ZM43,58a7.52,7.52,0,0,0,5.32-12.83M69,34.08H26a4,4,0,0,0-4,4v25.3a4,4,0,0,0,4,4H69a4,4,0,0,0,4-4V38.08A4,4,0,0,0,69,34.08ZM51.14,27H44.57a2,2,0,0,0-1.73.67L39.4,32.24c-1.61,2.26,0,1.84.86,1.84H55.45c.9,0,2.63,0,.86-1.93l-3.44-4.39A2.13,2.13,0,0,0,51.14,27ZM34.75,30.9a1.07,1.07,0,0,0-1.06-1.07H27.31a1.07,1.07,0,0,0-1.06,1.07V33a1.06,1.06,0,0,0,1.06,1.06h6.38A1.06,1.06,0,0,0,34.75,33Zm33.71,8.79a1.07,1.07,0,0,0-1.06-1.07H61A1.06,1.06,0,0,0,60,39.69v4.25A1.06,1.06,0,0,0,61,45H67.4a1.07,1.07,0,0,0,1.06-1.06ZM48,11.12a37.5,37.5,0,1,0,37.5,37.5A37.5,37.5,0,0,0,48,11.12ZM74,22,22,74.05M45.23,43h-.46"/>
  </symbol>

  <symbol id="prize" viewBox="0 0 96 96">
    <path d="M31.52,52.66h0c-11.28,0-19-9.64-19-20.92V29.65c0-4.34,3.33-8.15,7.67-8.15h-.1c4.34,0,7.43,3.89,7.43,8.23M66.57,52.5h0C77.86,52.5,85.5,43,85.5,31.74V29.65a8,8,0,0,0-7.71-8.15h.07c-4.34,0-7.36,3.93-7.36,8.27m-5,48a2.27,2.27,0,0,0-2.27-2.27H34.77a2.27,2.27,0,0,0-2.27,2.27v4.46a2.27,2.27,0,0,0,2.27,2.27H63.23a2.27,2.27,0,0,0,2.27-2.27ZM54.58,65.5H43.15c0,5-6,5-6,10H60.58C60.58,70.5,54.58,70.5,54.58,65.5Zm3-3a3,3,0,0,0-3-3H43.15a3,3,0,0,0,0,6H54.59A3,3,0,0,0,57.59,62.5ZM56,17.5H69.32a3,3,0,0,0,0-6H28.58a3,3,0,0,0,0,6H33m4,0H27.5v24a18.31,18.31,0,0,0,18.4,18H52c10,0,18.5-8,18.5-18v-24H46m-4.5,0-.31,0h.66"/>
  </symbol>

  <symbol id="password" viewBox="0 0 96 96">
    <path d="M27.5,61h9M72.29,74.34,43.5,61h9m16,0-9,0h5m-16-48.5A35.5,35.5,0,1,0,84,48,35.5,35.5,0,0,0,48.5,12.5ZM36,47.5l-4-4-4,4m-1-7,5,3,5-3m-5-2v5m20,4-4-4-4,4m-1-7,5,3,5-3m-5-2v5m20,4-4-4-4,4m-1-7,5,3,5-3m-5-2v5M68.2,61h.54"/>
  </symbol>

  <symbol id="how-to-register" viewBox="0 0 96 96">
    <path d="M56.72,32.76l6.42,5.85c1,1,2.87,1.89,1.44,3.58-1.62,1.91-3,.26-4.19-.81l-6.67-6-2,4.75-6.58-15.1,16.12,5.61c0,.18-4.55,2.08-4.55,2.08M78.5,46V17a4,4,0,0,0-4-4h-53a4,4,0,0,0-4,4V46a4,4,0,0,0,4,4h53A4,4,0,0,0,78.5,46Zm4.75,22.84-6-17.13A2.77,2.77,0,0,0,74.49,50h-53a2.78,2.78,0,0,0-2.72,1.73l-6,17A3.89,3.89,0,0,0,16.37,74H79.63A3.82,3.82,0,0,0,83.25,68.84ZM25,30.25l7.38-7.37M38,67H54M23,62H73M26,57H70M12.5,69.5V74a5,5,0,0,0,5,5h61a5,5,0,0,0,5-5V70.5M57.89,67.28h.54"/>
  </symbol>

  <symbol id="direct-debit" viewBox="0 0 96 96">
    <path class="b" d="M84,48A35.5,35.5,0,1,1,48.5,12.5,35.5,35.5,0,0,1,84,48ZM36.21,36H28V61h8.21s11.1.5,11.1-13C47.31,36.5,36.21,36,36.21,36ZM52.5,61m5,0h3.71s11.1.5,11.1-13c0-11.5-11.1-12-11.1-12H53V55.5m.35,5.4h-.78"/>
  </symbol>

  <symbol id="sync" viewBox="0 0 96 96">
    <path d="M31.24,75A31.5,31.5,0,0,1,47.5,16.5a31.9,31.9,0,0,1,6.3.63M36.89,77.67A31.51,31.51,0,0,0,63.75,21M20.5,75.5h11v-11m43-44h-11v11m-4.94-13V18"/>
  </symbol>
  <symbol id="quote" viewBox="0 0 96 96">
    <path d="m49.78 20.17c-1.94-.36-14 4-20.66 8-10.87 6.55-14.55 13.4-16.12 18.33-3.68 11.41 1.44 23.1 11.89 27.19a21.89 21.89 0 0 0 3.79 1.1 21.16 21.16 0 0 0 15.38-3 21.11 21.11 0 0 0 3.66-32.59 21.25 21.25 0 0 0 -5.61-4 25.48 25.48 0 0 1 6.56-13.86zm-1.58 48.21a20.21 20.21 0 0 0 7.69 5.31 21.89 21.89 0 0 0 3.79 1.1 21.16 21.16 0 0 0 15.38-3 21.11 21.11 0 0 0 3.66-32.59 21.25 21.25 0 0 0 -5.61-4 25.48 25.48 0 0 1 6.56-13.86l1.11-1.19c-1.94-.36-14 4-20.66 8-6.15 3.69-10 7.48-12.47 11m-28.22 10.11c-2.36 7.33.93 14.84 7.65 17.48a14.78 14.78 0 0 0 2.44.7m5 1.12-.37-.06" />
  </symbol>

  <symbol id="social" viewBox="0 0 96 96">
    <path d="M72.45,31.83c0,3.09-2.12,5.59-4.73,5.59S63,34.92,63,31.83s2.12-5.6,4.74-5.6S72.45,28.74,72.45,31.83ZM75.05,41c0-2-3.29-3.53-7.35-3.53S60.36,39.05,60.36,41m-28-22.58c-2,0-3.68,1.95-3.68,4.35s1.65,4.34,3.68,4.34S36,25.17,36,22.77,34.36,18.42,32.33,18.42ZM38,29.9c0-1.52-2.55-2.75-5.7-2.75s-5.71,1.23-5.71,2.75m8.28,20.23c-3.72,0-6.73,3.56-6.73,8s3,8,6.73,8,6.73-3.56,6.73-8S38.6,50.13,34.89,50.13Zm10.42,21c0-2.77-4.68-5-10.44-5s-10.45,2.25-10.45,5M34.63,43A18.86,18.86,0,1,0,53.49,61.85,18.86,18.86,0,0,0,34.63,43ZM67.47,21.21A13.81,13.81,0,1,0,81.27,35,13.8,13.8,0,0,0,67.47,21.21Zm-35.19-7A10.74,10.74,0,1,0,43,25,10.74,10.74,0,0,0,32.28,14.21Zm11.64,3.21,1.75-.67m3.5-.25,3.75,1m4.5,3.42-1.84-1.5M69.75,52.25l-.08,1.67M69,57l-1.33,2.75m-2,2.58-2.42,1.84m-3,1.66-1.58.75"/>
  </symbol>
  <symbol id="calendar" viewBox="0 0 96 96">
    <path d="M69,22.83h9.5a3,3,0,0,1,3,3v53a3,3,0,0,1-3,3h-59a3,3,0,0,1-3-3v-53a3,3,0,0,1,3-3H30m6,0H62M31.5,46.17a.34.34,0,0,0-.34-.34H23.84a.34.34,0,0,0-.34.34V51.5a.34.34,0,0,0,.34.33h7.32a.34.34,0,0,0,.34-.33Zm14,0a.34.34,0,0,0-.34-.34H37.84a.34.34,0,0,0-.34.34V51.5a.34.34,0,0,0,.34.33h7.32a.34.34,0,0,0,.34-.33Zm14,0a.34.34,0,0,0-.34-.34H51.84a.34.34,0,0,0-.34.34V51.5a.34.34,0,0,0,.34.33h7.32a.34.34,0,0,0,.34-.33Zm-24-29.09a3.26,3.26,0,0,0-3.25-3.25h-.5a3.26,3.26,0,0,0-3.25,3.25v7.5a3.25,3.25,0,0,0,3.25,3.25h.5a3.25,3.25,0,0,0,3.25-3.25Zm34,0a3.26,3.26,0,0,0-3.25-3.25h-.5a3.26,3.26,0,0,0-3.25,3.25v7.5a3.25,3.25,0,0,0,3.25,3.25h.5a3.25,3.25,0,0,0,3.25-3.25Zm-38,41.09a.34.34,0,0,0-.34-.34H23.84a.34.34,0,0,0-.34.34V63.5a.34.34,0,0,0,.34.33h7.32a.34.34,0,0,0,.34-.33Zm14,0a.34.34,0,0,0-.34-.34H37.84a.34.34,0,0,0-.34.34V63.5a.34.34,0,0,0,.34.33h7.32a.34.34,0,0,0,.34-.33Zm14,0a.34.34,0,0,0-.34-.34H51.84a.34.34,0,0,0-.34.34V63.5a.34.34,0,0,0,.34.33h7.32a.34.34,0,0,0,.34-.33Zm-28-24a.34.34,0,0,0-.34-.34H23.84a.34.34,0,0,0-.34.34V39.5a.34.34,0,0,0,.34.33h7.32a.34.34,0,0,0,.34-.33Zm14,0a.34.34,0,0,0-.34-.34H37.84a.34.34,0,0,0-.34.34V39.5a.34.34,0,0,0,.34.33h7.32a.34.34,0,0,0,.34-.33Zm14,0a.34.34,0,0,0-.34-.34H51.84a.34.34,0,0,0-.34.34V39.5a.34.34,0,0,0,.34.33h7.32a.34.34,0,0,0,.34-.33Zm14,12a.34.34,0,0,0-.34-.34H65.84a.34.34,0,0,0-.34.34V51.5a.34.34,0,0,0,.34.33h7.32a.34.34,0,0,0,.34-.33Zm0,12a.34.34,0,0,0-.34-.34H65.84a.34.34,0,0,0-.34.34V63.5a.34.34,0,0,0,.34.33h7.32a.34.34,0,0,0,.34-.33Zm-42,12a.34.34,0,0,0-.34-.34H23.84a.34.34,0,0,0-.34.34V75.5a.34.34,0,0,0,.34.33h7.32a.34.34,0,0,0,.34-.33Zm14,0a.34.34,0,0,0-.34-.34H37.84a.34.34,0,0,0-.34.34V75.5a.34.34,0,0,0,.34.33h7.32a.34.34,0,0,0,.34-.33Zm14,0a.34.34,0,0,0-.34-.34H51.84a.34.34,0,0,0-.34.34V75.5a.34.34,0,0,0,.34.33h7.32a.34.34,0,0,0,.34-.33Zm14,1.16v-.66a.85.85,0,0,0-.84-.84H66.34a.85.85,0,0,0-.84.84V75a.84.84,0,0,0,.84.83h3m4.77,0H73.5m0-41.66a.34.34,0,0,0-.34-.34H65.84a.34.34,0,0,0-.34.34V39.5a.34.34,0,0,0,.34.33h7.32a.34.34,0,0,0,.34-.33Z"/>
  </symbol>

  <symbol id="cashback" viewBox="0 0 96 96">
    <path d="M44.33,45.06A6.49,6.49,0,1,1,53.4,45m7.26-11.83a6.5,6.5,0,1,0-6.5-6.5A6.5,6.5,0,0,0,60.66,33.12ZM46.34,24.24a4.5,4.5,0,1,0-4.5-4.5A4.51,4.51,0,0,0,46.34,24.24ZM22.76,72.74H33.08a13.35,13.35,0,0,0,3.5-.46l30-8.17a6.41,6.41,0,0,0,2.91-1.72C73.6,58.19,85.37,45.72,88,42.56c2.26-2.73-2.57-5.25-6.54-2.18C78.55,42.63,67.38,50.94,63.24,54a5,5,0,0,1-3,1H39.55m9.77,0c6.44,0,8.2-4.5,8.83-7.46a2.11,2.11,0,0,0-2.08-2.52H44.33m0,0H35.62a3.51,3.51,0,0,0-2.4.95L27.9,51a4,4,0,0,1-2.77,1.1H22.76M80.08,41.38c4-2.85-1.59-6.39-6-3.06-3.9,2.93-18.22,14.16-18.22,14.16M72.71,39.36c3.26-2.25-1.66-5.63-5.51-2.73-5.27,4-10.57,8.09-10.57,8.09M13.21,80h6.7a2.85,2.85,0,0,0,2.85-2.85v-26a2.86,2.86,0,0,0-2.85-2.85h-6.7a2.86,2.86,0,0,0-2.85,2.85v26A2.85,2.85,0,0,0,13.21,80Zm3.35-13.32v4.08m-.18,3.75,0,.51"/>
  </symbol>

  <symbol id="smart-check" viewBox="0 0 96 96">
    <path d="M73.54,43A27.77,27.77,0,1,1,45.77,15.17,27.81,27.81,0,0,1,73.54,43Zm-12-14.15a21.7,21.7,0,0,0-13-6.57M79,79.17,63.13,63.25M44.5,21.82l-.31,0M33,48.17l7.09,8.09L58,34.39"/>
  </symbol>

  <symbol id="payments" viewBox="0 0 96 96">
    <path d="M71.5,47.67A29.5,29.5,0,1,1,42,18.17,29.5,29.5,0,0,1,71.5,47.67Zm-22.11-9C46.7,32.93,33.67,34.56,37,43.36c2.64,6.93,4,10.83-2.7,16H49.5m-18-11.57H46.93M60,47.67H84.94m0,.5-6,6.5m6-7-6-6M56,47.67h-.38"/>
  </symbol>


  <symbol id="cash-bonus" viewBox="0 0 96 96">
    <path d="M31.12,53.94,18,54c-3.21,0-6.34-2.25-6.34-5.55V28.18A6.54,6.54,0,0,1,18,22H30.75M53.12,54h-16m-3.75.45,31.75-.39L78.29,54c3.21,0,5.33-2.25,5.33-5.55V28.18c0-3.3-2.12-6.18-5.33-6.18l-13.17.06M11.62,34.5v20c0,3.3,3.13,5.55,6.34,5.55l13.16-.06m34,.06H78.29c3.21,0,5.33-2.25,5.33-5.55v-20m-72,6v20c0,3.3,3.13,5.55,6.34,5.55l12.91-.06m34.5.06H78.29c3.21,0,5.33-2.25,5.33-5.55v-20m-72,6v20c0,3.3,3.13,5.55,6.34,5.55l13.16-.06m34,.18L78.29,72c3.21,0,5.33-2.25,5.33-5.55v-20m-48.49,30h26a4,4,0,0,0,4-4v-50a4,4,0,0,0-4-4h-26a4,4,0,0,0-4,4v50A4,4,0,0,0,35.13,76.5ZM53.42,31c-2.1-4.5-12.1-3.31-9.47,3.57C46,40,47.3,43,42,46H53.12m-11-9h9m6.55,17.12.33.05"/>
  </symbol>

  <symbol id="location" viewBox="0 0 96 96">
    
    <path xmlns="http://www.w3.org/2000/svg" class="cls-2" d="M52.76,71.41c9.12.56,15.92,2.75,15.92,5.37,0,1.66-2.77,3.16-7.13,4.17M42.76,71.47c-8.69.64-15.08,2.77-15.08,5.31,0,3,9.18,5.5,20.5,5.5,1.81,0,3.57-.07,5.24-.18m0,0,.34,0m-5.65-69.9a24,24,0,0,0-24,24c0,20,24,40,24,40s24-22.4,24-40A24,24,0,0,0,48.11,12.17Zm11.2,24a11.2,11.2,0,1,0-11.2,11.2A11.19,11.19,0,0,0,59.31,36.17ZM57.92,81.62l-.25,0"/>
  </symbol>

</svg>