<svg xmlns="http://www.w3.org/2000/svg" xmlns:xlink="http://www.w3.org/1999/xlink" version="1.1" class="visually-hidden">

	<symbol id="cautious-explorer" viewBox="0 0 48 48">
		<path xmlns="http://www.w3.org/2000/svg" d="M47,35.86l-5.12,2.89-3.71,5.11-7.84-.51-9.7,1.72L16.9,47.23,12.69,46,1,47.36M13.74,11.08l.1-.08.13-.09.06-.23.17-.11a12.22,12.22,0,0,1,2.47-1l0,0,0,0a23.5,23.5,0,0,0,2.3,2,24.76,24.76,0,0,0,5.47,2.68l.25.1L31,13.83c1-.13,1.45.3,1.4,1.29s-.34,1.53-.89,1.73l-.08,0-6.5,1.37-5.06-1-1.6,3.86L18,23.19c3.22,1.48,4.39,3.62,5.53,5.4s1.43,5.14,2.44,10.09c.2,1.88-.49,2.9-2.06,3.07-1.25.13-2.12-.57-2.6-2.1C20,34.35,19.77,31.87,19,31s-.46-1.48-1.54-2.06c.16,1.24-.85,4.29-1,4.83l0,.06q-.21.62-4,7.77a2.07,2.07,0,0,1-3,.9C8.07,41.89,7.67,41,8.2,39.75l.05-.11,3.45-7.41.2-6.14a4,4,0,0,1-1-3.15v0m6.5,6L11.91,26.1m-.89-4c-.06.32-.11.61-.14.89v.15l-.38,1.57c-3.78.53-6,0-6.74-1.44l0-.09q-1-2.28,2.73-8.61l.14-.23.31-4.09,3.93-1.65,3,2.12,0,0-.19.13-.06.26,0,0a3.76,3.76,0,0,0-1.11,1.48,16.3,16.3,0,0,0-.89,7m10-16.09a4.25,4.25,0,0,1-2,5,13.41,13.41,0,0,1-2.8,1l-.11,0-.09-.08a7.64,7.64,0,0,1-2.11-3.38C13.9,3.78,14.76,1.65,17,1A3.67,3.67,0,0,1,21.55,3.53ZM32.32,19q4.24,21.18,4.24,21.18M28.49,11.19l3.95-.67"/>
	</symbol>

	<symbol id="composed-traveller" viewBox="0 0 48 48">
		<path xmlns="http://www.w3.org/2000/svg" d="M23.21,38.87a3.44,3.44,0,0,1-1.07-1.43c-2.07-4.88-3.46-7.55-4.2-8a19.07,19.07,0,0,0-2.63-1.22c.3,1.19-.3,4.26-.42,4.8v.06l0,0c-.14.54-1.1,3.19-2.89,7.93a2,2,0,0,1-2.78,1.23A1.81,1.81,0,0,1,7.72,39.8l0-.11,2.44-7.58-.54-6a3.85,3.85,0,0,1-1.31-2.94v0M9.64,11.42l.09-.09.11-.1,0-.23.15-.13a11.37,11.37,0,0,1,2.26-1.28l0,0,0,0a21.31,21.31,0,0,0,2.45,1.66,23.55,23.55,0,0,0,5.57,2l.26.07L26.56,12c.92-.24,1.42.12,1.5,1.09s-.15,1.52-.66,1.77l-.07,0L21.24,17l-5-.36L15.18,20.6l0,2Q20,24.22,22,26.6c1.3,1.59,2.81,4.71,4.5,9.35a3.75,3.75,0,0,1,.08,1.64m-3.37,1.28a2,2,0,0,0,1.68.29,2,2,0,0,0,1.69-1.57m13.06-4.94L25.82,42.76l-7-1.65-4.47,3.38L1.72,47M28.5,17l-.06-.17c3.78,11.45,5.17,15.71,5.49,16.67ZM39.64,32.65l2-2.6,5.21-1.5M8.34,22.44c0,.31,0,.6,0,.88v.14L8.14,25c-3.58,1-5.79.76-6.65-.6l0-.08q-1.21-2.09,1.6-8.65l.11-.24-.19-4L6.55,9.4l3.17,1.69,0,0-.17.15,0,.25,0,0a3.7,3.7,0,0,0-.89,1.57,16.14,16.14,0,0,0,0,6.82M16.26,3.2a4.16,4.16,0,0,1-1.36,5,12.93,12.93,0,0,1-2.57,1.32l-.1.05-.09-.07a7.46,7.46,0,0,1-2.44-3c-.77-2.16-.19-4.33,1.85-5.19A3.55,3.55,0,0,1,16.26,3.2Zm8,7,2.82-.8"/>
	</symbol>
	<symbol id="confident-investor" viewBox="0 0 48 48">
		<path xmlns="http://www.w3.org/2000/svg" d="M37.61,26.13l-3.3,11.44-5.22-2.19-2.85,6L9.6,46.72m11-8.09a2.72,2.72,0,0,1-.88-2.15v-.94m.89,3.09a2,2,0,0,0,.8.33h.11m-1.9-15.22h0c1.69.52,2.84.89,3.45,1.09,1.4.48,1.87,1.41,1.77,3.09l-.45,7.88m0,.87a1,1,0,0,0,0-.17v-.17l0-.53M10.76,27.24l.65.28a5.43,5.43,0,0,0,1.5.76c.19.06.45.13.77.2l2.4,1a52.7,52.7,0,0,1-2.91,10.08c-1,2.14-1.33,3.48-3.53,3.43S7.1,41.43,7.85,39.65c.48-1.14,1.34-3.21,2.56-6.19l.11-.27ZM21.52,39a3.49,3.49,0,0,0,.91,0,2.15,2.15,0,0,0,1.95-2.27m-8.12-7.78h0c1,.14,2.12.27,3.45.42v6.21m-3.46-6.63-.18,0c-1-.15-1.81-.28-2.4-.41l-2.27-1c-1.1-.83-2-2.35-1-5.23a16.63,16.63,0,0,0,.74-3.45m26.48,7.29,1.43-3L46.53,19M19.62,23.75l-.15-.05-2.76-.85-.25-.07,1.62-3.2M9.69,22.94c-3.88,0-6-.82-6.47-2.4s.86-4.2,3.87-7.91l.17-.2.86-3.9,4.1-1,2.71,2.45-.21.51c-1.5.73-2.66,2.72-3.31,4.48m3.31-4.48.24-.11a12.51,12.51,0,0,1,3-.78h0l.12.14a9.65,9.65,0,0,0,1.56,1.49l.16.12a17.62,17.62,0,0,0,5.7,2.54Q30.79,13,31.43,13a1.61,1.61,0,0,1,1.94,1.42c.2,1.39-.34,1.78-1.1,2.13a50,50,0,0,1-7.11,1.66,15.32,15.32,0,0,1-5.7-.8l-.26-.07-1.12,2.22M23.6,4.92c.24,1.69-.13,3.17-2,4a18.19,18.19,0,0,1-3.43.59l-.16,0a7.66,7.66,0,0,1-1.7-3.62,3.68,3.68,0,1,1,7.3-1Zm5.22,5.73,3,0M30.5,19.06V33.61"/>
	</symbol>
	<symbol id="careful-controller" viewBox="0 0 48 48">
		<path xmlns="http://www.w3.org/2000/svg" d="M1.27,45.26H5l1.93-.49,2,.49h3.08l4.7,1,7.37-1h5.1l2.21-1,4.13.5,11.29-1.49M18.19,11.49a7.4,7.4,0,0,1,2.62-1.75l.09,0,.11.08a21.14,21.14,0,0,0,2.11,1.42A23,23,0,0,1,27.24,15q4.14,1,6.2,1.31c2.06.3,2.23,3.56-.24,3.28q-2.46-.28-7-1.27l-2.08-.71-.67,1.87.06,2.2a112.11,112.11,0,0,1,2.64,11.17q.45,2.86,1.3,8.12a1.79,1.79,0,0,1-1.93,2.14,1.8,1.8,0,0,1-2.14-1.93c-.85-3.25-1.56-5.41-2.15-7.44a17.53,17.53,0,0,0-2.76-5.38,6.22,6.22,0,0,1-.76-6.73m3.35,13.2c-.49,0-1,5-1.21,6-.36,1.71-.76,2.57-2.54,2.66S15,42.39,15,41.13q-.06-1.26,2-10h0l.72-4.92m-.54-2.81q-5.09,1.27-6.28-.46l-.05-.07c-.76-1.22-.2-3.77,1.7-7.66h0l-.15-3.44L15.75,10l2.58,1.23a3,3,0,0,0-.68,1.18,12.78,12.78,0,0,0,0,6.13m7-15.08a4.34,4.34,0,0,1-1.17,4.93,10.55,10.55,0,0,1-2.31,1.3l-.05,0,0,0a7.52,7.52,0,0,1-2.22-3c-.7-2.13-.2-4.26,1.6-5.09S23.84,1.74,24.59,3.43Zm9.3,17.46,1.24,22.2M33.51,13l.11,2m-1.84-2.13,3.94-.21"/>
	</symbol>
	<symbol id="navigator" viewBox="0 0 48 48">
		<path xmlns="http://www.w3.org/2000/svg" d="M7.08,19.52l.06-.07.08-.07,0-.16.11-.09a7.76,7.76,0,0,1,1.59-.9l0,0,0,0a15.81,15.81,0,0,0,1.73,1.16,17.1,17.1,0,0,0,3.93,1.37l.18.05L19,20c.65-.17,1,.08,1.06.76S20,21.78,19.6,22l-.05,0-4.29,1.47-3.52-.26L11,26l0,1.37-2.7,1.18-.11.05L11,27.37v0a10.19,10.19,0,0,1,4.83,2.79A24.92,24.92,0,0,1,19,36.76c.29,1.27-.09,2-1.14,2.26-.84.2-1.49-.21-1.94-1.21-1.46-3.43-2.44-5.31-3-5.63a13,13,0,0,0-1.85-.86,11.64,11.64,0,0,1-.3,3.38v0q-.11.43-2,5.61a1.42,1.42,0,0,1-2,.87c-1-.28-1.3-.86-1-1.74l0-.09,1.72-5.33-.38-4.19a2.66,2.66,0,0,1-.92-2.06v0m20.32-7.08a4.49,4.49,0,0,1,.18-1.42h.07q-4.2,0-4.68-1.73c-.31-1.12.61-3,2.77-5.68l.15-.19.63-2.81,3-.75L30.52,9.9l-.15.37A4.66,4.66,0,0,0,28.09,13l-.72,3.32m0,.46,0-.37,0-.09m-.5,2.31v.05l-.06.17c-.05.14-.09.28-.13.42h.07l.13-.64m2,.91a4.28,4.28,0,0,0-1.76.78h0l-.11.14m1.92-.82-.05-.1,1-.32.09,0m1,4.4h0l-.43-.05m-3.38-1.4v.14a3.16,3.16,0,0,0,.39.35h0l1.62.68c.36.07.82.15,1.38.23l.25.1a37.94,37.94,0,0,1-2.13,7.05c-.74,1.5-1,2.43-2.48,2.43s-1.73-1.07-1.19-2.31q.52-1.2,1.83-4.3l.1-.23.23-4a2.44,2.44,0,0,1-.57-1.21c.16-.18.31-.36.46-.55h0l0-.05m-.53.23c0,.13,0,.25,0,.37-3.45,3.89-9.62,4.68-13.47,5.39h0m21.6,4.36q-1.18-.15-1.26-1.77v-.7m1.22,2.34a2.38,2.38,0,0,0,.65,0,1.55,1.55,0,0,0,1.41-1.64M6.16,27.26c0,.22,0,.43,0,.62V28L6,29.08c-2.52.67-4.09.53-4.69-.42l0-.05q-.86-1.48,1.14-6.09l.07-.17-.13-2.81L4.9,18.1l2.24,1.19h0L7,19.41l0,.18H7a2.62,2.62,0,0,0-.63,1.1,11.27,11.27,0,0,0,0,4.8m1.84,3.07-1.21.52L7.13,29a7.5,7.5,0,0,0,1-.43h0ZM33.27,20l.16.05c1.11.34,1.87.57,2.28.71,1,.32,1.3,1,1.22,2.17l-.4,5.95a1.69,1.69,0,0,1,0,.23M31,23.61l.14,0,2.35.25h0l-.06,4.49M13.05,26.48,11,27.37v0l1.93-.83ZM33.27,20h0l-2-.59-.23-.07.36-.69.19-.11h0l-.17.07,0,0a9.28,9.28,0,0,1-1.37.56l-.07,0,1.46-.62.78-1.54M11.75,13.73a2.91,2.91,0,0,1-1,3.53A9.11,9.11,0,0,1,9,18.2l-.07,0-.07-.05a5.11,5.11,0,0,1-1.71-2.13,2.69,2.69,0,0,1,1.3-3.64A2.51,2.51,0,0,1,11.75,13.73Zm18.18-3.11.17-.08A9.26,9.26,0,0,1,32.22,10h0l.08.1a6.72,6.72,0,0,0,1.09,1l.11.09a12.16,12.16,0,0,0,4,1.75c2.46-.39,3.84-.6,4.14-.62a1.11,1.11,0,0,1,1.36,1,1.22,1.22,0,0,1-.8,1.52,36.64,36.64,0,0,1-5,1.22,10.69,10.69,0,0,1-4-.51L33,15.47l-.81,1.58m9.32-.39.82,9.84ZM23.81,36.79l-.72.42L21.24,40.3l-4.55,1.44-4-.83L7.71,43.63H1m31.28-9.37-1.83,4-3.26-2.49m-3.38,1,2.7-1.52.68.51m5.09-1.52.49-1.07,2,.33M39.83,32l-2.56,2-2.54-.43M39.83,32l2-2.59L47,27.9M39.88,10.4,42,10.1M36.12,6.52A2.4,2.4,0,0,1,34.71,9.3a13.09,13.09,0,0,1-2.33.43l-.12,0a5.18,5.18,0,0,1-1.12-2.46A2.64,2.64,0,0,1,33.31,4.4,2.49,2.49,0,0,1,36.12,6.52Z"/>
	</symbol>

	
</svg>