<svg xmlns="http://www.w3.org/2000/svg" xmlns:xlink="http://www.w3.org/1999/xlink" version="1.1" class="visually-hidden">
    <symbol id="better-with-money" viewBox="0 0 96 96">
        <path d="M54,90.5H43.84c-1.3,0-2.34-1.54-2.34-2.85V85.5h15v2.15A2.92,2.92,0,0,1,54,90.5Zm-2-11h6a2.5,2.5,0,0,0,0-5H40.17a2.5,2.5,0,0,0,0,5H41m1,1H40.17a2.5,2.5,0,0,0,0,5H58a2.5,2.5,0,0,0,0-5H50m25-39h8M49.5,16V7M67.38,22.58,72.72,17m0,49.66-4.55-4.7M22,41.5H15m15.55-19L25.28,17m0,49.66L29.69,62M54.91,34.44C52.83,30,42.69,31.23,45.3,38.08c2.05,5.39,3.14,8.42-2.1,12.42H55m-14-9H53M48.92,21.17c-17,0-27.61,18-15.89,35.28a19.3,19.3,0,0,1,3.72,11.41c0,2.88,1.33,5.64,2.88,6.64h18.6c1.54-1,2.88-3.76,2.88-6.64a19.6,19.6,0,0,1,3.72-11.53C76.52,39,65.93,21.17,48.92,21.17ZM45.75,80.5h.41"/>
    </symbol>
    <symbol id="saving-for-future" viewBox="0 0 96 96">
        <path d="M20,38.11a31.58,31.58,0,0,1,31.18-26.6c14.65,0,26.47,10.9,30,24.42m-6.2-2c-3.66-7.82-11.77-13.82-21-13.82A23,23,0,0,0,31.83,37.38m37.55-1.47a14.36,14.36,0,0,0-26.24,3.25m-3.56-.83c-.38-1.8-2.86-2.81-5.54-2.24-2.35.49-4.07,2-4.21,3.61m16.45,2.16a2.87,2.87,0,1,0-5.4,1.33m.52-2.94a4.17,4.17,0,0,0-3.15-1.41,4,4,0,0,0-4.08,3.85,3.67,3.67,0,0,0,.51,1.87m-12.8-5.75c-1.64-.91-3.37-1-4.37,0a3.34,3.34,0,0,0-.5,3.56m24.47,2.23A4.82,4.82,0,0,0,37.86,43a4.68,4.68,0,0,0-4.57,3.34m-13.83-3.4L19,42.78c-2.41-.73-4.7-.23-5.11,1.12a2.13,2.13,0,0,0,.63,2m16.27-8a5.49,5.49,0,0,0-4.21-1.8c-2.8,0-5.08,1.83-5.08,4.08a3.34,3.34,0,0,0,.21,1.16m2.27,7,.17-.31c1.35-2.57,1.07-5.37-.62-6.27s-4.17.47-5.52,3a7.65,7.65,0,0,0-.69,1.84M34.68,41a5.61,5.61,0,0,0-4.83-1.12c-2.74.47-4.71,2.33-4.4,4.14m9.62,4.51c-.18-1.56-1.68-3.21-3.88-4.05-2.76-1.06-5.57-.44-6.28,1.38a3,3,0,0,0,.37,2.6M48,45.74a2.81,2.81,0,0,0,.1-2.79c-.89-1.46-3.36-1.58-5.5-.27s-3.15,3.56-2.26,5a2.15,2.15,0,0,0,.18.26M14.32,51.82c-4.66,4.26-8,10.38-7.07,16.78C8.33,75.73,14.58,80.83,21,83.12a30.17,30.17,0,0,0,23.57-1.45c6.23-3.23,11.22-9.39,10.51-16.72-.51-5.23-3.48-9.92-7.43-13.39M40.39,78.22c5.06-2.63,9.12-7.63,8.54-13.59M47.38,51.81c1.57-.47,3-1.32,3-2.88s-1.71-2.83-3.27-2.83h-.15a3.42,3.42,0,0,0-1.19.29A51.18,51.18,0,0,1,31,48.8a57.27,57.27,0,0,1-15.22-2.41,6.36,6.36,0,0,0-1.53-.3,2.82,2.82,0,0,0-2.82,2.83c0,1.56,1.24,2.45,2.84,2.88h0a66.22,66.22,0,0,0,16.84,2.41,58.82,58.82,0,0,0,16.24-2.41m-33.31,13A4.6,4.6,0,1,0,20.21,67m.29-1.48a3,3,0,0,0-3-3h0a3,3,0,0,0-3,3h0a3,3,0,0,0,3,3h0a3,3,0,0,0,3-3ZM86,45.09a4.15,4.15,0,0,0-.87.09A8.88,8.88,0,0,0,85.24,44,9.22,9.22,0,0,0,67,42.2,5.74,5.74,0,0,0,65.63,42a5.51,5.51,0,1,0,0,11H86a4,4,0,1,0,0-8Zm-37.83,16-.05-.22"/>
    </symbol>
    <symbol id="travel-adventure" viewBox="0 0 96 96">
        <path d="M75.35,38.9a32.81,32.81,0,0,1,.86,24.39A30.43,30.43,0,0,1,57,82.21C34,89.82,12.81,72.1,14.21,49.92A32,32,0,0,1,57,21.88m13.25,9a27,27,0,0,0-6.37-5.58M43,78.43q1,.08,2.12.08A27.38,27.38,0,0,0,60.25,74M15.68,49.15,23.43,43a3.39,3.39,0,0,0,2-2l2.37-6.22a3.39,3.39,0,0,1,1.9-1.94l3.14-1.27a3.39,3.39,0,0,0,1.56-5L32.18,23.2M60.25,42.13l-5.2.1a2.73,2.73,0,0,0-2.58,3.45l2.45,8.89a2.73,2.73,0,0,0,1.62,1.81l9.65,3.84A2.73,2.73,0,0,1,67.79,62l3.12,10.3M38.66,21.8l1.77,3.27a2.64,2.64,0,0,0,2.05,1.42h4.09a2.61,2.61,0,0,0,2.34-2.21l.62-3.68M35,79.78,34.37,70a5.28,5.28,0,0,1,1.14-3.71L38,63.21A5.28,5.28,0,0,0,38.74,58l-1-2.57A5.28,5.28,0,0,0,34,52.2l-6.56-1.5a5.28,5.28,0,0,0-5.13,1.64l-4.91,1.53c-1.61,1.81-2.78,5.48-1.42,7.48M74.84,12.25a13.63,13.63,0,0,0-17.44,8.2c-3.85,10.68,5.12,26,5.12,26S79.65,39.09,83,29.69A13.63,13.63,0,0,0,74.84,12.25Zm.72,16.29A6.37,6.37,0,0,0,71,18.75a7,7,0,0,0-6.07,2.85,6.37,6.37,0,0,0,4.61,9.8A7,7,0,0,0,75.56,28.54ZM63.86,71.47l.31-.17"/>
    </symbol>
    <symbol id="buying-home" viewBox="0 0 96 96">
        <path d="M66,66.5H9.91a2.53,2.53,0,0,1-2.42-3.33L18.55,30A2.35,2.35,0,0,1,21,28.5H77.3A2.39,2.39,0,0,1,79.72,30L90.79,63a2.63,2.63,0,0,1-2.42,3.46H75M7.5,64v6.14A2.27,2.27,0,0,0,9.67,72.5h78.7a2.06,2.06,0,0,0,2.13-2.36V64m-69-20.75v6.64h.75l4-6.64h.23L27,49.89h.58l3.71-6.64m6.09,0h-4l-1,6.77H37m-.15-3.45H32.92m7-3.32L39.42,50h4.52m6.72-6.64C46,42.5,45,44.84,44.88,47l.1.56c1,2.52,2.87,3.1,6.27,2.41m7.64-5.39a4.78,4.78,0,0,0-3.08-1.44,3.18,3.18,0,0,0-3.28,3.08s0,.08,0,.12c0,2,2.4,3.84,4.09,3.84s3.52-.54,3.52-2.53A4.81,4.81,0,0,0,58.89,44.58Zm13.3,5.61-3.06-6.94h-.47L67.75,50h-.34L62.7,43.25h-.51l1,6.77m13.09-6.77H72.5l2.59,6.94h4.6m-2.25-3.72H73.7m-3.07,20h-.38" />
    </symbol>
    <symbol id="loved-ones" viewBox="0 0 96 96">
        <path d="M38.08,42.54a6.5,6.5,0,0,1-12.14,0m16.25-9.73H48m-34,0h7m4.11,4.48a4.13,4.13,0,1,0-4.13-4.13A4.13,4.13,0,0,0,25.07,37.3Zm13,0A4.13,4.13,0,1,0,34,33.17,4.13,4.13,0,0,0,38.08,37.3ZM58.37,57.21A17.47,17.47,0,0,0,74.91,54M57.69,47.72a6.5,6.5,0,0,0,12.14,0M53,27a22.3,22.3,0,0,0-7.47,13.8c-.53,3.3-1,6.08-1.31,8.32m8.28,2.58V37.39a3.78,3.78,0,0,1,4.06-3.58H64.7l3.8-5.39v5.39H71a3.35,3.35,0,0,1,3.54,3.58v5L75,55.81H84.4s-.71-5.41-2.3-15.24S73.65,23.81,64.18,22.81h-.72a16.18,16.18,0,0,0-4.34.8M37.39,73.93a6.5,6.5,0,0,0,12.14,0M29.19,33.17H34m15.2-1.93A17.67,17.67,0,1,0,32,53.35m11.25-4.3A17.59,17.59,0,1,0,60.88,66.65,17.59,17.59,0,0,0,43.29,49.05Zm12.38-24L56,25"/>
    </symbol>
    <symbol id="enjoying-retirement" viewBox="0 0 96 96">
        <path d="M76,63.92m-5.75-7c-4-2.14-9.83-3.66-16.5-4.15M17.5,60v6.5c0,7.63,14.1,13.81,31.5,13.81S80.5,74.12,80.5,66.5V61M39.84,57.43c-3.4,0-6.16,1.18-6.16,2.63s2.76,2.63,6.16,2.63S46,61.51,46,60.06,43.24,57.43,39.84,57.43ZM39,31.34l16.25-6.16L38.5,16.68V61M69.59,24.68a4,4,0,1,0,4,4A4,4,0,0,0,69.59,24.68Zm3.5,33.91.25.16M48.91,48C31.82,48,18,53.5,18,60.28S31.82,72.56,48.91,72.56s30.94-5.5,30.94-12.28S66,48,48.91,48Z"/>
    </symbol>
    <symbol id="giving-back" viewBox="0 0 96 96">

        <path d="M11.91,65.53a2.78,2.78,0,0,1,1.92-3.43l4.62-1.49A2.78,2.78,0,0,1,22,62.28L27.19,78.4a2.78,2.78,0,0,1-1.92,3.43l-4.62,1.49a2.78,2.78,0,0,1-3.56-1.67ZM27.73,80.08A4,4,0,0,1,29.62,80L43.1,86.9a18.44,18.44,0,0,0,7.37,2.32c4,.26,7.37-2.48,7.37-2.48L84.41,68.37a4.37,4.37,0,0,0,1.05-4.78C84.17,60,80.74,62,80.74,62L77,64.06l-.69.4c3.07-1.72,1-3.77,1-3.77C74.49,59.81,68,62.57,68,62.57s-2.09-2.18-3.54-2.48a14.24,14.24,0,0,0-4.32.51s-8.78,5-9.4,5M41,74.55a12.29,12.29,0,0,0,4.6.92l14.69.06s4.82.38,4.82-4.62a5,5,0,0,0-4.75-5.35s-9.82.13-11.79,0-9.86-3.92-11.63-5.11A15.59,15.59,0,0,0,30,58.08c-2.64-.26-6.55,1.56-6.55,1.56l-2.27,1m55.09,3.81L64.94,71.57m3-9L61.91,66m-1-56.34a12.41,12.41,0,0,1,12.41,12.4c0,15-19.9,30.11-23.49,32.73a.87.87,0,0,1-1.09,0C45.15,52.22,25.19,37,25.19,22.06A12.4,12.4,0,0,1,37.6,9.65a12.53,12.53,0,0,1,11.49,7.9.16.16,0,0,0,.29,0,12.52,12.52,0,0,1,11.5-7.92m5.52,20c2.45-5.3,1.82-14.46-5.89-14.4m-16.86,3.6a6.54,6.54,0,0,0-6.15-3.6m26.7,18.11-.3.26"/>

    </symbol>
</svg>