<svg xmlns="http://www.w3.org/2000/svg" xmlns:xlink="http://www.w3.org/1999/xlink" version="1.1" class="visually-hidden">
    <symbol id="store" viewBox="0 0 96 96">
        <path d="M86,84.41H14v-72H86Zm-76-72H90M10,36.08H90M75.25,53.16v-3.5h-7.5M44,44.41H20V84H44Zm7,0v34H80.33v-34ZM27.28,24.32a6,6,0,1,0,6-6A6,6,0,0,0,27.28,24.32ZM75.5,56.93v.57M38.19,65.83v.3M44.65,22H76.18M44.65,28.27H76.18" />
    </symbol>
    <symbol id="baby-changing" viewBox="0 0 96 96">
        <path d="M55.81,16.33A10,10,0,0,0,57.07,12H66.4a3.79,3.79,0,0,1,2.83.93l16.3,16.19a3,3,0,0,1,0,4.24l-8.74,8.58a3.14,3.14,0,0,1-4.31,0L67,37V63.07c0,.06.22.12.22.18s.25.17.25.25a19.55,19.55,0,0,1-39.09,0c0-.1-.12-.21-.11-.31s-.27-.08-.27-.12V37l-4.32,4.78a2.72,2.72,0,0,1-4.06,0l-8.23-8.39a2.92,2.92,0,0,1,0-4.15L27.9,12.92A3.8,3.8,0,0,1,30.73,12h9.34a8.76,8.76,0,0,0,8.5,8.25M59,78.5V60a6,6,0,0,0-6-6H44a6,6,0,0,0-6,6V78.5M52.5,19.16V19M44.58,59.5a2.17,2.17,0,1,0,2.17,2.17A2.17,2.17,0,0,0,44.58,59.5Zm8,0a2.17,2.17,0,1,0,2.17,2.17A2.17,2.17,0,0,0,52.58,59.5Zm4.93-19a55.37,55.37,0,0,0-9-.72A54.14,54.14,0,0,0,37,41"/>
    </symbol>
    <symbol id="bowling" viewBox="0 0 96 96">
        <path d="M64.86,52.58a2.5,2.5,0,1,1-2.5-2.5A2.5,2.5,0,0,1,64.86,52.58Zm8-4a2.5,2.5,0,1,1-2.5-2.5A2.5,2.5,0,0,1,72.86,48.58Zm1,10a2.5,2.5,0,1,1-2.5-2.5A2.5,2.5,0,0,1,73.86,58.58ZM61.33,33.26A21.2,21.2,0,0,0,68,25.91c1.86-3.73,2.42-8.08,5.07-11.43C76,10.85,80.5,11,83.6,14.36c3.39,3.7.65,8-2.18,11.06-3.36,3.6-7,6.12-8.81,10.91m-4.75-8.66,5.84,3.86m-10,.6,3.59,2.37M40.68,76.66c-.3,2.07-.57,3.39-.57,3.39l-6.62,1.53-.8.19-6.42,1.48S18.74,73.55,16.76,65s.92-11.87,1.77-17.45.32-7.93-.21-10.21-3.94-7.28-5-11.69.7-7.31,4.85-8.27l.1,0c4.15-1,7.07.86,8.09,5.27s.17,10.49.7,12.76,1.06,4.59,4.28,9.23c1.54,2.22,3.27,3.76,4.88,5.7M19.17,37.68,26,36.1m-6.45,7.65,8.77-2M60.75,86A26.25,26.25,0,1,1,87,59.75,26.25,26.25,0,0,1,60.75,86Zm-2-6.34a20.34,20.34,0,0,1-18-19.91M62.5,80v.53"/>
    </symbol>
    <symbol id="chat" viewBox="0 0 96 96">
        <path d="M37.8,52.2c-5.8,0-11-1.4-15.3-3.7c-1.1,1.7-3.4,3.7-7.4,3.7c1.8-1.5,2.7-4.5,2.6-7.2c-3.1-3-5-6.7-5-10.7  c0-9.9,11.2-17.9,25-17.9c13.8,0,25,8,25,17.9c0,3.1-1.1,6-3,8.5 M80.5,71.7c3.1-3,5-6.7,5-10.7c0-9.9-11.2-17.9-25-17.9  c-13.8,0-25,8-25,17.9s11.2,17.9,25,17.9c5.8,0,11-1.4,15.3-3.7c1.1,1.7,3.4,3.7,7.4,3.7C81.3,77.4,80.4,74.4,80.5,71.7z M58.6,49.1  c-8.9,0.3-15.9,5.5-15.9,11.9 M63.1,49.3l0.3,0"/>
    </symbol>
    <symbol id="coffee" viewBox="0 0 96 96">
        <path class="a" d="M48.36,74H32.64A16,16,0,0,1,16.7,59.42L16,36H65l-.7,23.42A16,16,0,0,1,48.36,74ZM53,74H28v5H53ZM64.8,61.67A10.34,10.34,0,1,0,70.17,42.5a10.15,10.15,0,0,0-4.17.88M48.33,30.33c0-4.83,8-7.16,8-14m-11,4c-2.16,4-7,6.27-7,10m-10,0c0-4.83,8-7.16,8-14M18.5,46h27m1.31-29.67V16"/>
    </symbol>
    <symbol id="disabled-access" viewBox="0 0 96 96">
        <path class="a" d="M40.47,13.74a6.25,6.25,0,1,1-3.27,8.2A6.25,6.25,0,0,1,40.47,13.74Zm1.47,24.32-.63,6.72,5.62,10.87a3.45,3.45,0,0,1-1.81,4.54h0a3.37,3.37,0,0,1-4.46-1.83L35,47V37.5L34.83,35c.35-2.3,1.69-4.11,4-4.48h0l1.91-.31a5.94,5.94,0,0,1,4.16.64l10.67,5.67,8.24-5.22a3.74,3.74,0,0,1,1.4-.54,3.49,3.49,0,0,1,2.44,6.39l-10,6.37a3.48,3.48,0,0,1-1.32.5,3.54,3.54,0,0,1-2.19-.36l-5.93-3.12L49.79,52m-11,4.49,11.74-2.64M60,65.74l4.5,8.63a4.43,4.43,0,0,0,6.27.91h0a4.44,4.44,0,0,0,.88-6.14L65,57a4,4,0,0,0-2.12-1.48l-12.11-2m-13.14.2A15.5,15.5,0,1,0,44.5,52M40,58.4A10.16,10.16,0,0,0,44.5,77.66a10.35,10.35,0,0,0,3.16-.5m6.25-5.83a10.15,10.15,0,0,0-6.83-13.65M49,46.46,46.92,32M33.57,56l-4.36-18.7a2.51,2.51,0,0,0-3-1.87h0a2.51,2.51,0,0,0-1.87,3L29.9,62.29M44.13,48.53l11.12-.06M60,68.64,60,79.76m13,.74H60m-26.87-32,1.12-.06M51.34,75.31v-.49"/>
    </symbol>
    <symbol id="parking" viewBox="0 0 96 96">
        <path d="M69.21,42.25h0L61.56,69.5h-27l-7.78-27h0a27.23,27.23,0,0,1-1.29-7.75,22.5,22.5,0,1,1,45-.25A24,24,0,0,1,69.21,42.25ZM51.5,35.05,63,35a15,15,0,0,0-30,0l12.25,0M48.5,20v5m0,4v4m9.77-8.27-3.54,3.54m-17-3.54,3.54,3.54M51.5,52V46.5h-7v16h7V60m0,9.5h-7v15h7ZM48.5,33A2.5,2.5,0,1,0,51,35.5,2.5,2.5,0,0,0,48.5,33Zm2.87,22.54h.26"/>
    </symbol>
    <symbol id="phone-charging" viewBox="0 0 96 96">
        <path d="M84.5,61.55a4,4,0,0,1-4,4H16.45a4,4,0,0,1-3.95-4V34.45a4,4,0,0,1,3.95-4h64.1a4,4,0,0,1,4,4Zm6-19a2,2,0,0,0-2-2h-2a2,2,0,0,0-2,2v10a2,2,0,0,0,2,2h2a2,2,0,0,0,2-2ZM19,36.5v23M35.32,53,53,58.17V50.79l16.83,6.05L46,38.17V45.7L31,40.41V47.5m1-1.73,0,5.6h-.47"/>
    </symbol>
    <symbol id="cash-handling" viewBox="0 0 96 96">
        <path d="M16.56,55.39l-4.82-22a2.71,2.71,0,0,1,2.07-3.22L75.2,16.75a2.71,2.71,0,0,1,3.22,2.07L85,49a2.71,2.71,0,0,1-.36,2M12.88,38.6h0A8,8,0,0,0,19,29.08h0M70,17.89h0A8,8,0,0,0,79.55,24h0M69.73,33.2a3.07,3.07,0,1,0,3.65,2.34A3.07,3.07,0,0,0,69.73,33.2Zm-8.4,10.3a13.14,13.14,0,1,0-25.94-.36m15.73-6.93c-1.79-2.34-7.53-.37-5.13,3.29a10.69,10.69,0,0,1,1.88,3.83m3.21-2.94-6.9,1.52m40.32,4.3a2.71,2.71,0,0,0-2.71-2.71H19.21a2.71,2.71,0,0,0-2.71,2.71V76.79a2.71,2.71,0,0,0,2.71,2.71H81.79a2.71,2.71,0,0,0,2.71-2.71Zm-68,5.29h0a8,8,0,0,0,8-8h0m52,0h0a8,8,0,0,0,8,8h0M24.26,79.35h0a8,8,0,0,0-8-8h0m68.26,0h0a8,8,0,0,0-8,8h0M27.83,58A3.07,3.07,0,1,0,30.9,61,3.06,3.06,0,0,0,27.83,58ZM73,58A3.07,3.07,0,1,0,76,61,3.06,3.06,0,0,0,73,58ZM61.41,68.36a13.07,13.07,0,1,0-5.87,4.94M54.06,57c-1.24-2.67-7.24-1.94-5.68,2.15,1.23,3.21,1.94,5.39-1.19,7.39H54m-8-6h7m5.47,10.6h.36"/>
    </symbol>
    <symbol id="toilet" viewBox="0 0 96 96">
        <path d="M58,17.5h7.28a4.21,4.21,0,0,1,4.22,4V43.56a9.18,9.18,0,0,1-9.19,8.94H35.69a9.18,9.18,0,0,1-9.19-8.94V21.47a4.2,4.2,0,0,1,4.21-4H38m-11,8h6m31,0h6M67.5,55c0-1.65-1.35-2.5-3-2.5h-33c-1.65,0-3,.85-3,2.5v3.5h39ZM30,58.93c0,7.19,6.49,12.84,15,13.92m4.15.16h0M66,58.5H30c0,7,4.89,11.74,11.74,13.8L40.5,84.5h15L54.26,72.3C61.11,70.24,66,65.5,66,58.5Zm-31,26H62m-6-32c4.77-3.76,8-10.76,8-18.78C64,21.72,56.84,12,48,12S32,21.72,32,33.72c0,8,3.2,15,8,18.78m3.76-8.8A6.85,6.85,0,0,0,48,45.25c4.69,0,8.5-5.16,8.5-11.53S52.69,22.18,48,22.18s-8.5,5.16-8.5,11.54c0,4.26,1.7,8,4.23,10m-3.22,3.49H41M40.89,19h.51m13.49,0h.51m-.51,28h.51"/>
    </symbol>
    <symbol id="ipad" viewBox="0 0 96 96">
        <path d="M76.5,13.5v68a4,4,0,0,1-4.09,4H24.59a4,4,0,0,1-4.09-4v-68a4,4,0,0,1,4.09-4H72.41A4,4,0,0,1,76.5,13.5ZM58.5,17h-17m7,61.75a3,3,0,1,0-3-3A3,3,0,0,0,48.5,78.75ZM37.13,17h-.81"/>
    </symbol>
    <symbol id="wifi" viewBox="0 0 96 96">
        <path d="M27.89,42.54a29.15,29.15,0,0,1,41.22,0M62.64,49a20,20,0,0,0-28.28,0M56,55.67a10.56,10.56,0,0,0-14.95,0m7.89-44.76a36.5,36.5,0,1,0,36.5,36.5A36.5,36.5,0,0,0,48.91,10.91ZM48.15,62h.7"/>
    </symbol>
    <symbol id="store-finder" viewBox="0 0 96 96">
        <path d="M57.52,16.5A14.92,14.92,0,0,0,42.6,31.42c0,12.44,14.92,24.88,14.92,24.88S72.45,42.37,72.45,31.42A14.93,14.93,0,0,0,57.52,16.5Zm0,21.89a7,7,0,1,1,7-7A7,7,0,0,1,57.52,38.39Zm-27.35-.66-5.25,41L5.85,67.14,16.68,30.3ZM48.48,72.49,24.92,78.7l5.25-41,12.89-2.39m29-.48,8.28-4.56L91.12,67.14,72.05,78.7,69.76,60.81M67.64,44.24l.6,4.71m1.2,9.39L72.05,78.7,48.48,72.49v-26m26,21.63c-10.08,6.31-20,3.72-18-9.23M41.61,40.74m0,0-1.32.51-1.43.91a8.63,8.63,0,0,1,1.43-.91M36.7,57.52c-2.48-7.74-1-12.86,2.16-15.36M30.17,70C15.29,72.86,8.68,61.91,19.48,47.23M32.54,64.81a3.27,3.27,0,1,1,3.27,3.27A3.27,3.27,0,0,1,32.54,64.81ZM16.7,46.38A3.27,3.27,0,1,1,20,49.65,3.26,3.26,0,0,1,16.7,46.38Zm60,16.09a3.27,3.27,0,1,1,3.27,3.27A3.27,3.27,0,0,1,76.66,62.47ZM69,53.5h.5"/>
    </symbol>
    <symbol id="cash-machine" viewBox="0 0 96 96">
        <path class="b" d="M85,47.5A36.5,36.5,0,1,1,48.5,11,36.5,36.5,0,0,1,85,47.5ZM74.5,55.2m-35.65,0-8.2-19-8.9,18.95m3-6.16H35.06M46,55.2V36.33m-7.24-.42H53.34M74.44,51V35.91L66,54.4,57.37,36V55.15m17.45.05h-.64"/>
    </symbol>
</svg>