<svg xmlns="http://www.w3.org/2000/svg" xmlns:xlink="http://www.w3.org/1999/xlink" version="1.1" viewbox="0 0 1255 320" height="100%" width="100%">
  
  <path d="M1252.16,304c-46.76,0-81.22-33.47-81.22-86.81V56.88c0-24.34,13.76-40.85,34.47-40.85C1224.87,16,1239,32.4,1239,53c0,15.21-5.67,29.32-17.2,46.44L1105.07,269.76c-16.92,24.46-28.46,34.24-46.52,34.24-21.39,0-38.21-13.9-38.21-42.75V64.06c0-28.86-16.79-48-41.24-48-17.39,0-30,8.07-44.34,29.14l-119.38,176c-12.08,17.15-18.09,30.13-18.09,45.83,0,18.76,14.13,37,35.9,37,21,0,36.56-18.7,36.56-44.31V102.81c0-53.34-34.47-86.81-81.22-86.81S707.3,49.47,707.3,102.81V217.19c0,53.34-34.46,86.81-81.22,86.81s-81.22-33.47-81.22-86.81V56.88c0-24.34,13.76-40.85,34.47-40.85C598.79,16,613,32.4,613,53c0,15.21-5.67,29.32-17.2,46.44L479,269.76C462.07,294.22,450.53,304,432.47,304c-21.39,0-38.21-13.9-38.21-42.75V64.06c0-28.86-16.8-48-41.25-48-17.38,0-30,8.07-44.33,29.14l-119.38,176c-12.08,17.15-18.09,30.13-18.09,45.83,0,18.76,14.13,37,35.9,37,21,0,36.56-18.7,36.56-44.31V102.81C243.67,49.47,209.2,16,162.45,16S81.22,49.47,81.22,102.81V217.19C81.22,270.53,46.76,304,0,304" stroke="black" stroke-width="32px" fill="none" />

</svg>