<svg xmlns="http://www.w3.org/2000/svg" xmlns:xlink="http://www.w3.org/1999/xlink" version="1.1" class="visually-hidden">
  
	<symbol id="pattern-1" viewbox="0 0 1600 320">
    <path d="M-24,303.83c46.75,0,81.17-33.37,81.17-86.73V102.73C57.17,49.37,90.71,16,137.47,16s81.17,33.37,81.17,86.73v157c0,25.55-15.47,44.32-36.5,44.32-21.73,0-35.81-18.25-35.81-37,0-15.82,6.09-28.68,18.08-45.89L283.81,45.2C298.07,24,310.75,16,328.14,16c24.33,0,41.19,19.12,41.19,48v197.1c0,28.85,16.86,42.76,38.24,42.76,18.07,0,29.72-9.74,46.58-34.24L570.94,99.25c11.48-17,17.21-31.28,17.21-46.4,0-20.51-14.08-36.85-33.54-36.85-20.69,0-34.42,16.51-34.42,40.84V217.1c0,53.36,34.42,86.73,81.17,86.73s81.17-33.37,81.17-86.73V102.73C682.53,49.37,716.94,16,763.7,16s81.17,33.37,81.17,86.73v157c0,25.55-15.47,44.32-36.5,44.32-21.73,0-35.81-18.25-35.81-37,0-15.82,6.09-28.68,18.08-45.89L910,45.2C924.3,24,937,16,954.37,16c24.33,0,41.19,19.12,41.19,48v197.1c0,28.85,16.86,42.76,38.24,42.76,18.07,0,29.72-9.74,46.58-34.24l116.8-170.34c11.47-17,17.2-31.28,17.2-46.4,0-20.51-14.08-36.85-33.54-36.85-20.69,0-34.42,16.51-34.42,40.84V217.1c0,53.36,34.42,86.73,81.17,86.73h.41c46.75,0,81.17-33.37,81.17-86.73V102.73c0-53.36,33.54-86.73,80.3-86.73s81.17,33.37,81.17,86.73v157c0,25.55-15.47,44.32-36.5,44.32-21.73,0-35.81-18.25-35.81-37,0-15.82,6.09-28.68,18.08-45.89L1535.81,45.2C1550.07,24,1562.75,16,1580.14,16c24.33,0,41.19,19.12,41.19,48v197.1c0,28.85,16.86,42.76,38.24,42.76"/>
  </symbol>

	<symbol id="pattern-2" viewbox="0 0 1600 320">
    <path d="M-12.39,16c46.78,0,81.22,33.39,81.22,86.78V217.22C68.83,270.61,103.26,304,150,304s81.22-33.39,81.22-86.78V102.78C231.26,49.39,265.7,16,312.48,16s81.22,33.39,81.22,86.78V217.22c0,53.39,34.43,86.78,81.21,86.78s81.22-33.39,81.22-86.78V102.78c0-53.39,34.44-86.78,81.22-86.78s81.22,33.39,81.22,86.78V217.22c0,53.39,34.43,86.78,81.21,86.78H800c46.78,0,81.22-33.39,81.22-86.78V102.78c0-53.39,34.61-86.78,81.39-86.78s81.22,33.39,81.22,86.78V217.22c0,53.39,34.43,86.78,81.21,86.78s81.22-33.39,81.22-86.78V102.78c0-53.39,34.44-86.78,81.22-86.78s81.22,33.39,81.22,86.78V217.22c0,53.39,34.43,86.78,81.21,86.78s81.22-33.39,81.22-86.78V102.78c0-53.39,34.44-86.78,81.22-86.78"/>
  </symbol>

	<symbol id="pattern-3" viewbox="0 0 1600 320">
    <path d="M0,16.17c46.75,0,81.17,33.37,81.17,86.73V256c0,28.85,16.86,48,41.19,48,17.38,0,30.07-8,44.32-29.2L286.09,98.91c12-16.86,18.07-30.07,18.07-45.89,0-18.77-14.07-37-35.8-37-21,0-36.5,18.77-36.5,44.32v157c0,53.36,34.41,86.73,81.17,86.73s81.17-33.37,81.17-86.73V102.9c0-53.36,34.41-86.73,81.17-86.73s81.16,33.37,81.16,86.73V256c0,28.85,16.86,48,41.2,48,17.38,0,30.06-8,44.32-29.2L761.45,98.91c12-16.86,18.08-30.07,18.08-45.89,0-18.77-14.08-37-35.81-37-21,0-36.49,18.77-36.49,44.32v157c0,53.36,34.41,86.73,81.16,86.73s81-33.37,81-86.73V102.9c0-53.36,34.41-86.73,81.17-86.73H950c44.09,0,81.17,33.37,81.17,86.73V256c0,28.85,16.86,48,41.19,48,17.38,0,30.07-8,44.32-29.2L1236.09,98.91c12-16.86,18.07-30.07,18.07-45.89,0-18.77-14.07-37-35.8-37-21,0-36.5,18.77-36.5,44.32v157c0,53.36,34.41,86.73,81.17,86.73s81.17-33.37,81.17-86.73V102.9c0-53.36,34.41-86.73,81.17-86.73s81.16,33.37,81.16,86.73V256c0,28.85,16.86,48,41.2,48,17.38,0,30.06-8,44.32-29.2l119.4-175.89"/>
  </symbol>

	<symbol id="pattern-footer" viewbox="0 0 1600 320">
    <path d="M0,313.91c23.38,0,40.58-16.68,40.58-43.36V213.37c0-26.68,16.78-43.37,40.15-43.37s40.59,16.69,40.59,43.37v78.47c0,12.77-7.74,22.16-18.25,22.16-10.86,0-17.9-9.12-17.9-18.51,0-7.91,3-14.34,9-22.94l59.71-88C161,174,167.38,170,176.07,170c12.16,0,20.59,9.56,20.59,24v98.54c0,14.43,8.43,21.38,19.12,21.38,9,0,14.86-4.86,23.29-17.12l58.4-85.16c5.74-8.52,8.61-15.65,8.61-23.21,0-10.25-7-18.42-16.78-18.42-10.34,0-17.2,8.26-17.2,20.42v80.13c0,26.68,17.2,43.36,40.58,43.36s40.58-16.68,40.58-43.36V213.37c0-26.68,17.21-43.37,40.59-43.37s40.58,16.69,40.58,43.37v78.47c0,12.77-7.73,22.16-18.25,22.16-10.86,0-17.9-9.12-17.9-18.51,0-7.91,3-14.34,9-22.94l59.7-88c7.13-10.6,13.47-14.6,22.16-14.6,12.17,0,20.6,9.56,20.6,24v98.54c0,14.43,8.43,21.38,19.12,21.38,9,0,14.86-4.86,23.29-17.12l58.4-85.16c5.73-8.52,8.6-15.65,8.6-23.21,0-10.25-7-18.42-16.77-18.42-10.34,0-17.21,8.26-17.21,20.42v80.13c0,26.68,17.21,43.36,40.59,43.36h.2c23.38,0,40.58-16.68,40.58-43.36V213.37c0-26.68,16.78-43.37,40.15-43.37s40.59,16.69,40.59,43.37v78.47c0,12.77-7.74,22.16-18.25,22.16-10.86,0-17.9-9.12-17.9-18.51,0-7.91,3-14.34,9-22.94l59.71-88C787,174,793.38,170,802.07,170c12.16,0,20.59,9.56,20.59,24v98.54c0,14.43,8.43,21.38,19.12,21.38,9,0,14.86-4.86,23.29-17.12l58.4-85.16c5.74-8.52,8.61-15.65,8.61-23.21,0-10.25-7-18.42-16.78-18.42-10.34,0-17.2,8.26-17.2,20.42v80.13c0,26.68,17.2,43.36,40.58,43.36s40.58-16.68,40.58-43.36V213.37c0-26.68,17.21-43.37,40.59-43.37s40.58,16.69,40.58,43.37v78.47c0,12.77-7.73,22.16-18.25,22.16-10.86,0-17.9-9.12-17.9-18.51,0-7.91,3-14.34,9-22.94l59.7-88c7.13-10.6,13.47-14.6,22.16-14.6,12.17,0,20.6,9.56,20.6,24v98.54c0,14.43,8.43,21.38,19.12,21.38,9,0,14.86-4.86,23.29-17.12l58.4-85.16c5.73-8.52,8.6-15.65,8.6-23.21,0-10.25-7-18.42-16.77-18.42-10.34,0-17.21,8.26-17.21,20.42v80.13c0,26.68,17.21,43.36,40.59,43.36h.2c23.38,0,40.58-16.68,40.58-43.36V213.37c0-26.68,16.78-43.37,40.15-43.37s40.59,16.69,40.59,43.37v78.47c0,12.77-7.74,22.16-18.25,22.16-10.86,0-17.9-9.12-17.9-18.51,0-7.91,3-14.34,9-22.94l59.71-88c7.12-10.6,13.47-14.6,22.16-14.6,12.16,0,20.59,9.56,20.59,24v98.54c0,14.43,8.43,21.38,19.12,21.38,9,0,14.86-4.86,23.29-17.12l58.4-85.16c5.74-8.52,8.61-15.65,8.61-23.21,0-10.25-7-18.42-16.78-18.42-10.34,0-17.2,8.26-17.2,20.42v80.13c0,26.68,17.2,43.36,40.58,43.36s40.58-16.68,40.58-43.36V213.37c0-26.68,17.21-43.37,40.59-43.37"/>
  </symbol>

	<symbol id="pattern-giving" viewbox="0 0 1600 320">
    <path d="M649.89,11,790.25,221.52C809.79,250.76,815,268.07,813,282.66c-3,21-27.08,30.9-45.44,8.77-16.57-20.82-20-55.43-4.94-114.08C783.2,95.14,859.94,16.49,970.23,16.49"/>
  </symbol>
</svg>