<svg xmlns="http://www.w3.org/2000/svg" xmlns:xlink="http://www.w3.org/1999/xlink" version="1.1" class="visually-hidden">

	<symbol id="arrow-right" viewBox="0 0 24 24">
		<path d="M4,12h7.51a1.11,1.11,0,0,0,1.11-1.11V5.35L20,12l-7.38,6.65V14.22"/>
	</symbol>

	<symbol id="arrow-down" viewBox="0 0 24 24">
		<path d="M12,4v7.51a1.11,1.11,0,0,0,1.11,1.11h5.54L12,20,5.35,12.62H9.78"/>
	</symbol>

	<symbol id="arrow-left" viewBox="0 0 24 24">
		<path d="M20,12H12.49a1.11,1.11,0,0,0-1.11,1.11v5.54L4,12l7.38-6.65V9.78"/>
	</symbol>

	<symbol id="arrow-up" viewBox="0 0 24 24">
		<path d="M12,20V12.49a1.11,1.11,0,0,0-1.11-1.11H5.35L12,4l6.65,7.38H14.22"/>
	</symbol>

	<symbol id="chevron-right" viewBox="0 0 24 24">
		<polyline points="8.5 19 15.5 12 8.5 5"/>
	</symbol>
	
	<symbol id="chevron-down" viewBox="0 0 24 24">
		<polyline points="5 8.5 12 15.5 19 8.5"/>
	</symbol>
	
	<symbol id="chevron-left" viewBox="0 0 24 24">
		<polyline points="15.5 5 8.5 12 15.5 19"/>
	</symbol>
	
	<symbol id="chevron-up" viewBox="0 0 24 24">
		<polyline points="19 15.5 12 8.5 5 15.5"/>
	</symbol>

	<symbol id="plus" viewBox="0 0 24 24">
		<line x1="12" y1="5" x2="12" y2="19"/>
		<line x1="19" y1="12" x2="5" y2="12"/>
	</symbol>

	<symbol id="minus" viewBox="0 0 24 24">
		<line x1="19" y1="12" x2="5" y2="12"/>
	</symbol>

	<symbol id="tick" viewBox="0 0 24 24">
		<polyline points="4 13.71 8.57 18.29 20 5.71"/>
	</symbol>

	<symbol id="cross" viewBox="0 0 24 24">
		<line x1="19" y1="5" x2="5" y2="19"/>
		<line x1="19" y1="19" x2="5" y2="5"/>
	</symbol>

	<symbol id="menu" viewBox="0 0 24 24">
		<line x1="4" y1="12" x2="20" y2="12"/>
		<line x1="4" y1="18" x2="20" y2="18"/>
		<line x1="4" y1="6" x2="20" y2="6"/>
	</symbol>

	<symbol id="search" viewBox="0 0 24 24">
		<path d="M17.49,10.25A7.25,7.25,0,1,0,5.4,15.64a7.42,7.42,0,0,0,10.15-.45l1-1a1.7,1.7,0,0,0,0-2.41h0a1.7,1.7,0,0,0-2.41,0h0a1.7,1.7,0,0,0,0,2.41L21,21"/>
	</symbol>

	<symbol id="edit" viewBox="0 0 24 24">
		<polyline points="19.39 13.64 19.39 21 3.04 21 3.04 4.65 9.7 4.65"/>
		<path xmlns="http://www.w3.org/2000/svg" class="cls-2" d="M12.3,14.93l6.61-6.61L18.4,7.8a2.44,2.44,0,0,1-.71-1.73V4.63A1.63,1.63,0,0,1,19.32,3h0A1.64,1.64,0,0,1,21,4.63h0a1.64,1.64,0,0,1-1.64,1.64H17.88a2.45,2.45,0,0,1-1.73-.72L15.64,5l-9,9-1.22,4.5,4.49-1.22,1.15-1.15-2-2"/>
	</symbol>

	<symbol id="profile" viewBox="0 0 24 24">
		<path d="M6.32,19a9,9,0,0,0,11.36,0"/>
		<path d="M3.82,18.55l.84-.85a3.32,3.32,0,0,1,1.91-.93L12,16.09c1.64,0,4.09-2.45,4.09-5.73a4.09,4.09,0,0,0-4.72-4A4.23,4.23,0,0,0,8,11.06c.31,2.92,2.53,5,4.05,5l5.15.65h0a3.07,3.07,0,0,0,3.27-1.63h0a1.73,1.73,0,0,0,.14-.31A8.94,8.94,0,0,0,21,11.06,9,9,0,1,0,3.13,13.52a8.43,8.43,0,0,0,.66,2.19"/>
	</symbol>

	<symbol id="anchor" viewBox="0 0 24 24">
		<use xmlns:xlink="http://www.w3.org/1999/xlink" xlink:href="#arrow-down"></use>
	</symbol>

	<symbol id="back" viewBox="0 0 24 24">
		<use xmlns:xlink="http://www.w3.org/1999/xlink" xlink:href="#arrow-left"></use>
	</symbol>

	<symbol id="download" viewBox="0 0 24 24">
		<polyline points="19.19 16.01 19.19 20 4.81 20 4.81 16.01"/>
		<polyline points="14.76 14.79 11.93 17.61 9.11 14.79"/>
		<path d="M11.93,17.21V12.16a11.85,11.85,0,0,1,2.6-7.4h0A2,2,0,0,1,16.09,4h.23a2,2,0,0,1,2,2h0a2,2,0,0,1-2,2h0a9.3,9.3,0,0,1-3.81-.83L5.54,4"/>
	</symbol>

	<symbol id="info" viewBox="0 0 24 24">
		<line x1="11.18" y1="7.09" x2="12.82" y2="7.09"/>
		<path d="M12,9.55v8.18h0a2.66,2.66,0,0,0,3.7,2.47,9,9,0,1,0-5.31.66"/>
	</symbol>

	<symbol id="external" viewBox="0 0 24 24">
		<polyline points="15.23 4.09 18.98 4.09 18.98 7.84"/>
		<path d="M18.71,4.36l-4.79,4.8a9,9,0,0,1-5.35,2.35h0A1.89,1.89,0,0,1,7,11,1.92,1.92,0,0,1,7,8.31a1.87,1.87,0,0,1,2.66,0h0l0,0c1.58,1.6,2.43,4.38,2.43,7.54v1.64"/>
		<polyline points="19 12.25 19 19 4 19 4 4 10.1 4"/>
	</symbol>

	<symbol id="delete" viewBox="0 0 24 24">
		<polyline points="19.76 4.71 14.06 4.64 14.06 3 9.15 3 9.15 4.64 4.24 4.64 4.24 7.09 5.06 7.09 5.88 21 17.33 21 18.15 7.09 7.59 7.09"/>
		<path d="M8.2,10.62l.49,5.47a1.47,1.47,0,1,0,2.94,0V11.67a1.48,1.48,0,0,1,2.95,0v5.89"/>
	</symbol>

	<symbol id="print" viewBox="0 0 24 24">
		<path d="M6.27,5.45V3.82A.82.82,0,0,1,7.09,3h9.82a.82.82,0,0,1,.82.82V5.45"/>
		<path d="M19.36,16.91H21V7.09h-.33a10.23,10.23,0,0,0-4.13.83c-.95.42-1.68.93-1.68,1.9a1.64,1.64,0,0,0,2.22,1.53,1.59,1.59,0,0,0,1.06-1.54c0-1-.74-1.47-1.66-1.87a10.29,10.29,0,0,0-4.16-.85H3v9.82H6.27V13.64H17.73V21H6.27V18.55"/>
	</symbol>

	<symbol id="help" viewBox="0 0 24 24">
		<path d="M12,13.85v-.57A2.27,2.27,0,0,1,13.29,11a2.69,2.69,0,0,0,2-2.39c0-1.95-2.17-2.71-3.52-2.71h-.31A4,4,0,0,0,8.26,8.34l-.11.27A1.71,1.71,0,0,1,6,9.55H6A1.71,1.71,0,0,1,5,7.37H5a5.4,5.4,0,0,1,2.65-3,10,10,0,0,1,4.4-1c5,0,9,3.55,9,7.93s-4,7.93-9,7.93a9.87,9.87,0,0,1-4.1-.87l-4,2.43,1.06-4.57a7.94,7.94,0,0,1-1-1.39A6.31,6.31,0,0,1,3,11.35"/>
		<line x1="11.18" y1="15.44" x2="12.82" y2="15.44"/>
	</symbol>

	<symbol id="document" viewBox="0 0 24 24">
		<path d="M15.81,20.93H5a1.81,1.81,0,0,1-1.8-1.8V3H17.6V19.54c0,2.27,3.61,2.27,3.61,0V15.87H19.37"/>
		<line x1="5.97" y1="8.51" x2="15.16" y2="8.51"/>
		<line x1="5.97" y1="12.19" x2="15.16" y2="12.19"/>
		<line x1="5.97" y1="15.87" x2="12.4" y2="15.87"/>
	</symbol>

	<symbol id="pdf" viewBox="0 0 24 24">
		<path d="M15.81,20.93H5a1.81,1.81,0,0,1-1.8-1.8V3H17.6V19.54c0,2.27,3.61,2.27,3.61,0V15.87H19.37"/>
		<path d="M9.38,9.05s.7-2-.19-2,0,2,0,2L13,12.61s1.35,1.73,2,.52c.4-.79-2-.31-2-.31l-5.17,1s-2.37.39-2,1.18c.79,1.59,2-1.39,2-1.39Z"/>
	</symbol>

	<symbol id="alert" viewBox="0 0 24 24">
		<path d="M10.64,19.36h0A1.63,1.63,0,0,0,12.27,21h0a1.63,1.63,0,0,0,1.64-1.64V17.73H7.24a1.51,1.51,0,0,1-1.51-1.52h0a1.52,1.52,0,0,1,.83-1.36l.8-.4.37-3.29A4.47,4.47,0,0,1,10.6,7.38a5.36,5.36,0,0,0,1.7-.91l.5-.41.52-.53a1.48,1.48,0,0,0,0-2.1h0a1.5,1.5,0,0,0-2.1,0h0a1.5,1.5,0,0,0,0,2.1l.53.53.53.44a5.44,5.44,0,0,0,1.62.89,4.46,4.46,0,0,1,2.92,3.77l.36,3.29.8.4a1.53,1.53,0,0,1,.84,1.36h0a1.52,1.52,0,0,1-1.52,1.52h-.94"/>
	</symbol>

	<symbol id="attention" viewBox="0 0 24 24">
		<line x1="11.07" y1="17.14" x2="12.81" y2="17.14"/>
		<path d="M11.94,14.53V3.66a.31.31,0,0,1,.58-.16c1.93,3.42,8.08,14.34,8.41,15.33a1.42,1.42,0,0,1-1.37,1.83H4.17A1.17,1.17,0,0,1,3.1,19L9.28,6.34"/>
	</symbol>

	<symbol id="new-window" viewBox="0 0 24 24">
		<path d="M4.8,11.1H3v8.1h7.2c3.6,0,6.3,0,6.3-3.6,0,0,.48-3.36-1.8-4.5A2,2,0,0,0,12,13.8c.9,1.8,4.5,1.8,4.5,1.8H21V4.8H7.5V15.6"/>
	</symbol>

	<symbol id="slider" viewBox="0 0 24 24">
		<polyline points="8.74 17.63 3 12 8.74 6.38"/>
		<polyline points="15.26 17.63 21 12 15.26 6.38"/>
	</symbol>

	<symbol id="play" viewBox="0 0 24 24">
		<path d="M5.52144295,20.9048976 C9.8229118,24.0336903 15.8801877,23.658116 19.7601291,19.7781746 C24.0558963,15.4824074 24.0558963,8.51759262 19.7601291,4.22182541 C15.4643619,-0.0739418023 8.49954712,-0.0739418023 4.20377991,4.22182541 C-0.17535898,8.6009643 0.42675818,14.6405219 3.07212129,18.4231513 M9.02968952,8.01977249 L16.0296895,12.0197725 L9.02968952,16.0197725 L9.02968952,8.01977249 Z" />
	</symbol>

	<symbol id="pause" viewBox="0 0 24 24">
		<path d="M5.52144295,20.9048976 C9.8229118,24.0336903 15.8801877,23.658116 19.7601291,19.7781746 C24.0558963,15.4824074 24.0558963,8.51759262 19.7601291,4.22182541 C15.4643619,-0.0739418023 8.49954712,-0.0739418023 4.20377991,4.22182541 C-0.17535898,8.6009643 0.42675818,14.6405219 3.07212129,18.4231513 M14.5296895,7.01977249 L14.5296895,17.0197725 M9.52968952,7.01977249 L9.52968952,17.0197725" />
	</symbol>

	<symbol id="stop" viewBox="0 0 24 24">
		<path d="M5.52144295,20.9048976 C9.8229118,24.0336903 15.8801877,23.658116 19.7601291,19.7781746 C24.0558963,15.4824074 24.0558963,8.51759262 19.7601291,4.22182541 C15.4643619,-0.0739418023 8.49954712,-0.0739418023 4.20377991,4.22182541 C-0.17535898,8.6009643 0.42675818,14.6405219 3.07212129,18.4231513 M8.02968952,8.01977249 L16.0296895,8.01977249 L16.0296895,16.0197725 L8.02968952,16.0197725 L8.02968952,8.01977249 Z" />
	</symbol>

	<symbol id="location" viewBox="0 0 24 24">
		<path d="M5.52144295,20.9048976 C9.8229118,24.0336903 15.8801877,23.658116 19.7601291,19.7781746 C24.0558963,15.4824074 24.0558963,8.51759262 19.7601291,4.22182541 C15.4643619,-0.0739418023 8.49954712,-0.0739418023 4.20377991,4.22182541 C-0.17535898,8.6009643 0.42675818,14.6405219 3.07212129,18.4231513 M16.2723302,6.98423859 L5.3121751,11.5804327 L10.5683355,12.6882333 L11.6761361,17.9443937 L16.2723302,6.98423859 Z" />
	</symbol>

	<symbol id="target" viewBox="0 0 24 24">
		<path d="m19.18 9.82c.3638523 1.2033651.4222772 2.4784026.17 3.71-.7716142 3.7287246-4.2116681 6.2898921-8.0050662 5.9598821-3.79339806-.33001-6.73949767-3.4467466-6.85562584-7.2527011-.11612818-3.80595453 2.63447063-7.09651011 6.40069204-7.657181.331079-.04978814.6652164-.07651914 1-.08.4614767 0 .9040525-.1833209 1.2303658-.5096342s.5096342-.76888911.5096342-1.2303658c.0027128-.4693461-.1832221-.92011015-.5160443-1.251052s-.7846325-.51431988-1.2539557-.508948c-.4448366.00881498-.8888465.04219919-1.33.1-5.66313627.76328812-9.79873352 5.73569306-9.51734014 11.4431039.28139338 5.7074109 4.88605533 10.2488935 10.59680894 10.4514129 5.7107537.2025194 10.6255514-4.0013762 11.3105312-9.6745168.1952646-1.5880217.0382077-3.1995624-.46-4.72m-10.46 7.4000623c1.263137.004023 2.4539872-.5887651 3.2121884-1.5990437.7582013-1.0102785.9946563-2.3193282.6378116-3.5310186-.5404744-1.5426506-1.9856079-2.58458392-3.62-2.61-1.2749076-.000539-2.50186727.48595228-3.43 1.36-.78186133.7236848-1.0910442 1.8251488-.8 2.85.16762468.5925493.64600483 1.0459023 1.24669825 1.1814754.60069342.1355732 1.22742015-.0683633 1.63330175-.5314754l1.12-1.12 4.29-4.7v-3.08l3.22-3.22v3.49h3.49l-3.32 3.73" />
	</symbol>

	<symbol id="thumbs-up" viewBox="0 0 24 24">
		<path d="M9.54,9.30450193 L14.28,1.67450193 C14.4320514,1.37033032 14.7041555,1.14342393 15.0306969,1.04849911 C15.3572382,0.953574286 15.7085802,0.999246358 16,1.17450193 L16,1.17450193 C16.8290538,1.49377818 17.3797548,2.28615374 17.39,3.17450193 L17.15,4.45450193 C16.9226816,5.65539786 16.5880049,6.83346012 16.15,7.97450193 L15.51,9.17450193 L18.64,9.17450193 C19.5173734,9.16657119 20.3875707,9.33313239 21.2,9.66450193 C22.07,10.0345019 22.95,10.6645019 22.95,11.6045019 C22.95,12.5445019 22.78,12.8045019 22.61,12.9945019 C22.2868518,13.3523443 22.2868518,13.8966595 22.61,14.2545019 C22.8122041,14.4682324 22.9264594,14.7503002 22.93,15.0445019 C22.93,15.8045019 21.78,16.1945019 21.78,16.9545019 L21.78,18.0945019 C21.78,19.2445019 20.62,19.2445019 20.62,20.0045019 C20.5982109,20.8016102 20.2599732,21.5572476 19.68,22.1045019 C19.2,22.5745019 18.25,22.9845019 15.86,22.9945019 C14.3905924,23.0707487 12.9179879,22.9292169 11.49,22.5745019 C10.4967354,22.1767475 9.5589834,21.652413 8.7,21.0145019 C8.12505282,20.5240776 7.76590024,19.8273216 7.7,19.0745019 C7.60090827,18.1012435 7.22235626,17.1774377 6.61,16.4145019 C6.01898049,15.8637842 5.09798056,15.8800342 4.5267564,16.4512583 C3.95553225,17.0224825 3.93928228,17.9434824 4.49,18.5345019 C5.12474273,19.0186481 5.94227671,19.1946196 6.72,19.0145019 C7.71076568,18.8597214 8.44810674,18.0170459 8.47,17.0145019 L8.47,11.0145019 L1,11.0145019 L1,21.6545019 L6.51,21.6545019" />
  </symbol>
	<symbol id="thumbs-down" viewBox="0 0 24 24">
		<path d="M14.42,14.7310053 L9.68,22.3510053 C9.52953883,22.6461154 9.26466955,22.866637 8.94717943,22.9611282 C8.62968931,23.0556193 8.28734257,23.0158166 8,22.8510053 L8,22.8510053 C7.17125535,22.5331186 6.62305145,21.7386202 6.62,20.8510053 L6.86,19.5710053 C7.08731835,18.3701093 7.42199513,17.1920471 7.86,16.0510053 L8.5,14.8510053 L5.35,14.8510053 C4.47255425,14.8597388 3.60219996,14.6931476 2.79,14.3610053 C1.92,14.0210053 1,13.3710053 1,12.4110053 C1,11.4510053 1.17,11.2110053 1.35,11.0210053 C1.67314817,10.6631628 1.67314817,10.1188477 1.35,9.76100526 C1.14651922,9.56561634 1.0219546,9.30225115 1,9.02100526 C1,8.21100526 2.19,7.83100526 2.19,7.02100526 L2.19,5.92100526 C2.19,4.77100526 3.34,4.77100526 3.34,4.02100526 C3.37736925,3.21501083 3.73782856,2.45804627 4.34,1.92100526 C4.76,1.44100526 5.71,1.02100526 8.1,1.02100526 C9.57004579,0.941819688 11.0435818,1.08681293 12.47,1.45100526 C13.4649248,1.84951622 14.4029994,2.37739328 15.26,3.02100526 C15.8384311,3.50865984 16.1983769,4.20695482 16.26,4.96100526 C16.3789398,5.92312483 16.7750107,6.82991881 17.4,7.57100526 C17.7787015,7.95149312 18.331624,8.10104354 18.8504869,7.96332233 C19.3693499,7.82560112 19.7753256,7.4215314 19.9154869,6.90332232 C20.0556483,6.38511325 19.9087015,5.83149311 19.53,5.45100526 C18.870389,4.9700872 18.0291368,4.8121228 17.24,5.02100526 C16.2347202,5.18333832 15.4968162,6.05270801 15.5,7.07100526 L15.5,13.0210053 L23,13.0210053 L23,2.37100526 L17.45,2.37100526" />
  </symbol>

	<symbol id="projection" viewBox="0 0 24 24">
		<path d="M9.448,13.667 L11.35,15.57 L14.0877686,12.8328247 M14.201,10.248 L14.1444033,10.2440192 C14.0284636,10.2304755 13.9174989,10.2080186 13.8126185,10.1757867 L13.66,10.12 L13.45,10.04 C12.6562092,9.7176833 12.1971242,8.88298333 12.35,8.04 C12.4242502,7.72415052 12.5873372,7.43614596 12.82,7.21 C13.0518705,6.97754275 13.3420103,6.8117486 13.66,6.73 C14.5043016,6.5689266 15.3439005,7.03070602 15.66,7.83 L15.75,8.04 C15.8555556,8.2862963 15.8962963,8.57477366 15.8862572,8.88771376 L15.876,9.044 M18,4 L22.889,4 M20.453,6.453 L18.55,8.37 C17.9455556,8.98037037 16.8073388,9.6820439 15.7034583,10.0338521 L15.668,10.044 L15.6549997,10.0893599 C15.3198984,11.1277686 14.6793558,12.194984 14.1123157,12.8126109 L14.03,12.897 M24,22 L1,22 L1,1 M9.448,13.667 L8.62,12.84 L3.55,17.91 M14.1350708,10.2190552 C14.4969821,10.2335926 15.0855083,10.2104903 15.4970218,10.0956084 L15.668,10.044 L15.7178352,9.88220393 C15.7958863,9.60688615 15.8504207,9.33588477 15.8742524,9.0782716 L15.8742524,8.97085571 M20.453,6.453 L22.889,4 L23,4 L23,9" />
  </symbol>

	<symbol id="quote" viewBox="0 0 24 24">
		<path d="M19,14.91l-.42.18a6.52,6.52,0,0,1-6-.84,10.38,10.38,0,0,1-7.06,6.34l-.25.05L3.39,18.71l.54-.29c1.32-.71,2.66-1.59,2.91-2.89a6.38,6.38,0,0,1,.5-12.74,6.72,6.72,0,0,1,4.56,2,6.71,6.71,0,0,1,4.55-2c3.52,0,6.38,3.27,6.38,7.29,0,5.62-4.19,10-8.1,10.59l-.23,0-1.79-1.78.69-.24A6.06,6.06,0,0,0,15.93,17m-4-12.25.62.68a4.71,4.71,0,0,1,1.2,2.75c0,1.38-.73,2.3-1.82,2.3s-1.83-.95-1.83-2.27a4.77,4.77,0,0,1,1.21-2.78Z"/>
  </symbol>

	<symbol id="email" viewBox="0 0 24 24">
		<path d="M0.999999473,9 L0.999999473,21 L22.9999995,21 L22.9999995,7.11 C22.9974712,6.72555578 22.7747717,6.37660054 22.4271539,6.21238844 C22.0795361,6.04817635 21.6685572,6.09778658 21.37,6.34 L12.9999995,13 C11.53,14 10.51,15 10.4999995,16 C10.4999995,16.8284271 11.1715729,17.5 11.9999995,17.5 C12.7770068,17.4738322 13.3992855,16.8471713 13.42,16.07 C13.42,15.07 12.9,14.55 10.9999995,13 L3.26,6.7 L1.56,5.39 C1.20893809,5.14694426 0.999616202,4.74698994 0.999999473,4.32 L0.999999473,4.32 C0.999999473,3.59098413 1.59098413,3 2.32,3 L23.9999995,3" />
	</symbol>
	<symbol id="abroad" viewBox="0 0 24 24">
		<path d="M15.020958,19.9999648 L19,20 L19,20 C20.3333333,19.99764 21,20.5280355 21,21.5911865 C21,22.6543376 20,23.1239421 18,23 L6.04106053,23 M15.020958,20 L3,20 C1.82313435,20 1.06906325,20 1.01062054,18.687368 L1.00695801,18.5163574 C1.00695801,17.3028564 1.67130534,17.1177572 3,17 L3,17 L15.5,17 C16.2169597,16.962188 16.8792436,16.721444 17.4306166,16.3340031 L17.501958,16.2799648 L17.5597878,16.323189 C18.1143738,16.7151542 18.7803658,16.9591872 19.5,17 L19.5,17 L24,17 M18.4130447,12.3083073 C18.7835134,12.5925293 19.0004941,13.0330642 19.0000025,13.5 C18.9415632,14.6080286 18.3984377,15.585468 17.578199,16.2247426 L17.501958,16.2799648 L17.4113426,16.2126632 C16.6348292,15.6040741 16.1051278,14.6931387 16,13.65 C15.9390348,12.9196505 16.4045447,12.2486453 17.11,12.05 C17.5608774,11.9285964 18.0425759,12.0240852 18.4130447,12.3083073 Z M7.55,15 C5.83635797,13.0656332 5.5537999,10.2513493 6.84868831,8.01492183 C8.14357671,5.77849435 10.7249613,4.62242927 13.2557083,5.14555784 C15.7864553,5.6686864 17.6979277,7.75346612 18,10.32 M3,10 L2,10 L3,10 Z M5.34,3.34 L4.93,2.93 L5.34,3.34 Z M11.5,1 L11.5,2 L11.5,1 Z M18.66,3.34 L19.07,2.93 L18.66,3.34 Z M21,10 L22,10 L21,10 Z" />
	</symbol>
	<symbol id="announcement" viewBox="0 0 24 24">
		<path d="M19.1751658,21.2862954 L19.072684,21.3418331 C18.2573532,21.8301517 17.6357217,22.8255705 16.7217918,22.9758224 L16.4869385,22.9949951 C15.3394775,22.9949951 14.5952759,21.0726318 12.9368896,21.0726318 C11.5890503,21.0726318 10.989502,22.9949951 9.39608292,22.9949951 C7.8026639,22.9949951 6.31,20.69 4.95,19.61 L4.95,19.61 L4.60016585,19.2922954 L6.2,17.41 C6.59275885,16.9890544 6.62081306,16.3525287 6.28416261,15.9007859 L6.2,15.8 C5.83174582,15.4137017 5.83174582,14.8062983 6.2,14.42 L6.2,14.42 L14.39,5.58 L17.92,9.11 L9.08,17.3 M19.1751658,21.2862954 L19.2808333,21.2311006 C19.4935805,21.1324978 19.7209652,21.0726318 19.9705811,21.0726318 C20.9690444,21.0726318 21.8097608,22.0304876 22.5756369,22.5939321 L22.6951658,22.6772954 M3.53,18.32 L4.60016585,19.2922954 L3.55,20.53 C3.04511689,21.1101664 2.18643803,21.2217946 1.55,20.79 C1.12678738,20.5104896 0.872165849,20.0371834 0.872165849,19.53 C0.872165849,19.0228166 1.12678738,18.5495104 1.55,18.27 L1.67,18.18 C2.24912159,17.7960505 3.01487659,17.8536879 3.53,18.32 Z M21.3286882,2.17167742 C22.5715054,3.41449455 22.8574317,5.32298778 22.0333981,6.87545598 C21.2093645,8.42792419 19.4684572,9.26059573 17.7426611,8.9277046 L14.5726611,5.7577046 C14.2397699,4.03190845 15.0724415,2.29100112 16.6249097,1.46696756 C18.1773779,0.642933989 20.0858711,0.92886029 21.3286882,2.17167742 Z" />
	</symbol>
	<symbol id="app" viewBox="0 0 24 24">
		<path d="M18,16 L18,23 L12.8,23 C12.5376601,22.9988954 12.2862606,22.8947442 12.1,22.71 L11.075,21.685 L10.24,22.52 C10.0276136,22.8022335 9.70250635,22.9775723 9.35,23 L4,23 L4,1 L18,1 L18,8 L21,8 C21.5522847,8 22,8.44771525 22,9 L22,13 C22,13.5522847 21.5522847,14 21,14 L17,14 C16.4477153,14 16,13.5522847 16,13 L16,11 L12.599,10.999 M11.08,17.4673654 C10.5684327,17.4673654 10.0824794,17.6912088 9.75,18.08 C9.16409958,18.8176017 9.23784379,19.8803859 9.92,20.53 L9.92,20.53 L11.075,21.685 L12.24,20.52 C12.8807231,19.9117949 12.9837954,18.9375835 12.506337,18.2128197 L12.41,18.08 C12.0775206,17.6912088 11.5915673,17.4673654 11.08,17.4673654 Z M12.6,8 L9.6,11 L12.6,14 M9,4 L13,4 M9.6,11 L12.599,10.999" />
	</symbol>
	<symbol id="briefcase" viewBox="0 0 24 24">
		<path d="M6.02087402,6 L2,6 C1.44771525,6 1,6.44771525 1,7 L1,21 C1,21.5522847 1.44771525,22 2,22 L8.87,22 C10.1615062,21.8873451 11.3853735,21.3733208 12.37,20.53 L12.72,20.22 C13.275521,19.7688601 13.6514734,19.133997 13.78,18.43 C13.914778,17.7703744 13.7251208,17.0861211 13.27,16.59 C12.8948635,16.2144459 12.3858185,16.0034267 11.855,16.0034267 C11.3241815,16.0034267 10.8151365,16.2144459 10.44,16.59 C9.61176416,17.4805229 9.61176416,18.8594771 10.44,19.75 C10.7072809,20.0493273 11.0133159,20.3116431 11.35,20.53 C12.3308409,21.3731399 13.5515011,21.8872862 14.84,22 L22,22 C22.5522847,22 23,21.5522847 23,21 L23,7 C23,6.44771525 22.5522847,6 22,6 L16,6 C16,5.28663494 16,4.61996827 16,4 C16,3.39394103 15.7716505,3 15.0766602,3 C12.2003174,3 11.855,3 9.01025391,3 C8.26979401,3 8,3.40360882 8,4.04614258 C8,4.63534913 8,5.28663494 8,6 L13.67,6 M18.49,8.83 L18.49,19.4 M5.49,8.83 L5.49,19.4" />
	</symbol>
	<symbol id="building" viewBox="0 0 24 24">
		<path d="M7,1 L17,1 L17,5 L23,5 L23,22 C23,22.5522847 22.5522847,23 22,23 L15,23 C14.0065337,22.9133424 13.0530904,22.5891881 12.2177775,22.0603423 L12.01,21.921 L11.79866,22.0633857 C10.9588315,22.5946662 9.99922157,22.918031 9,23 L2,23 C1.44771525,23 1,22.5522847 1,22 L1,5.13 C1,5.05820298 1.05820298,5 1.13,5 L7,5 L7,1 Z M13.43,17.59 C12.7983127,16.9889813 11.8500563,16.8664592 11.086352,17.2871825 C10.3226478,17.7079059 9.91951675,18.5749048 10.09,19.43 C10.2185266,20.133997 10.594479,20.7688601 11.15,21.22 L11.15,21.22 L11.5,21.53 C11.651481,21.6597417 11.8086245,21.7816893 11.9708056,21.8955806 L12.01,21.921 L12.0469349,21.8977976 C12.1284419,21.8405447 12.208671,21.7812461 12.2875419,21.7199354 L12.52,21.53 C12.8566841,21.3116431 13.1627191,21.0493273 13.43,20.75 C14.2582358,19.8594771 14.2582358,18.4805229 13.43,17.59 Z M10,5 L14,5 M3,9 L5,9 M3,13 L5,13 M3,17 L5,17 M19,9 L21,9 M19,13 L21,13 M19,17 L21,17 M10,13 L14,13 M10,9 L14,9 M7,5.04968262 L7,18.9614258 M17,5.04968262 L17,18.9614258" />
	</symbol>
	<symbol id="calculator" viewBox="0 0 24 24">
		<path d="M23,1 L2,1 L2,23 L22,23 L22,7 C22,5.8954305 21.1045695,5 20,5 L7,5 C5.8954305,5 5,5.8954305 5,7 L5,7 C5,8.1045695 5.8954305,9 7,9 L18,9 M4.94,13 L7.06,13 M4.94,16 L7.06,16 M4.94,19 L7.06,19 M8.94,13 L11.06,13 M8.94,16 L11.06,16 M8.94,19 L11.06,19 M12.94,13 L15.06,13 M12.94,16 L15.06,16 M12.94,19 L15.06,19 M16.94,13 L19.06,13 M18,20 L18,15" />
	</symbol>
	<symbol id="calendar" viewBox="0 0 24 24">
		<path d="M4,8.5 L21,8.5 C22.1045695,8.5 23,7.6045695 23,6.5 L23,3 C23,1.8954305 22.1045695,1 21,1 L18.5,1 C16.6118334,1.10416861 15.1041686,2.61183338 15,4.5 C15,5.32842712 15.6715729,6 16.5,6 C17.3284271,6 18,5.32842712 18,4.5 C17.9003137,2.60983357 16.3901664,1.09968628 14.5,1 L9.5,1 C7.60983357,1.09968628 6.09968628,2.60983357 6,4.5 C6,5.32842711 6.67157289,6 7.5,6 C8.32842711,6 9,5.32842711 9,4.5 C8.90031372,2.60983357 7.39016643,1.09968628 5.5,1 L3,1 C1.8954305,1 1,1.8954305 1,3 L1,23 L23,23 L23,11.51 M4.94,13 L7.06,13 M4.94,16 L7.06,16 M4.94,19 L7.06,19 M8.94,13 L11.06,13 M8.94,16 L11.06,16 M8.94,19 L11.06,19 M12.94,13 L15.06,13 M12.94,16 L15.06,16 M12.94,19 L15.06,19 M16.94,13 L19.06,13 M16.94,16 L19.06,16 M16.94,19 L19.06,19" />
	</symbol>
	<symbol id="call-centre" viewBox="0 0 24 24">
		<path d="M12.2,22.71 L12.04,22.71 C11.0878131,22.9512584 10.0940037,22.9785796 9.13,22.79 C8.13,22.59 7.42,22.18 7.42,21.46 C7.42,20.63 8,20 11,20 C12.0902811,20.0692108 13.1349922,20.4627186 14,21.13 L14,21.13 C15.8128147,21.9878909 17.9593249,21.7107019 19.4947383,20.4204386 C21.0301517,19.1301752 21.6728704,17.0634743 21.14,15.13 L20.71,13.51 C20.4687713,12.8777519 19.9376514,12.4004912 19.2833048,12.2279816 C18.6289583,12.0554721 17.9315777,12.2088553 17.41,12.64 C16.973068,13.0430263 16.6314533,13.5383677 16.41,14.09 C15.67,15.88 16.11,17.76 17.41,18.28 C18.71,18.8 20.24,17.81 21,16 L21,16 C21.614548,14.4021257 21.9527081,12.7113255 22,11 C22,5.4771525 17.5228475,1 12,1 C6.4771525,1 2,5.4771525 2,11 C2.04729194,12.7113255 2.38545197,14.4021257 3,16 L3,16 C3.74,17.78 5.37,18.8 6.65,18.27 C7.93,17.74 8.36,15.87 7.65,14.08 C7.39430191,13.3753452 6.83243725,12.8249379 6.12266466,12.5838097 C5.41289207,12.3426815 4.63202212,12.4369268 4,12.84" />
	</symbol>
	<symbol id="cash-2" viewBox="0 0 24 24">
		<path d="M23,7 L23,18 C23,19.1045695 22.1045695,20 21,20 L21,20 L5.5,20 C4.67157288,20 4,19.3284271 4,18.5 L4,18.5 L4.00686658,18.35554 C4.07955132,17.5948881 4.72030388,17 5.5,17 L5.5,17 L19,17 C19.5522847,17 20,16.5522847 20,16 L20,16 L20,8.227 M1,16 L1,5 L20,5 L20,8.227 M13.9840771,10.6890211 C13.9886723,10.7336404 13.9922897,10.7785497 13.9949073,10.8237272 L14,11 C14,12.6568542 12.6568542,14 11,14 C10.0500642,14 9.20324919,13.5584875 8.65356746,12.8694749 M13.9840771,10.6890211 C13.8284898,9.17829065 12.5518472,8 11,8 C9.34314575,8 8,9.34314575 8,11 C8,11.7069185 8.24450806,12.356729 8.65356746,12.8694749" />
	</symbol>
	<symbol id="cash" viewBox="0 0 24 24">
		<path d="M7.24,14.999879 C8.54684207,15.1015803 9.80520091,15.530692 10.8998225,16.2453979 L11.082,16.37 L11.0097264,16.543535 C10.8270868,16.9509833 10.6109454,17.3449581 10.3624347,17.7212051 L10.17,18 C9.65151404,18.9941149 8.72460547,19.7067949 7.63913436,19.9563235 L7.42,20 C6.11324187,20.1869842 4.89473506,19.3007975 4.67,18 C4.54956197,17.2488355 4.76546368,16.4827062 5.26040007,15.9049594 C5.75533647,15.3272126 6.47925068,14.9962806 7.24,14.999879 Z M18.42,6 C19.8965964,6.09474251 21.3703494,5.80275834 22.6966211,5.15562781 L23,5 L23,19 C22.0034266,19.5243081 20.918545,19.8599433 19.8,19.99 C18.21,20.17 16.6,19.3 15.11,18.65 L15.11,18.65 L14.39,18.29 C13.28,17.73 12.22,17.09 11.17,16.43 L11.17,16.43 L11.082,16.37 L11.1404068,16.2354889 C11.5964061,15.0972108 11.7969069,13.865081 11.7183585,12.62757 L11.69,12.29 L11.547,10.807 L11.6509039,10.7590195 C12.7357192,10.2366877 13.7519576,9.56928259 14.67,8.77 L14.79,8.66 C15.1727046,8.36034281 15.483148,7.98785717 15.7076295,7.56994413 L15.769,7.446 M1,20 L1,5.53 C1.85,4.63 4.05,3.74 7.85,5 L7.85,5 M11.449,9.802 L11.547,10.807 L11.2867995,10.9277389 C10.1871106,11.4176693 9.02213583,11.7610601 7.82149423,11.9447157 L7.42,12 M11.449,9.802 L11.13,6.5 C11.0878864,5.81137833 11.2988086,5.13361039 11.7189312,4.59226536 L11.8512001,4.43408011 C12.3588768,3.86999489 13.0718383,3.53344588 13.83,3.5 L13.83,3.5 L13.9936484,3.51288454 C15.2355338,3.65300124 16.1741235,4.73291943 16.12,6 L16.12,6 L16.1094885,6.20732383 C16.076182,6.61992395 15.9696543,7.01928022 15.798533,7.38813716 L15.769,7.446" />
	</symbol>
	<symbol id="chat" viewBox="0 0 24 24">
		<path d="M18,8 L23,8 L23,18 L20.5,18 L20.5,20.79 C20.5011857,20.9918544 20.3808796,21.1746226 20.1950053,21.2533459 C20.009131,21.3320691 19.7941519,21.291304 19.65,21.15 L16.5,18 L14.5,18 C11.7385763,18 9.5,15.7614237 9.5,13 L7,13 L3.85,16.15 C3.70584807,16.291304 3.49086897,16.3320691 3.30499469,16.2533459 C3.11912041,16.1746226 2.99881427,15.9918544 3,15.79 L3,13 L1,13 L1,2 L16,2 L16,6 M14.27,8.23000004 C13.292456,7.25245604 11.707544,7.25245603 10.73,8.23 C9,10 9.5,13 9.5,13 C9.5,13 13,13 14.27,11.77 C15.247544,10.792456 15.247544,9.20754403 14.27,8.23000004 Z" />
	</symbol>
	<symbol id="clipboard-tick" viewBox="0 0 24 24">
		<path d="M19.6176119,5.72335913 C20.2651864,5.19015479 21.2239123,5.22570174 21.83,5.83 L21.9403249,5.9511758 C22.1824851,6.24525269 22.3165568,6.61568771 22.3165568,7 C22.3165568,7.43921404 22.1414427,7.86030268 21.83,8.17 L19,11 L19,7 C19.0040732,6.61418695 19.142316,6.24366358 19.3881385,5.95065024 L19.5,5.83 L19.6176119,5.72335913 Z M7,14.83 L11,19 L19,11 L19,23 L3,23 L3,3 L7,3 L7.00672773,2.88337887 C7.06449284,2.38604019 7.48716416,2 8,2 L8.5,2 L9.21,1.29 C9.39626064,1.10525584 9.64766012,1.00110462 9.91,1 L12.09,1 C12.3523399,1.00110462 12.6037394,1.10525584 12.79,1.29 L13.5,2 L14,2 C14.5522847,2 15,2.44771525 15,3 L15,5 L7,5 M15.5,3 L18.5,3" />
	</symbol>
	<symbol id="credit-card" viewBox="0 0 24 24">
		<path d="M20,9 L1,9 L1,6 C1,5.44771525 1.44771525,5 2,5 L2,5 L22,5 C22.5522847,5 23,5.44771525 23,6 L23,6 L23,19 C23,19.5522847 22.5522847,20 22,20 L22,20 L20.9,20 C20.2758685,19.9988764 19.6676268,19.8031204 19.16,19.44 C18.77875,19.1754167 18.4192014,18.9038889 18.0888592,18.6240603 L18.001,18.548 L17.8233745,18.7018244 C17.593251,18.8944376 17.3501646,19.0827298 17.0967541,19.267025 L16.84,19.45 C16.3285961,19.8043229 15.7221438,19.9960176 15.1,20 L15.1,20 L2,20 C1.44771525,20 1,19.5522847 1,19 L1,19 L1,12 M16.6377842,13.529993 C16.2296067,13.9096929 15.9984297,14.442525 15.9999921,15 C15.9999921,16.305 16.748125,17.435625 17.8942188,18.4551563 L18.001,18.548 L18.0490792,18.5077589 C19.0075617,17.660463 19.7061111,16.73 19.93,15.69 C20.0874879,15.0943307 19.9830974,14.4597574 19.6430915,13.9459283 C19.3030856,13.4320992 18.7598305,13.0879271 18.15,13 C17.594093,12.958187 17.0459616,13.150293 16.6377842,13.529993 Z M14,13.04 C12.8954305,13.04 12,13.9354305 12,15.04 C12,16.1445695 12.8954305,17.04 14,17.04 C15.1045695,17.04 16,16.1445695 16,15.04 C16,13.9354305 15.1045695,13.04 14,13.04 Z M10,13.04 L4,13.04 M10,16.04 L4,16.04" />
	</symbol>
	<symbol id="deactivate" viewBox="0 0 24 24">
		<path d="M17.5,7 C20.2614237,7 22.5,9.23857625 22.5,12 C22.5,14.7614237 20.2614237,17 17.5,17 L6.5,17 C3.73857625,17 1.5,14.7614237 1.5,12 C1.5,9.23857625 3.73857625,7 6.5,7 L6.5,7 L17.5,7 Z M6.5,17 C9.26142375,17 11.5,14.7614237 11.5,12 C11.5,9.23857625 9.26142375,7 6.5,7 M14.5,10 L18.5,14 M18.5,10 L14.5,14" />
	</symbol>
	<symbol id="debit-card" viewBox="0 0 24 24">
		<path d="M22.71,13.4 L20.53,15.58 C19.8803859,16.2621562 18.8176017,16.3359004 18.08,15.75 C17.6912088,15.4175206 17.4673654,14.9315673 17.4673654,14.42 C17.4673654,13.9084327 17.6912088,13.4224794 18.08,13.09 C18.8176017,12.5040996 19.8803859,12.5778438 20.53,13.26 L22.71,15.44 C22.8927337,15.6316338 22.9963165,15.885233 23,16.15 L23,19.5 L1,19.5 L1,4.5 L23,4.5 L23,12.7 C22.9988954,12.9623399 22.8947442,13.2137394 22.71,13.4 Z M20,8.5 L4,8.5 M13,12.5 L4,12.5 M8,15.5 L4,15.5 M13,15.5 L9,15.5" />
	</symbol>
	<symbol id="diary" viewBox="0 0 24 24">
		<path d="M8.5,4 L8.5,21 C8.5,22.1045695 7.6045695,23 6.5,23 L3,23 C1.8954305,23 1,22.1045695 1,21 L1,18.5 C1.03951223,17.7837989 1.28095435,17.1223429 1.66849769,16.5714609 L1.719,16.502 L1.66599689,16.4306166 C1.27855604,15.8792436 1.03781204,15.2169597 1,14.5 L1,9.5 C1.03781204,8.78304032 1.27855604,8.1207564 1.66599689,7.56938336 L1.717,7.5 L1.66599689,7.43061664 C1.27855604,6.8792436 1.03781204,6.21695968 1,5.5 L1,3 C1,1.8954305 1.8954305,1 3,1 L23,1 L23,23 L11.51,23 M4.5,15 C3.3931437,15.0610644 2.41704251,15.6044241 1.77777172,16.4240038 L1.719,16.502 L1.77525744,16.578199 C2.37692764,17.3501884 3.27814866,17.8767072 4.30586339,17.9846985 L4.5,18 C5.32842712,18 6,17.3284271 6,16.5 C6,15.6715729 5.32842712,15 4.5,15 Z M18,9 C16.8954305,9 16,9.8954305 16,11 C16,9.8954305 15.1045695,9 14,9 C12.8954305,9 12,9.8954305 12,11 C12,12.7 13.87,14.88 16,16 L16,16 L16.227146,15.876014 C18.2611862,14.724898 20,12.6392857 20,11 C20,9.8954305 19.1045695,9 18,9 Z M4.5,6 C3.3919714,6.05843678 2.41453202,6.60156231 1.77525744,7.421801 L1.717,7.5 L1.77525744,7.578199 C2.37692764,8.35018835 3.27814866,8.87670723 4.30586339,8.98469851 L4.5,9 C5.32842711,9 6,8.32842711 6,7.5 C6,6.67157289 5.32842711,6 4.5,6 Z" />
	</symbol>
	
	<symbol id="copy" viewBox="0 0 24 24">
		<path d="M1,13 L1,21 L23,21 L23,11 L19,4 L5,4 L1.06,10.86 C1.04661839,10.8906488 1.04944336,10.925958 1.06752776,10.9540893 C1.08561215,10.9822206 1.11656183,10.9994497 1.15,11 L4,11 L4,12 C4,12.5522847 4.44771525,13 5,13 L10,13 C11.8317962,13.103887 13.3160263,14.5245073 13.5,16.35 C13.5833475,17.0943116 13.1191136,17.7906624 12.4,18 C11.9477528,18.1251325 11.4630063,18.0314204 11.0899838,17.7467454 C10.7169613,17.4620703 10.4986491,17.0192375 10.5,16.55 C10.5747625,14.6403414 12.0915939,13.101841 14,13 L19,13 C19.5522847,13 20,12.5522847 20,12 L20,10" />
	</symbol>
	<symbol id="fixed-loans" viewBox="0 0 24 24">
		<path d="M6.68535026,15.8132385 C6.67011174,15.7532017 6.658276,15.6920345 6.65,15.63 C6.57994708,15.121507 6.73537051,14.60777 7.07554982,14.2233866 C7.41572912,13.8390032 7.90676227,13.6222808 8.42,13.63 C9.39369697,13.7138143 10.3266162,14.05934 11.12,14.63 L11.0589976,14.5877189 L10.9871643,14.7494654 C10.8720889,14.991334 10.7385842,15.2253671 10.5872522,15.4493919 L10.43,15.67 L10.3348917,15.8306062 C9.93319969,16.4567646 9.28090298,16.8845622 8.54,17 C8.5168528,17.0043013 8.49366554,17.0080856 8.47045412,17.0113565 M16.18,22.18 C12.786164,23.5742454 8.92059688,23.1845645 5.8733201,21.141002 C2.82604333,19.0974396 0.998282495,15.6690653 0.99999397,12 M6.68535026,15.8132385 C6.77755626,16.1765122 6.99434782,16.4984011 7.30095621,16.7206516 C7.63917437,16.9658151 8.05861718,17.0693925 8.47045412,17.0113565 M16.18,17 C15.1585167,17.0209895 14.1580126,16.7085514 13.33,16.11 L11.12,14.63 L11.0589976,14.5877189 L11.0960743,14.5050655 C11.4384818,13.6822296 11.5738892,12.7803813 11.48,11.88 L11.3419976,10.4687189 L11.2425,10.48625 C10.48425,10.604375 9.679425,10.6263125 8.8480725,10.7169987 L8.57,10.75 C4.34,11.04 0.7,11.09 2.57,6.33 C4.78308793,2.65874571 8.9273292,0.607555534 13.1885454,1.07435619 C17.4497616,1.54115684 21.0516455,4.44090671 22.4174404,8.50421453 C23.7832353,12.5675223 22.6641211,17.0541358 19.55,20 M19.95,4.05 L21.36,2.64 M23.36,3.05 L20.95,0.64 M24,20 L19,20 L19,15 M13,6 L12.8277516,6.00938829 C12.3716457,6.05486693 11.9446416,6.2624487 11.62633,6.59751354 C11.2682295,6.97446149 11.0783126,7.4805239 11.1,8 L11.1,8 L11.3419976,10.4687189 L11.4934975,10.4430862 C12.1580775,10.3172762 12.7840975,10.1009862 13.3574775,9.67837625 L13.57,9.51 L13.66,9.44 C14.2138481,9.01667897 14.5479911,8.3667525 14.57,7.67 L14.57,7.67 L14.5670858,7.50961451 C14.5418606,7.1375616 14.3887671,6.78370087 14.1311013,6.50962331 C13.8366262,6.19639181 13.4297197,6.01305809 13,6 L13,6 Z M22.36,1.64 L19.95,4.05 L19.95,4.05 L21.36,2.64 M12,13 L14,13" />
	</symbol>
	<symbol id="flag" viewBox="0 0 24 24">
		<path d="M4,24 L4,2.5 C4,1.67157288 3.32842712,1 2.5,1 L2.5,1 C1.67157288,1 1,1.67157288 1,2.5 L1,2.5 C1.0006305,3.11164837 1.37257504,3.66165148 1.94,3.89 L3.33,4.27 C5.06812138,4.74960391 6.90967937,4.70086703 8.62,4.13 L11.71,3.13 C13.8299867,2.42204231 16.1362558,2.51813685 18.19,3.4 L22,5 L22,17 L18.19,15.37 C16.1362558,14.4881369 13.8299867,14.3920423 11.71,15.1 L8.62,16.1 C7.77552524,16.3913251 6.89268218,16.556437 6,16.59" />
	</symbol>
	<symbol id="freeze-card" viewBox="0 0 24 24">
		<path d="M4,8 L4,3 L23.04,3 L23.04,15.54 L20.04,15.54 C19.7727541,15.5388906 19.5170714,15.4308556 19.33,15.24 L19.33,15.24 L18.309,13.985 L17.29,15.24 C17.1341071,15.3990464 16.9305676,15.5005784 16.7123952,15.5306464 L16.58,15.54 L13,15.54 M21,6.54 L6.5,6.54 M18.31,9.49736538 C17.7984327,9.49736538 17.3124794,9.72120882 16.98,10.11 C16.3940996,10.8476017 16.4678438,11.9103859 17.15,12.56 L18.309,13.985 L19.47,12.56 C20.1521562,11.9103859 20.2259004,10.8476017 19.64,10.11 C19.3075206,9.72120882 18.8215673,9.49736538 18.31,9.49736538 Z M14.84,9.61 C13.8900702,9.61 13.12,10.3800702 13.12,11.33 C13.12,12.2799298 13.8900702,13.05 14.84,13.05 C15.7899298,13.05 16.56,12.2799298 16.56,11.33 C16.56,10.3800702 15.7899298,9.61 14.84,9.61 Z M0,15.53 L12,15.53 M6,9.53 L6,21.53 M1.76,11.28 L10.24,19.77 M10.24,11.28 L1.76,19.77" />
	</symbol>
	<symbol id="glossary" viewBox="0 0 24 24">
		<path d="M22,3 C22.5522847,3 23,3.44771525 23,4 L23,18 L15,18 C12.79,18 12,18.8 12,21 L12,12.5 C12.0391921,11.7796624 12.282574,11.1128956 12.6744652,10.5578733 L12.718,10.4983243 L12.6533693,10.4098852 C12.267089,9.85209137 12.0302631,9.18287596 12,8.46 L12,7 C12,4.790861 13.790861,3 16,3 L22,3 Z M11.922,19.9693243 L11.9066497,19.8755664 C11.640999,18.5202914 10.7822581,18 9,18 L1,18 L1,4 C1,3.44771525 1.44771525,3 2,3 L8,3 C8.99978908,2.98162991 9.97020037,3.33839876 10.72,4 M15.4943814,8.99519622 L15.35,9 C14.305736,9.10281754 13.3936142,9.63226426 12.7849848,10.4093179 L12.718,10.4983243 L12.762381,10.5592049 C13.3630819,11.3403801 14.2689997,11.8747109 15.30439,11.9844442 L15.5,12.0000062 C15.9692375,12.0013509 16.4120703,11.7830387 16.6967454,11.4100162 C16.9814204,11.0369937 17.0751325,10.5522472 16.95,10.1 C16.7441075,9.40095255 16.0764196,8.94191708 15.35,9 L15.4943814,8.99519622 Z M10,20.96 L0,20.96 M14,20.96 L24,20.96 M4,6.96 L9,6.96 M4,9.96 L9,9.96 M4,12.96 L9,12.96" />
	</symbol>
	<symbol id="hanger" viewBox="0 0 24 24">
		<path d="M10.0467282,11.0316677 L2.37672817,14.0599999 C1.40885331,14.4004338 0.839038539,15.4012186 1.04025378,16.4072948 C1.24146902,17.413371 2.15236914,18.1180129 3.17672817,18.0599999 L21.0567282,18.0599999 C22.0332537,18.0602603 22.875784,17.3748584 23.0742738,16.4187183 C23.2727637,15.4625782 22.7726667,14.4984537 21.8767282,14.1099999 L13.0267282,10.4699999 C11.5476266,9.89133056 10.4556195,8.61169329 10.1167282,7.05999994 C10.0528774,6.73074539 10.029371,6.39493904 10.0467282,6.05999994 C10.0467282,4.92229338 10.9690216,4 12.1067282,4 C13.2444347,4 14.1667281,4.92229338 14.1667282,6.05999994" />
	</symbol>
	<symbol id="health" viewBox="0 0 24 24">
		<path d="M19.1,16.17 L18.57,16.71 L17.69,17.59 C16,19.41 14,21.2 12,23 C5.65,18.43 1.25,13.43 1,7.5 C1,3.91 3.41,1 7,1 C9.15959184,1 10.7910371,1.93937526 11.9332535,3.167384 L12.006,3.249 L12.0871946,3.16071943 C13.1815886,1.99104251 14.7157494,1.08563048 16.7117177,1.00573698 L17,1 C20.59,1 23,3.91 23,7.5 C22.8082802,9.0727419 22.3976396,10.610961 21.78,12.07 M12.006,3.249 L11.9338419,3.32955325 C10.6306706,4.80730945 10,6.64918367 10,7.79 C10,10.94 14,10.94 14,7.79 C14,6.65979592 13.3834069,4.81727197 12.0859815,3.33656767 L12.006,3.249 Z M23.8826904,14.6876831 L20.0404663,14.6876831 L17.2428589,10 L12.8901367,17.7368164 L9.88269043,13.1320338 L8.35229492,14.4320068 L7,14.4320068" />
	</symbol>
	<symbol id="identity" viewBox="0 0 24 24">
		<path d="M10.86,18.22 C10.32,17.14 9.37,17.22 8.22,16.82 L4.54,15.69 C2.38234878,14.7532828 1.04004485,12.568044 1.18,10.22 C1.18,8.16 2.38,6.51 4.39,6.43 C6.2718385,6.41770246 7.82454935,7.89963446 7.9,9.78 C8.20592624,12.2754204 6.84080161,14.6765771 4.54,15.69 L1,17.37 L1,20 L20,20 C21.6568542,20 23,18.6568542 23,17 L23,4 L0,4 M11.1,9 L19.1,9 M11.1,12 L19.1,12 M11.1,15 L19.1,15" />
	</symbol>
	<symbol id="index" viewBox="0 0 24 24">
		<path d="M8.5,4 L8.5,21 C8.5,22.1045695 7.6045695,23 6.5,23 L3,23 C1.8954305,23 1,22.1045695 1,21 L1,18.5 C1.10416861,16.6118334 2.61183338,15.1041686 4.5,15 C5.32842712,15 6,15.6715729 6,16.5 C6,17.3284271 5.32842712,18 4.5,18 C2.60983357,17.9003137 1.09968628,16.3901664 1,14.5 L1,9.5 C1.09968628,7.60983357 2.60983357,6.09968628 4.5,6 C5.32842711,6 6,6.67157289 6,7.5 C6,8.32842711 5.32842711,9 4.5,9 C2.60983357,8.90031372 1.09968628,7.39016643 1,5.5 L1,3 C1,1.8954305 1.8954305,1 3,1 L23,1 L23,23 L11.51,23 M12,6 L20,6 M12,10 L20,10 M12,14 L20,14 M12,18 L20,18" />
	</symbol>
	<symbol id="laptop" viewBox="0 0 24 24">
		<path d="M21,12 L21,3 C21,2.44771525 20.5522847,2 20,2 L4,2 C3.44771525,2 3,2.44771525 3,3 L3,14 L1,20 L1,21 C1,21.5522847 1.44771525,22 2,22 L10,22 C11.8317962,21.896113 13.3160263,20.4754927 13.5,18.65 C13.5580829,17.9235804 13.0990474,17.2558925 12.4,17.05 C11.9481124,16.9291798 11.4657447,17.0246056 11.0938979,17.3083834 C10.7220511,17.5921612 10.5027136,18.0322474 10.5,18.5 C10.6041686,20.3881666 12.1118334,21.8958314 14,22 L22,22 C22.5522847,22 23,21.5522847 23,21 L23,20 L21.68,16.05 C21.2719085,14.8276036 20.1287148,14.0024109 18.84,14 L5,14 M8,6 L16,6 M8,9 L10,9 M11,9 L13,9 M14,9 L16,9" />
	</symbol>
	<symbol id="legal" viewBox="0 0 24 24">
		<path d="M3,23 L21,23 L21,1 L7,1 C5.34314575,1 4,2.34314575 4,4 L4,17 C4,18.6568542 5.34314575,20 7,20 L7.5,20 C9.3802904,19.8783183 10.8783183,18.3802904 11,16.5 C11.0013509,16.0307625 10.7830387,15.5879297 10.4100162,15.3032546 C10.0369937,15.0185796 9.55224719,14.9248675 9.1,15.05 C8.40095255,15.2558925 7.94191708,15.9235804 8,16.65 C8.20747749,18.4639289 9.67872765,19.8721255 11.5,20 C12.0213241,19.9659032 12.5309197,19.830011 13,19.6 C13.5878446,19.3064534 14.2746338,19.2845346 14.88,19.54 C15.8588522,19.9740865 16.937521,20.133121 18,20 M7,6.04 L18,6.04 M7,9.04 L18,9.04 M7,12.04 L18,12.04 M14,15.04 L18,15.04" />
	</symbol>
	<symbol id="lightbulb" viewBox="0 0 24 24">
		<path d="M15.61,16.59 C15.5782033,16.862261 15.4360399,17.109534 15.2167507,17.2740009 C14.9974615,17.4384678 14.7202737,17.5057083 14.45,17.46 C11.81,16.96 10.6,14.02 10.6,11.46 C10.5055751,10.9033591 10.7498877,10.3436591 11.2222692,10.0344328 C11.6946507,9.7252066 12.3053493,9.7252066 12.7777308,10.0344328 C13.2501123,10.3436591 13.4944249,10.9033591 13.4,11.46 C13.4,14.04 12.16,16.97 9.55,17.46 C9.27972634,17.5057083 9.0025385,17.4384678 8.78324932,17.2740009 C8.56396014,17.109534 8.42179668,16.862261 8.39,16.59 L8.33,16.1 L8.23,15.25 L8.07,14 C7.98318058,13.3401522 7.68496425,12.7261774 7.22,12.25 C6.08280078,11.0843487 5.41981703,9.53738657 5.36,7.91 C5.26468936,4.20232463 8.18286251,1.11433437 11.89,1 C14.5809295,0.950712791 17.0354541,2.53065751 18.1048906,5.00044224 C19.1743271,7.47022697 18.647122,10.3412844 16.77,12.27 C16.3077425,12.7388635 16.0125695,13.3467793 15.93,14 L15.76,15.34 L15.67,16.09 L15.61,16.59 Z M8.5,20 L15.5,20 M21,8 L24,8 M0,8 L3,8 M19.41,13.1 L21.89,14.8 M2.11,1.2 L4.59,2.9 M19.41,2.9 L21.89,1.2 M2.11,14.8 L4.59,13.1 M9.5,23 L14.5,23" />
	</symbol>
	<symbol id="lounge" viewBox="0 0 24 24">
		<path d="M16.47,18 L18,18 C18.0729811,19.3471329 17.569676,20.6617488 16.6157124,21.6157124 C15.6617488,22.569676 14.3471329,23.0729811 13,23 L7,23 C5.65286711,23.0729811 4.33825124,22.569676 3.38428759,21.6157124 C2.43032395,20.6617488 1.92701886,19.3471329 2,18 L2,9 L19,9 M4.37,18 C5.89,18 5.89,19 7.37,19 C8.7575,19 8.879375,18.1210938 10.1086719,18.0112305 L10.369036,18 M10.37,18 L10.37,18 C11.85,18 11.89,19 13.37,19 C14.85,19 14.99,18 16.47,18 M20.63,11.199983 C21.9697578,11.210982 23.05,12.3001972 23.05,13.64 L23.05,13.64 L23.05,13.91 C23.0448624,14.7074495 22.6534839,15.4529324 22,15.91 L22,15.91 L18,18 L18,13.9 L17.9966741,13.7088059 C18.0093495,13.0735551 18.2581545,12.4629853 18.6984533,11.9986076 C19.1827821,11.4877921 19.8560783,11.1989466 20.56,11.199983 L20.56,11.199983 L20.63,11.199983 Z M9.44,0 C9.44,1.75 10.56,1.75 10.56,3.5 C10.56,5.25 9.44,5.25 9.44,7 L9.44,7 M4.44,0 C4.44,1.75 5.56,1.75 5.56,3.5 C5.56,5.25 4.44,5.25 4.44,7 L4.44,7 M14.44,0 C14.44,1.75 15.56,1.75 15.56,3.5 C15.56,5.25 14.44,5.25 14.44,7 L14.44,7" />
	</symbol>
	<symbol id="mail-open" viewBox="0 0 24 24">
		<path d="M23,12 L23,23 L1,23 L1,10 L11,16 C12.9,17.55 13.42,18.06 13.42,19.07 C13.3992855,19.8471713 12.7770068,20.4738322 12,20.5 C11.1715729,20.5 10.5,19.8284271 10.5,19 C10.5,18 11.5,17 13,16 L23,10 L12,1 L3,8.11 M6,10 L18,10" />
	</symbol>
	<symbol id="mail" viewBox="0 0 24 24">
		<path d="M0.999999473,9 L0.999999473,21 L22.9999995,21 L22.9999995,7.11 C22.9974712,6.72555578 22.7747717,6.37660054 22.4271539,6.21238844 C22.0795361,6.04817635 21.6685572,6.09778658 21.37,6.34 L12.9999995,13 C11.53,14 10.51,15 10.4999995,16 C10.4999995,16.8284271 11.1715729,17.5 11.9999995,17.5 C12.7770068,17.4738322 13.3992855,16.8471713 13.42,16.07 C13.42,15.07 12.9,14.55 10.9999995,13 L3.26,6.7 L1.56,5.39 C1.20893809,5.14694426 0.999616202,4.74698994 0.999999473,4.32 L0.999999473,4.32 C0.999999473,3.59098413 1.59098413,3 2.32,3 L23.9999995,3" />
	</symbol>
	<symbol id="mouse" viewBox="0 0 24 24">
		<path d="M10.34,9.39 L12.11,11.16 C12.6361559,11.6300454 13.2638906,11.9255841 13.9178721,12.0450594 L14.010896,12.059 L14.0329941,12.1938783 C14.1574851,12.8484382 14.4598204,13.4760979 14.94,14 L17.41,16.46 L12.73,21.14 C10.4177242,23.550561 6.59233421,23.6399393 4.17,21.34 C1.8700607,18.9176658 1.95943897,15.0922758 4.37,12.78 L8.73,8.58 L9.73,7.58 C10.8985895,6.4076877 12.4239943,5.74013085 14.0002927,5.62931612 L14.248896,5.617 M19.78,8.94 C20.8494613,10.9122018 20.4955776,13.3527788 18.91,14.94 M16.0564927,8.57593485 L16.2112873,8.59071185 C16.6756304,8.65928572 17.0816795,8.93989438 17.31,9.35 C17.6576614,9.99155184 17.507352,10.7890266 16.95,11.26 C16.132317,11.9318674 15.1024949,12.2019892 14.1147786,12.0756186 L14.010896,12.059 L14.0009821,11.9967803 C13.8675989,11.0080233 14.1343654,9.97603409 14.8012815,9.1602065 L14.94,9 C15.277117,8.67339781 15.7469442,8.52213797 16.2112873,8.59071185 L16.0564927,8.57593485 Z M20.07,-1.15463195e-13 L20.07,1.23 C20.0735489,1.85435264 20.3254119,2.45162775 20.77,2.89 C21.6990586,3.82903764 21.6990586,5.34096236 20.77,6.28 C19.83,7.21 18.68,6.97 17.38,6.28 L17.38,6.28 L17.1301044,6.16541295 C16.2084318,5.7653715 15.2296001,5.58619235 14.2634279,5.61601093 L14.248896,5.617" />
	</symbol>
	<symbol id="move-money" viewBox="0 0 24 24">
		<path d="M19.54,16.96 L22.54,19.96 L19.54,22.96 M19.539,20 L22,20 M19.539,20 L10.5,20 C9.1745166,20 8.08996133,18.9684641 8.00531768,17.6643757 L8,17.5 C8,17.0029437 8.14505974,16.539768 8.3951547,16.1504972 L8.481,16.024 M3,1 L23,1 L23,11 M20,9.5 L20,4 L9,4 M20,9.5 L20,15 L10.5,15 C9.67157288,15 8.9372583,15.4029437 8.48235498,16.0235325 M5,15 L1,15 L1,4 L9,4 M11,7.5 C9.8954305,7.5 9,8.3954305 9,9.5 C9,10.6045695 9.8954305,11.5 11,11.5 C12.1045695,11.5 13,10.6045695 13,9.5 C13,8.3954305 12.1045695,7.5 11,7.5 Z" />
	</symbol>
	<symbol id="overdraft" viewBox="0 0 24 24">
		<path d="M17.66,8.08 C15.11249,5.22620784 10.8607534,4.6649786 7.66,6.76 C6.88436472,7.19899698 6.23378262,7.82892568 5.77,8.59 C4.04884919,11.2255969 4.06853081,14.6344528 5.82,17.25 C6.23828332,17.8920473 6.17861671,18.7264679 5.69101734,19.3010233 L5.58,19.42 C5.21164934,19.7911086 4.69665173,19.9780642 4.17601507,19.9296779 C3.6553784,19.8812916 3.18365348,19.6026331 2.89,19.17 C1.65734517,17.3485269 0.999011563,15.1993638 0.999994468,13 C0.999994468,5.05 9.43,-0.93 17.84,3.52 C19.3420479,4.30607565 20.5799943,5.51620298 21.4,7 C24.26,12.25 23.03,17.53 19.78,20.78 M18.7332716,14.5043989 C19.3020729,13.4161734 19.675477,12.2300663 19.83,11 C19.264727,11.0946385 18.719081,11.206287 18.2037716,11.3367862 M18.7332716,14.5043989 C18.3911626,15.1589185 17.9783689,15.7780296 17.4999978,16.35 C16.9917418,16.9346169 16.2726485,17.2941636 15.4999978,17.35 L15.4999978,17.35 L13.4999978,17.3499272 L13.4999978,15.27 M14.04,13.71 L14.74,13 C15.4618938,12.2557796 16.7044196,11.7164889 18.2037716,11.3367862 M13.4999978,17.3499272 L13.5,18.9 C13.5289058,19.7896686 12.8816953,20.5576918 12,20.68 C11.5114997,20.7197689 11.0301896,20.5429397 10.683625,20.196375 C10.3370603,19.8498104 10.1602311,19.3685003 10.2,18.88 C10.3177521,17.983261 11.0960044,17.3217466 12,17.35 L13.4999978,17.3499272 Z" />
	</symbol>
	<symbol id="pages" viewBox="0 0 24 24">
		<path d="M7,3 L7,1 L23,1 L23,16 C23,17.6568542 21.6568542,19 20,19 L20,19 C18.3431458,19 17,17.6568542 17,16 L17,5 L1,5 L1,23 L17,23 L17,21 M4,10 L14,10 M4,14 L10,14 M4,18 L10,18 M12,14 L14,14 M12,18 L14,18" />
	</symbol>
	<symbol id="payment" viewBox="0 0 24 24">
		<path d="M6.24035024,16.9922822 C7.54719231,17.0940412 8.80555114,17.5231529 9.90017273,18.2378588 L10.083,18.362 L10.0100767,18.5359959 C9.82743706,18.9434442 9.61129567,19.337419 9.36278489,19.713666 L9.17035024,19.9924609 C8.65186428,20.9865758 7.72495571,21.6992558 6.63948459,21.9487844 L6.42035024,21.9924609 C5.11359211,22.1794451 3.89508529,21.2932584 3.67035024,19.9924609 C3.54991221,19.2412964 3.76581392,18.4751671 4.26075031,17.8974203 C4.7556867,17.3196735 5.47960092,16.9887415 6.24035024,16.9922822 Z M1.75035024,16.9924609 C0.146320659,12.874075 1.16296817,8.19559229 4.3315083,5.11429931 C7.50004843,2.03300633 12.2050871,1.14735198 16.2770926,2.86571873 C20.3490981,4.58408548 22.9972053,8.57273205 23.0003541,12.9924609 C23.0007111,13.9445864 22.8763191,14.8926553 22.6303502,15.8124609 M23.1303502,17.9924609 C22.4432535,18.8924609 19.9205688,21.7966232 17.7465128,21.983052 L17.5303502,21.9924609 C16.036291,22.0210899 14.5755427,21.5494266 13.3803502,20.6524609 L13.3803502,20.6524609 L10.1703502,18.4224609 L10.1703502,18.4224609 L10.083,18.362 L10.1407571,18.2279498 C10.3648625,17.6685315 10.5272566,17.086445 10.6251438,16.4921921 M18.0003502,17.9924609 L23.0003502,17.9924609 L23.0003502,22.9924609 M10.733,15.024 L10.7340206,15.2939714 C10.7267852,15.6966983 10.6902191,16.0971337 10.6251438,16.4921921 M10.733,15.024 L10.7332302,14.957334 C10.7306841,14.8449884 10.7258495,14.7325319 10.7187088,14.6200309 L10.6903502,14.2824609 L10.547,12.799 L10.2871498,12.9201998 C9.0652732,13.4645669 7.76279678,13.828021 6.42035024,13.9924609 L6.42035024,13.9924609 M10.0003502,14.9924609 L14.0003502,14.9924609 M12.8303502,5.4924609 C12.0721886,5.52590678 11.3592271,5.86245579 10.8515504,6.42654101 C10.3438737,6.99062623 10.0840253,7.73497706 10.1303502,8.4924609 L10.547,12.799 L10.6512541,12.7514804 C11.7360694,12.2291486 12.7523078,11.5617435 13.6703502,10.7624609 L13.7903502,10.6524609 C14.5557594,10.0531465 15.0321237,9.16251835 15.1098387,8.19978473 L15.1203502,7.9924609 C15.1744737,6.72538033 14.235884,5.64546214 12.9939986,5.50534544 L12.8303502,5.4924609 Z" />
	</symbol>
	<symbol id="pencil" viewBox="0 0 24 24">
		<path d="M6.92,18.21 L9,19.72 L8.24,20.8 L4.48,22.95 C4.36917608,23.0194094 4.22727054,23.0144054 4.12161104,22.937362 C4.01595155,22.8603186 3.96779917,22.7267388 4,22.6 L4,22.6 L4.45,18.15 L6.82812973,14.9004855 M18.1181297,5.38348552 L18.34,5.54 C18.6262807,5.7449129 18.6933021,6.14257313 18.49,6.43 L10,18 M6.72,10.92 L7.21,10.73 C8.12092209,10.3933953 8.82566457,9.65544501 9.12,8.73 L10.25,5.68 C10.7828125,4.265625 12.4793359,2.68232422 13.7667422,3.50298981 L13.89,3.59 C14.3121343,3.89122258 14.4105773,4.47740602 14.11,4.9 L14.11,4.96 L6.82812973,14.9004855 M18.1181297,5.38348552 L16.25,4.06 C16.1285128,3.9737699 16.0850632,3.81793314 16.1363718,3.6844519 L16.17,3.62 L17.87,1.27 C17.9667058,1.1302482 18.1157715,1.0354947 18.2833567,1.00724999 C18.450942,0.97900528 18.6228302,1.01966544 18.76,1.12 L18.76,1.12 L19.76,1.85 C20.049655,2.05177282 20.1212421,2.44997601 19.92,2.74 L19.92,2.74 L18.81,4.31" />
	</symbol>
	<symbol id="people" viewBox="0 0 24 24">
		<path d="M16.53,20.35 L16.66,20.92 C16.86,21.77 16.94,22.62 16.11,22.92 L16.11,22.92 C15.25,23.21 14.76,22.77 14.44,21.92 L12,15.42 L9.66,21.68 C9.3910112,22.4140181 8.69175145,22.9015021 7.91,22.9 L7.91,22.9 C7.09,22.63 7.15,21.78 7.33,20.9 L8.01,17.9 L8.6,15.26 L9.7,10.4 L5.43,12.08 C4.69165642,12.3200829 3.89158276,11.961131 3.58,11.25 L3.58,11.25 C3.24432308,10.4822992 3.5932028,9.58773585 4.36,9.25 L9.51,7 L12.85,5.14 C13.4678578,4.87565046 13.9209081,4.33032175 14.0675317,3.67447839 C14.2141553,3.01863503 14.0364631,2.33229441 13.59,1.83 L13.59,1.83 C13.1933096,1.3818301 12.6235144,1.12523464 12.025,1.12523464 C11.4264856,1.12523464 10.8566904,1.3818301 10.46,1.83 L10.46,1.83 C10.0136966,2.3341304 9.8361829,3.02169017 9.98266154,3.6788646 C10.1291402,4.33603903 10.5818466,4.88312804 11.2,5.15 L14.51,7 L19.29,8.88 C20.0875814,9.18855654 20.5047616,10.0668306 20.24,10.88 L20.24,10.88 C20.00317,11.6735757 19.2029421,12.158038 18.39,12 L14.07,10.74 L15.57,16.56 C15.7807419,17.3809642 16.5224267,17.9537097 17.37,17.95 L24,17.95 M0,17.92 L5.75,17.92" />
	</symbol>
	<symbol id="phone" viewBox="0 0 24 24">
		<path d="M13.1,22.71 L10.92,20.53 C10.2378438,19.8803859 10.1640996,18.8176017 10.75,18.08 C11.0824794,17.6912088 11.5684327,17.4673654 12.08,17.4673654 C12.5915673,17.4673654 13.0775206,17.6912088 13.41,18.08 C13.9959004,18.8176017 13.9221562,19.8803859 13.24,20.53 L11.06,22.71 C10.8683662,22.8927337 10.614767,22.9963165 10.35,23 L5,23 L5,1 L19,1 L19,23 L13.8,23 C13.5376601,22.9988954 13.2862606,22.8947442 13.1,22.71 Z M10,4 L14,4" />
	</symbol>
	<symbol id="plane" viewBox="0 0 24 24">
		<path d="M13.028265,15.6206563 L13.2165773,15.7291219 C13.8015911,16.0591561 14.3962839,16.372934 15,16.67 C15.6658065,17.0054839 16.3555879,17.2430697 17.0480333,17.3765704 L17.291265,17.4186563 L16.27,21.05 C16.0781887,21.7787559 15.5484746,22.3669098 14.8521844,22.6364658 L14.6886231,22.6929344 C13.9122655,22.9293058 13.0688695,22.746545 12.46,22.21 L12.46,22.21 L12.3247905,22.0657698 C11.9380585,21.6186525 11.7230032,21.0455321 11.7230032,20.45 C11.7230032,19.7882977 11.9885036,19.1542641 12.46,18.69 L12.46,18.69 M9.33,15.25 L5.89,21.41 L3.36,18.88 L5.58,12.29 M21.58,11.89 C21.7633942,11.9824224 21.9346235,12.096714 22.0900187,12.2302063 L22.24,12.37 C23.0185776,13.2744332 23.1830984,14.548044 22.6763972,15.6141374 L22.58,15.8 C21.1180645,17.2193548 19.212924,17.7170447 17.3077836,17.4217421 L17.291265,17.4186563 L18.41,13.45 C18.5768824,12.7908121 19.0245561,12.2380233 19.6346649,11.9377805 C20.2447736,11.6375377 20.9558869,11.6200716 21.58,11.89 Z M13.028265,15.6206563 L12.6348141,15.393686 C10.3208608,14.0304023 8.16526828,12.4094505 6.21,10.56 C2,6.3 0.17,2.56 1.36,1.36 C2.55,0.16 6.3,2 10.59,6.24 L18.74,3.5 L21.28,6 L13.28,10.47" />
	</symbol>
	<symbol id="pound" viewBox="0 0 24 24">
		<path d="M18.3794556,6.64904785 C17.6557007,3.21634928 15.6502686,1.5 12.3631592,1.5 C7.43249512,1.5 6.49328613,4.59405518 6.49328613,6.43939209 C6.49328613,8.284729 7.74798584,9.67672105 9.07946777,11.7857616 C10.4109497,13.8948021 11.9070435,15.3300171 11.2559814,18.4324341 C10.6049194,21.5348511 8.70210229,22.2591553 6.93334961,22.2591553 C5.16459693,22.2591553 4,20.9971711 4,19.9137161 C4,18.8302612 4.7746582,17.713623 6.93334961,17.713623 C9.09204102,17.713623 10.621582,19.4406738 11.5735474,20.144165 C12.5255127,20.8476562 14.2261963,22.1193237 16.418335,22.1193237 C18.6104736,22.1193237 19.8140869,19.6917725 19.8140869,17.713623 M4,11.8795776 L17.3300781,11.8795776" />
	</symbol>
	<symbol id="preferences" viewBox="0 0 24 24">
		<path d="M5.98289349,8.26276198 C5.99417789,8.17677436 6,8.08906709 6,8 C6,6.8954305 5.1045695,6 4,6 M5.98289349,8.26276198 C5.85423388,9.24315368 5.01550241,10 4,10 C2.8954305,10 2,9.1045695 2,8 C2,6.8954305 2.8954305,6 4,6 L4,6 L4,5 C4,2.85780461 5.68396847,1.10892112 7.80035966,1.00489531 L8,1 C10.209139,1 12,2.790861 12,5 L12,15.13 M20,9 L20,0.77 M12,19 C12,21.209139 13.790861,23 16,23 L16,23 C18.209139,23 20,21.209139 20,19 L20,13.18 M4,23 L4,10 M12,19 C13.1045695,19 14,18.1045695 14,17 C14,15.8954305 13.1045695,15 12,15 C10.8954305,15 10,15.8954305 10,17 C10,18.1045695 10.8954305,19 12,19 Z M20,13 C21.1045695,13 22,12.1045695 22,11 C22,9.8954305 21.1045695,9 20,9 C18.8954305,9 18,9.8954305 18,11 C18,12.1045695 18.8954305,13 20,13 Z" />
	</symbol>
	<symbol id="question" viewBox="0 0 24 24">
		<use xmlns:xlink="http://www.w3.org/1999/xlink" xlink:href="#help"></use>
	</symbol>
	<symbol id="rocket" viewBox="0 0 24 24">
		<path d="M8.19,20.55 C7.48,21.55 6.82,22.62 6.29,22.55 C5.29,22.43 5.29,21.07 4.81,21.05 C3.68862839,21.611402 2.6150498,22.2635759 1.6,23 C1.6,23 3.47,20.46 3.22,19.77 C2.97,19.08 1,19.62 1,19.62 C1.21163071,18.6228473 1.78973863,17.7414111 2.62,17.15 C3.03659439,16.7957106 3.52940921,16.5424586 4.06,16.41 M11.23,17.17 C12.704,16.504 14.0128,15.7376 15.17344,14.8816 L15.399,14.71 L15.4232762,14.8253805 C15.99625,17.7803819 15.0139583,20.6745833 11.23,22.81 L11.230758,22.7669436 C11.2354321,22.4159808 11.2385185,20.0185185 10.47,19.25 M6.055,14.519 L6.25,14.6 C7.43,14.96 8.68,15.24 9.25,16.1 C10.43,17.93 8.04,19.08 6.87,17.72 C6.02450826,16.9169769 5.71611127,15.726942 6.01773982,14.642178 L6.055,14.519 Z M23.08,1 C22.1105455,6.47272727 19.9186116,11.2364165 15.4863176,14.6459321 L15.399,14.71 L15.3785938,14.6090625 C15.2995573,14.2483854 15.1978429,13.8870573 15.0757111,13.526344 L15,13.31 C14.3675874,11.6377576 13.0930643,10.2876272 11.46,9.56 C10.7514286,9.27428571 10.0681799,9.07413578 9.41042814,8.9598113 L9.287,8.94 L9.40450699,8.78523156 C12.7266167,4.4581151 17.126773,1.81682885 22.6626768,1.05370939 L23.08,1 Z M9.16496672,8.9209632 L9.287,8.94 L9.1573692,9.11292322 C8.09519008,10.5465917 7.14672727,12.1578182 6.31,13.94 C6.21394125,14.1089444 6.13527784,14.2838519 6.07367213,14.4624432 L6.055,14.519 L5.9384188,14.4718464 C4.4748903,13.902692 2.88261126,13.7385636 1.33,14 C3.28918367,10.1387755 5.90809246,8.45664307 9.16496672,8.9209632 L9.16496672,8.9209632 Z" />
	</symbol>
	<symbol id="secure" viewBox="0 0 24 24">
		<path d="M9,10 L20,10 C20.5522847,10 21,10.4477153 21,11 L21,23 L14,23 C13.81,23 13.63,22.92 13.45,22.88 C12.4552376,22.5909686 11.6189197,21.9132627 11.13,21 L9.42,18 C8.80724006,16.9358901 8.92300698,15.6025745 9.71,14.66 L9.71,14.66 C10.2799793,13.9757813 11.1244767,13.5801497 12.015,13.5801497 C12.9055233,13.5801497 13.7500207,13.9757813 14.32,14.66 L14.32,14.66 C15.1100794,15.6099014 15.2219567,16.9524289 14.6,18.02 L12.88,21.02 C12.2812577,22.0929697 11.2162217,22.825182 10,23 L3,23 L3,11 C3,10.4477153 3.44771525,10 4,10 L7,10 L7,6 C7,3.23857625 9.23857625,1 12,1 C14.7614237,1 17,3.23857625 17,6 L17,8" />
	</symbol>
	<symbol id="send" viewBox="0 0 24 24">
		<path d="M5.04,7.01 L15.39,16.83 L15.39,23 L10.46,17.86 L4.7,21.15 L1,1 L22.59,12.75 M18.205252,13.2376145 L18.38,13.24 C18.8255902,13.3248191 19.2192248,13.5832006 19.4742837,13.9582871 C19.6974602,14.2864878 19.7985381,14.6805093 19.7634269,15.0723835 L19.74,15.24 C19.4624783,16.2286127 18.5107487,16.8715589 17.49,16.76 L15.39,16.76 L16.17,14.76 C16.4588509,13.8667464 17.2793018,13.2615962 18.205252,13.2376145 L18.205252,13.2376145 Z" />
	</symbol>
	<symbol id="shirt" viewBox="0 0 24 24">
		<path d="M10,23 L2,23 C1.44771525,23 1,22.5522847 1,22 L1,4 C1,3.44771525 1.44771525,3 2,3 L6,3 M12,6 L17,1 L12,1 L7,1 L12,6 M7,1 L5,7 L12,6 M17,1 L19,7 L12,6 M18,3 L22,3 C22.5522847,3 23,3.44771525 23,4 L23,4 L23,22 C23,22.5522847 22.5522847,23 22,23 L22,23 L12,23 L12,19.5 C12.037812,18.7830403 12.278556,18.1207564 12.6659969,17.5693834 L12.717,17.5 L12.6659969,17.4306166 C12.3137779,16.9293684 12.082796,16.3364583 12.0153015,15.6941366 L12,15.5 L12,13.5 C12.037812,12.7830403 12.278556,12.1207564 12.6659969,11.5693834 L12.719,11.497 L12.6684977,11.4285391 C12.3161856,10.9277372 12.0846182,10.335552 12.0157406,9.69392832 L12,9.5 L12,7 M15.5,16 C14.3919714,16.0584368 13.414532,16.6015623 12.7752574,17.421801 L12.717,17.5 L12.7752574,17.578199 C13.414532,18.3984377 14.3919714,18.9415632 15.5,19 C16.3284271,19 17,18.3284271 17,17.5 C17,16.6715729 16.3284271,16 15.5,16 Z M15.5,10 C14.3919714,10.0584368 13.414532,10.6015623 12.7752574,11.421801 L12.719,11.497 L12.7777717,11.5759962 C13.4170425,12.3955759 14.3931437,12.9389356 15.5,13 C16.3284271,13 17,12.3284271 17,11.5 C17,10.6715729 16.3284271,10 15.5,10 Z" />
	</symbol>
	<symbol id="sign" viewBox="0 0 24 24">
		<path d="M8.8817842e-15,22 L3.61,22 C4.48154836,22.0152178 5.34348455,21.8160453 6.12,21.42 C7.21053565,20.9204517 7.93442991,19.8577133 8,18.66 C8.07120932,17.9278646 7.60793563,17.2498004 6.9,17.05 C6.44775281,16.9248675 5.96300628,17.0185796 5.5899838,17.3032546 C5.21696133,17.5879297 4.99864906,18.0307625 5,18.5 C5,21 7.53,21.8 8.5,22 C13.3090511,22.6851695 18.1909489,22.6851695 23,22 L19.88,15.22 L7.39,2.74 C6.21872981,1.57018649 4.32127019,1.57018649 3.15,2.74 L2.74,3.15 C1.57018649,4.32127019 1.57018649,6.21872981 2.74,7.39 L4.15,8.8 L15.22,19.88 L18.49,16.61 M8.61,4.72 L5.78,7.55" />
	</symbol>
	<symbol id="signpost" viewBox="0 0 24 24">
		<path d="M14,6 L14,23 L11,23 L11,8.4 M9,10 L4,10 L1,7 L4,4 L11.043,4 L11.0375137,4.03446155 C11.0128571,4.19579082 11,4.35214286 11,4.5 L11,8.4 M17,4 L23,4 L23,10 L16.06,10 M13.5,1 L13.64446,1.00686658 C14.4051119,1.07955132 15,1.72030388 15,2.5 L15,2.5 L14.9931334,2.64446001 C14.9204487,3.40511192 14.2796961,4 13.5,4 L13.5,4 L11.043,4 L11.0660641,3.8716035 C11.3145044,2.61230321 12.2357617,1.12937318 13.3531769,1.00798196 L13.5,1 Z" />
	</symbol>
	<symbol id="statement" viewBox="0 0 24 24">
		<path d="m18.5 23h-1.5c-1.8317962-.103887-3.3160263-1.5245073-3.5-3.35-.0580829-.7264196.4009526-1.3941075 1.1-1.6.4522472-.1251325.9369937-.0314204 1.3100162.2532546.3730225.2846751.5913347.7275079.5899838 1.1967454-.1041686 1.8881666-1.6118334 3.3958314-3.5 3.5h-2c-1.83179618-.103887-3.31602634-1.5245073-3.5-3.35-.05808292-.7264196.40095255-1.3941075 1.1-1.6.45188756-.1208202.93425533-.0253944 1.30610212.2583834.37184678.2837778.59118428.723864.59389788 1.1916166-.1041686 1.8881666-1.61183338 3.3958314-3.5 3.5h-2c-.55228475 0-1-.4477153-1-1v-21h16v21c0 .5522847-.4477153 1-1 1zm-12.5-18h7m-7 4h7m2-4h3m-3 4h3m-12 4h7m2 0h3" />
	</symbol>
	<symbol id="sweep" viewBox="0 0 24 24">
		<path d="M18.3,3.01894989 L18.3,3 L23.3,3 M20.8349975,5.46529311 C22.8837438,8.24067696 23.5548899,11.8892477 22.4757393,15.3096932 C21.033084,19.8822933 16.7947769,22.9936615 12,23 C10.9855322,22.9973754 9.97618586,22.8560669 9,22.58 M5.67,21 L5.67,16 M3.1438146,18.5320609 C3.83185421,19.46525 4.67763244,20.3020611 5.67,21 L5.67,21 L0.68,21 M3.1438146,18.5320609 C0.789685501,15.3391524 0.282151753,11.0179782 2.06779248,7.27062073 C4.37532112,2.42802578 9.83935126,-0.0439394999 15,1.42 M10.0686573,14.4471837 C10.8109749,14.4471837 11.2379711,14.7698594 11.8524734,15.2034468 L12.005,15.3099499 L11.9690186,15.4228664 C11.6496585,16.3257695 11.0232314,16.8141568 10.2268129,16.8141568 C9.05560928,16.8141568 8.72565323,16.1619351 8.72565323,15.5636685 C8.72565323,14.9654019 9.25885635,14.4471837 10.0686573,14.4471837 Z M16.1796781,13.7957142 C16.1796781,14.9737223 16.005609,16.5057983 14.4158936,16.5057983 C12.8261781,16.5057983 12.7371826,15.8173828 12.0250917,15.3242887 L12.0250917,15.3242887 L12.005,15.3099499 L12.0221609,15.2592427 C12.1219586,14.9234496 12.1825014,14.5365626 12.1977626,14.1018294 L12.2015919,13.8804907 C12.2015919,12.0030257 10.013048,11.2490234 10.013048,9.4109384 C10.013048,8.16101074 10.5289307,7 12.6230181,7 C14.0190764,7 14.960325,7.85874971 15.4467639,9.57624914 L15.4467639,9.57624914 M18.3,8 L18.3,3.01894989 L18.31,3 L18.6342112,3.2367135 C19.4846392,3.88158391 20.2215694,4.63429784 20.8349975,5.46529311 L20.8349975,5.46529311 M8,12 L14.9128873,12" />
	</symbol>
	
	<symbol id="tick-list" viewBox="0 0 24 24">
		<path d="M8.71,17.5 L4.17,22.04 L1.64,19.5 M8.71,9.5 L4.17,14.04 L1.64,11.5 M8.71,1.5 L4.17,6.04 L1.64,3.5 M11,12 L23,12 M11,20 L23,20 M11,4 L23,4" />
	</symbol>
	<symbol id="timeline" viewBox="0 0 24 24">
		<path d="M8.54,12 L8.54,9.43 L11.41,6.57 M13,3 C14.1045695,3 15,3.8954305 15,5 C15,6.1045695 14.1045695,7 13,7 C11.8954305,7 11,6.1045695 11,5 C11,3.8954305 11.8954305,3 13,3 Z M25,12 L23.78,12 C21.9520773,11.8913783 20.4733267,10.4719471 20.29,8.65 C20.2319171,7.92358041 20.6909526,7.25589246 21.39,7.05 C21.8408774,6.92859637 22.3225759,7.02408521 22.6930447,7.30830727 C23.0635134,7.59252932 23.2804941,8.03306422 23.28,8.5 C23.1803137,10.3901664 21.6701664,11.9003137 19.78,12 L1,12 M8,17 C9.1045695,17 10,17.8954305 10,19 C10,20.1045695 9.1045695,21 8,21 C6.8954305,21 6,20.1045695 6,19 C6,17.8954305 6.8954305,17 8,17 Z M6.41,17.43 L3.54,14.57 L3.54,12 M19,17 C20.1045695,17 21,17.8954305 21,19 C21,20.1045695 20.1045695,21 19,21 C17.8954305,21 17,20.1045695 17,19 C17,17.8954305 17.8954305,17 19,17 Z M17.41,17.43 L14.54,14.57 L14.54,12" />
	</symbol>
	<symbol id="trolley" viewBox="0 0 24 24">
		<path d="M0,1 L4,1 L8,13 L21,13 L23,3 L10,3 C7.23857625,3 5,5.23857625 5,8 L5,14 C5,15.1045695 5.8954305,16 7,16 L7,16 C8.65673063,15.9896027 10.2051065,16.8221844 11.11,18.21 L11.61,19.21 C11.9446289,19.8133768 11.9446289,20.5466232 11.61,21.15 C11.2568,21.6930875 10.6476719,22.0146769 10,22 C8.97827321,22 8.15,21.1717268 8.15,20.15 C8.14643092,19.8621609 8.21156642,19.5776216 8.34,19.32 L8.34,19.32 C9.35598855,17.284913 11.4353986,15.9993187 13.71,16 L14.4,16 C16.6060054,16.0011873 18.622406,17.247408 19.61,19.22 L19.61,19.22 C19.9292059,19.8319716 19.9103061,20.5652838 19.56,21.16 C19.2140589,21.684208 18.6280678,21.9997417 18,22 C16.9782732,22 16.15,21.1717268 16.15,20.15 C16.1464309,19.8621609 16.2115664,19.5776216 16.34,19.32 L16.5,19 C17.42,17.16 19.94,16 22,16"/>
	</symbol>
	<symbol id="trophy" viewBox="0 0 24 24">
		<path d="M18,23 L6,23 C6,21.4038971 7.29389707,20.11 8.89,20.11 L8.89,20.11 L10,20.11 C11.1045695,20.11 12,19.2145695 12,18.11 L12,18.11 L12,16 M18.7,4.265 L18.678779,4.28734393 C18.2929586,4.69746491 18.0441127,5.23791714 18.0053177,5.83562431 L18,6 L18,10 C18,13.3137085 15.3137085,16 12,16 L12,16 L11.7750617,15.9958615 C8.56557489,15.8775718 6,13.2383969 6,10 L6,10 L6,1 L18,1 M18.7,4.265 L18.7873439,4.17877902 C19.2347486,3.75788398 19.8372583,3.5 20.5,3.5 C21.8807119,3.5 23,4.61928813 23,6 C22.8704003,7.88207625 21.7182592,9.54115948 20,10.32 M6,6 C6,4.61928813 4.88071187,3.5 3.5,3.5 C2.11928813,3.5 1,4.61928813 1,6 C1,8.15 3.23,10.22 6,11" />
	</symbol>
	<symbol id="upload" viewBox="0 0 24 24">
		<path d="M11.749,15.524 L11.7500156,20.5066326 C11.7517692,21.6293459 11.0048802,22.6155412 9.92369873,22.9180884 C8.84251724,23.2206355 7.69225055,22.7653216 7.11105371,21.8047497 C6.52985687,20.8441778 6.66029398,19.6139703 7.43,18.7966326 C8.6946875,17.2231951 9.93469727,16.1820916 11.5414578,15.5958737 L11.749,15.524 Z M5.75,15.0066326 L4.5,15.0066326 C2.56700338,15.0066326 1,13.4396293 1,11.5066326 C1,9.57363602 2.56700338,8.00663264 4.5,8.00663264 C4.58324297,8.00114424 4.66675703,8.00114424 4.75,8.00663264 L4.75,8.00663264 L4.75391345,7.76485947 C4.86612988,4.39264484 7.37802295,1.56427846 10.7395399,1.07390399 C14.1810931,0.57185394 17.469294,2.67273948 18.46,6.00663264 C20.0676952,6.04414553 21.5332539,6.93650402 22.3046143,8.34756531 C23.0759748,9.7586266 23.035949,11.4740169 22.1996143,12.8475653 C21.3632796,14.2211137 19.8576952,15.0441455 18.25,15.0066326 L15.48,15.0066326 C14.0325,15.0066326 12.838125,15.1669451 11.7982617,15.5070819 L11.749,15.524 L11.749,11.376 M15.29,11.3766326 L11.75,7.83663264 L8.21,11.3766326 M11.75,8.34663264 L11.749,11.376" />
	</symbol>
	<symbol id="wallet" viewBox="0 0 24 24">
		<path d="M16.31,4.54 L16.041,4.229 L17.92,3.84 L19.162,7.99 L21.17,7.99 L21.17,12.71 C21.1881746,13.4410984 20.9898689,14.1612614 20.6,14.78 L20.171,15.424 L20.32,15.6 C20.906726,16.2735913 21.23,17.1367069 21.23,18.03 L21.23,22.5 L3.88,22.5 C2.84559741,22.5 2.00550214,21.664388 2,20.63 L2,10.8 M5.132,7.99 L18.92,7.99 M17.25,13.61 C16.6353463,13.5618935 16.0456435,13.8625766 15.7235816,14.3883042 C15.4015197,14.9140319 15.4015197,15.5759681 15.7235816,16.1016958 C16.0456435,16.6274234 16.6353463,16.9281065 17.25,16.88 C18.1882548,16.8755009 19.09614,16.5469666 19.82,15.95 L20.171,15.424 L19.82,15.01 C19.2452764,14.2573806 18.3985113,13.7647121 17.4665062,13.6337539 L17.25,13.61 Z M5.132,7.99 L3.17,7.99 C2.56690505,7.99 2.07038734,7.53368862 2.0068654,6.94748439 L2,6.82 L2.0068654,6.69251561 C2.07038734,6.10631138 2.56690505,5.65 3.17,5.65 L7.74,5.65 L7.54543457,5.65 L13.24,1 L16.041,4.229 L7.54543457,5.65" />
	</symbol>
	<symbol id="warning" viewBox="0 0 24 24">
		<path d="M14,19.5 C13.1981132,19.5 12.5505518,19.0884656 12.0408156,18.3148975 L12,18.250147 L11.9591844,18.3148975 C11.4794327,19.0429616 10.8775936,19.4503315 10.1399108,19.4957381 L10,19.5 L1.75,19.5 L11.57,1.24 C11.6600688,1.08820675 11.8234962,0.995147016 12,0.995147016 C12.1765038,0.995147016 12.3399312,1.08820675 12.43,1.24 L12.43,1.24 L22.25,19.5 L16,19.5 M12,22 C12.2761424,22 12.5,22.2238576 12.5,22.5 C12.5,22.7761424 12.2761424,23 12,23 C11.7238576,23 11.5,22.7761424 11.5,22.5 C11.5,22.2238576 11.7238576,22 12,22 Z M12,7.5 C11.1715729,7.5 10.5,8.17157288 10.5,9 C10.5,13.2924528 10.9360983,16.49466 11.9522895,18.1746375 L12,18.250147 L12.0477105,18.1746375 C13.0639017,16.49466 13.5,13.2924528 13.5,9 C13.5,8.17157288 12.8284271,7.5 12,7.5 Z" />
	</symbol>
	<symbol id="website" viewBox="0 0 24 24">
		<path d="M20,9 L18.714,8.999 M21.286,5.999 L23,6 L23,18.02 L17.99,18.02 C17.9531469,18.0226321 17.9200768,18.0435897 17.9019631,18.0757918 C17.8838495,18.1079938 17.8831121,18.1471386 17.9,18.18 L17.9,18.18 L19.38,20.64 L16.84,22.64 L15.13,20.32 L13.13,21.65 L13.129,15.515 M14.321,14.125 L13.13,13.51 L13.129,15.515 M11,18 L1,18.02 L1,1 L23,1 L23,4 M21.286,5.999 L5.45,6 C5.04096209,5.98372702 4.64284533,6.13422467 4.34685987,6.41701333 C4.08787259,6.6644534 3.92650134,6.99462297 3.88860581,7.34753465 L3.88,7.5 C3.88238743,7.90935451 4.0508744,8.30019802 4.34685987,8.58298667 C4.64284533,8.86577533 5.04096209,9.01627298 5.45,9 L18.714,8.999 M14.321,14.125 L17,15.51 M3.52,3 C3.23281193,3 3,3.23281193 3,3.52 C3,3.80718807 3.23281193,4.04 3.52,4.04 C3.80718807,4.04 4.04,3.80718807 4.04,3.52 C4.04,3.23281193 3.80718807,3 3.52,3 Z M5.52,3 C5.23281193,3 5,3.23281193 5,3.52 C5,3.80718807 5.23281193,4.04 5.52,4.04 C5.80718807,4.04 6.04,3.80718807 6.04,3.52 C6.04,3.23281193 5.80718807,3 5.52,3 Z M7.52,3 C7.23281193,3 7,3.23281193 7,3.52 C7,3.80718807 7.23281193,4.04 7.52,4.04 C7.80718807,4.04 8.04,3.80718807 8.04,3.52 C8.04,3.23281193 7.80718807,3 7.52,3 Z" />
	</symbol>
	<symbol id="welcome" viewBox="0 0 24 24">
		<path d="M20.28,17.5 C20.9678233,19.0841744 21.9914,20.5001221 23.28,21.65 C23.4365368,21.7917767 23.4871106,22.0166191 23.4063589,22.2117692 C23.3256071,22.4069192 23.1309469,22.5302855 22.92,22.52 C20.9348344,22.6096386 18.9729026,22.0631004 17.32,20.96 C15.5096913,22.0919531 13.3910903,22.6303435 11.26,22.5 C5.46101013,22.3260303 0.901030304,17.4839899 1.075,11.685 C1.2489697,5.88601013 6.09101013,1.3260303 11.89,1.5 C15.1418164,1.50157149 18.2026915,3.03571468 20.15,5.64 C21.820945,7.80015477 22.1740968,10.7021417 21.07,13.2 C20.3863144,14.9755425 18.864531,16.2949212 17.01,16.72 C16.7620254,16.7650045 16.5079746,16.7650045 16.26,16.72 C14.48,16.39 14.26,13.72 14.52,10.72 C14.3871413,13.0040061 13.6597839,15.2136557 12.41,17.13 C11.48,17.01 11.35,14.96 11.11,12.3 C11.0524966,11.9498378 10.8137316,11.656375 10.4825847,11.5288526 C10.1514378,11.4013302 9.77751187,11.4588499 9.5,11.68 C8.55,12.68 7.77,14.85 7.13,18.2 C7.2,13.44 7.5,6.17 10.22,4.5 C10.5319099,4.18391937 11.0148996,4.11139235 11.4058871,4.32192405 C11.7968745,4.53245574 12.0021903,4.9756088 11.91,5.41 C12,7.41 9.06,9.41 4.31,11.41"/>
	</symbol>

	<symbol id="delete" viewBox="0 0 24 24">
		<path d="M10.20605,20a2.79179,2.79179,0,0,1-2.79-2.6543l-.41456-7.28906,1.99708-.11328.41455,7.2959A.7938.7938,0,0,0,11,17.20605V11.794A2.79688,2.79688,0,0,1,13.794,9h.32031a2.7929,2.7929,0,0,1,2.79,2.93262l-.40576,7.124-1.99708-.11328.40577-7.11719A.794.794,0,0,0,14.11426,11H13.794a.7949.7949,0,0,0-.794.794v5.4121A2.79688,2.79688,0,0,1,10.20605,20Z"/>
		<path d="M19,24H5a1,1,0,0,1-.99805-.94141L3.05713,7H3A.99974.99974,0,0,1,2,6V3A.99974.99974,0,0,1,3,2H8V1A.99974.99974,0,0,1,9,0h6a.99974.99974,0,0,1,1,1V2h6V4H15a.99974.99974,0,0,1-1-1V2H10V3A.99974.99974,0,0,1,9,4H4V5a1,1,0,0,1,.99805.94141L5.94287,22H18.05713l.88232-15H7V5H20a1.0004,1.0004,0,0,1,.998,1.05859l-1,17A1,1,0,0,1,19,24Z"/>
	</symbol>

</svg>