<svg xmlns="http://www.w3.org/2000/svg" xmlns:xlink="http://www.w3.org/1999/xlink" version="1.1" class="visually-hidden">

  <symbol id="easy-access" viewBox="0 0 96 96">
    <path d="M55.1,68.9c-3.7,1.6-7.8,2.5-12.1,2.5c-16.8,0-30.5-13.7-30.5-30.5S26.2,10.4,43,10.4s30.5,13.7,30.5,30.5  c0,4.3-0.6,7.9-2.2,11.6 M48.3,28.5L33.6,39.6l5.9,4.4l-14.9,9.9l29.2-8l-6-4.5L61,32.6l-5.7-4.2 M56.1,30.2 M70,52.4  c-8,0-14.5,6.5-14.5,14.5S62,81.4,70,81.4s14.5-6.5,14.5-14.5S78,52.4,70,52.4z M74,60.6c-1.7-3.6-9.8-2.6-7.7,2.9  c1.6,4.3,2.5,6.9-1.7,9.9c1.9,0,9.4,0,9.4,0 M64,66.4h9 M50.9,25.5l0.3-0.2"/>
  </symbol>
  <symbol id="isa" viewBox="0 0 96 96">
    <path d="M55,68.7 M71.3,52c1.6-3.7,2.1-7.1,2.1-11.3c0-16.8-13.7-30.5-30.5-30.5S12.4,23.8,12.4,40.7S26,71.2,42.9,71.2  c4.3,0,8.4-0.9,12.1-2.5 M67.9,40.7c0-11.7-8.1-21.6-19-24.3 M18.1,37.7c-0.1,1-0.2,2-0.2,3c0,13.8,11.2,25,25,25  c1.7,0,3.4-0.2,5-0.5 M69.9,52.2c-8,0-14.5,6.5-14.5,14.5s6.5,14.5,14.5,14.5s14.5-6.5,14.5-14.5S77.9,52.2,69.9,52.2z M73.8,60.4  c-1.7-3.6-9.8-2.6-7.7,2.9c1.6,4.3,2.5,6.9-1.7,9.9c1.9,0,9.4,0,9.4,0 M63.9,66.2h9 M30.6,26.3h7.9 M34.6,26.6l-0.1,9.9 M45.3,36.7  l-0.1-4.4l0-1.5c-0.1-0.4-0.2-0.8-0.5-1.1l-0.6-0.4c-0.8-0.4-1.9-0.4-2.8-0.1L39.7,30 M45.2,32.6L43,32.7c-0.1,0-0.1,0-0.2,0  c-1.1,0.2-2.1,0.3-2.6,0.9c-0.2,0.2-0.4,0.5-0.5,0.8L39.6,35c0,0.4,0,0.4,0.1,0.6l0.3,0.4c0.4,0.5,0.8,0.5,1.4,0.5l1-0.2  c0.5-0.1,0.9-0.3,1.3-0.6l1.1-1.2 M49.2,29.3l5.6,7.5 M48.9,36.9l5.8-7.4 M33.6,41.3l-6.5-0.1l0,4.8l-0.1,5.7 M32.9,46.4l-5.7-0.1   M36.8,44.2V52 M40.1,44.3l-1.5,0.6c-0.3,0.1-0.5,0.3-0.7,0.5L37,46.3 M43.4,47.7l5.3,0.1c0.4,0,0.5-0.7,0.4-1.1l0-0.2  c-0.1-0.9-0.7-1.7-1.5-2.1l-0.4-0.2c-0.4-0.2-0.8-0.3-1.3-0.3c-0.2,0-1,0.2-1.2,0.3l-0.6,0.3c-0.8,0.4-1.2,1.4-1.2,2.3l0,1.9  c0,0.9,0.4,1.9,1.1,2.4l0.6,0.3c1,0.4,2,0.5,3,0.1l1.3-0.5 M53.5,47.7l5.3,0.1c0.4,0,0.5-0.7,0.4-1.1l0-0.2  c-0.1-0.9-0.7-1.7-1.5-2.1l-0.4-0.2c-0.4-0.2-0.8-0.3-1.3-0.3c-0.2,0-1,0.2-1.2,0.3l-0.6,0.3C53.4,45.1,53,46.1,53,47l0,1.9  c0,0.9,0.4,1.9,1.1,2.4l0.6,0.3c1,0.4,2,0.5,3,0.1l1.3-0.5 M45.4,15.4h-0.7"/>
  </symbol>
  <symbol id="kids-account" viewBox="0 0 96 96">
    <path d="M54.7,69.2c-3.7,1.2-8.1,2.1-12.9,2.1c-15.1,0-25.8-8.8-25.8-8.8 M29.7,54.7l-4.8,12.8 M56.1,62.2  c0,0-2.2-7.6-2.5-7.7 M54.7,30.1c1.4,1.2,3.2,1.9,5.1,1.9c0.4,0,0.8,0,1.2-0.1 M67.7,24.4c0-0.1,0-0.2,0-0.3c0-4.4-3.5-7.9-7.9-7.9  c-2.8,0-5.3,1.5-6.7,3.7c-0.2,0.3-0.3,0.5-0.4,0.8c0,0.1-0.1,0.2-0.1,0.3l-5.7,14.4l-0.2,0.2H31.2c-2.6,0-4.5,2.6-4.5,5.2v8.8  c0,2.6,1.9,5,4.5,5h21c2.6,0,4.5-2.4,4.5-5v-6l0,0l0.8-12c0.7,0.2,1.5,0.3,2.3,0.3c0.8,0,1.6-0.1,2.4-0.4c0.9,1.3,2.4,2.1,4,2.1  c2.7,0,4.8-2.2,4.8-4.8C71,26.8,69.6,25,67.7,24.4z M59.7,11.5c-4.3,0-9,2.7-11.1,6.9c-0.5,1-0.5,1.1-0.5,1.1l-1,2.2l-1.8,4.5   M27.7,36.4c0,0-1.8-2.2-5.4-0.9c-3,1-4.5,4.6-3.2,8.2c0.8,2.2,0.9,5.8-3.9,7 M32.4,36.2c0,0.2,0,0.4,0,0.6c0,3.6,2.9,6.5,6.5,6.5  c3.6,0,6.5-2.9,6.5-6.5 M70.1,52.7c-8,0-14.5,6.5-14.5,14.5s6.5,14.5,14.5,14.5s14.5-6.5,14.5-14.5S78.1,52.7,70.1,52.7z M74.1,60.9  c-1.7-3.6-9.8-2.6-7.7,2.9c1.5,3.9,2.4,6.4-0.6,9.1c-0.3,0.3-0.1,0.8,0.3,0.8h8 M64.1,66.7h9 M43.7,29.5l-0.1,0.2"/>
  </symbol>
  <symbol id="limited-access" viewBox="0 0 96 96">
    <path d="M54.9,70.7c-3.7,2.2-8.1,3.5-12.8,3.5c-13.8,0-25-11.2-25-25s11.2-25,25-25s25,11.2,25,25c0,0.5,0,1,0,1.5   M27.8,36.7c-2.9,3.3-4.7,7.7-4.7,12.5c0,10.5,8.5,19,19,19c2.3,0,4.5-0.4,6.5-1.1 M42.1,30.7v19l8.5-9 M42.1,18.7v5 M35.6,17.2h13   M69.6,51.2c-8,0-14.5,6.5-14.5,14.5s6.5,14.5,14.5,14.5s14.5-6.5,14.5-14.5S77.6,51.2,69.6,51.2z M73.6,59.4  c-1.7-3.6-9.8-2.6-7.7,2.9c1.6,4.3,2.5,6.9-1.7,9.9c1.9,0,9.4,0,9.4,0 M63.6,65.2h9 M53.2,37.3l-0.3,0.3"/>
  </symbol>
  <symbol id="fixed-term" viewBox="0 0 96 96">
    <path d="M41.8,43.5c0,2.8-2.2,5-5,5s-5-2.2-5-5c0-2.8,2.2-5,5-5S41.8,40.7,41.8,43.5z M33.1,39.7l-2.5-2.5 M43.1,49.7  l-2.5-2.5 M33.1,47.2l-2.5,2.5 M40.6,39.7l2.5-2.5 M78.2,53.7V20.8c0-2-1.6-3.6-3.6-3.6H20.7c-2,0-3.6,1.6-3.6,3.6v41.8  c0,2,1.6,3.6,3.6,3.6h33.9 M24.1,66.7v2 M78.1,71.7 M78.1,69.7 M69.6,51.2c-8,0-14.5,6.5-14.5,14.5s6.5,14.5,14.5,14.5  s14.5-6.5,14.5-14.5S77.6,51.2,69.6,51.2z M73.6,59.4c-1.7-3.6-9.8-2.6-7.7,2.9c1.6,4.3,2.5,6.9-1.7,9.9c1.9,0,9.4,0,9.4,0   M63.6,65.2h9 M77.1,71.7 M69.1,29.7v-3.5c0-1.1-0.9-2-2-2h-41c-1.1,0-2,0.9-2,2v31c0,1.1,0.9,2,2,2h13.5 M39.6,59.2 M48.6,59.2   M55.6,59.2h-7 M69.1,36.7v10 M72.1,37.2v-6c0-0.6-0.4-1-1-1h-4c-0.6,0-1,0.4-1,1v6c0,0.6,0.4,1,1,1h4  C71.7,38.2,72.1,37.7,72.1,37.2z M72.1,51.7v-4.5c0-0.6-0.4-1-1-1h-4c-0.6,0-1,0.4-1,1v4.5 M44.4,59.1h-0.4 M36.4,43.4h0.4"/>
  </symbol>
  <symbol id="home-buyer" viewBox="0 0 96 96">
    <path d="M84.4,66.9c0,8-6.5,14.5-14.5,14.5s-14.5-6.5-14.5-14.5s6.5-14.5,14.5-14.5S84.4,58.9,84.4,66.9z M73.8,60.6  C72.2,57,64,58,66.1,63.5c1.4,3.8,2.3,6.3-0.3,8.8c-0.4,0.4-0.1,1.1,0.4,1.1h7.6 M63.9,66.4h9 M43.5,13.8L13.4,40.5  c-0.7,0.6-0.4,1.9,0.5,1.9h6.5v32.5c0,1.1,0.5,2.5,1.6,2.5h36.9 M67.5,52.2l-0.1-9.7H74c1,0,1.5-1.3,0.7-1.9L43.5,13.9 M40.4,76.9  v-16c0-1.1-1.3-1.5-2.4-1.5h-8c-1.1,0-1.6,0.4-1.6,1.5v7 M40.4,42.4c0-1.1-0.9-2-2-2h-8c-1.1,0-2,0.9-2,2v6c0,1.1,0.9,2,2,2h8  c1.1,0,2-0.9,2-2V42.4z M59.4,42.4c0-1.1-0.9-2-2-2h-8c-1.1,0-2,0.9-2,2v6c0,1.1,0.9,2,2,2h8c1.1,0,2-0.9,2-2V42.4z M55.9,60.4h-6.5  c-1.1,0-2,0.9-2,2v6c0,1.1,0.9,2,2,2h5.5 M28.4,71.7v0.4"/>
  </symbol>
  <symbol id="stocks" viewBox="0 0 96 96">
    <path d="M84.1,66.9c0,8-6.5,14.5-14.5,14.5s-14.5-6.5-14.5-14.5s6.5-14.5,14.5-14.5S84.1,58.9,84.1,66.9z M73.6,60.6  c-1.7-3.6-9.8-2.6-7.7,2.9c1.5,4,2.4,6.6-0.8,9.3c-0.3,0.2-0.1,0.6,0.2,0.6h8.4 M63.6,66.4h9 M72.6,31.9l-9.7,10.3l-5.4-5.4  L45.1,49.2l-6.8-6.8L24.6,55.9 M78.1,54.9v-32 M17.6,68.4h37 M21.2,59.1l0.2-0.2"/>
  </symbol>
  <symbol id="e-saver" viewBox="0 0 96 96">
    <path d="M83.9,66.7c0,8-6.5,14.5-14.5,14.5s-14.5-6.5-14.5-14.5s6.5-14.5,14.5-14.5S83.9,58.7,83.9,66.7z M73.3,60.4  c-1.7-3.6-9.8-2.6-7.7,2.9c1.5,3.9,2.4,6.4-0.6,9c-0.3,0.3-0.1,0.9,0.3,0.9h8 M63.4,66.2h9 M15.9,54.2h45.5 M24.4,73.2h31   M46.9,65.7l0,7.5 M25.4,27.2h43 M25.4,34.2h43 M29.9,42.2h38.5 M77.9,54.7V21.2c0-2.2-1.8-4-4-4h-55c-2.2,0-4,1.8-4,4v39  c0,2.2,1.8,4,4,4h35.5 M47,59.5v-0.3 M25.9,42h-0.4"/>
  </symbol>
  <symbol id="isa-transfer" viewBox="0 0 96 96">
    <path d="M34.1,55.2c-11.3,0-20.5-9.2-20.5-20.5s9.2-20.5,20.5-20.5s20.7,8.6,20.7,20 M57.4,34.2  c-6.4,0-12.3,2.6-16.5,6.8c-4.3,4.3-7,10.2-7,16.7c0,13,10.5,23.5,23.5,23.5s23.5-10.5,23.5-23.5S70.4,34.2,57.4,34.2z M70.7,69.6  l0.2-0.4 M73.2,66.2c1.4-2.5,2.1-5.4,2.1-8.5c0-3.9-1.3-7.5-3.4-10.5 M38.8,29.1c-1.8-3.8-10.5-2.8-8.2,3c1.8,4.6,2.7,7.6-1.8,10.6  c2.1,0,10.1,0,10.1,0 M26.9,35.7h10 M63.8,49.8c-2.4-5.1-14-3.9-11,3.9c2.3,6.2,3.6,10-2.4,14c2.8,0,13.5,0,13.5,0 M48.9,58.7h13   M67.3,26.1l6.8,3.8c-1.5-8.1-9.3-13.5-17.5-12 M75.8,22.5L74.1,30 M15.5,54.9C15.4,63.2,22,70,30.3,70.1L25.4,64 M23.3,73l7-2.9"/>
  </symbol>
  <symbol id="remember" viewBox="0 0 96 96">
    <path d="M35.24,70A15.16,15.16,0,0,0,46,64.69a17.24,17.24,0,0,0,14.35,7.79A17.63,17.63,0,0,0,77.69,55.33a12.93,12.93,0,0,0,0-25.4A17.61,17.61,0,0,0,60.31,13.78a17.33,17.33,0,0,0-15.26,9.3,15.17,15.17,0,0,0-25.46,7.77,12.92,12.92,0,0,0-.23,25.52,15.12,15.12,0,0,0,6.31,10.82m9.84,4.54a6,6,0,1,1-6-6A6,6,0,0,1,35.51,71.73Zm-14.93,8a4,4,0,1,1-4-4A4,4,0,0,1,20.58,79.69Zm18.9-33.82a1,1,0,0,1-2,0,1,1,0,1,1,2,0Zm10,0a1,1,0,0,1-2,0,1,1,0,1,1,2,0Zm10,0a1,1,0,0,1-2,0,1,1,0,1,1,2,0Zm1-25.37A10.7,10.7,0,0,1,71.05,31.21M55,21.35l.58-.39"/>
  </symbol>
  <symbol id="hospitality" viewBox="0 0 96 96">
    <path d="M73.19,60.32l-.64-.71M85,73.89a35.72,35.72,0,0,0-71.44,0M88.39,76l.08-.22H9.09l.08.22A11.91,11.91,0,0,0,20.32,83.7H77.24A11.9,11.9,0,0,0,88.39,76ZM48.87,29.13a4,4,0,1,0,4,4A4,4,0,0,0,48.87,29.13ZM70.05,56A28.13,28.13,0,0,0,48.49,46m-12-19.68a5.38,5.38,0,0,1,0-7.61h0a6,6,0,0,0,0-8.42M60.18,26.34a5.38,5.38,0,0,1,0-7.61h0a6,6,0,0,0,0-8.42m-12,13.12a5.4,5.4,0,0,1,0-7.62h0a6,6,0,0,0,0-8.42"/>
  </symbol>
  <symbol id="matchday-tickets" viewBox="0 0 96 96">
    <path d="M39.8,57.06H70.63M39.8,63H70.63M39.8,73h9.94m5,0H65.66m5.47-.29H70.5M83.57,65a3,3,0,0,1,3-3V49.1a2,2,0,0,0-2-2H12.94a2,2,0,0,0-2,2V62a3,3,0,0,1,0,6v13a2,2,0,0,0,2,2H84.56a2,2,0,0,0,2-2V68A3,3,0,0,1,83.57,65Zm-54-20.51.39,1.4m8-11.38,29.78-8M39.45,40.26l29.79-8M56.92,45.88,67.49,43m5-1.16h-.69m14.53,6.41,1.5-.41a2,2,0,0,0,1.41-2.43L85.89,32.93a3,3,0,0,1-1.54-5.77L81,14.7a2,2,0,0,0-2.43-1.41L9.38,31.85A2,2,0,0,0,8,34.28l3.34,12.46M28.85,82.52V79.35m0-5.07V71.11m0-5V62.94m0-5.21V54.57m0-4.59V47.11m1.52,0-1-3.34m-1.52-5.48L27,35.49m-1.39-5-1.26-2.68"/>
  </symbol>
  <symbol id="replica-shirt" viewBox="0 0 96 96">
    <path d="M27,39.78l-6.19,4.06-9-12.93L29.22,14.28H41.65l7,9.73,7-9.73H67.52l18.9,15.64-9,13.92-6.83-4.06-1,39.38h0a70.56,70.56,0,0,1-41.92,0h0ZM82.43,26.93,73.2,41.31m-48.46-.45L15.79,27.93m49.87-8.67H53.72m-21.88,0H44.77m5,25.86H35.82v10H61.68v-10h-3M38,32l-2.46,2.2h4.93Zm16.43,13.3H54M60.19,29.2a3.49,3.49,0,1,0,3.48,3.49A3.48,3.48,0,0,0,60.19,29.2Z"/>
  </symbol>
  <symbol id="stores" viewBox="0 0 96 96">
    <path d="M41.11,69.74v-.58m26.41-2.78v-.65M14.92,45.12H82.57M44.27,34.39H64.41m-20.14,4H64.41M40.7,13.29H19.76l-6,13.92H83.43l-6-13.92H40.7ZM80.58,27.21H16.91V83.92H80.58ZM45.76,52.08H25.87V83.92H45.76Zm26.86,0H52.73V74H72.62Zm-5,9v-4h-6M34.82,31.69a4.48,4.48,0,1,0,4.48,4.48A4.48,4.48,0,0,0,34.82,31.69Z"/>
  </symbol>
</svg>