<svg xmlns="http://www.w3.org/2000/svg" xmlns:xlink="http://www.w3.org/1999/xlink" version="1.1" class="visually-hidden">

  <symbol id="social-border" viewBox="0 0 32 32">
    <path d="M16,0 C24.836556,0 32,7.163444 32,16 C32,24.836556 24.836556,32 16,32 C7.163444,32 0,24.836556 0,16 C0,7.163444 7.163444,0 16,0 Z M16,1.5 C7.99187113,1.5 1.5,7.99187113 1.5,16 C1.5,24.0081289 7.99187113,30.5 16,30.5 C24.0081289,30.5 30.5,24.0081289 30.5,16 C30.5,7.99187113 24.0081289,1.5 16,1.5 Z" />
  </symbol>


  <!-- Facebook -->
  <symbol id="social-facebook" viewBox="0 0 32 32">
    <path d="M17.9438634,10.7740502 C17.6199631,10.7740502 17.2960627,11.1659167 17.2960627,11.6990374 L17.2960627,13.5116478 L20.5,13.5116478 L20.5,16.1426212 L17.2960627,16.1426212 L17.2960627,24 L14.237004,24 L14.237004,16.1426212 L11.5,16.1426212 L11.5,13.5116478 L14.237004,13.5116478 L14.237004,11.9824571 C14.237004,9.77889161 15.8205168,8 17.9438634,8 L20.5,8 L20.5,10.7740502 L17.9438634,10.7740502 Z" />
  </symbol>
  <symbol id="social-facebook-bg" viewBox="0 0 32 32">
    <circle fill="#3B5999" cx="16" cy="16" r="15"/>
  </symbol>

  <!-- Twitter -->
  <symbol id="social-twitter" viewBox="0 0 32 32">
    <path d="M22.3647856,13.2418569 L22.3647856,13.6598692 C22.3647856,18.0164254 19.0609481,23 13.0437923,23 C11.1656885,23 9.46094808,22.4779371 8,21.5360523 C8.24379233,21.5713391 8.5227991,21.5713391 8.8,21.5713391 C10.330474,21.5713391 11.7571106,21.0492762 12.8704289,20.1770601 C11.4428894,20.1426782 10.2257336,19.2007934 9.80857788,17.877088 C9.98374718,17.9458519 10.1923251,17.9458519 10.4009029,17.9458519 C10.7133183,17.9458519 10.9923251,17.9123747 11.269526,17.8418012 C9.77336343,17.5278396 8.66094808,16.2041342 8.66094808,14.5999443 L8.66094808,14.5664671 C9.07900677,14.8089504 9.6,14.9491927 10.1218962,14.9844794 C9.2523702,14.3909382 8.66094808,13.3802895 8.66094808,12.2312082 C8.66094808,11.6385718 8.83521445,11.0803174 9.11241535,10.5917316 C10.7485327,12.578647 13.1476298,13.904162 15.8952596,14.0082127 C15.8257336,13.7983018 15.7905192,13.5196269 15.7905192,13.2762389 C15.7905192,11.4630429 17.2523702,10 19.0961625,10 C20.0343115,10 20.869526,10.3827255 21.4600451,11.0115535 C22.2266366,10.8713112 22.9209932,10.5917316 23.5485327,10.2433881 C23.3047404,11.0115535 22.7828442,11.6385718 22.1218962,12.0556793 C22.7828442,11.9516286 23.4085779,11.7779092 24,11.5336164 C23.5485327,12.1959215 22.9914221,12.7532712 22.3647856,13.2418569" />
  </symbol>
  <symbol id="social-twitter-bg" viewBox="0 0 32 32">
    <circle fill="#55ACEE" cx="16" cy="16" r="15"/>
  </symbol>

  <!-- Flickr -->
  <symbol id="social-flickr" viewBox="0 0 32 32">
    <path d="M20.9992347,13 C22.6530612,13 24,14.32075 24,16 C24,17.65 22.6530612,19 20.9992347,19 C19.3469388,19 18,17.65 18,16 C18,14.32075 19.3469388,13 20.9992347,13 Z M10.9992347,13 C12.6530612,13 14,14.32075 14,16 C14,17.65 12.6530612,19 10.9992347,19 C9.34693878,19 8,17.65 8,16 C8,14.32075 9.34693878,13 10.9992347,13 Z" />
  </symbol>
  <symbol id="social-flickr-bg" viewBox="0 0 32 32">
    <circle fill="#FF0084" cx="16" cy="16" r="15"/>
  </symbol>

  <!-- Linkedin -->
  <symbol id="social-linkedin" viewBox="0 0 32 32">
    <path d="M13.4754606,12.9676923 L16.4263817,12.9676923 L16.6052595,14.4003077 L16.6761356,14.4003077 C17.1013922,13.7335824 18.2050345,12.7345495 20.0534383,12.7345495 C22.3282239,12.7345495 24,14.1344615 24,17.1674286 L24,23.2692308 L20.5866967,23.2692308 L20.5866967,17.5672527 C20.5866967,16.2348571 20.0894389,15.3339341 18.8440444,15.3339341 C17.920405,15.3339341 17.3511461,15.9352527 17.1013922,16.5344615 C16.9956406,16.7338462 16.9956406,17.0355604 16.9956406,17.3351648 L16.9956406,23.2692308 L13.5474617,23.2692308 L13.5474617,16.2686154 C13.5474617,14.9678681 13.5114611,13.9013187 13.4754606,12.9676923 L13.4754606,12.9676923 Z M8.10687667,12.9676923 L11.52018,12.9676923 L11.52018,23.2692308 L8.10687667,23.2692308 L8.10687667,12.9676923 Z M9.77865279,11.7007033 C8.71101111,11.7007033 8,10.9664615 8,10.0992967 C8,9.19942857 8.71101111,8.5 9.81352834,8.5 C10.9160456,8.5 11.5910561,9.19942857 11.6270567,10.0992967 C11.6270567,10.9664615 10.9160456,11.7007033 9.77865279,11.7007033 L9.77865279,11.7007033 Z" />
  </symbol>
  <symbol id="social-linkedin-bg" viewBox="0 0 32 32">
    <circle fill="#0077B5" cx="16" cy="16" r="15"/>
  </symbol>

  <!-- Linkedin -->
  <symbol id="social-youtube" viewBox="0 0 32 32">
    <path d="M14.1590909,19.0172841 L14.1590909,13.6645341 L18.8636364,16.3410114 L14.1590909,19.0172841 Z M24.6238409,11.9803068 C24.4168409,11.2007841 23.8068864,10.5869432 23.0324773,10.3786136 C21.6287841,10 16,10 16,10 C16,10 10.3712159,10 8.96752273,10.3786136 C8.19311364,10.5869432 7.58315909,11.2007841 7.37615909,11.9803068 C7,13.3931023 7,16.3409091 7,16.3409091 C7,16.3409091 7,19.2886136 7.37615909,20.7015114 C7.58315909,21.4810341 8.19311364,22.094875 8.96752273,22.3033068 C10.3712159,22.6818182 16,22.6818182 16,22.6818182 C16,22.6818182 21.6287841,22.6818182 23.0324773,22.3033068 C23.8068864,22.094875 24.4168409,21.4810341 24.6238409,20.7015114 C25,19.2886136 25,16.3409091 25,16.3409091 C25,16.3409091 25,13.3931023 24.6238409,11.9803068 L24.6238409,11.9803068 Z" />
  </symbol>
  <symbol id="social-youtube-bg" viewBox="0 0 32 32">
    <circle fill="#FF0000" cx="16" cy="16" r="15"/>
  </symbol>

  <!-- Email -->
  <symbol id="social-email" viewBox="0 0 32 32">
    <path d="M24,9.25 L24,10.75 L8.91826122,10.75 C8.82533315,10.75 8.74999933,10.8253331 8.74999933,10.9189341 C8.74996557,10.9569565 8.76393673,10.9931733 8.80153069,11.0305953 L8.84735513,11.0685306 L10.0456278,11.9922415 L15.633,16.541 L15.8808458,16.3696407 L21.6979186,11.741045 C22.1295285,11.3908887 22.723661,11.3191695 23.2261955,11.5565631 C23.686852,11.7741739 23.9957641,12.2162013 24.0468788,12.7202476 L24.0543478,12.8591304 L24.0543478,22.5217388 C24.0543478,22.9014346 23.772194,23.2152298 23.4061184,23.2648922 L23.3043478,23.2717388 L8,23.2717388 C7.62030423,23.2717388 7.30650904,22.989585 7.25684662,22.6235094 L7.24999933,22.5217388 L7.24999933,14.1739129 L8.74999933,14.1739129 L8.74999933,21.771 L22.554,21.771 L22.554,12.976 L16.772,17.574 L16.7912148,17.5944254 C17.2231041,18.0720015 17.3691231,18.4505771 17.3876496,18.9857574 L17.3897339,19.1121569 C17.3647552,20.0493138 16.6143766,20.8049768 15.6521741,20.8369563 C14.6616634,20.8369563 13.8586959,20.0339887 13.8587334,19.0359784 C13.8638734,18.5219783 14.0684687,18.0503499 14.4514603,17.5903478 L14.491,17.544 L9.11438469,13.167991 L7.9626428,12.2792422 C7.51589037,11.9699357 7.24951256,11.4609641 7.24999933,10.9182608 C7.24999933,10.0453982 7.9203535,9.3291049 8.77431728,9.25612351 L8.91826122,9.25 L24,9.25 Z M15.623,18.536 L15.5825928,18.5835822 C15.4336463,18.7679015 15.3599148,18.9230894 15.3586959,19.0434781 C15.3586959,19.2055616 15.4900905,19.3369563 15.6269302,19.3373812 C15.7710246,19.3325285 15.886425,19.2163154 15.8900002,19.0921737 C15.8900002,18.930673 15.8524767,18.8002578 15.6791146,18.5985863 L15.623,18.536 Z" />
  </symbol>
  <symbol id="social-email-bg" viewBox="0 0 32 32">
    <circle fill="#D03788" cx="16" cy="16" r="15"/>
  </symbol>
  <!-- Linkedin -->

  <symbol id="social-instagram" viewBox="0 0 32 32">
    <path d="M16.9394207,8.00073355 C17.8105177,8.00270501 18.2454072,8.00838169 18.6383998,8.02102389 L18.908624,8.03092909 C19.0300561,8.03586161 19.1561366,8.04152482 19.2983519,8.04801369 C20.1498655,8.08685165 20.7314187,8.22210176 21.2402818,8.41988003 C21.7663567,8.62429537 22.2125011,8.89784419 22.6572799,9.34259125 C23.1020269,9.78737007 23.3755758,10.2335144 23.5800229,10.7595894 C23.7777694,11.2684524 23.9130195,11.8500056 23.9518574,12.7015192 C23.9599685,12.8792884 23.9667895,13.0318468 23.9725059,13.1816295 L23.9788472,13.3614721 C23.9914894,13.7544662 23.9971661,14.1893599 23.9991376,15.0604688 L23.9991376,16.9394207 C23.9971661,17.8105177 23.9914894,18.2454072 23.9788472,18.6383998 L23.9725059,18.8182419 C23.9667895,18.9680243 23.9599685,19.1205827 23.9518574,19.2983519 C23.9130195,20.1498655 23.7777694,20.7314187 23.5800229,21.2402818 C23.3755758,21.7663567 23.1020269,22.2125011 22.6572799,22.6572799 C22.2125011,23.1020269 21.7663567,23.3755758 21.2402818,23.5800229 C20.7314187,23.7777694 20.1498655,23.9130195 19.2983519,23.9518574 C19.1205827,23.9599685 18.9680243,23.9667895 18.8182419,23.9725059 L18.6383998,23.9788472 C18.2454072,23.9914894 17.8105177,23.9971661 16.9394207,23.9991376 L16.2618178,23.9999506 L16.2618178,23.9999506 L15.9999514,24 C15.9094222,24 15.8221919,23.999984 15.7380813,23.9999506 L15.0604688,23.9991376 C14.1893599,23.9971661 13.7544662,23.9914894 13.3614721,23.9788472 L13.1816295,23.9725059 C13.0318468,23.9667895 12.8792884,23.9599685 12.7015192,23.9518574 C11.8500056,23.9130195 11.2684524,23.7777694 10.7595894,23.5800229 C10.2335144,23.3755758 9.78737007,23.1020269 9.34259125,22.6572799 C8.89784419,22.2125011 8.62429537,21.7663567 8.41988003,21.2402818 C8.22210176,20.7314187 8.08685165,20.1498655 8.04801369,19.2983519 C8.04152482,19.1561366 8.03586161,19.0300561 8.03092909,18.908624 L8.02102389,18.6383998 C8.00838169,18.2454072 8.00270501,17.8105177 8.00073355,16.9394207 L8.00073355,15.0604688 C8.00270501,14.1893599 8.00838169,13.7544662 8.02102389,13.3614721 L8.03092909,13.0912473 C8.03586161,12.969815 8.04152482,12.8437346 8.04801369,12.7015192 C8.08685165,11.8500056 8.22210176,11.2684524 8.41988003,10.7595894 C8.62429537,10.2335144 8.89784419,9.78737007 9.34259125,9.34259125 C9.78737007,8.89784419 10.2335144,8.62429537 10.7595894,8.41988003 C11.2684524,8.22210176 11.8500056,8.08685165 12.7015192,8.04801369 C12.8437346,8.04152482 12.969815,8.03586161 13.0912473,8.03092909 L13.3614721,8.02102389 C13.7544662,8.00838169 14.1893599,8.00270501 15.0604688,8.00073355 Z M16.7175475,9.44174746 L15.2823449,9.44174746 C14.3593456,9.44304025 13.8981277,9.44754055 13.5055665,9.45877111 L13.327828,9.46444516 C13.1521015,9.47062275 12.9781167,9.47834946 12.767223,9.48797162 C11.9872246,9.52353868 11.5636273,9.65386656 11.2817266,9.76342582 C10.9083042,9.90855213 10.6418052,10.0819098 10.3618734,10.3618734 C10.0819098,10.6418052 9.90855213,10.9083042 9.76342582,11.2817266 C9.65386656,11.5636273 9.52353868,11.9872246 9.48797162,12.767223 C9.47834946,12.9781167 9.47062275,13.1521015 9.46444516,13.327828 L9.45877111,13.5055665 C9.44754055,13.8981277 9.44304025,14.3593456 9.44174746,15.2823449 L9.44174746,16.7175475 C9.44304025,17.6405336 9.44754055,18.1017465 9.45877111,18.4943058 L9.46444516,18.6720436 C9.47062275,18.8477696 9.47834946,19.0217545 9.48797162,19.2326481 C9.52353868,20.0126465 9.65386656,20.4362439 9.76342582,20.7181446 C9.90855213,21.091567 10.0819416,21.3580659 10.3618734,21.6379977 C10.6418052,21.9179613 10.9083042,22.091319 11.2817266,22.2364453 C11.5636273,22.3460046 11.9872246,22.4763324 12.767223,22.5118995 C12.9429479,22.519918 13.093043,22.5266202 13.2398773,22.5322065 L13.4159448,22.5383873 C13.8297977,22.5516192 14.2882342,22.5567314 15.2822954,22.5581237 L16.7175983,22.5581237 C17.6406454,22.5568309 18.1018669,22.5523306 18.4943975,22.5411 L18.6721195,22.535426 C18.8478272,22.5292484 19.0217862,22.5215217 19.2326481,22.5118995 C20.0126465,22.4763324 20.4362439,22.3460046 20.7181446,22.2364453 C21.091567,22.091319 21.3580659,21.9179613 21.6379977,21.6379977 C21.9179613,21.3580659 22.091319,21.091567 22.2364453,20.7181446 C22.3460046,20.4362439 22.4763324,20.0126465 22.5118995,19.2326481 C22.5215217,19.0217545 22.5292484,18.8477696 22.535426,18.6720436 L22.5411,18.4943058 C22.5523306,18.1017465 22.5568309,17.6405336 22.5581237,16.7175475 L22.5581237,15.2823449 C22.5568309,14.3593456 22.5523306,13.8981277 22.5411,13.5055665 L22.535426,13.327828 C22.5292484,13.1521015 22.5215217,12.9781167 22.5118995,12.767223 C22.4763324,11.9872246 22.3460046,11.5636273 22.2364453,11.2817266 C22.091319,10.9083042 21.9179613,10.6418052 21.6379977,10.3618734 C21.3580659,10.0819098 21.091567,9.90855213 20.7181446,9.76342582 C20.4362439,9.65386656 20.0126465,9.52353868 19.2326481,9.48797162 C19.0217545,9.47834946 18.8477696,9.47062275 18.6720436,9.46444516 L18.4943058,9.45877111 C18.1017465,9.44754055 17.6405336,9.44304025 16.7175475,9.44174746 Z M15.9999514,11.8917969 C18.2688125,11.8917969 20.1080742,13.7310587 20.1080742,15.9999514 C20.1080742,18.2688125 18.2688125,20.1080742 15.9999514,20.1080742 C13.7310587,20.1080742 11.8917969,18.2688125 11.8917969,15.9999514 C11.8917969,13.7310587 13.7310587,11.8917969 15.9999514,11.8917969 Z M15.9999514,13.3332474 C14.5271575,13.3332474 13.3332474,14.5271575 13.3332474,15.9999514 C13.3332474,17.4727136 14.5271575,18.6666237 15.9999514,18.6666237 C17.4727136,18.6666237 18.6666237,17.4727136 18.6666237,15.9999514 C18.6666237,14.5271575 17.4727136,13.3332474 15.9999514,13.3332474 Z M20.2703807,10.7694656 C20.8005839,10.7694656 21.2304055,11.1992872 21.2304055,11.7294905 C21.2304055,12.2596937 20.8005839,12.6894836 20.2703807,12.6894836 C19.7402091,12.6894836 19.3103875,12.2596937 19.3103875,11.7294905 C19.3103875,11.1992872 19.7402091,10.7694656 20.2703807,10.7694656 Z" />
  </symbol>
  <symbol id="social-instagram-bg" viewBox="0 0 32 32">
    <circle fill="#F00175" cx="16" cy="16" r="15"/>
  </symbol>

  
</svg>