<svg xmlns="http://www.w3.org/2000/svg" xmlns:xlink="http://www.w3.org/1999/xlink" version="1.1" class="visually-hidden">

	<symbol id="anchor" viewBox="0 0 24 24">
	  <path d="M12.863961,15.5533009 L16.947592,11.4696699 C17.2404852,11.1767767 17.7153589,11.1767767 18.0082521,11.4696699 C18.3011454,11.7625631 18.3011454,12.2374369 18.0082521,12.5303301 L12.113961,18.4246212 L6.21966991,12.5303301 C5.9267767,12.2374369 5.9267767,11.7625631 6.21966991,11.4696699 C6.51256313,11.1767767 6.98743687,11.1767767 7.28033009,11.4696699 L11.363961,15.5533009 L11.363961,9 C11.363961,8.58578644 11.6997475,8.25 12.113961,8.25 C12.5281746,8.25 12.863961,8.58578644 12.863961,9 L12.863961,15.5533009 Z M12.113961,7 C11.5616763,7 11.113961,6.55228475 11.113961,6 C11.113961,5.44771525 11.5616763,5 12.113961,5 C12.6662458,5 13.113961,5.44771525 13.113961,6 C13.113961,6.55228475 12.6662458,7 12.113961,7 Z" />
	</symbol>

	<symbol id="attention" viewBox="0 0 24 24">
		<path d="M10.4285714,2.64285714 C10.4285714,2.28781695 10.9082663,2 11.5,2 C12.0917337,2 12.5714286,2.28781695 12.5714286,2.64285714 L12.5714286,15.9285714 C12.5714286,16.2836116 12.0917337,16.5714286 11.5,16.5714286 C10.9082663,16.5714286 10.4285714,16.2836116 10.4285714,15.9285714 L10.4285714,2.64285714 Z M11.5,21.2857143 C10.6715729,21.2857143 10,20.6141414 10,19.7857143 C10,18.9572872 10.6715729,18.2857143 11.5,18.2857143 C12.3284271,18.2857143 13,18.9572872 13,19.7857143 C13,20.6141414 12.3284271,21.2857143 11.5,21.2857143 Z"/>
	</symbol>

	<symbol id="back" viewBox="0 0 24 24">
		<use transform="translate(12.000000, 12.000000) rotate(90.000000) translate(-12.000000, -12.000000) " xlink:href="#anchor"/>
	</symbol>

	<symbol id="chevron-right" viewBox="0 0 24 24">
		<path d="M15.1557697,11.6850388 C15.3853252,11.9101485 15.5,12.2049844 15.5,12.5000272 C15.5,12.7950699 15.3853252,13.0903196 15.1557697,13.3150156 C15.1557697,13.3150156 10.9513013,17.7512091 10.5214252,18.1728761 C10.0911374,18.5945431 9.31744272,18.6233025 8.85791998,18.1728761 C8.39901488,17.7230704 8.36257423,17.0949148 8.85833174,16.5428993 L12.7152757,12.4998203 L8.85833174,8.45694815 C8.36257423,7.90472575 8.39922076,7.27677708 8.85791998,6.82676445 C9.3176486,6.37675181 10.0911374,6.40551124 10.5214252,6.82717825 C10.9513013,7.24884526 15.1557697,11.6850388 15.1557697,11.6850388 Z"/>
	</symbol>

	<symbol id="chevron-down" viewBox="0 0 24 24">
		<use transform="translate(12.000000, 12.000000) rotate(90.000000) translate(-12.000000, -12.000000) " xlink:href="#chevron-right"/>
	</symbol>

	<symbol id="chevron-up" viewBox="0 0 24 24">
		<use transform="translate(12.000000, 12.000000) rotate(-90.000000) translate(-12.000000, -12.000000) " xlink:href="#chevron-right"/>
	</symbol>

	<symbol id="chevron-left" viewBox="0 0 24 24">
		<use transform="translate(12.000000, 12.000000) rotate(180.000000) translate(-12.000000, -12.000000) " xlink:href="#chevron-right"/>
	</symbol>

	<symbol id="close" viewBox="0 0 24 24">
		<path d="M12.0389117,10.6147423 L17.3264633,5.32719069 C17.7197369,4.93391715 18.3573592,4.93391715 18.7506328,5.32719069 C19.1439063,5.72046423 19.1439063,6.35808662 18.7506328,6.75136015 L13.4630812,12.0389117 L18.6728093,17.2486398 C19.0660828,17.6419134 19.0660828,18.2795358 18.6728093,18.6728093 C18.2795358,19.0660828 17.6419134,19.0660828 17.2486398,18.6728093 L12.0389117,13.4630812 L6.79694809,18.7050448 C6.40367455,19.0983184 5.76605216,19.0983184 5.37277862,18.7050448 C4.97950508,18.3117713 4.97950508,17.6741489 5.37277862,17.2808754 L10.6147423,12.0389117 L5.29495515,6.71912462 C4.90168162,6.32585108 4.90168162,5.68822869 5.29495515,5.29495515 C5.68822869,4.90168162 6.32585108,4.90168162 6.71912462,5.29495515 L12.0389117,10.6147423 Z" />
	</symbol>

	<symbol id="delete" viewBox="0 0 24 24">
		<path d="M14.2804927,5.6875 L17.45,5.6875 C18.1772725,5.6875 18.7137308,6.27769818 18.8002451,7.05756832 C18.8082403,7.09803907 18.8125,7.14134963 18.8125,7.1875 L18.8125,8.5 C18.8125,8.81066017 18.5606602,9.0625 18.25,9.0625 L18.0515233,9.0625 C18.0516445,9.10121249 18.0517653,9.14190622 18.0518857,9.18458254 C18.0531778,9.64236759 18.0544321,10.3287827 18.0556489,11.2439329 C18.058082,13.0738893 18.0603657,15.8186926 18.0624999,19.4783954 C18.0625,20.3537675 17.3516068,21.0625 16.4756098,21.0625 L8.02439024,21.0625 C7.14839323,21.0625 6.4375,20.3537675 6.4375,19.4787234 L6.4375,9.0625 L6.25,9.0625 C5.93933983,9.0625 5.6875,8.81066017 5.6875,8.5 L5.6875,7.1875 C5.6875,7.14134963 5.69175971,7.09803907 5.69975491,7.05756832 C5.78626923,6.27769818 6.32272754,5.6875 7.05,5.6875 L10.2195073,5.6875 C10.1987789,5.62885395 10.1875,5.56574414 10.1875,5.5 C10.1875,4.36087274 11.1109887,3.4375 12.25,3.4375 C13.3890113,3.4375 14.3125,4.36087274 14.3125,5.5 C14.3125,5.56574414 14.3012211,5.62885395 14.2804927,5.6875 Z M13.2195073,5.6875 C13.1987789,5.62885395 13.1875,5.56574414 13.1875,5.5 C13.1875,4.98222472 12.7677226,4.5625 12.25,4.5625 C11.7322774,4.5625 11.3125,4.98222472 11.3125,5.5 C11.3125,5.56574414 11.3012211,5.62885395 11.2804927,5.6875 L13.2195073,5.6875 Z M7.5625,9.0625 L7.5625,19.4787234 C7.5625,19.7316793 7.76894823,19.9375 8.02439024,19.9375 L16.4756098,19.9375 C16.7309966,19.9375 16.9374108,19.7317682 16.9375,19.4788874 C16.935366,15.8195233 16.9330826,13.0750195 16.9306499,11.2454288 C16.9294338,10.3307917 16.9281804,9.64486646 16.9268902,9.18775788 C16.9267664,9.14389304 16.9266422,9.10213991 16.9265178,9.0625 L7.5625,9.0625 Z M9.5625,11.0625 L10.6875,11.0625 L10.6875,17.4375 L9.5625,17.4375 L9.5625,11.0625 Z M13.3125,11.0625 L14.4375,11.0625 L14.4375,17.4375 L13.3125,17.4375 L13.3125,11.0625 Z M17.6875,7.9375 L17.6875,7.28125 C17.6875,6.96718651 17.5632151,6.8125 17.45,6.8125 L7.05,6.8125 C6.93678492,6.8125 6.8125,6.96718651 6.8125,7.28125 L6.8125,7.9375 L17.6875,7.9375 Z" />
	</symbol>

	<symbol id="document" viewBox="0 0 24 24">
		<path d="M13.5625,3.6875 L6.18745,3.6875 L6.18745,20.3125 L17.81245,20.3125 L17.81245,8.4375 L14.69575,8.4375 C14.1150208,8.4375 13.5625,8.01276659 13.5625,7.40425 L13.5625,3.6875 Z M14.6875,4.47326207 L14.6875,7.31613958 C14.6882757,7.31425665 15.6202586,7.31308968 17.4834487,7.31263867 C17.0268104,6.84726685 16.0948275,5.90080798 14.6875,4.47326207 Z M13.9497,2.5625 C14.2716901,2.5625 14.5306156,2.71517047 14.7685162,2.95308782 L18.5994476,6.83400244 C18.8159433,7.05049819 18.93745,7.34407484 18.93745,7.65025 L18.93745,20.375 C18.93745,20.961703 18.4618173,21.4375 17.87495,21.4375 L6.12495,21.4375 C5.53928983,21.4375 5.06245,20.9606602 5.06245,20.375 L5.06245,3.625 C5.06245,3.03833983 5.53828983,2.5625 6.12495,2.5625 L13.9497,2.5625 Z M8.0625,8.4375 L8.0625,7.3125 L12.1875,7.3125 L12.1875,8.4375 L8.0625,8.4375 Z M8.0625,11.4375 L8.0625,10.3125 L15.9375,10.3125 L15.9375,11.4375 L8.0625,11.4375 Z M8.0625,14.4375 L8.0625,13.3125 L15.9375,13.3125 L15.9375,14.4375 L8.0625,14.4375 Z M8.0625,17.4375 L8.0625,16.3125 L15.9375,16.3125 L15.9375,17.4375 L8.0625,17.4375 Z"/>
	</symbol>

	<symbol id="download" viewBox="0 0 24 24">
		<path d="M12.6923077,13.1283883 L16.2706377,9.55005828 C16.5410007,9.27969531 16.9793456,9.27969531 17.2497086,9.55005828 C17.5200716,9.82042125 17.5200716,10.2587662 17.2497086,10.5291292 L11.8088245,15.9700133 L6.3679404,10.5291292 C6.09757743,10.2587662 6.09757743,9.82042125 6.3679404,9.55005828 C6.63830337,9.27969531 7.07664836,9.27969531 7.34701133,9.55005828 L11.3076923,13.5107393 L11.3076923,4.91093117 C11.3076923,4.40783778 11.617649,4 12,4 C12.382351,4 12.6923077,4.40783778 12.6923077,4.91093117 L12.6923077,13.1283883 Z M17.0526316,17.6153846 C17.5758487,17.6153846 18,17.9253413 18,18.3076923 C18,18.6900433 17.5758487,19 17.0526316,19 L6.94736842,19 C6.42415129,19 6,18.6900433 6,18.3076923 C6,17.9253413 6.42415129,17.6153846 6.94736842,17.6153846 L17.0526316,17.6153846 Z" />
	</symbol>

	<symbol id="external" viewBox="0 0 24 24">
		<path d="M17.1721271,5.86363636 L12.7954545,5.86363636 C12.4188968,5.86363636 12.1136364,5.55837597 12.1136364,5.18181818 C12.1136364,4.8052604 12.4188968,4.5 12.7954545,4.5 L18.2493182,4.5 C18.9585523,4.5 19.5,5.181713 19.5,5.85818182 L19.5,10.9772727 C19.5,11.3538305 19.1947396,11.6590909 18.8181818,11.6590909 C18.441624,11.6590909 18.1363636,11.3538305 18.1363636,10.9772727 L18.1363636,6.82787288 L9.8684819,15.0957546 C9.60221533,15.3620212 9.17051194,15.3620212 8.90424538,15.0957546 C8.63797881,14.8294881 8.63797881,14.3977847 8.90424538,14.1315181 L17.1721271,5.86363636 Z M16.3181818,12.7954545 C16.3181818,12.4188968 16.6234422,12.1136364 17,12.1136364 C17.3765578,12.1136364 17.6818182,12.4188968 17.6818182,12.7954545 L17.6818182,17.6213656 C17.6818182,18.9458268 16.7248472,19.7272727 15.3691129,19.7272727 L6.50056596,19.7272727 C5.30852834,19.7272727 4.5,18.8034318 4.5,17.6213656 L4.5,8.73090909 C4.5,7.174559 5.29873643,6.54545455 6.7675,6.54545455 L11.4318182,6.54545455 C11.808376,6.54545455 12.1136364,6.85071494 12.1136364,7.22727273 C12.1136364,7.60383051 11.808376,7.90909091 11.4318182,7.90909091 L6.7675,7.90909091 C5.99006163,7.90909091 5.86363636,8.00866656 5.86363636,8.73090909 L5.86363636,17.6213656 C5.86363636,18.0877568 6.10508102,18.3636364 6.50056596,18.3636364 L15.3691129,18.3636364 C16.0257562,18.3636364 16.3181818,18.1248467 16.3181818,17.6213656 L16.3181818,12.7954545 Z" />
	</symbol>

	<symbol id="down" viewBox="0 0 24 24">
		<path d="M12.942809,14.4010115 L16.3832019,10.9606186 C16.7513917,10.5924287 17.3471716,10.5912549 17.7139135,10.9579968 C18.0806553,11.3247386 18.0794815,11.9205185 17.7112917,12.2887083 L11.987434,18.012566 L6.28608654,12.3112185 C5.91934468,11.9444766 5.9205185,11.3486968 6.28870833,10.9805069 C6.65689817,10.6123171 7.25267802,10.6111433 7.61941988,10.9778851 L11.057191,14.4156562 L11.057191,6.93910127 C11.057191,6.42044996 11.4793009,6 12,6 C12.5206991,6 12.942809,6.42044996 12.942809,6.93910127 L12.942809,14.4010115 Z" />
	</symbol>

	<symbol id="left" viewBox="0 0 24 24">
		<use transform="translate(12.000000, 12.000000) rotate(90.000000) translate(-12.000000, -12.000000) " xlink:href="#down"/>
	</symbol>

	<symbol id="right" viewBox="0 0 24 24">
		<use transform="translate(12.000000, 12.000000) rotate(-90.000000) translate(-12.000000, -12.000000) " xlink:href="#down"/>
	</symbol>

	<symbol id="up" viewBox="0 0 24 24">
		<use transform="translate(12.000000, 12.000000) rotate(180.000000) translate(-12.000000, -12.000000) " xlink:href="#down"/>
	</symbol>

	<symbol id="info" viewBox="0 0 24 24">
		<path d="M12,24 C5.372583,24 0,18.627417 0,12 C0,5.372583 5.372583,0 12,0 C18.627417,0 24,5.372583 24,12 C24,18.627417 18.627417,24 12,24 Z M12,8.25 C12.8284271,8.25 13.5,7.57842712 13.5,6.75 C13.5,5.92157288 12.8284271,5.25 12,5.25 C11.1715729,5.25 10.5,5.92157288 10.5,6.75 C10.5,7.57842712 11.1715729,8.25 12,8.25 Z M11.25,16.5 L10.125,16.5 C9.50367966,16.5 9,17.0036797 9,17.625 C9,18.2463203 9.50367966,18.75 10.125,18.75 L14.625,18.75 C15.2463203,18.75 15.75,18.2463203 15.75,17.625 C15.75,17.0036797 15.2463203,16.5 14.625,16.5 L13.5,16.5 L13.5,10.5 C13.5,10.0857864 13.1642136,9.75 12.75,9.75 L10.125,9.75 C9.50367966,9.75 9,10.2536797 9,10.875 C9,11.4963203 9.50367966,12 10.125,12 L11.25,12 L11.25,16.5 Z" />
	</symbol>

	<symbol id="minus" viewBox="0 0 24 24">
		<path d="M6,11 L19,11 C19.5522847,11 20,11.4256965 20,11.9508197 L20,12.0491803 C20,12.5743035 19.5522847,13 19,13 L6,13 C5.44771525,13 5,12.5743035 5,12.0491803 L5,11.9508197 C5,11.4256965 5.44771525,11 6,11 Z" />
	</symbol>

	<symbol id="new-window" viewBox="0 0 24 24">
		<path d="M14.7727273,15.1818182 L16.2727273,15.1818182 L16.2727273,18.4772727 C16.2727273,19.2680772 15.6317136,19.9090909 14.8409091,19.9090909 L5.29545455,19.9090909 C4.50465007,19.9090909 3.86363636,19.2680772 3.86363636,18.4772727 L3.86363636,11.4318182 C3.86363636,10.6410137 4.50465007,10 5.29545455,10 L5.86363636,10 L5.86363636,11.5 L5.36363636,11.5 L5.36363636,18.4090909 L14.7727273,18.4090909 L14.7727273,15.1818182 Z M19.6818182,12.3409091 C19.6818182,13.1317136 19.0408045,13.7727273 18.25,13.7727273 L8.70454545,13.7727273 C7.91374098,13.7727273 7.27272727,13.1317136 7.27272727,12.3409091 L7.27272727,5.29545455 C7.27272727,4.50465007 7.91374098,3.86363636 8.70454545,3.86363636 L18.25,3.86363636 C19.0408045,3.86363636 19.6818182,4.50465007 19.6818182,5.29545455 L19.6818182,12.3409091 Z M18.1818182,5.36363636 L8.77272727,5.36363636 L8.77272727,12.2727273 L18.1818182,12.2727273 L18.1818182,5.36363636 Z M13.8181818,7.5 C13.5075216,7.5 13.2556818,7.24816017 13.2556818,6.9375 C13.2556818,6.62683983 13.5075216,6.375 13.8181818,6.375 L16.4318182,6.375 C16.7424784,6.375 16.9943182,6.62683983 16.9943182,6.9375 L16.9943182,10.2329545 C16.9943182,10.5436147 16.7424784,10.7954545 16.4318182,10.7954545 C16.121158,10.7954545 15.8693182,10.5436147 15.8693182,10.2329545 L15.8693182,7.5 L13.8181818,7.5 Z" />
	</symbol>

	<symbol id="pdf" viewBox="0 0 24 24">
		<path d="M13.5625,3.6875 L6.18745,3.6875 L6.18745,20.3125 L17.81245,20.3125 L17.81245,8.4375 L14.69575,8.4375 C14.1150208,8.4375 13.5625,8.01276659 13.5625,7.40425 L13.5625,3.6875 Z M14.6875,4.47326207 L14.6875,7.31613958 C14.6882757,7.31425665 15.6202586,7.31308968 17.4834487,7.31263867 C17.0268104,6.84726685 16.0948275,5.90080798 14.6875,4.47326207 Z M12.2413837,12.276756 C12.6851103,12.8577569 13.2911514,13.5984923 13.7582964,14.1372984 C14.1075388,14.122671 14.4130717,14.1236082 14.6410467,14.1426333 C15.6071726,14.2229419 16.321321,14.4344614 16.6670829,14.892797 C17.0398001,15.3871068 17.0562217,15.9462569 16.6640153,16.3796424 C16.2234967,16.8664055 15.6964858,16.896705 14.9599964,16.6460493 C14.440605,16.4695832 13.9787178,16.0652487 13.2799763,15.2936941 C12.3974746,15.3629981 11.3442619,15.5121786 10.677997,15.6952808 C10.6387545,15.7661145 10.5892586,15.8556021 10.5313562,15.9605103 C10.3690664,16.2545486 10.200543,16.5614901 10.0346177,16.8658683 C9.50386349,17.83979 9.14082964,18.3057443 8.59275796,18.4887744 C8.32154194,18.5792813 7.9614267,18.5593908 7.67129828,18.414799 C7.25957055,18.2096054 7.03346677,17.7909218 7.08430162,17.2661625 C7.18006512,16.273929 8.27414783,15.4530329 9.85892318,14.7857779 C9.86762166,14.7821155 9.87643899,14.7784628 9.88537318,14.7748201 C9.91410057,14.7160924 9.94572089,14.6512593 9.97982632,14.581085 C10.1540613,14.2225841 10.3282647,13.8577167 10.4906058,13.5087051 C10.5316838,13.4202527 10.5316838,13.4202527 10.5725712,13.3316089 C10.7290935,12.9916474 10.8624599,12.6912931 10.966673,12.4421358 C10.8632386,12.2950526 10.7798622,12.1684313 10.7235652,12.07059 C10.333485,11.3921896 10.2500358,10.9287575 10.2973642,10.0956428 C10.3400462,9.34792951 10.714478,8.78605457 11.2478899,8.63653365 C11.627501,8.52956697 12.0132684,8.72193079 12.2958618,9.05775401 C12.5837999,9.39948766 12.7397412,9.93974672 12.6927591,10.5041382 C12.6538373,10.9714506 12.5071754,11.5584355 12.2413837,12.276756 Z M13.9497,2.5625 C14.2716901,2.5625 14.5306156,2.71517047 14.7685162,2.95308782 L18.5994476,6.83400244 C18.8159433,7.05049819 18.93745,7.34407484 18.93745,7.65025 L18.93745,20.375 C18.93745,20.961703 18.4618173,21.4375 17.87495,21.4375 L6.12495,21.4375 C5.53928983,21.4375 5.06245,20.9606602 5.06245,20.375 L5.06245,3.625 C5.06245,3.03833983 5.53828983,2.5625 6.12495,2.5625 L13.9497,2.5625 Z M12.3802356,14.2516996 C12.1683073,13.9967152 11.9512318,13.7298078 11.7454731,13.4704822 C11.6977389,13.5766008 11.6473413,13.6872502 11.594463,13.8021002 C11.5526153,13.8928258 11.5526153,13.8928258 11.5106558,13.9831762 C11.4455277,14.123193 11.3786083,14.2655408 11.3106052,14.4088981 C11.6537666,14.3476873 12.0183391,14.2946892 12.3802356,14.2516996 Z M8.2040791,17.374437 C8.19977786,17.4188379 8.1916325,17.4207757 8.18378014,17.4158436 C8.20466314,17.4176021 8.24169685,17.4199388 8.2365244,17.4216649 C8.3846608,17.3721943 8.60131338,17.1105421 8.91657114,16.560752 C8.48756916,16.8610896 8.22558279,17.1516312 8.2040791,17.374437 Z M15.3221818,15.5809453 C15.6802959,15.7028252 15.7632091,15.6982269 15.8296458,15.6250212 C15.8256964,15.6309938 15.8105446,15.6254434 15.7688971,15.5702092 C15.7021694,15.4817561 15.3613343,15.3685104 14.8806445,15.3008099 C15.0548554,15.4465178 15.2005584,15.539623 15.3221818,15.5809453 Z M11.5716389,10.4107867 C11.5910305,10.1778374 11.5446327,9.96828987 11.4768721,9.84439857 C11.4516763,9.91550922 11.428576,10.018907 11.4205445,10.1596036 C11.3996582,10.5272626 11.4062777,10.7660079 11.4685502,10.993645 C11.5239727,10.7706467 11.5578414,10.5764451 11.5716389,10.4107867 Z" />
	</symbol>


	<symbol id="play" viewBox="0 0 24 24">
	  <path d="M7.74524292,19.5621453 C6.77874818,19.559518 5.99737927,18.7738893 6.00000661,17.8073946 L6.03007754,6.7454772 C6.03096457,6.4191729 6.12306455,6.09961573 6.29597725,5.82289116 C6.80813479,5.00324878 7.88777194,4.75398305 8.70741433,5.26614059 L17.5593082,10.7972896 C17.7855522,10.9386592 17.97648,11.1298839 18.1174979,11.3563473 C18.6283813,12.1767845 18.3774383,13.256033 17.5570011,13.7669164 L8.67503629,19.2976847 C8.39608273,19.4713881 8.07385693,19.5630386 7.74524292,19.5621453 Z M16.764113,12.4936024 C16.8813183,12.4206191 16.9171673,12.2664407 16.844184,12.1492354 C16.8240385,12.1168835 16.7967631,12.0895657 16.7644426,12.06937 L7.91254868,6.53822102 C7.79545691,6.46505565 7.64122304,6.50066504 7.56805767,6.61775681 C7.54335586,6.65728889 7.53019872,6.70293992 7.530072,6.74955482 L7.50000106,17.8114722 C7.49962573,17.9495429 7.61124986,18.0617755 7.74932054,18.0621509 C7.7962654,18.0622785 7.84229765,18.0491855 7.88214816,18.0243708 L16.764113,12.4936024 Z" />
	</symbol>

	<symbol id="plus" viewBox="0 0 24 24">
		<path d="M11.0534145,11.0534145 L11.0534145,4.94117647 C11.0534145,4.42137906 11.4747935,4 11.9945909,4 L12.091954,4 C12.6117514,4 13.0331305,4.42137906 13.0331305,4.94117647 L13.0331305,11.0534145 L19.0588235,11.0534145 C19.5786209,11.0534145 20,11.4747935 20,11.9945909 L20,12.091954 C20,12.6117514 19.5786209,13.0331305 19.0588235,13.0331305 L13.0331305,13.0331305 L13.0331305,19.0588235 C13.0331305,19.5786209 12.6117514,20 12.091954,20 L11.9945909,20 C11.4747935,20 11.0534145,19.5786209 11.0534145,19.0588235 L11.0534145,13.0331305 L4.94117647,13.0331305 C4.42137906,13.0331305 4,12.6117514 4,12.091954 L4,11.9945909 C4,11.4747935 4.42137906,11.0534145 4.94117647,11.0534145 L11.0534145,11.0534145 Z" />
	</symbol>

	<symbol id="print" viewBox="0 0 24 24">
		<path d="M7.1875,16.765325 L5.429,16.765325 C4.62865413,16.765325 4.0625,16.1101696 4.0625,15.307825 L4.0625,8.616325 C4.0625,7.81279624 4.62752682,7.140325 5.429,7.140325 L7.1875,7.140325 L7.1875,5.5 C7.1875,4.91319745 7.66319745,4.4375 8.25,4.4375 L15.75,4.4375 C16.3368025,4.4375 16.8125,4.91319745 16.8125,5.5 L16.8125,7.140325 L18.66425,7.140325 C19.4620088,7.140325 20.1875,7.81530334 20.1875,8.616325 L20.1875,15.307825 C20.1875,16.1095656 19.4625938,16.765325 18.66425,16.765325 L16.8125,16.765325 L16.8125,19.8125 L7.1875,19.8125 L7.1875,16.765325 Z M7.1875,15.640325 L7.1875,13.25 C7.1875,12.6631975 7.66319745,12.1875 8.25,12.1875 L15.75,12.1875 C16.3368025,12.1875 16.8125,12.6631975 16.8125,13.25 L16.8125,15.640325 L18.66425,15.640325 C18.8650299,15.640325 19.0625,15.461691 19.0625,15.307825 L19.0625,8.616325 C19.0625,8.45548961 18.8581042,8.265325 18.66425,8.265325 L5.429,8.265325 C5.29642809,8.265325 5.1875,8.39496665 5.1875,8.616325 L5.1875,15.307825 C5.1875,15.5223719 5.28942948,15.640325 5.429,15.640325 L7.1875,15.640325 Z M8.3125,7.140325 L15.6875,7.140325 L15.6875,5.5625 L8.3125,5.5625 L8.3125,7.140325 Z M8.3125,18.6875 L15.6875,18.6875 L15.6875,13.3125 L8.3125,13.3125 L8.3125,18.6875 Z M9.5625,15.9375 L9.5625,14.8125 L14.4375,14.8125 L14.4375,15.9375 L9.5625,15.9375 Z M9.5625,17.4375 L9.5625,16.3125 L12.9375,16.3125 L12.9375,17.4375 L9.5625,17.4375 Z M14.25,10.75 C13.8357864,10.75 13.5,10.4142136 13.5,10 C13.5,9.58578644 13.8357864,9.25 14.25,9.25 C14.6642136,9.25 15,9.58578644 15,10 C15,10.4142136 14.6642136,10.75 14.25,10.75 Z M16.75,10.75 C16.3357864,10.75 16,10.4142136 16,10 C16,9.58578644 16.3357864,9.25 16.75,9.25 C17.1642136,9.25 17.5,9.58578644 17.5,10 C17.5,10.4142136 17.1642136,10.75 16.75,10.75 Z" />
	</symbol>

	<symbol id="slider" viewBox="0 0 24 24">
		<path d="M8.31904984,15.7434048 C8.03246577,15.4636834 5.22948686,12.5208438 5.22948686,12.5208438 C5.07644987,12.3715126 5,12.1759272 5,11.9802046 C5,11.7844819 5.07644987,11.588622 5.22948686,11.4395654 C5.22948686,11.4395654 8.03246577,8.49672576 8.31904984,8.21700433 C8.60590842,7.9372829 9.12170485,7.91820475 9.42805335,8.21700433 C9.73399008,8.51539215 9.75828384,8.93209199 9.42777884,9.29828275 L6.85648285,11.9803418 L9.42777884,14.6622637 C9.75828384,15.0285917 9.73385283,15.4451543 9.42805335,15.7436793 C9.1215676,16.0422044 8.60590842,16.0231263 8.31904984,15.7434048 Z M15.6809502,15.7434048 C15.3940916,16.0231263 14.8784324,16.0422044 14.5719467,15.7436793 C14.2661472,15.4451543 14.2417162,15.0285917 14.5722212,14.6622637 L17.1435172,11.9803418 L14.5722212,9.29828275 C14.2417162,8.93209199 14.2660099,8.51539215 14.5719467,8.21700433 C14.8782951,7.91820475 15.3940916,7.9372829 15.6809502,8.21700433 C15.9675342,8.49672576 18.7705131,11.4395654 18.7705131,11.4395654 C18.9235501,11.588622 19,11.7844819 19,11.9802046 C19,12.1759272 18.9235501,12.3715126 18.7705131,12.5208438 C18.7705131,12.5208438 15.9675342,15.4636834 15.6809502,15.7434048 Z" />
	</symbol>

	<symbol id="help" viewBox="0 0 24 24">
		<path d="M12,24 C5.372583,24 0,18.627417 0,12 C0,5.372583 5.372583,0 12,0 C18.627417,0 24,5.372583 24,12 C24,18.627417 18.627417,24 12,24 Z M11.3756868,14.7074176 C11.7712932,14.7074176 12.0834467,14.6332425 12.3121566,14.4848901 C12.5408665,14.3365377 12.6552198,14.1201937 12.6552198,13.8358516 L12.6552198,13.706044 C12.6552198,13.4464273 12.7324855,13.2177208 12.8870192,13.0199176 C13.041553,12.8221144 13.2362626,12.6274048 13.4711538,12.435783 C13.7060451,12.2441611 13.9625673,12.0432703 14.240728,11.8331044 C14.5188888,11.6229385 14.7754109,11.3756882 15.0103022,11.0913462 C15.2451935,10.8070041 15.4399031,10.4763068 15.5944368,10.0992445 C15.7489706,9.72218218 15.8262363,9.2678598 15.8262363,8.73626374 C15.8262363,8.16757957 15.7211549,7.66380714 15.510989,7.22493132 C15.3008231,6.7860555 15.0195759,6.42136134 14.667239,6.13083791 C14.3149021,5.84031448 13.9069391,5.62087986 13.4433379,5.47252747 C12.9797367,5.32417508 12.4883268,5.25 11.9690934,5.25 C11.4004092,5.25 10.8997274,5.30563131 10.467033,5.4168956 C10.0343385,5.5281599 9.65728183,5.67341943 9.33585165,5.85267857 C9.01442147,6.03193771 8.74244617,6.22973793 8.51991758,6.44608516 C8.297389,6.6624324 8.11195129,6.86950451 7.9635989,7.06730769 C7.82760921,7.24038548 7.71634659,7.42582319 7.62980769,7.62362637 C7.5432688,7.82142956 7.5,8.02541104 7.5,8.23557692 C7.5,8.43338011 7.53708754,8.59409279 7.61126374,8.71771978 C7.68543993,8.84134677 7.82142758,8.96497191 8.01923077,9.0885989 C8.13049506,9.1504124 8.26030146,9.20604371 8.40865385,9.25549451 C8.55700624,9.3049453 8.69917514,9.32967033 8.83516484,9.32967033 C9.00824262,9.32967033 9.15350216,9.29876405 9.2709478,9.23695055 C9.38839344,9.17513705 9.49347481,9.09787134 9.58619505,9.0051511 C9.6789153,8.91243086 9.76236227,8.80734949 9.83653846,8.68990385 C9.91071466,8.5724582 9.98488974,8.4519237 10.0590659,8.3282967 C10.2074183,8.09340542 10.4021279,7.88324269 10.6432005,7.6978022 C10.8842732,7.51236171 11.2335142,7.41964286 11.6909341,7.41964286 C12.1112658,7.41964286 12.4543256,7.54017737 12.7201236,7.78125 C12.9859217,8.02232263 13.1188187,8.3777449 13.1188187,8.84752747 C13.1188187,9.08241876 13.0879124,9.28949086 13.0260989,9.46875 C12.9642854,9.64800914 12.8715666,9.82108433 12.7479396,9.98798077 C12.6243126,10.1548772 12.479053,10.3155899 12.3121566,10.4701236 C12.1452602,10.6246574 11.9505506,10.7946419 11.728022,10.9800824 C11.5178561,11.1531602 11.3169652,11.3262354 11.1253434,11.4993132 C10.9337216,11.672391 10.7606464,11.8578287 10.6061126,12.0556319 C10.4515789,12.2534351 10.3279538,12.4728697 10.2352335,12.7139423 C10.1425133,12.9550149 10.0961538,13.2238996 10.0961538,13.5206044 C10.0961538,13.9285735 10.195054,14.2283644 10.3928571,14.4199863 C10.5906603,14.6116081 10.9182669,14.7074176 11.3756868,14.7074176 Z M9.87362637,17.2664835 C9.87362637,17.6744526 10.0188859,18.0236936 10.3094093,18.314217 C10.5999328,18.6047405 10.9491738,18.75 11.3571429,18.75 C11.7651119,18.75 12.1143529,18.6047405 12.4048764,18.314217 C12.6953998,18.0236936 12.8406593,17.6744526 12.8406593,17.2664835 C12.8406593,16.8585144 12.6953998,16.5092734 12.4048764,16.21875 C12.1143529,15.9282266 11.7651119,15.782967 11.3571429,15.782967 C10.9491738,15.782967 10.5999328,15.9282266 10.3094093,16.21875 C10.0188859,16.5092734 9.87362637,16.8585144 9.87362637,17.2664835 Z" />
	</symbol>


	<symbol id="filter" viewBox="0 0 24 24">
		<path d="M22.51,4.35H10.87A2.65,2.65,0,0,0,8.32,2.12,2.65,2.65,0,0,0,5.76,4.35H1.49a.52.52,0,0,0,0,1H5.76A2.66,2.66,0,0,0,8.32,7.62a2.66,2.66,0,0,0,2.55-2.24H22.51a.52.52,0,0,0,0-1ZM8.32,6.59A1.68,1.68,0,0,1,6.69,4.87,1.68,1.68,0,0,1,8.32,3.15,1.68,1.68,0,0,1,9.94,4.87,1.68,1.68,0,0,1,8.32,6.59Z" />
		<path d="M15.3,10.48a1.72,1.72,0,1,1-1.69,1.72,1.71,1.71,0,0,1,1.69-1.72M1.5,12.72H12.65a2.68,2.68,0,0,0,5.29,0h1.81a.52.52,0,0,0,0-1H17.94a2.68,2.68,0,0,0-5.29,0H1.5a.52.52,0,0,0,0,1" />
		<path d="M22.58,11.44a.35.35,0,0,0-.35.35.35.35,0,0,0,.35.34.34.34,0,0,0,.34-.34.35.35,0,0,0-.34-.35" />
		<path d="M6.37,20.34a1.72,1.72,0,0,1,0-3.44,1.72,1.72,0,0,1,0,3.44M22.51,18.1H8.92a2.65,2.65,0,0,0-2.55-2.23A2.65,2.65,0,0,0,3.81,18.1H1.49a.52.52,0,0,0,0,1H3.81a2.66,2.66,0,0,0,2.56,2.24,2.66,2.66,0,0,0,2.55-2.24H22.51a.52.52,0,0,0,0-1" />
	</symbol>

	<symbol id="signin" viewBox="0 0 24 24">
		<path d="M15.304 9.28c0-2.52-1.483-4.36-3.514-4.36-2.03 0-3.513 1.84-3.513 4.36 0 2.68 1.58 4.86 3.513 4.86 1.933 0 3.514-2.18 3.514-4.86zm-5.33 5.08c-1.444-.9-2.46-2.84-2.46-5.1 0-3.12 1.915-5.14 4.276-5.14 2.362 0 4.275 2.04 4.275 5.16 0 2.24-.995 4.18-2.44 5.08 2.773.22 5.408 1.06 5.408 3.46 0 .22-.176.38-.372.38-.213 0-.37-.18-.37-.38 0-2.28-3.513-2.76-6.44-2.76-5.975 0-6.443 2.12-6.443 2.76 0 .22-.176.38-.37.38-.196 0-.372-.18-.372-.38-.06-.94.508-3.02 5.31-3.46zm1.74 7.82c5.483 0 9.934-4.56 9.934-10.18s-4.45-10.18-9.935-10.18C6.227 1.82 1.776 6.38 1.776 12s4.45 10.18 9.937 10.18zm0-22.18c6.46 0 11.71 5.38 11.71 12s-5.25 12-11.71 12C5.25 24 0 18.62 0 12S5.25 0 11.713 0z"></path>
	</symbol>

	<symbol id="vaa" viewBox="0 0 64 64">
		<path d="M51.1376147,12 L36.2473616,12 C31.6379639,12 30.5121066,12.7632692 28.6751814,14.7828967 L15.3577982,29.4237869 C25.9939713,28.923542 29.2737932,39.6602671 40.0723787,36.7179946 L51.1376147,12" fill="#DA3044"></path>
		<path d="M45.5625943,22.1500733 C45.4558683,21.9626884 45.1793702,21.8322195 44.6879138,22.048938 C44.1656876,22.2807611 43.9500836,22.3812397 43.9335153,22.3880259 C43.9180228,22.3950309 43.2944498,22.7249246 43.3570653,21.8633043 L43.5552401,19.8316229 C43.5552401,19.8316229 43.633133,19.0914963 43.0648596,19.0960934 C43.0648596,19.0960934 42.7642621,19.0595358 42.2779699,19.4942863 C42.2779699,19.4942863 42.0412789,19.7193233 41.8583814,19.7663885 C41.7544526,19.7928763 41.6318036,19.8051351 41.454931,19.743841 C41.277628,19.6829847 41.1186147,19.710567 40.9944595,19.7493137 C40.9944595,19.7493137 40.4494249,19.8959818 40.4094026,20.6538399 L40.1907863,22.4543549 C40.1907863,22.4543549 40.0745926,23.1594562 40.1354867,23.2905819 C40.1354867,23.2905819 40.1925077,23.5751618 40.6936469,23.396971 C40.6936469,23.396971 41.1186147,23.2741638 41.1670287,22.5364452 C41.1670287,22.5364452 41.288817,21.0892471 41.4910801,20.8079508 C41.4910801,20.8079508 41.7292773,20.3530608 42.0744157,20.1562629 C42.0744157,20.1562629 42.5643659,19.9132755 42.5576955,20.3213192 L42.3812532,21.9738527 C42.3812532,21.9738527 42.2108357,22.7925671 42.5712514,22.9166877 C42.5712514,22.9166877 42.6099827,22.9352949 42.519825,22.9849869 C42.519825,22.9849869 40.1789517,24.0000614 37.1650156,25.7033814 C37.3728733,23.9713845 37.7264034,21.5535501 37.7264034,21.5535501 C37.7771844,21.1608299 37.3061695,21.1608299 37.3061695,21.1608299 C36.8429008,21.1426605 36.778779,21.6940888 36.740263,21.9353249 C36.6998103,22.17678 36.3525202,24.1329383 36.3525202,24.1329383 C36.1928614,25.0234544 35.674078,24.9838322 35.674078,24.9838322 C35.1617497,25.0411859 35.4666506,23.631421 35.4666506,23.631421 C35.6037162,23.1285903 35.6523454,22.7010637 36.0424551,22.3659162 C36.4252489,22.0333955 36.4620436,21.6043367 36.1730655,21.5914211 C35.6932284,21.5712816 35.2011265,22.0951275 35.2011265,22.0951275 C34.3453812,22.9567478 34.3475329,25.0341809 34.3475329,25.0341809 C34.3307494,25.6941873 34.7681972,25.8898907 34.7681972,25.8898907 C35.3123712,26.1446991 36.0588083,25.6990033 36.0588083,25.6990033 C36.2348203,25.5801364 36.2092146,25.7473819 36.2092146,25.7473819 L36.1709137,26.2762626 C33.9610812,27.5746036 31.5048749,29.1969278 29.3856305,31.0272142 C29.3856305,31.0272142 28.4126156,31.7544252 28.7753983,32.2325194 C29.1609893,32.7401662 29.6956956,32.2765199 29.9153878,32.0696522 C29.9153878,32.0696522 32.0873498,29.8033018 36.0979699,27.2685707 L35.9688657,28.9740798 C35.9120599,29.7415699 35.6689138,32.1208766 35.6689138,32.1208766 C35.5570235,33.0534229 35.7044174,33.2368675 35.7590715,33.3077936 C35.8393313,33.4095856 36.1969497,33.7199966 36.6008305,33.4553373 C37.0955145,33.1304784 36.8497863,32.3531375 36.7673748,31.9879996 C36.6849634,31.6211105 36.6965827,31.0186768 36.6965827,31.0186768 C36.7333774,30.5287616 37.0122424,27.2162518 37.0122424,27.2162518 C37.0174065,27.0877531 37.0324687,26.9040896 37.0546316,26.6794904 C38.591186,25.761173 40.3543182,24.8281888 42.3265991,23.9753248 C42.3265991,23.9753248 43.1804078,23.6307643 43.9066186,23.3967521 C43.9066186,23.3967521 44.1463219,23.3056865 44.4535898,23.214402 C44.8641409,23.091376 45.3943286,22.9079314 45.5498991,22.6761083 C45.6411327,22.5401666 45.6736239,22.3470901 45.5625943,22.1500733 Z M39.8863157,19.3003342 C39.8863157,19.3003342 40.3399016,18.9187782 40.1331198,18.6383576 C40.1331198,18.6383576 39.9401091,18.346116 39.403251,18.7331446 C39.403251,18.7331446 38.9219078,19.1344022 39.2166955,19.4178876 C39.2166955,19.4178876 39.4964212,19.686925 39.8863157,19.3003342 Z M38.5892494,24.1902921 C38.5892494,24.1902921 39.1312716,24.0718631 39.2270239,23.4451306 C39.2270239,23.4451306 39.5487084,21.1089488 39.5629098,21.0292664 C39.5762506,20.9504597 39.7169741,20.3368617 39.2924366,20.4325243 C39.2924366,20.4325243 38.7727925,20.5358487 38.6787616,21.0583811 L38.273805,23.3569109 L38.2000004,23.823403 C38.2000004,23.823403 38.0924137,24.3203232 38.5892494,24.1902921 Z M31.642586,22.0581321 C32.0600227,21.7181686 31.9369435,21.4366534 31.9369435,21.4366534 C31.781373,20.9797933 31.2141755,21.4664249 31.2141755,21.4664249 C30.7367053,21.8153636 30.9030345,22.1522624 30.9030345,22.1522624 C31.111968,22.518057 31.642586,22.0581321 31.642586,22.0581321 Z M32.1693309,23.8072038 C32.1693309,23.8072038 31.9616884,25.332333 31.9281214,25.6716398 C31.9281214,25.6716398 31.6505475,26.957722 32.3294201,26.7263366 C32.3294201,26.7263366 32.8763913,26.5728824 32.9626759,25.789631 L33.0724144,24.6863367 C33.0724144,24.6863367 33.1059815,23.8691547 33.7435407,23.5186836 C33.7435407,23.5186836 34.4273623,23.2054268 34.2192895,22.7743978 C34.2192895,22.7743978 34.0906157,22.435091 33.6858742,22.6161276 C33.3775305,22.7571041 33.2133531,22.7722087 33.2133531,22.7722087 C33.2133531,22.7722087 32.8030171,22.8254032 32.7440595,22.8332839 C32.7440595,22.8332839 32.2399078,22.8545179 32.1693309,23.8072038 Z M30.9030345,23.5456092 C30.2684876,23.6924962 30.1856458,24.4278069 30.1856458,24.4278069 L29.7972575,27.3539447 C29.7348572,27.9342688 30.4756998,27.5126527 30.4756998,27.5126527 C30.7799552,27.3274569 30.8335334,26.9452442 30.8335334,26.9452442 L30.9514485,26.2108092 L31.3114339,24.2310089 C31.4287035,23.4044138 30.9030345,23.5456092 30.9030345,23.5456092 Z M31.8108518,17.6861096 C31.8108518,17.6861096 32.4705739,16.4477493 32.9912939,16.0405812 C32.9912939,16.0405812 33.560428,15.6898912 33.5772116,15.1128508 C33.5772116,15.1128508 33.6191704,14.7277923 33.3119026,14.4883074 C33.3119026,14.4883074 32.5084445,13.8215148 31.8573293,14.9556751 C31.8573293,14.9556751 28.7835749,20.8736231 27.7244906,26.8384173 C27.7244906,26.8384173 27.6433701,27.0332451 27.6224983,26.4883841 C27.6224983,26.4883841 27.1702035,21.4819673 27.1523441,21.3004929 C27.1342695,21.1172673 27.1467495,20.6689445 26.735768,20.6376407 C26.735768,20.6376407 26.2507668,20.5478886 25.9648012,21.2886719 L24.6012463,24.7066951 C24.6012463,24.7066951 24.3759595,25.1344406 24.7387422,25.2959944 C24.7387422,25.2959944 25.1436988,25.5297877 25.4090078,24.9525284 L26.0381753,23.5766941 C26.1640519,23.297368 26.2574372,23.3367714 26.2574372,23.3367714 C26.3297355,23.3516571 26.360075,23.631421 26.360075,23.631421 C26.360075,23.631421 26.9145773,30.3518843 26.9193111,30.404641 C26.9259815,30.4560843 26.9748259,30.9959104 27.4191593,30.994597 C27.7425652,30.9935024 27.8430512,30.6266133 27.9073881,30.3214561 C27.9721553,30.0182691 28.5714137,26.8219992 29.5708949,23.3737668 C30.2252378,21.1135458 31.0691485,18.8572652 31.8108518,17.6861096 Z" fill="#FFFFFE"></path>
		<path d="M54.2940965,50.3725812 C53.8515951,50.8591393 52.8432816,51.7502503 51.3013664,51.7502503 C49.2593207,51.7502503 47.6564779,50.0566593 47.6564779,47.9324927 L47.6564779,47.8978277 C47.6564779,45.7897934 49.2065427,44.1137749 51.2315131,44.1137749 C52.1780257,44.1137749 53.22796,44.4352663 54.2818722,45.4651332 L54.8178024,44.8838945 C54.2452962,44.214313 53.0254824,43.3208014 51.2493645,43.3208014 C48.5819375,43.3208014 46.7310183,45.4623485 46.7310183,47.9324927 L46.7310183,47.9669657 C46.7310183,50.4372059 48.5851391,52.5437039 51.2493645,52.5437039 C53.1149335,52.5437039 54.4135263,51.506251 54.8495275,50.8754635 L54.2940965,50.3725812 Z M39.1508648,52.4414374 L40.0120982,52.4414374 L40.0120982,47.2221966 C40.0120982,44.6419118 38.669556,43.3637245 36.4770346,43.3637245 C34.1829348,43.3637245 33.2794014,45.0796893 33.1941221,45.2960334 L33.1941221,43.5170763 L32.3335679,43.5170763 L32.3335679,52.4414374 L33.1941221,52.4414374 L33.1941221,48.099576 C33.1941221,45.3481749 34.6220406,44.1454631 36.3542092,44.1454631 C39.1224384,44.1454631 39.1508648,46.6243457 39.1508648,47.7186453 L39.1508648,52.4414374 Z M27.1192109,51.868649 C28.707501,51.868649 30.3981456,50.9850279 30.3981456,48.8873642 L30.3981456,47.7001125 L27.8233713,47.7001125 C25.6683961,47.7001125 24.5843112,48.2477424 24.5843112,49.8054582 L24.5843112,49.8037297 C24.5843112,51.008362 25.6561717,51.868649 27.1192109,51.868649 Z M30.3827197,46.9362345 L30.3827197,46.8138988 C30.3827197,44.9961476 29.257984,44.2236274 27.465664,44.2236274 C26.5199276,44.2236274 25.6318201,44.4577361 24.6885091,44.912798 L24.3778558,44.2185381 C25.3332941,43.7376454 26.4571566,43.4274851 27.5851908,43.4274851 C28.7555252,43.4274851 29.6996123,43.712775 30.3282923,44.3349203 C31.0162506,45.0165049 31.2104816,45.8991657 31.2104816,46.8022798 L31.2104816,52.4414374 L30.3827197,52.4414374 L30.3827197,51.0270868 C30.206243,51.3856438 29.1026574,52.6338713 27.0420812,52.6338713 C25.3090395,52.6338713 23.7036742,51.6206167 23.7036742,49.8526064 L23.7036742,49.8194778 C23.7036742,46.9423801 26.7995349,46.9362345 27.7161658,46.9362345 L30.3827197,46.9362345 Z M13.2658404,51.868649 C14.8541305,51.868649 16.5439019,50.9850279 16.5439019,48.8873642 L16.5439019,47.7001125 L13.9685455,47.7001125 C11.8141524,47.7001125 10.7309407,48.2477424 10.7309407,49.8054582 L10.7309407,49.8037297 C10.7309407,51.008362 11.8028982,51.868649 13.2658404,51.868649 Z M16.5276998,46.9362345 L16.5276998,46.8138988 C16.5276998,44.9961476 15.4038374,44.2236274 13.6114203,44.2236274 C12.6672362,44.2236274 11.7784496,44.4577361 10.8342654,44.912798 L10.5237091,44.2185381 C11.4783713,43.7376454 12.6031069,43.4274851 13.730268,43.4274851 C14.9028338,43.4274851 15.8453686,43.712775 16.4740486,44.3349203 C17.162783,45.0165049 17.3563349,45.8991657 17.3563349,46.8022798 L17.3563349,52.4414374 L16.5276998,52.4414374 L16.5276998,51.0270868 C16.3512231,51.3856438 15.2477346,52.6338713 13.1893898,52.6338713 C11.4547958,52.6338713 9.84952748,51.6206167 9.84952748,49.8526064 L9.84952748,49.8194778 C9.84952748,46.9423801 12.9446121,46.9362345 13.8603698,46.9362345 L16.5276998,46.9362345 Z M41.939565,52.4427818 L41.939565,44.3010235 L43.7399375,44.3010235 L43.7399375,43.5190928 L41.939565,43.5190928 L41.939565,41.2922756 L41.0808541,41.2922756 L41.0808541,52.4427818 L41.939565,52.4427818 Z M19.2552783,52.4427818 L19.2552783,44.3010235 L21.0541956,44.3010235 L21.0541956,43.5170763 L19.2552783,43.5170763 L19.2552783,41.2922756 L18.3932688,41.2922756 L18.3932688,52.4427818 L19.2552783,52.4427818 Z M44.6093204,52.4427818 L45.4705538,52.4427818 L45.4705538,43.5195729 L44.6093204,43.5195729 L44.6093204,52.4427818 Z M21.7470048,52.4427818 L22.607462,52.4427818 L22.607462,41.2940041 L21.7470048,41.2940041 L21.7470048,52.4427818 Z M44.6093204,42.3164771 L45.4705538,42.3164771 L45.4705538,41.2940041 L44.6093204,41.2940041 L44.6093204,42.3164771 Z" fill="#662074"></path>
  </symbol>
	<symbol id="contact" viewBox="0 0 120 120">
		<path d="M37.07,82.09l.44.44h0l.82.82c11,11,24.75,24.76,41.61,23.5,18.46-1.38,26-12.26,26.54-19.24.14-1.84-.72-3.81-2.65-6-3.49-4-10.82-8.82-15-9-5.21-.28-7.12,2.49-9,5.18a32.28,32.28,0,0,1-2.92,3.78C73,85.82,72,85.08,71.16,84.37c-6.49-5.2-17.82-16.62-17.94-16.74l-.45-.45C52.66,67.07,41.23,55.74,36,49.25c-.71-.89-1.44-1.8,2.91-5.79a32.19,32.19,0,0,1,3.78-2.91c2.8-1.93,5.45-3.74,5.16-9-.23-4.2-5.05-11.52-9.05-15-2-1.79-3.89-2.67-5.62-2.67l-.41,0C28.48,14.27,24,16.85,20.6,21c-4,4.85-6.45,11.58-7,19.47C12.3,57.35,26,71.07,37.07,82.09Zm47.26-1.26c1.71-2.49,2-2.93,4.17-2.82,3.5.19,12.26,7,12.51,9.17a11.72,11.72,0,0,1-3.15,6.58c-2.4-2.34-7-5.67-15.57-10.15C83.11,82.58,83.77,81.63,84.33,80.83ZM33.17,19.38c2.2.25,9.06,9,9.25,12.51.11,2.15-.33,2.45-2.8,4.15C38.85,36.56,38,37.19,37,38c-1.05-2.74-3.87-7.36-10.85-15A12.07,12.07,0,0,1,33.17,19.38ZM19,40.87c.54-7.23,2.68-12.36,5.3-15.8,8.4,9.17,10.1,13.38,10.43,14.82-2.62,2.43-7.34,7.35-3,12.78,5.39,6.73,16.67,17.92,17.14,18.39l.43.43C49.81,72,61,83.25,67.74,88.64a7.24,7.24,0,0,0,4.59,1.78c3.48,0,6.41-2.85,8.12-4.69,9,4.67,13.38,7.94,15.44,9.93-3.44,2.82-8.74,5.16-16.36,5.73-14.39,1.08-27.11-11.67-37.34-21.91L41.74,79h0l-.81-.81C30.69,68,18,55.26,19,40.87Z"/>

	</symbol>

	<symbol id="help-support" viewBox="0 0 120 120">
		<path d="M99.51,25.17c.5,0,.73.07.73.67v55.3H17.76V25.84c0-.6.6-.67,1.27-.67H99.51m0-4.91H19c-4.24,0-6.18,2.89-6.18,5.58V86.05h92.3V25.84a5.43,5.43,0,0,0-5.26-5.58Z"/>
		<path d="M105.17,86.05c1.6,0,2.92,2,2.92,4.47v3.8c0,2.47-1.29,3.51-2.89,3.51H12.8c-1.6,0-2.89-2-2.89-4.48V90.52c0-2.47,1.29-4.47,2.89-4.47h92.35m0-4.91H12.8c-4.38,0-7.8,4.12-7.8,9.38v2.83a10.9,10.9,0,0,0,1.63,5.83,7.32,7.32,0,0,0,6.17,3.56h92.4c3.76,0,7.8-2.64,7.8-8.42v-3.8C113,85.26,109.58,81.14,105.2,81.14Z"/>
		<path d="M25.44,30.92l17.71,7c0,.22-6.38,1.41-6.38,1.41l2.11,1.82,7.54,6.62C47.69,49,49.35,49.84,48,51.4a1.7,1.7,0,0,1-1.24.7c-.86,0-1.68-1-2.7-1.89l-9.13-8.39-1.45,5.9-8-16.8m0-2a2,2,0,0,0-2,2,1.9,1.9,0,0,0,.2.85l8,16.8a2,2,0,0,0,3.68-.38L36,45.51l6.69,6.14.59.55a5.2,5.2,0,0,0,3.44,1.86,4,4,0,0,0,3.7-4,4.87,4.87,0,0,0-2.1-3.22l-.58-.52-.05,0-6.63-5.82c3-.62,3.84-.9,4-2.33a2,2,0,0,0-1.23-2.06l-17.71-7a2,2,0,0,0-.72-.14Z"/>
		<path d="M64.26,90.64a1.54,1.54,0,0,1,0,3H54.83a1.54,1.54,0,0,1,0-3h9.43m0-2H54.83a3.47,3.47,0,0,0,0,6.91h9.43a3.47,3.47,0,0,0,0-6.91Z"/>
	</symbol>
	<symbol id="pin" viewBox="0 0 120 120">
		<path d="M58.66,15.43a32.07,32.07,0,0,0-32,32.07c0,17,28.69,54.36,29.91,56a2.64,2.64,0,0,0,3.7.47,2.61,2.61,0,0,0,.47-.47c1.23-1.58,29.92-39,29.92-55.95A32.08,32.08,0,0,0,58.66,15.43Zm0,82.66c-9-12.35-26.74-39-26.74-50.78,0-15,12-27.25,26.74-27.25S85.4,32.28,85.4,47.31C85.4,59.13,67.7,85.74,58.66,98.09Z"/>
		<path d="M59.07,30.39A14.82,14.82,0,1,0,73.62,45.47a2.26,2.26,0,0,0,0-.26A14.71,14.71,0,0,0,59.07,30.39Zm0,27A12,12,0,1,1,71,45.39v0A12,12,0,0,1,59.07,57.4Z"/>
	</symbol>



	<symbol id="gauge-background" viewBox="0 0 96 96">
		<path class="text-light" d="m15.5109218 62.5300322c-.5695089 0-1.1034235-.2135659-1.4949609-.6051033l-9.32570842-9.6104629c-.88985767-.818669-.92545198-2.206847-.07118861-3.0967047.81866906-.8898577 2.20684704-.925452 3.09670472-.0711886l6.83410701 4.8764201c.3915373.355943.9966406.2847544 1.3169893-.1423773l16.1954097-20.0040006c.7118862-.9610462 2.1000642-1.1746121 3.0611105-.4271316.9610462.7118861 1.1746121 2.1000641.4271316 3.0611104l-18.2954738 25.1295808c-.3915374.4983203-.9610463.818669-1.5661495.8542634-.0711886.0355943-.1067829.0355943-.1779716.0355943zm27.9392216 0c-.5695089 0-1.1034235-.2135659-1.4949609-.6051033l-9.3257084-9.6104629c-.8898577-.818669-.925452-2.206847-.0711886-3.0967047.818669-.8898577 2.206847-.925452 3.0967047-.0711886l6.8341069 4.8764201c.3915374.355943.9966406.2847544 1.3169894-.1423773l16.1954097-20.0040006c.7118862-.9610462 2.1000641-1.1746121 3.0611104-.4271316.9610463.7118861 1.1746122 2.1000641.4271317 3.0611104l-18.2954738 25.1295808c-.3915374.4983203-.9610463.818669-1.5661495.8542634-.0711887.0355943-.106783.0355943-.1779716.0355943zm28 0c-.5695089 0-1.1034235-.2135659-1.4949609-.6051033l-9.3257084-9.6104629c-.8898577-.818669-.925452-2.206847-.0711886-3.0967047.818669-.8898577 2.206847-.925452 3.0967047-.0711886l6.8341069 4.8764201c.3915374.355943.9966406.2847544 1.3169894-.1423773l16.1954097-20.0040006c.7118862-.9610462 2.1000641-1.1746121 3.0611104-.4271316.9610463.7118861 1.1746122 2.1000641.4271317 3.0611104l-18.2954738 25.1295808c-.3915374.4983203-.9610463.818669-1.5661495.8542634-.0711887.0355943-.106783.0355943-.1779716.0355943z" fill="var(--colour-light)"/>
	</symbol>

	<symbol id="gauge-1" viewBox="0 0 96 96">
		
		<use xmlns:xlink="http://www.w3.org/1999/xlink" xlink:href="#gauge-background"></use>

		<path d="m15.5109218 62.5300322c-.5695089 0-1.1034235-.2135659-1.4949609-.6051033l-9.32570842-9.6104629c-.88985767-.818669-.92545198-2.206847-.07118861-3.0967047.81866906-.8898577 2.20684704-.925452 3.09670472-.0711886l6.83410701 4.8764201c.3915373.355943.9966406.2847544 1.3169893-.1423773l16.1954097-20.0040006c.7118862-.9610462 2.1000642-1.1746121 3.0611105-.4271316.9610462.7118861 1.1746121 2.1000641.4271316 3.0611104l-18.2954738 25.1295808c-.3915374.4983203-.9610463.818669-1.5661495.8542634-.0711886.0355943-.1067829.0355943-.1779716.0355943z" />

	</symbol>

	<symbol id="gauge-2" viewBox="0 0 96 96">

    <use xmlns:xlink="http://www.w3.org/1999/xlink" xlink:href="#gauge-background"></use>

		<path d="M15.5109218,62.5300322 C14.9414129,62.5300322 14.4074983,62.3164663 14.0159609,61.9249289 L4.69025248,52.314466 C3.80039481,51.495797 3.7648005,50.107619 4.61906387,49.2177613 C5.43773293,48.3279036 6.82591091,48.2923093 7.71576859,49.1465727 L14.5498756,54.0229928 C14.9414129,54.3789358 15.5465162,54.3077472 15.8668649,53.8806155 L32.0622746,33.8766149 C32.7741608,32.9155687 34.1623388,32.7020028 35.1233851,33.4494833 C36.0844313,34.1613694 36.2979972,35.5495474 35.5505167,36.5105937 L17.2550429,61.6401745 C16.8635055,62.1384948 16.2939966,62.4588435 15.6888934,62.4944379 C15.6177048,62.5300322 15.5821105,62.5300322 15.5109218,62.5300322 Z M43.4501434,62.5300322 C42.8806345,62.5300322 42.3467199,62.3164663 41.9551825,61.9249289 L32.6294741,52.314466 C31.7396164,51.495797 31.7040221,50.107619 32.5582855,49.2177613 C33.3769545,48.3279036 34.7651325,48.2923093 35.6549902,49.1465727 L42.4890971,54.0229928 C42.8806345,54.3789358 43.4857377,54.3077472 43.8060865,53.8806155 L60.0014962,33.8766149 C60.7133824,32.9155687 62.1015603,32.7020028 63.0626066,33.4494833 C64.0236529,34.1613694 64.2372188,35.5495474 63.4897383,36.5105937 L45.1942645,61.6401745 C44.8027271,62.1384948 44.2332182,62.4588435 43.628115,62.4944379 C43.5569263,62.5300322 43.521332,62.5300322 43.4501434,62.5300322 Z" />
	</symbol>

	<symbol id="gauge-3" viewBox="0 0 96 96">

    <path d="M15.5109218,62.5300322 C14.9414129,62.5300322 14.4074983,62.3164663 14.0159609,61.9249289 L4.69025248,52.314466 C3.80039481,51.495797 3.7648005,50.107619 4.61906387,49.2177613 C5.43773293,48.3279036 6.82591091,48.2923093 7.71576859,49.1465727 L14.5498756,54.0229928 C14.9414129,54.3789358 15.5465162,54.3077472 15.8668649,53.8806155 L32.0622746,33.8766149 C32.7741608,32.9155687 34.1623388,32.7020028 35.1233851,33.4494833 C36.0844313,34.1613694 36.2979972,35.5495474 35.5505167,36.5105937 L17.2550429,61.6401745 C16.8635055,62.1384948 16.2939966,62.4588435 15.6888934,62.4944379 C15.6177048,62.5300322 15.5821105,62.5300322 15.5109218,62.5300322 Z M43.4501434,62.5300322 C42.8806345,62.5300322 42.3467199,62.3164663 41.9551825,61.9249289 L32.6294741,52.314466 C31.7396164,51.495797 31.7040221,50.107619 32.5582855,49.2177613 C33.3769545,48.3279036 34.7651325,48.2923093 35.6549902,49.1465727 L42.4890971,54.0229928 C42.8806345,54.3789358 43.4857377,54.3077472 43.8060865,53.8806155 L60.0014962,33.8766149 C60.7133824,32.9155687 62.1015603,32.7020028 63.0626066,33.4494833 C64.0236529,34.1613694 64.2372188,35.5495474 63.4897383,36.5105937 L45.1942645,61.6401745 C44.8027271,62.1384948 44.2332182,62.4588435 43.628115,62.4944379 C43.5569263,62.5300322 43.521332,62.5300322 43.4501434,62.5300322 Z M71.4501434,62.5300322 C70.8806345,62.5300322 70.3467199,62.3164663 69.9551825,61.9249289 L60.6294741,52.314466 C59.7396164,51.495797 59.7040221,50.107619 60.5582855,49.2177613 C61.3769545,48.3279036 62.7651325,48.2923093 63.6549902,49.1465727 L70.4890971,54.0229928 C70.8806345,54.3789358 71.4857377,54.3077472 71.8060865,53.8806155 L88.0014962,33.8766149 C88.7133824,32.9155687 90.1015603,32.7020028 91.0626066,33.4494833 C92.0236529,34.1613694 92.2372188,35.5495474 91.4897383,36.5105937 L73.1942645,61.6401745 C72.8027271,62.1384948 72.2332182,62.4588435 71.628115,62.4944379 C71.5569263,62.5300322 71.521332,62.5300322 71.4501434,62.5300322 Z" />
	</symbol>


	<symbol id="twitter" viewBox="0 0 36 36">
		<rect class="st0" width="36" height="36" fill="#5AA8DF"></rect>
		<path d="M26.413,14.44c0,0.176,0,0.353,0,0.541c0,5.581-4.324,11.961-12.031,11.961c-2.409,0-4.641-0.67-6.509-1.88 c0.317,0.047,0.646,0.047,1.01,0.047c1.962,0,3.783-0.669,5.217-1.786c-1.833-0.047-3.396-1.246-3.936-2.949 c0.223,0.094,0.494,0.094,0.752,0.094c0.4,0,0.928-0.047,1.292-0.129c-1.915-0.399-3.172-2.091-3.172-4.147v-0.047 c0,0.306,1.034,0.494,1.704,0.541c-1.116-0.764-1.962-2.056-1.962-3.525c0-0.764,0.176-1.468,0.54-2.103 c2.08,2.538,5.135,4.229,8.66,4.359c-0.094-0.27-0.141-0.623-0.141-0.94c0-2.314,1.868-4.194,4.23-4.194 c1.198,0,2.268,0.493,3.031,1.292c0.987-0.176,1.868-0.541,2.679-0.987c-0.317,0.987-0.987,1.786-1.833,2.314 c0.846-0.129,1.727-0.353,2.491-0.67C27.846,13.101,27.587,13.817,26.413,14.44z" fill="#ffffff"></path>

	</symbol>

	<symbol id="facebook" viewBox="0 0 36 36">
		<rect class="st0" width="36" height="36" fill="#365899"></rect>
		<path d="M24.779,36V22.018h4.688l0.705-5.404h-5.393v-3.431c0-1.574,0.412-2.644,2.667-2.644h2.855V5.687 c-0.47-0.07-2.198-0.211-4.183-0.211c-4.136,0-6.979,2.526-6.979,7.167v3.971h-4.582v5.404h4.582V36H24.779z" fill="#ffffff"></path>
	</symbol>
	<symbol id="linkedin" viewBox="0 0 24 24">
		<path d="M8,5.27A1.64,1.64,0,1,1,6.4,3.62,1.65,1.65,0,0,1,8,5.27Zm0,3H4.75V18.79h3.3Zm5.26,0H10V18.79h3.28V13.25c0-3.08,4-3.33,4,0v5.54h3.29V12.11c0-5.2-5.88-5-7.27-2.45Z" />
	</symbol>


	<symbol id="email" viewBox="0 0 32 32">

		<rect class="st0" width="32" height="32" fill="#7A3671"></rect>

<path d="M25.923 21.077l-0.808 0.808-5.99-5.135-2.625 2.25-2.625-2.25-5.99 5.135-0.808-0.808 5.923-5.077-5.923-5.077 0.808-0.808 8.615 7.385 8.615-7.385 0.808 0.808-5.923 5.077 5.923 5.077zM6.004 8c-1.107 0-2.004 0.895-2.004 1.994v12.012c0 1.101 0.89 1.994 2.004 1.994h20.993c1.107 0 2.004-0.895 2.004-1.994v-12.012c0-1.101-0.89-1.994-2.004-1.994h-20.993z" fill="#ffffff"></path>
</symbol>


<symbol id="tick" viewBox="0 0 20 20">
<path d="M0 11l2-2 5 5 11-11 2 2-13 13z"></path>
</symbol>

</svg>