<svg xmlns="http://www.w3.org/2000/svg" xmlns:xlink="http://www.w3.org/1999/xlink" version="1.1" class="visually-hidden">
    <symbol id="change-the-world" viewBox="0 0 96 96">
        <path d="M57.49,43.3l.22-.23m8.11-31A19.43,19.43,0,0,1,85.26,31.5c0,23.42-31.16,47.16-36.79,51.26a1.37,1.37,0,0,1-1.71,0C41.2,78.75,9.93,55,9.93,31.5A19.43,19.43,0,0,1,29.36,12.08a19.62,19.62,0,0,1,18,12.38.25.25,0,0,0,.45,0,19.61,19.61,0,0,1,18-12.4M85.15,33.2c-.57-.14-1.06-2.16-2.58-3.36s-4.14.46-4.35,1c-1.53,3.81-4.21-1.2-6.94-1.57-3.46-.41-5.27-.1-5.77,1.47s-4.65.29-4.61,3c0,1.74-2.51,2.64-3.41,5.09M71.86,60.72a6.87,6.87,0,0,1,.56-3.29c1.07-2.52-2.3-4.12-1.4-7.74.86-3.43-3-2.38-6.05-1.25a5.21,5.21,0,0,1-5.36-1.64m14-33.1A6.45,6.45,0,0,1,67.56,18c1.4,1,2.22,2.85-.75,2.85s-1.71,3.44-.56,3.92,5.17-.17,5.84-2.51c1.06-3.67,3.67,1.77,6.61,2.7,2.62.83,4.63-1,5.38.45M58,14.15c3,1.37.29,4,1.92,6.46s1.65-2.3,3.37-3.35-.37-3.44,2-5.18M35.92,74a10.12,10.12,0,0,0,5.71-8.45c0-1.62,4.29-.35,4.2-3-.11-3.16,5.27-5.57,2.39-9.14-2.13-2.64-5.68.91-6.51-2.14s-3.54-1.4-5.68-4.69-8.46-1.15-8.46-1.15-2.64-.19-3.4-2.39-3.46-4.37-4.12-4-2.31,2.47-2.8-.58,4.94-5,5.35-5,2.31,2.64,3.54,3.79c.33-.41-1-4.2-.66-5.19s2.14-.82,2.55-3.29,1.87-5.05,3.13-3.71c1.92,2.41,5.26,0,5.26,0a9.16,9.16,0,0,1-3.54-3.19c-.86-1.64,3.13-.86,5-1.71,2.57-1.41-3.26-3.54-4.06-7.55m-3.5,55.26c1-2.83-1.16-2.56,0-5.93-2.63-1.46-3.42-3.53-4.28-4.94-2.59-4.25.31-5.51,0-7.14-2.14-.25-4.51-3.7-5.77-4.28-2.38-1.11-6.57-1.34-7.89-2.09"/>
    </symbol>
    <symbol id="charities" viewBox="0 0 96 96">
        <path xmlns="http://www.w3.org/2000/svg" class="cls-1" d="M54.73,61.61c.23-.3.08-.2-.15,0l-15.06,15a5.77,5.77,0,0,1-8.13,0c-2.24-2.24-2.79-6.45-.55-8.69L43.25,55.52c.17-.53.42-.31-.08-.07L29.36,69.25a5.77,5.77,0,0,1-8.11,0C19,67,18.46,62.8,20.7,60.56l16-16c.22-.45.3-.47-.21-.34L25.88,55.4a5.48,5.48,0,0,1-7.73,0h0a5.48,5.48,0,0,1,0-7.73L35.88,29.94M47,19.45A24,24,0,0,1,84.45,39a23.41,23.41,0,0,1-5,14.54l-.2.25a24,24,0,0,1-3.45,3.42L53.12,79.9a5.52,5.52,0,0,1-7.78,0c-2.14-2.14-2.69-6.19-.55-8.33l9.87-9.87M74.34,48.14a16.48,16.48,0,0,0-2.22-21M70.9,52l-.12.1M36.56,29.59c1.78,1.91,1.78,1.91,2,2.16L50.18,43.34A6.59,6.59,0,1,0,59.5,34l-13-13a6.54,6.54,0,0,0-1.14-.9A21.62,21.62,0,0,0,11.53,37.7c0,5.18,1.25,9.16,4.35,12.86"/>
    </symbol>
    <symbol id="fundraising" viewBox="0 0 96 96">
        <path d="M61.64,47.62c6.84-15,27-1.43,0,19.34C34.59,46.19,54.79,32.57,61.64,47.62ZM55.17,17.17a5.5,5.5,0,1,0,5.5,5.5A5.5,5.5,0,0,0,55.17,17.17ZM67.67,39.4v-1c0-2.49-1.1-3.9-2.58-4.5-3-1.24-9.66-1.74-9.66-1.74h-.26s-5.75.5-8.79,1.74a4.47,4.47,0,0,0-2.71,4.5v15a2.47,2.47,0,0,0,2.52,2.5,2.44,2.44,0,0,0,2.48-2.5v-.74m0,0V76.92a3.39,3.39,0,0,0,3.5,3.25h0a3.39,3.39,0,0,0,3.5-3.25V64.67m0-3V76.92a3.39,3.39,0,0,0,3.5,3.25h0a3.39,3.39,0,0,0,3.5-3.25V67.67m5-31.76a4.5,4.5,0,1,0-2.95-3.56m8.95,22.32v2.8a2.43,2.43,0,0,0,2.5,2.47,2.49,2.49,0,0,0,2.5-2.53v-12c0-2.49-1.1-3.9-2.58-4.5a30.56,30.56,0,0,0-5.68-1.57,10.18,10.18,0,0,0-1.83-.16h-.41m.5,23.5v10.8a2.43,2.43,0,0,0,2.5,2.47,2.49,2.49,0,0,0,2.5-2.53V55.67m-10,11V73.4a2.49,2.49,0,0,0,2.5,2.53,2.43,2.43,0,0,0,2.5-2.47V61.67M33.62,32.35a4.5,4.5,0,1,0-4.45,3.82m-.41,3c-.62,0-.23.05-.83.16a30.56,30.56,0,0,0-5.68,1.57c-1.48.6-2.58,2-2.58,4.5v12a2.49,2.49,0,0,0,2.5,2.53,2.43,2.43,0,0,0,2.5-2.47v-8.8m0,7V73.4a2.49,2.49,0,0,0,2.5,2.53,2.43,2.43,0,0,0,2.5-2.47V58.67m0,0v14.8a2.43,2.43,0,0,0,2.5,2.47,2.49,2.49,0,0,0,2.5-2.53V55.67m6.5-38a5,5,0,1,0,5,5A5,5,0,0,0,41.17,17.67Zm7.51,15.53a60.16,60.16,0,0,0-7.25-1h-.26s-5.75.5-8.79,1.74a4.47,4.47,0,0,0-2.71,4.5v15a2.47,2.47,0,0,0,2.52,2.5,2.44,2.44,0,0,0,2.48-2.5V41.67m0,9V74.92a3.39,3.39,0,0,0,3.5,3.25h0a3.39,3.39,0,0,0,3.5-3.25V57.67m0,0V74.92a3.39,3.39,0,0,0,3.5,3.25h0a3.39,3.39,0,0,0,3.5-3.25V52.67m-31.5,14.5h6m51,0h5"/>
    </symbol>
    <symbol id="businesses" viewBox="0 0 96 96">
        <path d="M83.56,29.24V74.08a4.08,4.08,0,0,1-4.08,4.08H15.63a4.08,4.08,0,0,1-4.08-4.08V29.24a4.08,4.08,0,0,1,4.08-4.08H79.48A4.08,4.08,0,0,1,83.56,29.24ZM42.81,71.42h33.5v-8.5M56.68,24.54V17H38.43v8M27.06,70.79c18.12-13.92,4.59-23,0-13C22.47,47.74,8.93,56.87,27.06,70.79ZM76.31,58.1v-.44"/>
    </symbol>
    <symbol id="donation" viewBox="0 0 96 96">
        <path d="M11.91,65.53a2.78,2.78,0,0,1,1.92-3.43l4.62-1.49A2.78,2.78,0,0,1,22,62.28L27.19,78.4a2.78,2.78,0,0,1-1.92,3.43l-4.62,1.49a2.78,2.78,0,0,1-3.56-1.67ZM27.73,80.08A4,4,0,0,1,29.62,80L43.1,86.9a18.44,18.44,0,0,0,7.37,2.32c4,.26,7.37-2.48,7.37-2.48L84.41,68.37a4.37,4.37,0,0,0,1.05-4.78C84.17,60,80.74,62,80.74,62L77,64.06l-.69.4c3.07-1.72,1-3.77,1-3.77C74.49,59.81,68,62.57,68,62.57s-2.09-2.18-3.54-2.48a14.24,14.24,0,0,0-4.32.51s-8.78,5-9.4,5M41,74.55a12.29,12.29,0,0,0,4.6.92l14.69.06s4.82.38,4.82-4.62a5,5,0,0,0-4.75-5.35s-9.82.13-11.79,0-9.86-3.92-11.63-5.11A15.59,15.59,0,0,0,30,58.08c-2.64-.26-6.55,1.56-6.55,1.56l-2.27,1m55.09,3.81L64.94,71.57m3-9L61.91,66m-1-56.34a12.41,12.41,0,0,1,12.41,12.4c0,15-19.9,30.11-23.49,32.73a.87.87,0,0,1-1.09,0C45.15,52.22,25.19,37,25.19,22.06A12.4,12.4,0,0,1,37.6,9.65a12.53,12.53,0,0,1,11.49,7.9.16.16,0,0,0,.29,0,12.52,12.52,0,0,1,11.5-7.92m5.52,20c2.45-5.3,1.82-14.46-5.89-14.4m-16.86,3.6a6.54,6.54,0,0,0-6.15-3.6m26.7,18.11-.3.26"/>
    </symbol>
    <symbol id="team-fundraising" viewBox="0 0 96 96">
        <path d="M64.47,67.61,65.1,83.9a3.5,3.5,0,0,1-3.5,3.66h0c-1.87,0-4.29-1.36-4.38-3.23l-.06-17L57,48.83l-6-4.68-3.09-3.09M64.47,67.61c.87,2.49.14.57,1,3.06l1.11,3.15c.11.31.21.62.33.93a4.28,4.28,0,0,0,1.82,1.84l5.34,3.57a3.57,3.57,0,1,0,3.89-6l-3-1.72a16.88,16.88,0,0,1-2.82-1.7l-3-8.53,0-11,4.25,3.83,3.08,4.46c1.09,1.56,3,2.62,5,1a3.76,3.76,0,0,0,.76-4.66l-4.33-5.75L72.92,45.2c-1.24-1.93-6.57-1.85-7.57-1.85l-4.42.08a4,4,0,0,1-2.23-1.18l-3.93-3.2-4.56-4.27m17.47-6.54a5.5,5.5,0,1,0,.9,7.73A5.5,5.5,0,0,0,67.69,28.25ZM35.1,65.46V84.4c.09,2,1.27,3.52,3.26,3.34s2.76-1.66,2.68-3.52l.13-17.37-.19-18,4-5.29,4.71-5.31a3.21,3.21,0,0,0,0-4.3,3.28,3.28,0,0,0-4.67.2l-4.26,4.68-3.63,3.54c-.64.58-1.55,1.67-2.41,1.75l-5.5.29a26.65,26.65,0,0,0-4.92.29A5.52,5.52,0,0,0,21.26,47L18,51.85l-3,6.21a3.77,3.77,0,0,0,1.17,4.58c1.8,1.42,3.44.21,4.38-1.45l2.16-4.67,2.55-4.25,1.9,10.19c-.22,1.61,0,3.76-.19,5.38a28.3,28.3,0,0,1-1.06,4.42,41.93,41.93,0,0,1-1.62,3.91L22.7,80l-.16.38a3.57,3.57,0,1,0,6.55,2.86,11.31,11.31,0,0,0,.75-1.78l.81-1.92a47.94,47.94,0,0,0,1.69-5.48q.86-3,1.74-6l.75-2.57M26.71,37.18a5.5,5.5,0,1,0,.2-7.78A5.5,5.5,0,0,0,26.71,37.18ZM48.2,9.73l-4.33-.29-.57,6A6,6,0,0,0,48.7,22h0a6,6,0,0,0,6.54-5.4l.57-6m-13.58.21c-2.2-.21-5.05.31-5.26,2.51s4.36,5.88,6.4,5.55m11.5.88c2.21.67,6.78-1.85,7-4.05s-3-3.3-5.19-3.51M52.31,29.44l-9,0M48,29.43l.57-6M52.31,10h-.4"/>
    </symbol>
    <symbol id="in-memory" viewBox="0 0 96 96">
        <path d="M16.89,78.48V37.65a8.07,8.07,0,0,1,8-8H71.79a8.07,8.07,0,0,1,8,8V78.48a8.07,8.07,0,0,1-8,8H24.94A8.07,8.07,0,0,1,16.89,78.48ZM62.51,29.13,53.86,16.44M66.37,79.5H68.9a4,4,0,0,0,4-4.07V40.64a4,4,0,0,0-4-4.07H27.83a4,4,0,0,0-4,4.07V75.43a4,4,0,0,0,4,4.07H66.37ZM35.22,29.21l8.4-12.52m12.95,35.5c0-6.2-3.72-10.7-8.84-10.7s-8.84,4.5-8.84,10.7c0,6.57,4,11.91,8.84,11.91S56.56,58.76,56.56,52.19Zm7,25.59v-5.3a4.24,4.24,0,0,0-3.36-4.15L53,66.82V62.58m-9.51,0v4.95L36.35,69A4.24,4.24,0,0,0,33,73.2l0,4.57m7.05-9.26a4.66,4.66,0,0,0,.89,2.4M43.37,74s.11.07.12.06m4.23.39a7.78,7.78,0,0,0,7.65-6.36M47.91,10.59a0,0,0,0,1-.07,0,3.21,3.21,0,0,0-6.17,1.32c.09,3.92,5.36,7.77,6.3,8.42a.23.23,0,0,0,.28,0c.92-.71,6-4.79,5.9-8.7a3.21,3.21,0,0,0-6.23-1"/>
    </symbol>
    <symbol id="personal-fundraising" viewBox="0 0 96 96">
        <path d="M56.47,40.74c0,4.43,0,4.41,0,8.83V85c0,2.18-2.07,4-4.6,4a4.19,4.19,0,0,1-4.32-4.12V62.94m9.54-29.15c1.81-1.94,3-3.76,4.76-5.69,3.26-3.65,6.9-7.16,10.1-10.8,1.6-1.81,2.57-4.18,1.37-6.48A3.14,3.14,0,0,0,71.17,9.2c-2.37-.6-3.79,1.26-5.26,2.81a101.88,101.88,0,0,0-7.75,9c-1.43,1.9-3,3.52-4.65,5.58H52.06l-.46,0-9.12,0h-.35l-1.56,0c-2.63-3.31-4.91-5.7-7.7-9-1.32-1.56-2.61-3.15-4-4.69C27.75,11.59,26.73,10,25,9.4a4.12,4.12,0,0,0-2.47-.17,3.14,3.14,0,0,0-2.14,1.61A5,5,0,0,0,21,16.4c5.32,5.95,10.55,12.59,16.43,18h0v9.78m0,7.2V55.5l0,13c0,2.18,2.55,4,5.08,4s5-1.64,5-3.83V62.94M40,15a7,7,0,1,0,7-7A7,7,0,0,0,40,15Zm5.5,27.43c4.17.83,9.09-.88,12.4-2.39,9.27-4.25,21.6.39,29.55,6.19l-.06-6.59c-7.95-5.79-20.22-10.47-29.49-6.22-3.3,1.52-8.23,3.23-12.4,2.39ZM23.33,48.61a14.69,14.69,0,0,1,2.88-.25,23.78,23.78,0,0,1,8.37,1.54c2.1.82,3.86,2.21,5.94,3.07,0,0,4.93,2,8.93,1.84l0-6.66c-4,.17-9.09-1.89-9.09-1.89-2.07-.86-3.84-2.25-5.94-3.07a23.78,23.78,0,0,0-8.37-1.54c-7.15-.1-17.72,4.63-17.72,4.63v6.06h0a28.9,28.9,0,0,1,5.6-2m5.32-1H19"/>
    </symbol>
    <symbol id="event-fundraising" viewBox="0 0 96 96">
        <path d="M31.46,16.24c2.09-2.5,5.42-7.59,7.51-10.1h0l3.46,2.49L92,50l-6.37,7.63C82.42,55.58,77.8,55.85,75.39,59a6.93,6.93,0,0,0-1.13,6.09,13.08,13.08,0,0,0,2,3.73L70,76.32s-1.87-1.34-6-4.8M78.7,40.44,60.23,62.52m4.42,10.41L35.88,14.25l-8.79,4.31a13.08,13.08,0,0,1,.35,4.24,6.93,6.93,0,0,1-3.51,5.1c-3.48,1.89-7.81.25-9.87-2.94L5.12,29.34l28.43,58m-.42-.85,2.43,5,8.79-4.31A13.08,13.08,0,0,1,44,82.87a6.93,6.93,0,0,1,3.51-5.1c3.48-1.89,7.81-.25,9.87,2.94l8.93-4.38L63.61,70.8M35.07,33.11,13.12,43.87m22.24,6.24a.06.06,0,0,1-.11,0,5,5,0,0,0-7.91,5.71c2.57,5.49,12.42,7.66,14.16,8a.35.35,0,0,0,.39-.19c.86-1.57,5.49-10.51,2.92-16a5,5,0,0,0-9.46,2.42m3.35-18.79.31-.16"/>
    </symbol>
    <symbol id="charity-insight" viewBox="0 0 96 96">
        <path d="M56.23,81.38,31.75,90.49,7,24.08,56,5.84,60.21,17.1m15.6,57,4.93-1.84-2.21-5.93M54.78,15.19l1.45-8.62m-6,12.61M7.82,24.56l7.9,7.1,24.25-9m52,5.57L50.39,13.65,29.86,72.1,71.39,86.69ZM63.85,35.29a12,12,0,1,0,8.82,14.4A11.94,11.94,0,0,0,63.85,35.29ZM72.26,67l-5.5-9M43.85,20.67l-.36.13"/>
    </symbol>
    <symbol id="training" viewBox="0 0 96 96">
        <path d="M23.39,13.12a8.16,8.16,0,1,1-8.16,8.16A8.16,8.16,0,0,1,23.39,13.12ZM13.22,84.57V63.1M34.15,84.42V45.76H59.87A4.24,4.24,0,0,0,64.1,41.3a4,4,0,0,0-4-4.34l-2.25,0c-1.68,0-3.36-.06-5-.06-2.15,0-4.27,0-6.42,0h-6.2c-1.47,0-3-.06-4.44-.06-2.23,0-4.51-.84-6.71-1.18l-3.24-.49a24.39,24.39,0,0,0-3.14-.42m0,0s-8.7,1-13.27,2.86c-2.23.93-4.07,3.21-4.07,7V67.7a4,4,0,0,0,4,3.85,3.93,3.93,0,0,0,4-3.85V49.34M24.22,74.16V84.51m11.19-13.7,52.87.13a2,2,0,0,0,2-2V20.83a2,2,0,0,0-2-2l-57.14-.06M85.22,36.35l0-10.52c0-.66-.73-1-1.42-1h-22M75.3,58.93c13.43-10.31,3.4-17.07,0-9.6C71.9,41.86,61.87,48.62,75.3,58.93ZM9.54,84.83H86.9M16.16,25V35.29M57.28,24.71h.44"/>
    </symbol>
    <symbol id="api" viewBox="0 0 96 96">
        <path d="M20.92,75.87c-1.61.15-8-3.58-10.84-6.06C1.72,62.44,7.54,48.55,17,44.23c0,0-3.43-11.27,7.45-16.24,0,0,8.65-4.68,16.55,3.51-.22-.23,1.44-2.64,1.58-2.85a19.6,19.6,0,0,1,28.39-4.79A19.16,19.16,0,0,1,78,44.22l.06,0c9.83,4.89,14.78,15.46,7.48,24.93-3.8,4.92-4.33,6.4-10.3,6.53Zm33-8.82,5.81-6.23-5.81-6.23M59,60.73l-19.42.07M40.82,39.6,35,45.83l5.81,6.23m18.76-6.22H35.67m-1,15.11h.44"/>
    </symbol>
    <symbol id="gift-aid" viewBox="0 0 96 96">
        <path d="M29.21,75.34C19,73,12,68.33,12,63c0-3.85,3-7.32,8.82-9.85m8.37,22.24a61.41,61.41,0,0,0,6.47,1.11m0,.18a71.88,71.88,0,0,0,8.41.49c17.72,0,32.08-6.26,32.08-14M70.75,78.66c2.86-1.9,5.23-4.4,5.23-6.77h0l.21-7.67M12,63.76l0,7.93h0c0,7,14.51,12.49,32.2,12.49a72,72,0,0,0,16.65-1.84M20.69,43.25c0,7.72,14.33,14.87,32,14.87s32.08-6,32.08-13.77c0-3.65-3.21-7-8.47-9.47M20.88,45.68l0,7.42h0c0,7,13.24,12,32,12,19.12,0,32.07-5,32.07-12h0l0-8.62m-41-33.34c-17.72,0-32.08,6.26-32.08,14s14.36,14,32.08,14S76,32.85,76,25.12,61.63,11.14,43.91,11.14ZM12.06,26.68l0,7.42h0c0,7,14.34,12.66,32,12.66s32-5.67,32-12.66h0l0-8.62M47.68,18.6c2.76,0,5,1.62,5,3.63,0,4.37-8,8.8-9.45,9.57a.46.46,0,0,1-.44,0c-1.43-.75-9.46-5.2-9.46-9.57,0-2,2.23-3.63,5-3.63a5.27,5.27,0,0,1,4.63,2.31.07.07,0,0,0,.12,0,5.26,5.26,0,0,1,4.63-2.31m17.9,62.23.38-.19"/>
    </symbol>
    <symbol id="crowdfunding" viewBox="0 0 96 96">
        <path d="M25.67,33.77a25.14,25.14,0,0,1,50.27,0,25.14,25.14,0,0,1-50.27,0ZM48.36,54.21q.82.06,1.67.06a21.74,21.74,0,0,0,11.86-3.49M26.73,31.3l6.08-4.77A2.65,2.65,0,0,0,34.4,25l1.86-4.81a2.64,2.64,0,0,1,1.49-1.5l2.46-1a2.61,2.61,0,0,0,1.23-3.88L40,11.77M66.05,15,61.53,17.6a2.09,2.09,0,0,0-.72,3l.63.94a2.16,2.16,0,0,0,2.15.92l3.4-.57a2.14,2.14,0,0,1,2.41,1.49h0a2.12,2.12,0,0,1-2,2.7l-9.75.19a2.12,2.12,0,0,0-2,2.67l1.92,6.87a2.12,2.12,0,0,0,1.27,1.4l7.58,3a2.12,2.12,0,0,1,1.26,1.35l2.45,7.25M45,10.41l1.39,2.53A2.07,2.07,0,0,0,48,14h3.21a2,2,0,0,0,1.84-1.71l.49-2.84M42.42,56.08,41.9,48a4,4,0,0,1,.89-2.87l1.93-2.38a4,4,0,0,0,.61-4.07l-.81-2a4.13,4.13,0,0,0-2.93-2.47l-5.15-1.16a4.19,4.19,0,0,0-4,1.27l-3.86,1.18a6.64,6.64,0,0,0-1.83,4.81m-10,43.74a2.94,2.94,0,0,0,3.77,1.75l4.91-1.58a2.94,2.94,0,0,0,2-3.62L22,63.67a2.94,2.94,0,0,0-3.77-1.75L13.33,63.5a2.94,2.94,0,0,0-2,3.62ZM28,81.68a4,4,0,0,1,1.88-.12L43.36,88.5a18.44,18.44,0,0,0,7.37,2.32c4,.26,7.37-2.48,7.37-2.48L84.66,70a4.37,4.37,0,0,0,1.05-4.78C84.43,61.56,81,63.57,81,63.57l-3.77,2.09-.69.4c3.07-1.72,1-3.77,1-3.77-2.79-.87-9.31,1.88-9.31,1.88a18,18,0,0,0-3.54-2.48c-1.88-.77-4.32.51-4.32.51s-8.78,5-9.4,5m-9.69,8.94a12.29,12.29,0,0,0,4.6.92l14.69.06s4.82.38,4.82-4.62a5,5,0,0,0-4.75-5.35s-9.82.13-11.79,0S39,63.24,37.2,62.05a15.59,15.59,0,0,0-6.93-2.37c-2.64-.26-6.55,1.56-6.55,1.56l-2.27,1m55.09,3.81L65.85,72.76m2.37-8.59-6.06,3.43m2.55-18.81.12-.14"/>
    </symbol>
    <symbol id="direct-donation" viewBox="0 0 96 96">
        <path d="M18.5,70.13a39.26,39.26,0,0,1-6.38-20.49A36.3,36.3,0,1,1,28.8,80.19M36,73a26.43,26.43,0,1,0-9.79-9M14.63,69.71,9.5,74.83m0,0a5,5,0,0,0,5.13,4.88m-.87-10c-2.75,0-4.25,1.9-4.25,4.73M31,53.84A5,5,0,0,0,26.14,59M36,58.71a5,5,0,0,0-5.12-4.87m1.4,26.46c2.75,0,3.48-1.19,3.48-4M14.29,79.7l18.18.61m-14-10.18-4.31-.42M36,58.38l-.25,18.31m-9.6-18V63.5M56.08,42.08c-4.67-6.17-15.25-2.83-10.42,6.42m-3,12c6.58-4.22,4.38-9.08,3-12m-4.75,1.26h9.83M42.67,60.5H56.08M54.22,49.64h.27"/>
    </symbol>
    <symbol id="corporate-contact" viewBox="0 0 96 96">
        <path d="M30.19,8.11a7,7,0,1,1-7,7A7,7,0,0,1,30.19,8.11Zm-8.5,42.78v32.2a4.33,4.33,0,0,0,4.45,4.3H26a4.57,4.57,0,0,0,4.71-4.3V59.89m0,23.2a4.5,4.5,0,0,0,9,.22V51.24c0-2.18,0-4.35.05-6.53,0-2,0-4-.06-5.94,0-.82.8-.65,1.38-.71a11.61,11.61,0,0,0,3.69-.58c2.18-1,3-3.55,3-5.76V11.91a3.44,3.44,0,0,0-3.52-3.3,3.41,3.41,0,0,0-3.48,3.3V27.67h0a64.45,64.45,0,0,0-10.54-1.06H29.8s-7.56.75-11.56,2.39c-1.95.8-3.56,2.75-3.56,6V54.86a3.44,3.44,0,0,0,3.52,3.3,3.41,3.41,0,0,0,3.48-3.3V39.11m44.5-31a7,7,0,1,0,7,7A7,7,0,0,0,66.19,8.11Zm-.5,51.75v23.2a4.57,4.57,0,0,0,4.71,4.3h-.16a4.33,4.33,0,0,0,4.45-4.3V50.86m0-11.75V54.86a3.41,3.41,0,0,0,3.48,3.3,3.44,3.44,0,0,0,3.52-3.3V35c0-3.29-1.61-5.24-3.56-6-4-1.63-11.56-2.39-11.56-2.39h-.35a64.45,64.45,0,0,0-10.54,1.06h0V11.91a3.41,3.41,0,0,0-3.48-3.3,3.44,3.44,0,0,0-3.52,3.3V31.74c0,2.21.77,4.8,3,5.76a11.61,11.61,0,0,0,3.69.58c.58.05,1.4-.12,1.38.71,0,2-.07,4-.06,5.94,0,2.18,0,4.35.05,6.53V83.31a4.5,4.5,0,0,0,9-.25m0-48.16V48.31m0-17.24v.18"/>
    </symbol>
</svg>